<svg xmlns="http://www.w3.org/2000/svg" xmlns:xlink="http://www.w3.org/1999/xlink" viewBox="0 0 471.685 124.29">
  <defs>
    <style>
      .cls-1 {
        fill: #484848;
      }

      .cls-2 {
        fill: rgba(1,1,1,0.82);
      }

      .cls-2, .cls-6 {
        opacity: 0.42;
      }

      .cls-3 {
        fill: rgba(255,255,255,0.82);
        font-size: 22px;
        opacity: 0.75;
      }

      .cls-3, .cls-4 {
        font-family: SegoeUI, Segoe UI;
      }

      .cls-4 {
        fill: rgba(222,222,222,0.8);
        font-size: 15px;
        opacity: 0.504;
      }

      .cls-5 {
        fill: rgba(222,222,222,0.31);
      }

      .cls-7 {
        opacity: 0.91;
      }

      .cls-8 {
        clip-path: url(#clip-path);
      }

      .cls-9 {
        fill: #fff;
        opacity: 0.6;
      }

      .cls-10 {
        fill: none;
        stroke: rgba(222,222,222,0.31);
        stroke-width: 1.5px;
        opacity: 0.24;
      }
    </style>
    <clipPath id="clip-path">
      <ellipse id="Mask" class="cls-1" cx="17.973" cy="17.973" rx="17.973" ry="17.973"/>
    </clipPath>
  </defs>
  <g id="Group_1959" data-name="Group 1959" transform="translate(-102.003 -450)">
    <g id="Group_1955" data-name="Group 1955">
      <g id="Group_1956" data-name="Group 1956">
        <g id="Group_1958" data-name="Group 1958">
          <rect id="Rectangle_141" data-name="Rectangle 141" class="cls-2" width="470" height="124" transform="translate(102.003 450)"/>
        </g>
      </g>
    </g>
    <text id="Block_Explorer" data-name="Block Explorer" class="cls-3" transform="translate(121.947 492.243)"><tspan x="0" y="0">Block Explorer</tspan></text>
    <text id="Enter_address" data-name="Enter address" class="cls-4" transform="translate(193 541)"><tspan x="0" y="0">Enter address</tspan></text>
    <path id="search" class="cls-5" d="M14.345,15.587h0l-4.506-4.5a6.1,6.1,0,0,1-3.682,1.23,6.173,6.173,0,1,1,5.2-2.862c-.074.118-.16.241-.269.387l4.5,4.506-1.242,1.242ZM6.156.88a5.232,5.232,0,0,0-4.19,2.083,5.253,5.253,0,0,0,.446,6.906l0,0a.073.073,0,0,0,.012.012.023.023,0,0,0,.007.007l0,0A5.272,5.272,0,0,0,10.6,3.325a5.315,5.315,0,0,0-2.149-1.91A5.216,5.216,0,0,0,6.156.88Z" transform="translate(530.729 529.656)"/>
    <g id="Group_1753" data-name="Group 1753" transform="translate(12)">
      <g id="Group_662" data-name="Group 662" class="cls-6" transform="translate(-380 224.053)">
        <g id="BCC" class="cls-7" transform="translate(489.74 294.54)">
          <g id="Shape">
            <ellipse id="Mask-2" data-name="Mask" class="cls-1" cx="17.973" cy="17.973" rx="17.973" ry="17.973"/>
          </g>
        </g>
        <path id="Shape-3" data-name="Shape" class="cls-9" d="M8.569,22.432a.606.606,0,0,1-.2-.056c-.262-.058-.553-.135-.787-.2s-.525-.138-.787-.2c-.082-.027-.125-.055-.14-.09a.171.171,0,0,1,.028-.134l.005-.021c.22-.932.447-1.9.725-2.788a.484.484,0,0,1,.007-.075v-.007c.01-.061.017-.1-.064-.143-.412-.1-.878-.22-1.4-.337-.057.257-.131.523-.2.758s-.14.5-.2.759-.131.523-.2.758-.14.5-.2.759l-.018.037c-.028.061-.045.1-.1.1a.341.341,0,0,1-.1-.022c-.561-.168-1.126-.281-1.673-.391l-.012,0c-.082-.027-.125-.055-.14-.09a.171.171,0,0,1,.028-.134l.005-.021c.219-.931.446-1.894.725-2.788a.2.2,0,0,1,.02-.073.37.37,0,0,0,.036-.152l-.092-.024c-1.093-.285-2.453-.64-3.84-.987.051-.1.091-.193.129-.282l.011-.024c.04-.1.085-.2.142-.311.209-.47.446-1,.618-1.46.056-.168.113-.168.281-.168a9.612,9.612,0,0,0,1.236.281.926.926,0,0,0,.224.029.591.591,0,0,0,.618-.534v0c.716-2.808,1.456-5.711,2.134-8.646a.97.97,0,0,0-.674-1.123c-.4-.133-.789-.229-1.167-.321L3.526,4.3l-.008,0-.261-.064a.136.136,0,0,1-.123-.048.123.123,0,0,1,.011-.121c.084-.307.169-.632.255-.965l.022-.085c.062-.236.125-.479.188-.713.268.07.538.131.8.191.33.075.628.143.926.224s.611.153.909.221l.018,0c.287.065.613.139.927.224a.348.348,0,0,0,.107.021c.093,0,.134-.07.174-.19.1-.437.207-.868.308-1.285L7.806,1.6v0l.009-.039c.107-.443.219-.9.328-1.365.04-.12.081-.19.174-.19a.348.348,0,0,1,.107.021C8.979.187,9.477.3,10.054.414c.082.028.125.056.14.091a.171.171,0,0,1-.028.134c-.106.422-.212.861-.315,1.286l-.02.084-.057.234v0c-.092.379-.188.772-.281,1.145a.427.427,0,0,1-.056.225c.215.054.446.108.67.161l.029.007.052.012c.219.052.444.1.653.157.037,0,.075-.05.111-.1l.009-.012a.614.614,0,0,1,.049-.058c.149-.644.32-1.349.562-2.134l.061-.243.1-.4.007-.026c0-.087.032-.135.09-.135a.181.181,0,0,1,.078.022c.323.1.639.174.973.255l.007,0c.245.06.5.121.761.193a.072.072,0,0,1,.056.028.073.073,0,0,0,.056.028c-.175.757-.35,1.458-.505,2.077a4.7,4.7,0,0,1-.225.844.2.2,0,0,0,0,.182.3.3,0,0,0,.168.1l.927.421.927.421a4.75,4.75,0,0,1,1.46,1.348A3.369,3.369,0,0,1,16.85,9.4a3.517,3.517,0,0,1-.842,1.629,3.4,3.4,0,0,1-1.236.73.2.2,0,0,0-.073.02.37.37,0,0,1-.152.036c.116.087.238.163.337.224l0,0c.109.068.222.139.333.222a3.547,3.547,0,0,1,1.348,1.91,4.374,4.374,0,0,1-.112,1.909,5.475,5.475,0,0,1-1.011,2.079,3.492,3.492,0,0,1-2.3,1.235,8.5,8.5,0,0,1-1.215.083,14.97,14.97,0,0,1-2.211-.2.366.366,0,0,0-.116-.021c-.1,0-.179.064-.221.19-.105.42-.212.86-.315,1.286l-.021.086v0l-.05.205c-.094.387-.191.787-.287,1.171l-.007.028C8.666,22.366,8.65,22.432,8.569,22.432ZM7.484,11.907c-.065,0-.081.049-.112.147l-.006.019-.008.025c-.056.278-.126.546-.195.805l0,.006,0,.006c-.069.262-.14.532-.2.812-.13.455-.243.915-.351,1.36-.083.34-.17.692-.266,1.055a.2.2,0,0,1,.112.056l.431.11a12.6,12.6,0,0,0,2.377.452c.257.021.466.031.657.031a3.563,3.563,0,0,0,1.253-.2A1.688,1.688,0,0,0,12.252,15.5a1.74,1.74,0,0,0-.176-1.548A3.441,3.441,0,0,0,10.9,12.942l0,0a10.954,10.954,0,0,0-3.206-.99h0l-.1-.021A.332.332,0,0,0,7.484,11.907ZM8.936,6.066c-.093,0-.134.069-.174.189-.336,1.412-.6,2.453-.9,3.482a.145.145,0,0,0-.017.112c.013.04.052.074.129.113.112.028.212.057.309.084s.2.056.309.084c.231.031.457.066.675.1a11.057,11.057,0,0,0,1.8.18,3.671,3.671,0,0,0,.618-.112A1.628,1.628,0,0,0,12.83,9.36a1.6,1.6,0,0,0-.08-1.476,2.634,2.634,0,0,0-1.292-1.067,12.845,12.845,0,0,0-1.922-.6c-.161-.041-.327-.084-.494-.128A.346.346,0,0,0,8.936,6.066Z" transform="translate(494.762 307.174) rotate(-30)"/>
      </g>
    </g>
    <line id="Line_294" data-name="Line 294" class="cls-10" x2="371" transform="translate(182.5 554.5)"/>
  </g>
</svg>
