<svg xmlns="http://www.w3.org/2000/svg" xmlns:xlink="http://www.w3.org/1999/xlink" viewBox="0 0 401.685 316.29">
  <defs>
    <style>
      .cls-1 {
        fill: rgba(1,1,1,0.82);
      }

      .cls-1, .cls-5, .cls-7 {
        opacity: 0.42;
      }

      .cls-2 {
        fill: rgba(255,255,255,0.82);
        font-size: 22px;
      }

      .cls-2, .cls-5, .cls-6, .cls-7 {
        font-family: SegoeUI, Segoe UI;
      }

      .cls-2, .cls-3 {
        opacity: 0.75;
      }

      .cls-14, .cls-3 {
        fill: none;
      }

      .cls-3 {
        stroke: rgba(255,255,255,0.66);
      }

      .cls-4 {
        fill: rgba(186,186,186,0.23);
        opacity: 0.39;
      }

      .cls-5, .cls-7 {
        fill: rgba(255,255,255,0.66);
      }

      .cls-5, .cls-6 {
        font-size: 12px;
      }

      .cls-6 {
        fill: rgba(255,255,255,0.61);
      }

      .cls-7 {
        font-size: 10px;
      }

      .cls-8 {
        opacity: 0.207;
        fill: url(#linear-gradient);
      }

      .cls-12, .cls-9 {
        fill: #fff;
      }

      .cls-9 {
        stroke: #55d8fe;
        stroke-width: 0.8px;
      }

      .cls-10 {
        opacity: 0.7;
        fill: url(#linear-gradient-2);
      }

      .cls-11 {
        fill: #eaf0f4;
        opacity: 0.105;
      }

      .cls-12 {
        stroke: #a4a1fb;
        stroke-width: 2px;
      }

      .cls-13 {
        stroke: none;
      }
    </style>
    <linearGradient id="linear-gradient" x1="0.5" x2="0.5" y2="1" gradientUnits="objectBoundingBox">
      <stop offset="0" stop-color="#fff"/>
      <stop offset="1" stop-color="#b2b2b2" stop-opacity="0"/>
    </linearGradient>
    <linearGradient id="linear-gradient-2" x1="0.5" x2="0.5" y2="1" gradientUnits="objectBoundingBox">
      <stop offset="0" stop-color="#fff" stop-opacity="0.553"/>
      <stop offset="0.704" stop-color="#fff" stop-opacity="0.204"/>
      <stop offset="1" stop-color="#fff" stop-opacity="0"/>
    </linearGradient>
  </defs>
  <g id="Group_1962" data-name="Group 1962" transform="translate(-594.003 -374)">
    <g id="Group_1961" data-name="Group 1961">
      <rect id="Rectangle_139" data-name="Rectangle 139" class="cls-1" width="401" height="316" transform="translate(594.003 374)"/>
      <text id="Bitcoin_Chart" data-name="Bitcoin Chart" class="cls-2" transform="translate(613.947 416.243)"><tspan x="0" y="0">Bitcoin Chart</tspan></text>
      <path id="Path_5207" data-name="Path 5207" class="cls-3" d="M0,0,5.477,4.194,10.954,0" transform="translate(757.11 414.974) rotate(-90)"/>
      <rect id="Rectangle_65" data-name="Rectangle 65" class="cls-4" width="32.976" height="22.424" rx="11.212" transform="translate(859.775 398.219)"/>
      <text id="_1m" data-name="1m" class="cls-5" transform="translate(832.952 412.867)"><tspan x="0" y="0">1m</tspan></text>
      <text id="_3m" data-name="3m" class="cls-6" transform="translate(867.663 412.867)"><tspan x="0" y="0">3m</tspan></text>
      <text id="_6m" data-name="6m" class="cls-5" transform="translate(900.374 412.867)"><tspan x="0" y="0">6m</tspan></text>
      <text id="_1y" data-name="1y" class="cls-5" transform="translate(934.085 412.867)"><tspan x="0" y="0">1y</tspan></text>
      <text id="All" class="cls-5" transform="translate(963.232 412.867)"><tspan x="0" y="0">All</tspan></text>
      <text id="_20k" data-name="20k" class="cls-7" transform="translate(613.824 458.331)"><tspan x="0" y="0">20k</tspan></text>
      <text id="_15k" data-name="15k" class="cls-7" transform="translate(613.824 506.398)"><tspan x="0" y="0">15k</tspan></text>
      <text id="_10k" data-name="10k" class="cls-7" transform="translate(613.824 554.464)"><tspan x="0" y="0">10k</tspan></text>
      <text id="_5k" data-name="5k" class="cls-7" transform="translate(619.237 602.531)"><tspan x="0" y="0">5k</tspan></text>
      <text id="_0k" data-name="0k" class="cls-7" transform="translate(619.237 646.597)"><tspan x="0" y="0">0k</tspan></text>
      <text id="_23_oct" data-name="23 oct" class="cls-7" transform="translate(651.388 668.462)"><tspan x="0" y="0">23 oct</tspan></text>
      <text id="_23_oct-2" data-name="23 oct" class="cls-7" transform="translate(722.846 668.462)"><tspan x="0" y="0">23 oct</tspan></text>
      <text id="_23_oct-3" data-name="23 oct" class="cls-7" transform="translate(795.387 668.462)"><tspan x="0" y="0">23 oct</tspan></text>
      <text id="_23_oct-4" data-name="23 oct" class="cls-7" transform="translate(866.846 668.462)"><tspan x="0" y="0">23 oct</tspan></text>
      <text id="_23_oct-5" data-name="23 oct" class="cls-7" transform="translate(938.304 668.462)"><tspan x="0" y="0">23 oct</tspan></text>
    </g>
    <g id="Group_1524" data-name="Group 1524" transform="translate(1327 969)">
      <path id="Filled.Graph" class="cls-8" d="M330,447.674V378.779s38.652,45.189,69.535,48.027c33.394-2.751,39.177-22.09,65.188-48.027,22.228-21.619,44.4-27.552,65.672-26.025s39.718,24.882,64.85,27.275c44.337-9.642,66.958-58.392,69.953-78.752V473.3l-335.2.076Z" transform="translate(-1016.518 -798.824)"/>
      <g id="May.Ellipse" class="cls-9" transform="translate(-422.098 -437.312)">
        <circle class="cls-13" cx="0.809" cy="0.809" r="0.809"/>
        <circle class="cls-14" cx="0.809" cy="0.809" r="0.409"/>
      </g>
      <path id="Filled.Graph-2" data-name="Filled.Graph" class="cls-10" d="M330,459.626v-105.2s37.725,104.6,68.714,108.531c34.577-.887,34.86-54.3,65.244-83.54,25.436-22.959,44.846,39.669,66.122,41.2s35.96-42.923,64.988-46.011c37.609,4.651,67.787,64.038,70.129,67.231v43.418l-335.2.076Z" transform="translate(-1016.517 -810.777)"/>
      <rect id="X-Axis.1" class="cls-11" width="335.199" height="0.775" transform="translate(-686.519 -323.366)"/>
      <rect id="X-Axis.2" class="cls-11" width="334.401" height="0.775" transform="translate(-686.12 -370.646)"/>
      <rect id="X-Axis.3" class="cls-11" width="334.401" height="0.775" transform="translate(-686.12 -417.927)"/>
      <rect id="X-Axis.4" class="cls-11" width="334.401" height="0.775" transform="translate(-686.12 -465.208)"/>
      <rect id="X-Axis.5" class="cls-11" width="334.401" height="0.775" transform="translate(-686.12 -512.489)"/>
      <rect id="Y-Axis.1" class="cls-11" width="0.308" height="203.85" transform="translate(-686.519 -527.216)"/>
      <rect id="Y-Axis.2" class="cls-11" width="0.308" height="203.85" transform="translate(-617.634 -527.216)"/>
      <rect id="Y-Axis.3" class="cls-11" width="0.308" height="203.85" transform="translate(-552.439 -527.216)"/>
      <rect id="Y-Axis.4" class="cls-11" width="0.308" height="203.85" transform="translate(-486.63 -527.216)"/>
      <rect id="Y-Axis.5" class="cls-11" width="0.308" height="203.85" transform="translate(-421.742 -527.216)"/>
      <rect id="Y-Axis.6" class="cls-11" width="0.308" height="203.85" transform="translate(-351.628 -527.216)"/>
      <g id="Jun.Ellipse" class="cls-9" transform="translate(-351.93 -369.622)">
        <circle class="cls-13" cx="0.809" cy="0.809" r="0.809"/>
        <circle class="cls-14" cx="0.809" cy="0.809" r="0.409"/>
      </g>
      <g id="Apr.Ellipse" class="cls-9" transform="translate(-487.034 -390.55)">
        <circle class="cls-13" cx="0.809" cy="0.809" r="0.809"/>
        <circle class="cls-14" cx="0.809" cy="0.809" r="0.409"/>
      </g>
      <g id="Mar.Ellipse" class="cls-9" transform="translate(-552.585 -432.405)">
        <circle class="cls-13" cx="0.809" cy="0.809" r="0.809"/>
        <circle class="cls-14" cx="0.809" cy="0.809" r="0.409"/>
      </g>
      <g id="Feb.Ellipse" class="cls-9" transform="translate(-618.136 -348.951)">
        <circle class="cls-13" cx="0.809" cy="0.809" r="0.809"/>
        <circle class="cls-14" cx="0.809" cy="0.809" r="0.409"/>
      </g>
      <g id="Jan.Ellipse" class="cls-9" transform="translate(-687.073 -456.689)">
        <circle class="cls-13" cx="0.809" cy="0.809" r="0.809"/>
        <circle class="cls-14" cx="0.809" cy="0.809" r="0.409"/>
      </g>
      <g id="Jun.Ellipse-2" data-name="Jun.Ellipse" class="cls-12" transform="translate(-352.097 -498.544)">
        <circle class="cls-13" cx="0.809" cy="0.809" r="0.809"/>
        <circle class="cls-14" cx="0.809" cy="0.809" r="0.191"/>
      </g>
      <g id="May.Ellipse-2" data-name="May.Ellipse" class="cls-12" transform="translate(-422.23 -419.228)">
        <circle class="cls-13" cx="0.809" cy="0.809" r="0.809"/>
        <circle class="cls-14" cx="0.809" cy="0.809" r="0.191"/>
      </g>
      <g id="Apr.Ellipse-2" data-name="Apr.Ellipse" class="cls-12" transform="translate(-487.133 -446.613)">
        <circle class="cls-13" cx="0.809" cy="0.809" r="0.809"/>
        <circle class="cls-14" cx="0.809" cy="0.809" r="0.191"/>
      </g>
      <g id="Mar.Ellipse-2" data-name="Mar.Ellipse" class="cls-12" transform="translate(-552.652 -420.259)">
        <circle class="cls-13" cx="0.809" cy="0.809" r="0.809"/>
        <circle class="cls-14" cx="0.809" cy="0.809" r="0.191"/>
      </g>
      <g id="Feb.Ellipse-2" data-name="Feb.Ellipse" class="cls-12" transform="translate(-617.863 -372.979)">
        <circle class="cls-13" cx="0.809" cy="0.809" r="0.809"/>
        <circle class="cls-14" cx="0.809" cy="0.809" r="0.191"/>
      </g>
      <g id="Jan.Ellipse-2" data-name="Jan.Ellipse" class="cls-12" transform="translate(-687.073 -421.035)">
        <circle class="cls-13" cx="0.809" cy="0.809" r="0.809"/>
        <circle class="cls-14" cx="0.809" cy="0.809" r="0.191"/>
      </g>
    </g>
  </g>
</svg>
