<svg width="42" height="42" viewBox="0 0 42 42" fill="none" xmlns="http://www.w3.org/2000/svg">
<path fill-rule="evenodd" clip-rule="evenodd" d="M21 42C32.598 42 42 32.598 42 21C42 9.40202 32.598 0 21 0C9.40202 0 0 9.40202 0 21C0 32.598 9.40202 42 21 42ZM35.7552 24.3716C35.6567 24.2731 35.5437 24.2239 35.4163 24.2239C35.3468 24.2239 35.2801 24.2413 35.2164 24.276C35.1527 24.305 35.0919 24.3455 35.0339 24.3977C34.8428 24.5715 34.6487 24.7192 34.4517 24.8409C34.2605 24.9567 34.0549 25.0523 33.8348 25.1276C33.6204 25.2029 33.3829 25.258 33.1222 25.2927C32.8673 25.3275 32.5806 25.3449 32.2619 25.3449C31.729 25.3449 31.2308 25.2464 30.7673 25.0494C30.3039 24.8466 29.9012 24.557 29.5594 24.1804C29.2177 23.8039 28.9454 23.3404 28.7426 22.7901C28.5457 22.2398 28.4472 21.6112 28.4472 20.9044C28.4472 20.2035 28.5399 19.5807 28.7252 19.0362C28.9106 18.4858 29.1713 18.0224 29.5073 17.6458C29.8433 17.2635 30.243 16.9738 30.7065 16.7769C31.1757 16.5741 31.6913 16.4727 32.2532 16.4727C32.5834 16.4727 32.8731 16.4988 33.1222 16.5509C33.3771 16.5973 33.6001 16.6581 33.7913 16.7334C33.9825 16.8029 34.1505 16.8811 34.2953 16.968C34.4401 17.0549 34.5676 17.136 34.6777 17.2113C34.7877 17.2809 34.8891 17.3417 34.9818 17.3938C35.0745 17.4402 35.1643 17.4633 35.2512 17.4633C35.3786 17.4633 35.4771 17.4373 35.5466 17.3851C35.6219 17.333 35.6828 17.2722 35.7291 17.2027L36.3603 16.326C36.447 16.2055 36.4333 16.039 36.3221 15.9407C35.8621 15.5341 35.3198 15.1988 34.695 14.9346C33.9883 14.6334 33.1772 14.4828 32.2619 14.4828C31.3408 14.4828 30.5008 14.6421 29.7419 14.9607C28.983 15.2735 28.3284 15.7138 27.7781 16.2815C27.2335 16.8493 26.8106 17.5271 26.5094 18.3149C26.2081 19.097 26.0575 19.9602 26.0575 20.9044C26.0575 21.8371 26.1966 22.6974 26.4746 23.4853C26.7585 24.2731 27.164 24.9509 27.6912 25.5187C28.2183 26.0864 28.8527 26.5295 29.5942 26.8482C30.3415 27.1668 31.1815 27.3261 32.1142 27.3261C33.157 27.3261 34.0491 27.1581 34.7906 26.8221C35.4581 26.522 36.0308 26.1041 36.5088 25.5683C36.6078 25.4573 36.6016 25.2899 36.5008 25.1806L35.7552 24.3716ZM8.43931 16.4814C8.27362 16.4814 8.13931 16.6157 8.13931 16.7814V19.666C8.13931 19.8316 8.27362 19.966 8.43931 19.966H12.2363C12.402 19.966 12.5363 20.1003 12.5363 20.266V21.4647C12.5363 21.6304 12.402 21.7647 12.2363 21.7647H8.43931C8.27362 21.7647 8.13931 21.899 8.13931 22.0647V25.0188C8.13931 25.1845 8.27362 25.3188 8.43931 25.3188H13.4181C13.5838 25.3188 13.7181 25.4531 13.7181 25.6188V26.8871C13.7181 27.0527 13.5838 27.1871 13.4181 27.1871H6.0931C5.92742 27.1871 5.7931 27.0527 5.7931 26.8871V14.9218C5.7931 14.7561 5.92742 14.6218 6.0931 14.6218H13.4181C13.5838 14.6218 13.7181 14.7561 13.7181 14.9218V16.1814C13.7181 16.3471 13.5838 16.4814 13.4181 16.4814H8.43931ZM19.587 20.6003C20.0273 20.6003 20.4096 20.5453 20.734 20.4352C21.0642 20.3251 21.3336 20.1745 21.5422 19.9833C21.7565 19.7864 21.9158 19.5546 22.0201 19.2882C22.1244 19.0217 22.1765 18.7291 22.1765 18.4105C22.1765 17.7733 21.965 17.2838 21.5422 16.942C21.125 16.6002 20.4849 16.4293 19.6217 16.4293H18.4271C18.2614 16.4293 18.1271 16.5636 18.1271 16.7293V20.3003C18.1271 20.466 18.2614 20.6003 18.4271 20.6003H19.587ZM25.2827 26.7187C25.4178 26.9179 25.2751 27.1871 25.0344 27.1871H23.4886C23.0889 27.1871 22.7993 27.0306 22.6197 26.7178L19.978 22.6945C19.8795 22.5439 19.7695 22.4367 19.6478 22.373C19.5319 22.3093 19.3582 22.2774 19.1264 22.2774H18.4271C18.2614 22.2774 18.1271 22.4117 18.1271 22.5774V26.8871C18.1271 27.0527 17.9928 27.1871 17.8271 27.1871H16.0896C15.9239 27.1871 15.7896 27.0527 15.7896 26.8871V14.9218C15.7896 14.7561 15.9239 14.6218 16.0896 14.6218H19.6217C20.4733 14.6218 21.2033 14.7116 21.8115 14.8912C22.4256 15.065 22.9267 15.3112 23.3148 15.6298C23.7088 15.9484 23.9984 16.3308 24.1838 16.7769C24.3692 17.2171 24.4619 17.7038 24.4619 18.2367C24.4619 18.6596 24.3982 19.0593 24.2707 19.4359C24.149 19.8124 23.9695 20.1542 23.7319 20.4613C23.5002 20.7683 23.2106 21.0377 22.863 21.2694C22.6541 21.411 22.4268 21.5343 22.1811 21.6391C21.9989 21.7169 21.9637 21.9929 22.107 22.1297C22.2344 22.2455 22.3503 22.3846 22.4546 22.5468L25.2827 26.7187Z" fill="url(#paint0_linear)"/>
<defs>
<linearGradient id="paint0_linear" x1="3.024" y1="15.078" x2="45.276" y2="53.55" gradientUnits="userSpaceOnUse">
<stop stop-color="white"/>
<stop offset="0.326" stop-color="#888888"/>
<stop offset="0.552" stop-color="#636363"/>
<stop offset="1" stop-color="#161616"/>
</linearGradient>
</defs>
</svg>
