<svg xmlns="http://www.w3.org/2000/svg" viewBox="0 0 312 637">
  <defs>
    <style>
      .cls-1 {
        fill: rgba(1,1,1,0.82);
      }

      .cls-1, .cls-4, .cls-5 {
        opacity: 0.42;
      }

      .cls-2 {
        fill: rgba(1,1,1,0.66);
      }

      .cls-10, .cls-15, .cls-16, .cls-2 {
        opacity: 0.6;
      }

      .cls-3 {
        fill: rgba(222,222,222,0.31);
        opacity: 0.57;
      }

      .cls-4 {
        fill: rgba(255,255,255,0.66);
      }

      .cls-13, .cls-4 {
        font-size: 14px;
      }

      .cls-13, .cls-4, .cls-8, .cls-9 {
        font-family: SegoeUI, Segoe UI;
      }

      .cls-12, .cls-15, .cls-5, .cls-7 {
        fill: none;
      }

      .cls-5 {
        stroke: #707070;
      }

      .cls-6 {
        fill: #bababa;
      }

      .cls-11, .cls-17, .cls-6 {
        opacity: 0.75;
      }

      .cls-7 {
        stroke: #000;
      }

      .cls-12, .cls-15, .cls-7 {
        stroke-width: 0.7px;
      }

      .cls-13, .cls-8, .cls-9 {
        fill: #fff;
      }

      .cls-8 {
        font-size: 18px;
      }

      .cls-8, .cls-9 {
        opacity: 0.65;
      }

      .cls-9 {
        font-size: 16px;
      }

      .cls-10 {
        fill: rgba(44,75,51,0.66);
      }

      .cls-11, .cls-14 {
        fill: #0b1c07;
      }

      .cls-12, .cls-15 {
        stroke: #bababa;
      }

      .cls-13 {
        opacity: 0.56;
      }

      .cls-16 {
        fill: rgba(70,34,34,0.66);
      }

      .cls-17, .cls-18 {
        fill: #1a0b0b;
      }
    </style>
  </defs>
  <g id="Group_2090" data-name="Group 2090" transform="translate(-1036.115 -109.362)">
    <path id="Path_5678" data-name="Path 5678" class="cls-1" d="M0,0H302.885V116.053H0Z" transform="translate(1036.115 120)"/>
    <ellipse id="Ellipse_2921" data-name="Ellipse 2921" class="cls-2" cx="13.213" cy="12.572" rx="13.213" ry="12.572" transform="translate(1321.721 109.362)"/>
    <circle id="Ellipse_2922" data-name="Ellipse 2922" class="cls-3" cx="4.5" cy="4.5" r="4.5" transform="translate(1225 171)"/>
    <text id="Status" class="cls-4" transform="translate(1280.947 151.243)"><tspan x="0" y="0">Status</tspan></text>
    <text id="_20:45" data-name="20:45" class="cls-4" transform="translate(1055.947 151.243)"><tspan x="0" y="0">20:45</tspan></text>
    <text id="_0.0021400_BTC" data-name="0.0021400 BTC" class="cls-4" transform="translate(1055.947 213.243)"><tspan x="0" y="0">0.0021400 BTC</tspan></text>
    <text id="_1.2450000_LTC" data-name="1.2450000 LTC" class="cls-4" transform="translate(1224.947 213.243)"><tspan x="0" y="0">1.2450000 LTC</tspan></text>
    <line id="Line_391" data-name="Line 391" class="cls-5" x2="16" transform="translate(1182.5 208.5)"/>
    <circle id="Ellipse_2923" data-name="Ellipse 2923" class="cls-6" cx="11" cy="11" r="11" transform="translate(1324 111)"/>
    <line id="Line_392" data-name="Line 392" class="cls-7" x1="10.453" y2="10.453" transform="translate(1330.273 117.273)"/>
    <line id="Line_393" data-name="Line 393" class="cls-7" x2="10.453" y2="10.453" transform="translate(1330.273 117.273)"/>
    <text id="Order" class="cls-8" transform="translate(1055.947 182.243)"><tspan x="0" y="0">Order</tspan></text>
    <text id="Finished" class="cls-9" transform="translate(1260.947 182.243)"><tspan x="0" y="0">Finished</tspan></text>
    <text id="_53" data-name="#53" class="cls-9" transform="translate(1124.947 182.243)"><tspan x="0" y="0">#53</tspan></text>
    <rect id="Rectangle_1740" data-name="Rectangle 1740" class="cls-1" width="302.885" height="116.053" transform="translate(1036.115 252)"/>
    <ellipse id="Ellipse_2924" data-name="Ellipse 2924" class="cls-2" cx="13.213" cy="12.572" rx="13.213" ry="12.572" transform="translate(1321.721 241.362)"/>
    <circle id="Ellipse_2925" data-name="Ellipse 2925" class="cls-3" cx="4.5" cy="4.5" r="4.5" transform="translate(1225 303)"/>
    <text id="Status-2" data-name="Status" class="cls-4" transform="translate(1280.947 283.243)"><tspan x="0" y="0">Status</tspan></text>
    <text id="_20:45-2" data-name="20:45" class="cls-4" transform="translate(1055.947 283.243)"><tspan x="0" y="0">20:45</tspan></text>
    <text id="_0.0021400_BTC-2" data-name="0.0021400 BTC" class="cls-4" transform="translate(1055.947 345.243)"><tspan x="0" y="0">0.0021400 BTC</tspan></text>
    <text id="_1.2450000_LTC-2" data-name="1.2450000 LTC" class="cls-4" transform="translate(1224.947 345.243)"><tspan x="0" y="0">1.2450000 LTC</tspan></text>
    <line id="Line_394" data-name="Line 394" class="cls-5" x2="16" transform="translate(1182.5 340.5)"/>
    <circle id="Ellipse_2926" data-name="Ellipse 2926" class="cls-6" cx="11" cy="11" r="11" transform="translate(1324 243)"/>
    <line id="Line_395" data-name="Line 395" class="cls-7" x1="10.453" y2="10.453" transform="translate(1330.273 249.273)"/>
    <line id="Line_396" data-name="Line 396" class="cls-7" x2="10.453" y2="10.453" transform="translate(1330.273 249.273)"/>
    <text id="Order-2" data-name="Order" class="cls-8" transform="translate(1055.947 314.243)"><tspan x="0" y="0">Order</tspan></text>
    <text id="Finished-2" data-name="Finished" class="cls-9" transform="translate(1260.947 314.243)"><tspan x="0" y="0">Finished</tspan></text>
    <text id="_53-2" data-name="#53" class="cls-9" transform="translate(1124.947 314.243)"><tspan x="0" y="0">#53</tspan></text>
    <rect id="Rectangle_1741" data-name="Rectangle 1741" class="cls-1" width="302.885" height="116.053" transform="translate(1036.115 630)"/>
    <ellipse id="Ellipse_2927" data-name="Ellipse 2927" class="cls-2" cx="13.213" cy="12.572" rx="13.213" ry="12.572" transform="translate(1321.721 619.362)"/>
    <circle id="Ellipse_2928" data-name="Ellipse 2928" class="cls-3" cx="4.5" cy="4.5" r="4.5" transform="translate(1225 681)"/>
    <text id="Status-3" data-name="Status" class="cls-4" transform="translate(1280.947 661.243)"><tspan x="0" y="0">Status</tspan></text>
    <text id="_20:45-3" data-name="20:45" class="cls-4" transform="translate(1055.947 661.243)"><tspan x="0" y="0">20:45</tspan></text>
    <text id="_0.0021400_BTC-3" data-name="0.0021400 BTC" class="cls-4" transform="translate(1055.947 723.243)"><tspan x="0" y="0">0.0021400 BTC</tspan></text>
    <text id="_1.2450000_LTC-3" data-name="1.2450000 LTC" class="cls-4" transform="translate(1224.947 723.243)"><tspan x="0" y="0">1.2450000 LTC</tspan></text>
    <line id="Line_397" data-name="Line 397" class="cls-5" x2="16" transform="translate(1182.5 718.5)"/>
    <circle id="Ellipse_2929" data-name="Ellipse 2929" class="cls-6" cx="11" cy="11" r="11" transform="translate(1324 621)"/>
    <line id="Line_398" data-name="Line 398" class="cls-7" x1="10.453" y2="10.453" transform="translate(1330.273 627.273)"/>
    <line id="Line_399" data-name="Line 399" class="cls-7" x2="10.453" y2="10.453" transform="translate(1330.273 627.273)"/>
    <text id="Order-3" data-name="Order" class="cls-8" transform="translate(1055.947 692.243)"><tspan x="0" y="0">Order</tspan></text>
    <text id="Finished-3" data-name="Finished" class="cls-9" transform="translate(1260.947 692.243)"><tspan x="0" y="0">Finished</tspan></text>
    <text id="_53-3" data-name="#53" class="cls-9" transform="translate(1124.947 692.243)"><tspan x="0" y="0">#53</tspan></text>
    <path id="Subtraction_146" data-name="Subtraction 146" class="cls-10" d="M302.885,118.054H0V11H285.761a12.108,12.108,0,0,0-.155,1.934c0,6.933,5.927,12.573,13.213,12.573a13.824,13.824,0,0,0,4.066-.607v93.153Z" transform="translate(1036.115 373)"/>
    <g id="Group_2049" data-name="Group 2049" transform="translate(0 -20)">
      <circle id="Ellipse_2173" data-name="Ellipse 2173" class="cls-11" cx="11" cy="11" r="11" transform="translate(1324 395)"/>
      <g id="Group_638" data-name="Group 638">
        <line id="Line_2" data-name="Line 2" class="cls-12" x1="10.453" y2="10.453" transform="translate(1330.273 401.274)"/>
        <line id="Line_3" data-name="Line 3" class="cls-12" x2="10.453" y2="10.453" transform="translate(1330.273 401.274)"/>
      </g>
    </g>
    <text id="_20:45-4" data-name="20:45" class="cls-13" transform="translate(1282.947 415.243)"><tspan x="0" y="0">20:45</tspan></text>
    <g id="Group_2050" data-name="Group 2050" transform="translate(0 -20)">
      <circle id="Ellipse_2078" data-name="Ellipse 2078" class="cls-14" cx="9.5" cy="9.5" r="9.5" transform="translate(1056 420)"/>
      <path id="Union_3" data-name="Union 3" class="cls-15" d="M-1426-270l-5,8.985Zm-10,4.9,5,4.084Z" transform="translate(2496.5 695.507)"/>
    </g>
    <text id="File_created_succefuily." data-name="File created succefuily." class="cls-9" transform="translate(1055.947 448.243)"><tspan x="0" y="0">File created succefuily.</tspan></text>
    <text id="Now_you_can_stert_exchanging." data-name="Now you can stert exchanging." class="cls-9" transform="translate(1055.947 472.243)"><tspan x="0" y="0">Now you can stert exchanging.</tspan></text>
    <path id="Subtraction_147" data-name="Subtraction 147" class="cls-16" d="M302.885,118.054H0V11H285.761a12.108,12.108,0,0,0-.155,1.934c0,6.933,5.927,12.573,13.213,12.573a13.824,13.824,0,0,0,4.066-.607v93.153Z" transform="translate(1036.115 496)"/>
    <g id="Group_2051" data-name="Group 2051" transform="translate(0 103)">
      <circle id="Ellipse_2173-2" data-name="Ellipse 2173" class="cls-17" cx="11" cy="11" r="11" transform="translate(1324 395)"/>
      <g id="Group_638-2" data-name="Group 638">
        <line id="Line_2-2" data-name="Line 2" class="cls-12" x1="10.453" y2="10.453" transform="translate(1330.273 401.274)"/>
        <line id="Line_3-2" data-name="Line 3" class="cls-12" x2="10.453" y2="10.453" transform="translate(1330.273 401.274)"/>
      </g>
    </g>
    <text id="_20:45-5" data-name="20:45" class="cls-13" transform="translate(1282.947 538.243)"><tspan x="0" y="0">20:45</tspan></text>
    <g id="Group_2052" data-name="Group 2052" transform="translate(0 103)">
      <circle id="Ellipse_2078-2" data-name="Ellipse 2078" class="cls-18" cx="9.5" cy="9.5" r="9.5" transform="translate(1056 420)"/>
      <path id="Union_3-2" data-name="Union 3" class="cls-15" d="M-1426-270l-5,8.985Zm-10,4.9,5,4.084Z" transform="translate(2496.5 695.507)"/>
    </g>
    <text id="File_created_succefuily.-2" data-name="File created succefuily." class="cls-9" transform="translate(1055.947 571.243)"><tspan x="0" y="0">File created succefuily.</tspan></text>
    <text id="Now_you_can_stert_exchanging.-2" data-name="Now you can stert exchanging." class="cls-9" transform="translate(1055.947 595.243)"><tspan x="0" y="0">Now you can stert exchanging.</tspan></text>
  </g>
</svg>
