<svg xmlns="http://www.w3.org/2000/svg" xmlns:xlink="http://www.w3.org/1999/xlink" viewBox="0 0 41.999 41.999">
  <defs>
    <style>
      .cls-1 {
        opacity: 0.8;
        fill: url(#linear-gradient);
      }
    </style>
    <linearGradient id="linear-gradient" x1="0.174" y1="0.076" x2="0.811" y2="0.884" gradientUnits="objectBoundingBox">
      <stop offset="0" stop-color="#fff"/>
      <stop offset="1" stop-color="#363636"/>
    </linearGradient>
  </defs>
  <path id="Exclusion_21" data-name="Exclusion 21" class="cls-1" d="M21,42A21,21,0,0,1,6.151,6.151a21,21,0,0,1,29.7,29.7A20.862,20.862,0,0,1,21,42ZM13.272,16.341a3.03,3.03,0,0,0-3.231,2.769v9.23a3.03,3.03,0,0,0,3.231,2.769H32.195V20.033H13.272c-.751,0-1.385-.422-1.385-.922s.634-.923,1.385-.923h7.845a1.846,1.846,0,1,1,1.847-1.846,1.849,1.849,0,0,1-1.847,1.846H31.271V16.341H24.81a3.692,3.692,0,1,0-7.385,0ZM18.118,6.188a.618.618,0,0,0-.6.369.707.707,0,0,0,.046.739l3,4.153a.692.692,0,0,0,1.108,0l3-4.153a.707.707,0,0,0,.046-.739.618.618,0,0,0-.6-.369Z"/>
</svg>
