<svg xmlns="http://www.w3.org/2000/svg" xmlns:xlink="http://www.w3.org/1999/xlink" viewBox="0 0 42 42">
  <defs>
    <style>
      .cls-1 {
        opacity: 0.8;
        fill: url(#linear-gradient);
      }
    </style>
    <linearGradient id="linear-gradient" x1="0.174" y1="0.076" x2="0.811" y2="0.884" gradientUnits="objectBoundingBox">
      <stop offset="0" stop-color="#fff"/>
      <stop offset="1" stop-color="#363636"/>
    </linearGradient>
  </defs>
  <path id="Subtraction_129" data-name="Subtraction 129" class="cls-1" d="M14381,42a21.005,21.005,0,0,1-8.173-40.349,21.005,21.005,0,0,1,16.347,38.7A20.868,20.868,0,0,1,14381,42Zm-12.376-26.284h0c-1.622,2.7-2.821,4.695-3.889,6.466h2.371l.006.014a.06.06,0,0,1,.008.026c.017.146.03.3.043.445l0,.05a12.785,12.785,0,0,0,1.564,5.089,13.647,13.647,0,0,0,9.217,6.9,7.928,7.928,0,0,0,1.774.217h.145c.318-.007.669-.01,1.1-.01l.663,0h.011l.652,0h.1a.36.36,0,0,0,.072-.006,13.9,13.9,0,0,0,2.114-.434,13.809,13.809,0,0,0,9.879-11.881c.008-.08.014-.16.021-.241l.009-.108q.015-.193.032-.388c0-.409,0-.8,0-1.193,0-.02,0-.04-.008-.061-.007-.053-.012-.1-.014-.145a13.759,13.759,0,0,0-13.489-12.947h-.022a1.281,1.281,0,0,0-1.2.737,1.646,1.646,0,0,0-.131,1.055,1.113,1.113,0,0,0,.969,1.016,3.692,3.692,0,0,0,.633.061,10.041,10.041,0,0,1,2.075.271,10.977,10.977,0,0,1,8.183,12.7,10.958,10.958,0,0,1-10.092,8.769c-.216.012-.434.017-.646.017a10.441,10.441,0,0,1-5.27-1.38,10.59,10.59,0,0,1-5.509-8.411,1.035,1.035,0,0,1,0-.111c0-.024,0-.046,0-.07h2.5c-1.386-2.307-2.739-4.56-3.882-6.459Zm12.231,12.481a.858.858,0,1,0,.86.86A.859.859,0,0,0,14380.854,28.2Zm5.686-2.682a.858.858,0,0,0,0,1.717.855.855,0,0,0,.854-.86A.857.857,0,0,0,14386.54,25.514Zm-5.529-12.575a1.7,1.7,0,0,0-.655.134,1.185,1.185,0,0,0-.708,1.182c0,2.287,0,4.652,0,6.976a.4.4,0,0,1-.126.314l-.256.255,0,0c-1.031,1.024-2.1,2.083-3.141,3.131a1.322,1.322,0,0,0-.391.945,1.363,1.363,0,0,0,.412.971,1.26,1.26,0,0,0,.9.365,1.365,1.365,0,0,0,.969-.4q1.03-1.027,2.055-2.053.9-.9,1.8-1.8a1.5,1.5,0,0,0,.471-1.142c-.007-.817-.006-1.647,0-2.45v-.752c0-.174,0-.347,0-.521,0-1.258,0-2.559,0-3.831a1.321,1.321,0,0,0-.032-.333A1.252,1.252,0,0,0,14381.011,12.939Zm7.438,7.507a.87.87,0,1,0,.006,0Zm-1.906-5.259a.862.862,0,0,0-.011,1.724h.011a.862.862,0,0,0,0-1.724Z" transform="translate(-14359.999)"/>
</svg>
