<svg xmlns="http://www.w3.org/2000/svg" xmlns:xlink="http://www.w3.org/1999/xlink" viewBox="0 0 59.968 59.969">
  <defs>
    <style>
      .cls-1 {
        opacity: 0.8;
        fill: url(#linear-gradient);
      }

      .cls-2 {
        fill: #dedede;
      }
    </style>
    <linearGradient id="linear-gradient" x1="0.201" x2="0.827" y2="0.914" gradientUnits="objectBoundingBox">
      <stop offset="0" stop-color="#00cca3"/>
      <stop offset="0" stop-color="#fff"/>
      <stop offset="1" stop-color="#848484"/>
    </linearGradient>
  </defs>
  <g id="Group_1942" data-name="Group 1942" transform="translate(-564.022 -543.515)">
    <path id="Subtraction_85" data-name="Subtraction 85" class="cls-1" d="M29.984,59.969A29.843,29.843,0,0,1,13.22,54.848,30.07,30.07,0,0,1,2.356,41.655,29.945,29.945,0,0,1,5.121,13.22,30.074,30.074,0,0,1,18.313,2.356,29.944,29.944,0,0,1,46.749,5.121,30.07,30.07,0,0,1,57.612,18.313a29.946,29.946,0,0,1-2.764,28.436A30.074,30.074,0,0,1,41.655,57.612,29.8,29.8,0,0,1,29.984,59.969Zm0-58.619A28.634,28.634,0,1,0,58.618,29.984,28.667,28.667,0,0,0,29.984,1.35Z" transform="translate(564.022 543.515)"/>
    <g id="Group_1318" data-name="Group 1318" transform="translate(575.397 557.456)">
      <path id="Path_5441" data-name="Path 5441" class="cls-2" d="M35.319,16.516a6.589,6.589,0,0,1-.749.449c-3.6,2.247-7.192,4.495-10.713,6.742a.14.14,0,0,1-.225,0c-3.746-2.322-7.491-4.72-11.237-7.042-.075-.075-.15-.075-.225-.15V28.5a.161.161,0,0,0,.15.15H22.959a.708.708,0,0,1,.749.749v1.8a.708.708,0,0,1-.749.749H12.171a3.307,3.307,0,0,1-3.3-2.7,1.649,1.649,0,0,1-.075-.6V12.171a3.3,3.3,0,0,1,2.772-3.3c.225,0,.375-.075.6-.075H35.244a3.3,3.3,0,0,1,3.3,2.622,2.549,2.549,0,0,1,.075.749v9.964a.749.749,0,0,1-1.274.524l-1.8-1.8a.68.68,0,0,1-.225-.524C35.319,17.19,35.319,16.591,35.319,16.516Zm0-4.345H12.171v.9a.275.275,0,0,0,.075.225c3.746,2.322,7.566,4.72,11.312,7.042.15.075.225.075.3,0,2.922-1.8,5.768-3.6,8.69-5.394.9-.524,1.8-1.124,2.622-1.648l.075-.075A5.7,5.7,0,0,0,35.319,12.171Z" transform="translate(-2.208 -2.208)"/>
      <path id="Path_5442" data-name="Path 5442" class="cls-2" d="M3.3,5.544v18.5a.708.708,0,0,1-.749.749H.749A.751.751,0,0,1,0,24.047V3.746A3.991,3.991,0,0,1,.824,1.2,3.01,3.01,0,0,1,3.221,0h25.77a.708.708,0,0,1,.749.749v1.8a.708.708,0,0,1-.749.749H5.544A2.3,2.3,0,0,0,3.3,5.544Z"/>
      <path id="Path_5443" data-name="Path 5443" class="cls-2" d="M39.792,37.3H33.949a.708.708,0,0,1-.749-.749v-1.8A.708.708,0,0,1,33.949,34h5.843V30.853a.749.749,0,0,1,1.274-.524l4.794,4.794a.724.724,0,0,1,0,1.049l-4.794,4.794a.743.743,0,0,1-1.274-.524Z" transform="translate(-8.329 -7.555)"/>
    </g>
  </g>
</svg>
