<svg xmlns="http://www.w3.org/2000/svg" xmlns:xlink="http://www.w3.org/1999/xlink" viewBox="0 0 29.54 29.54">
  <defs>
    <style>
      .cls-1 {
        fill: #484848;
      }

      .cls-2 {
        opacity: 0.42;
      }

      .cls-3 {
        opacity: 0.91;
      }

      .cls-4 {
        clip-path: url(#clip-path);
      }

      .cls-5 {
        opacity: 0.6;
      }

      .cls-6 {
        fill: #fff;
      }
    </style>
    <clipPath id="clip-path">
      <ellipse id="Mask" class="cls-1" cx="14.77" cy="14.77" rx="14.77" ry="14.77"/>
    </clipPath>
  </defs>
  <g id="Group_2133" data-name="Group 2133" class="cls-2" transform="translate(-2227.74 -1039.54)">
    <g id="BCC" class="cls-3" transform="translate(2227.74 1039.54)">
      <g id="Shape">
        <ellipse id="Mask-2" data-name="Mask" class="cls-1" cx="14.77" cy="14.77" rx="14.77" ry="14.77"/>
      </g>
    </g>
    <g id="Group_1924" data-name="Group 1924" class="cls-5" transform="translate(2235.044 1046.67)">
      <path id="Shape-3" data-name="Shape" class="cls-6" d="M6.739,12.31c2.778.049,5.5.1,8.282.195a10.441,10.441,0,0,0-.257,1.07,14.589,14.589,0,0,0-.412,1.411c-.051.243-.154.292-.412.292H.669c.463-1.7.926-3.309,1.389-5.012-.72.243-1.338.487-2.058.778C.206,10.315.412,9.682.669,9c0-.1.154-.146.257-.146.463-.195.977-.341,1.44-.535a.425.425,0,0,0,.309-.341L4.836.389C4.887.1,4.99,0,5.35,0h4.681c-.566,1.995-1.08,3.99-1.646,6.082.823-.341,1.595-.633,2.469-.924-.1.389-.257.73-.309,1.07A1.588,1.588,0,0,1,9.157,7.639a9.61,9.61,0,0,0-1.08.389.864.864,0,0,0-.309.292c-.36,1.314-.72,2.579-1.029,3.892Z" transform="translate(0 0)"/>
    </g>
  </g>
</svg>
