<svg xmlns="http://www.w3.org/2000/svg" xmlns:xlink="http://www.w3.org/1999/xlink" viewBox="0 0 29.54 29.54">
  <defs>
    <style>
      .cls-1 {
        fill: #484848;
      }

      .cls-2 {
        opacity: 0.42;
      }

      .cls-3 {
        opacity: 0.91;
      }

      .cls-4 {
        clip-path: url(#clip-path);
      }

      .cls-5 {
        fill: #fff;
        opacity: 0.6;
      }
    </style>
    <clipPath id="clip-path">
      <ellipse id="Mask" class="cls-1" cx="14.77" cy="14.77" rx="14.77" ry="14.77"/>
    </clipPath>
  </defs>
  <g id="Group_2134" data-name="Group 2134" class="cls-2" transform="translate(-2227.74 -1201.54)">
    <g id="BCC" class="cls-3" transform="translate(2227.74 1201.54)">
      <g id="Shape">
        <ellipse id="Mask-2" data-name="Mask" class="cls-1" cx="14.77" cy="14.77" rx="14.77" ry="14.77"/>
      </g>
    </g>
    <path id="Shape-3" data-name="Shape" class="cls-5" d="M13.728,9.829a5.079,5.079,0,0,0-1.382-.18,1.24,1.24,0,0,1-1.144-.5l-.143-.18a1.1,1.1,0,0,1,0-1.307L11.2,7.44a1.291,1.291,0,0,1,1.048-.5,3.339,3.339,0,0,0,1.573-.361,3.51,3.51,0,0,0,2.1-3.2A3.589,3.589,0,0,0,12.06,0a3.629,3.629,0,0,0-3.431,3.11A3.467,3.467,0,0,0,9.3,5.5a1.173,1.173,0,0,1,0,1.352L9.248,6.9a1.266,1.266,0,0,1-1,.5H8.009a1.208,1.208,0,0,1-1.1-.676A3.658,3.658,0,0,0,3.53,4.826,3.552,3.552,0,0,0,0,8.161a3.541,3.541,0,0,0,3.669,3.606,3.6,3.6,0,0,0,3.24-1.893,1.208,1.208,0,0,1,1.1-.676H8.2a1.141,1.141,0,0,1,1,.5l.238.315a1.04,1.04,0,0,1,0,1.217,3.1,3.1,0,0,0-.524,2.163,3.6,3.6,0,0,0,3.24,3.11,3.6,3.6,0,0,0,4.05-3.786A3.374,3.374,0,0,0,13.728,9.829Z" transform="translate(2233.864 1207.82)"/>
  </g>
</svg>
