<svg xmlns="http://www.w3.org/2000/svg" xmlns:xlink="http://www.w3.org/1999/xlink" viewBox="0 0 59.968 59.969">
  <defs>
    <style>
      .cls-1 {
        opacity: 0.8;
        fill: url(#linear-gradient);
      }

      .cls-2 {
        fill: #dedede;
      }
    </style>
    <linearGradient id="linear-gradient" x1="0.201" x2="0.827" y2="0.914" gradientUnits="objectBoundingBox">
      <stop offset="0" stop-color="#00cca3"/>
      <stop offset="0" stop-color="#fff"/>
      <stop offset="1" stop-color="#848484"/>
    </linearGradient>
  </defs>
  <g id="Group_1943" data-name="Group 1943" transform="translate(-656.032 -543.515)">
    <path id="Subtraction_86" data-name="Subtraction 86" class="cls-1" d="M29.984,59.969A29.843,29.843,0,0,1,13.22,54.848,30.07,30.07,0,0,1,2.356,41.655,29.945,29.945,0,0,1,5.121,13.22,30.074,30.074,0,0,1,18.313,2.356,29.944,29.944,0,0,1,46.749,5.121,30.07,30.07,0,0,1,57.612,18.313a29.946,29.946,0,0,1-2.764,28.436A30.074,30.074,0,0,1,41.655,57.612,29.8,29.8,0,0,1,29.984,59.969Zm0-58.619A28.634,28.634,0,1,0,58.618,29.984,28.667,28.667,0,0,0,29.984,1.35Z" transform="translate(656.032 543.515)"/>
    <g id="Group_1319" data-name="Group 1319" transform="translate(670.408 557.894)">
      <path id="Path_5444" data-name="Path 5444" class="cls-2" d="M25.827,32.854H22.6V29.627h3.227V28.014A1.568,1.568,0,0,1,27.186,26.4h6.709a1.571,1.571,0,0,1,1.614,1.274v6.709A1.562,1.562,0,0,1,33.895,36H27.526a1.562,1.562,0,0,1-1.614-1.614V32.939C25.827,32.939,25.827,32.939,25.827,32.854Zm6.454-3.227H29.054v3.227h3.227Z" transform="translate(-3.407 -3.98)"/>
      <path id="Path_5445" data-name="Path 5445" class="cls-2" d="M3.242,25.927V22.7H6.469v3.227H8.083A1.562,1.562,0,0,1,9.7,27.541V33.91a1.562,1.562,0,0,1-1.614,1.614H1.714A1.584,1.584,0,0,1,.1,33.825V27.541a1.562,1.562,0,0,1,1.614-1.614H3.242Zm3.227,3.142H3.242V32.3H6.469Z" transform="translate(-0.015 -3.422)"/>
      <path id="Path_5446" data-name="Path 5446" class="cls-2" d="M32.854,9.6v3.227H29.627V9.6H28.014A1.568,1.568,0,0,1,26.4,8.238V1.614A1.571,1.571,0,0,1,27.674,0H34.3A1.651,1.651,0,0,1,36,1.7V7.983A1.513,1.513,0,0,1,34.638,9.6H32.854Zm0-3.142V3.227H29.627V6.454Z" transform="translate(-3.98 0)"/>
      <path id="Path_5447" data-name="Path 5447" class="cls-2" d="M9.6,3.227h3.227V6.454H9.6V8.068A1.643,1.643,0,0,1,8.238,9.681H1.614A1.571,1.571,0,0,1,0,8.408V1.7A1.584,1.584,0,0,1,1.614,0H7.983A1.562,1.562,0,0,1,9.6,1.614V3.227ZM3.227,6.369H6.454V3.142H3.227Z" transform="translate(0 0)"/>
      <path id="Path_5448" data-name="Path 5448" class="cls-2" d="M22.127,7.027H18.9V3.8h3.227Z" transform="translate(-2.849 -0.573)"/>
      <path id="Path_5449" data-name="Path 5449" class="cls-2" d="M6.927,18.327H3.7V15.1H6.927Z" transform="translate(-0.558 -2.276)"/>
      <path id="Path_5450" data-name="Path 5450" class="cls-2" d="M30.2,18.9h3.227v3.227H30.2Z" transform="translate(-4.553 -2.849)"/>
      <path id="Path_5451" data-name="Path 5451" class="cls-2" d="M18.327,30.2v3.227H15.1V30.2Z" transform="translate(-2.276 -4.553)"/>
    </g>
  </g>
</svg>
