<svg width="70" height="70" viewBox="0 0 70 70" fill="none" xmlns="http://www.w3.org/2000/svg">
<path opacity="0.81" d="M10.2509 59.7482C4.52531 54.0225 0.962165 46.4886 0.168559 38.4302C-0.625047 30.3719 1.39999 22.2877 5.89863 15.555C10.3973 8.8223 17.0912 3.85773 24.8398 1.50716C32.5885 -0.843422 40.9124 -0.434573 48.3934 2.66404C55.8744 5.76265 62.0496 11.3593 65.8668 18.5004C69.684 25.6416 70.9071 33.8853 69.3276 41.8271C67.7481 49.7689 63.4638 56.9173 57.2047 62.0545C50.9455 67.1916 43.0988 69.9995 35.0015 69.9999C30.403 70.0127 25.8477 69.1132 21.5992 67.3535C17.3507 65.5938 13.4935 63.0088 10.2509 59.7482V59.7482ZM4.24195 34.9999C4.24149 41.0837 6.04512 47.031 9.42475 52.0897C12.8044 57.1483 17.6082 61.0912 23.2287 63.4197C28.8493 65.7482 35.0341 66.3576 41.001 65.171C46.9679 63.9844 52.4489 61.055 56.751 56.7533C61.053 52.4516 63.9828 46.9708 65.1698 41.004C66.3569 35.0372 65.7479 28.8523 63.4198 23.2316C61.0918 17.6109 57.1493 12.8068 52.0908 9.42678C47.0324 6.04678 41.0853 4.24271 35.0015 4.24271C26.8468 4.25186 19.0286 7.49521 13.2621 13.2613C7.49565 19.0273 4.25171 26.8452 4.24195 34.9999V34.9999Z" fill="url(#paint0_linear_606_8083)"/>
<path opacity="0.81" d="M29.3211 56.456C28.9491 56.3697 28.5982 56.2094 28.2895 55.9847C27.9807 55.7599 27.7204 55.4754 27.5239 55.1479C27.3275 54.8204 27.199 54.4567 27.146 54.0785C27.0931 53.7003 27.1169 53.3154 27.2159 52.9465C27.6063 50.3732 28.0736 47.8 28.6178 45.2267C29.2427 42.1069 30.0197 39.1439 30.723 36.1049C30.7991 35.7152 30.9536 35.1687 30.6446 34.8574C30.3333 34.6268 29.7868 34.8574 29.3972 35.0119C27.8361 35.6345 26.3558 36.3378 24.7164 37.1171C24.4382 36.4635 24.0993 35.8374 23.7041 35.2471C25.1867 34.2326 26.5887 33.0612 28.0713 32.1273C31.0118 30.0626 34.3202 28.5794 37.818 27.7578C39.8448 27.3681 41.0161 28.1475 41.0161 30.255C40.9405 31.9642 40.705 33.6625 40.3129 35.3278C39.3006 39.2269 38.2077 43.2045 37.1931 47.2581C37.0363 47.9498 36.7319 48.9736 37.2715 49.4417C37.818 49.8314 38.5973 49.2849 39.2199 49.052C40.4697 48.4294 41.6387 47.7285 42.8839 47.0252C43.2735 47.4864 43.6632 48.0398 44.2097 48.7407C42.9622 49.753 41.8716 50.8459 40.6242 51.7821C37.95 54.2115 34.6584 55.8573 31.1104 56.539C30.5128 56.5511 29.915 56.5234 29.3211 56.456Z" fill="url(#paint1_linear_606_8083)"/>
<path opacity="0.81" d="M33.7671 19.2599C33.3968 18.1046 33.4178 16.8595 33.8267 15.7173C34.2356 14.5752 35.0097 13.5997 36.0291 12.942C36.7595 12.4476 37.5809 12.1035 38.4456 11.9297C39.0182 11.8774 39.5953 11.903 40.1611 12.0058C41.1317 12.0695 42.042 12.4995 42.7076 13.2088C43.3733 13.9181 43.7446 14.8538 43.7466 15.8265C43.7972 16.5695 43.6997 17.3151 43.4597 18.0201C43.2197 18.725 42.842 19.3753 42.3486 19.9331C41.8552 20.4908 41.2559 20.945 40.5854 21.2692C39.915 21.5934 39.1869 21.7812 38.4433 21.8216C38.2588 21.8339 38.0782 21.8401 37.9014 21.8401C37.0216 21.9444 36.1324 21.7457 35.3808 21.2766C34.6291 20.8075 34.0599 20.0961 33.7671 19.2599Z" fill="url(#paint2_linear_606_8083)"/>
<defs>
<linearGradient id="paint0_linear_606_8083" x1="20.65" y1="19.25" x2="111.23" y2="98.7" gradientUnits="userSpaceOnUse">
<stop stop-color="white"/>
<stop offset="0.326" stop-color="#888888"/>
<stop offset="0.552" stop-color="#636363"/>
<stop offset="1" stop-color="#616161"/>
</linearGradient>
<linearGradient id="paint1_linear_606_8083" x1="29.7533" y1="35.6033" x2="63.5815" y2="56.6705" gradientUnits="userSpaceOnUse">
<stop stop-color="white"/>
<stop offset="0.326" stop-color="#888888"/>
<stop offset="0.552" stop-color="#636363"/>
<stop offset="1" stop-color="#616161"/>
</linearGradient>
<linearGradient id="paint2_linear_606_8083" x1="36.5293" y1="14.6434" x2="49.4659" y2="26.3227" gradientUnits="userSpaceOnUse">
<stop stop-color="white"/>
<stop offset="0.326" stop-color="#888888"/>
<stop offset="0.552" stop-color="#636363"/>
<stop offset="1" stop-color="#616161"/>
</linearGradient>
</defs>
</svg>
