<svg width="43" height="52" viewBox="0 0 52 46" fill="none" xmlns="http://www.w3.org/2000/svg">
<path d="M25.2487 21.8862C20.4697 21.8862 16.5947 25.3752 16.5947 29.6782H33.9027C33.9027 25.3752 30.0287 21.8862 25.2487 21.8862Z" fill="#ABABAB" fill-opacity="0.2"/>
<path fill-rule="evenodd" clip-rule="evenodd" d="M51.9318 31.1282V8.03925H0.0078125V31.1282H51.9318ZM50.4688 29.6382V9.52825H1.46881V29.6432L50.4688 29.6382Z" fill="#B1B1B1"/>
<path d="M25.2502 22.3772C28.1511 22.3445 30.9203 21.161 32.9487 19.087C34.9772 17.0129 36.0989 14.2182 36.0672 11.3172C36.0982 9.87709 35.8412 8.44526 35.3115 7.10571C34.7818 5.76617 33.9899 4.54589 32.9824 3.51643C31.9748 2.48697 30.7718 1.66906 29.444 1.11067C28.1161 0.552278 26.6902 0.264648 25.2497 0.264648C23.8092 0.264648 22.3832 0.552278 21.0554 1.11067C19.7275 1.66906 18.5246 2.48697 17.517 3.51643C16.5094 4.54589 15.7176 5.76617 15.1879 7.10571C14.6581 8.44526 14.4012 9.87709 14.4322 11.3172C14.4005 14.2183 15.5223 17.0132 17.551 19.0873C19.5797 21.1614 22.3491 22.3448 25.2502 22.3772Z" fill="#A7A7A7"/>
<path d="M1.036 40.9582V42.1022H2.312C2.50443 42.1107 2.69554 42.0668 2.865 41.9752C2.93903 41.9256 2.99816 41.8567 3.03603 41.776C3.07391 41.6954 3.08911 41.6059 3.08 41.5172C3.09101 41.4176 3.06949 41.3172 3.01866 41.2308C2.96783 41.1445 2.89042 41.0769 2.798 41.0382C2.59688 40.9788 2.38764 40.9514 2.178 40.9572L1.036 40.9582ZM1.036 42.9582V44.3422H2.312C2.49391 44.3506 2.67547 44.3192 2.844 44.2502C2.95992 44.1893 3.05483 44.095 3.11637 43.9794C3.1779 43.8638 3.20321 43.7324 3.189 43.6022C3.19828 43.4862 3.17095 43.3701 3.11086 43.2704C3.05078 43.1706 2.96095 43.0923 2.854 43.0462C2.68664 42.9821 2.50812 42.9522 2.329 42.9582H1.036ZM2.522 40.0582C2.77507 40.0365 3.02969 40.0753 3.26479 40.1714C3.49989 40.2676 3.70872 40.4183 3.874 40.6112C4.0368 40.8426 4.12061 41.1204 4.113 41.4032C4.1266 41.6782 4.04188 41.949 3.874 42.1672C3.76425 42.2928 3.63023 42.3948 3.48 42.4672C3.72591 42.5479 3.93734 42.7093 4.08 42.9252C4.22003 43.1537 4.28959 43.4184 4.28 43.6862C4.28443 43.9789 4.20384 44.2665 4.048 44.5142C3.94385 44.687 3.80443 44.8359 3.63884 44.9512C3.47325 45.0665 3.28521 45.1455 3.087 45.1832C2.84471 45.2317 2.59808 45.2551 2.351 45.2532H0V40.0582H2.522ZM6.856 40.9582V42.3522H8.085C8.27188 42.3617 8.45872 42.3327 8.634 42.2672C8.74197 42.2153 8.83115 42.1311 8.88919 42.0263C8.94724 41.9215 8.97128 41.8013 8.958 41.6822C8.97322 41.5575 8.95172 41.4311 8.89611 41.3185C8.84051 41.2059 8.75324 41.1119 8.645 41.0482C8.47665 40.9775 8.29423 40.9467 8.112 40.9582H6.856ZM8.342 40.0582C8.62714 40.0518 8.91108 40.0972 9.18 40.1922C9.37323 40.2716 9.54466 40.3961 9.68 40.5552C9.79214 40.6856 9.88263 40.8332 9.948 40.9922C10.0169 41.1659 10.0508 41.3514 10.048 41.5382C10.0459 41.7928 9.9817 42.043 9.861 42.2672C9.72938 42.5084 9.50808 42.688 9.245 42.7672C9.45709 42.8408 9.63656 42.9867 9.752 43.1792C9.86883 43.4325 9.92073 43.7109 9.903 43.9892V44.3382C9.89776 44.4994 9.90713 44.6607 9.931 44.8202C9.94083 44.8817 9.96378 44.9403 9.99829 44.992C10.0328 45.0438 10.0781 45.0875 10.131 45.1202V45.2502H8.933C8.90033 45.1349 8.877 45.0422 8.863 44.9722C8.83457 44.8249 8.81918 44.6753 8.817 44.5252L8.812 44.0362C8.83709 43.8003 8.77168 43.5637 8.629 43.3742C8.43927 43.2419 8.20794 43.1829 7.978 43.2082H6.856V45.2432H5.796V40.0582H8.342ZM12.979 43.2872H14.296L13.648 41.2452L12.979 43.2872ZM13.046 40.0582H14.271L16.109 45.2482H14.933L14.599 44.1812H12.687L12.328 45.2482H11.194L13.046 40.0582ZM18.346 45.2482H17.264V40.0582H18.341L18.346 45.2482ZM23.708 40.0582V40.9772H22.151V45.2482H21.059V40.9732H19.499V40.0582H23.708ZM25.975 40.9582V42.1022H27.25C27.4424 42.1107 27.6335 42.0668 27.803 41.9752C27.8763 41.9247 27.9344 41.8552 27.9712 41.7742C28.008 41.6931 28.0221 41.6036 28.012 41.5152C28.023 41.4156 28.0015 41.3152 27.9507 41.2288C27.8998 41.1425 27.8224 41.0749 27.73 41.0362C27.5289 40.9768 27.3196 40.9494 27.11 40.9552L25.975 40.9582ZM25.975 42.9582V44.3422H27.25C27.4319 44.3506 27.6135 44.3192 27.782 44.2502C27.8979 44.1893 27.9928 44.095 28.0544 43.9794C28.1159 43.8638 28.1412 43.7324 28.127 43.6022C28.1363 43.4862 28.109 43.3701 28.0489 43.2704C27.9888 43.1706 27.8989 43.0923 27.792 43.0462C27.6246 42.9821 27.4461 42.9522 27.267 42.9582H25.975ZM27.457 40.0582C27.7101 40.0365 27.9647 40.0753 28.1998 40.1714C28.4349 40.2676 28.6437 40.4183 28.809 40.6112C28.9722 40.8425 29.0563 41.1203 29.049 41.4032C29.0624 41.6783 28.9773 41.9492 28.809 42.1672C28.6992 42.2928 28.5652 42.3948 28.415 42.4672C28.6609 42.5479 28.8723 42.7093 29.015 42.9252C29.155 43.1537 29.2246 43.4184 29.215 43.6862C29.2194 43.9789 29.1388 44.2665 28.983 44.5142C28.8788 44.687 28.7394 44.8359 28.5738 44.9512C28.4082 45.0665 28.2202 45.1455 28.022 45.1832C27.7797 45.2317 27.5331 45.2551 27.286 45.2532H24.936V40.0582H27.457ZM34.545 40.9772H31.798V42.0772H34.319V42.9772H31.798V44.3122H34.672V45.2452H30.738V40.0582H34.545V40.9772ZM37.178 40.9592V42.3532H38.412C38.5989 42.3627 38.7857 42.3337 38.961 42.2682C39.069 42.2163 39.1581 42.1321 39.2162 42.0273C39.2742 41.9225 39.2983 41.8023 39.285 41.6832C39.3002 41.5585 39.2787 41.4321 39.2231 41.3195C39.1675 41.2069 39.0802 41.1129 38.972 41.0492C38.8053 40.9786 38.6247 40.9471 38.444 40.9572L37.178 40.9592ZM38.664 40.0592C38.9491 40.0528 39.2331 40.0982 39.502 40.1932C39.6952 40.2726 39.8667 40.3971 40.002 40.5562C40.1142 40.6866 40.2046 40.8341 40.27 40.9932C40.3389 41.1669 40.3728 41.3524 40.37 41.5392C40.366 41.7905 40.3015 42.0371 40.182 42.2582C40.0504 42.4994 39.8291 42.679 39.566 42.7582C39.7781 42.8318 39.9576 42.9777 40.073 43.1702C40.1898 43.4235 40.2417 43.7019 40.224 43.9802V44.3292C40.2188 44.4904 40.2281 44.6517 40.252 44.8112C40.2618 44.8727 40.2848 44.9313 40.3193 44.983C40.3538 45.0348 40.3991 45.0785 40.452 45.1112V45.2412H39.256C39.2233 45.1259 39.2 45.0332 39.186 44.9632C39.1576 44.8159 39.1422 44.6663 39.14 44.5162L39.133 44.0342C39.1581 43.7983 39.0927 43.5617 38.95 43.3722C38.7603 43.2399 38.5289 43.1809 38.299 43.2062H37.179V45.2412H36.119V40.0582L38.664 40.0592ZM42.964 40.9592V42.3532H44.193C44.3799 42.3627 44.5667 42.3337 44.742 42.2682C44.85 42.2163 44.9391 42.1321 44.9972 42.0273C45.0552 41.9225 45.0793 41.8023 45.066 41.6832C45.0812 41.5585 45.0597 41.4321 45.0041 41.3195C44.9485 41.2069 44.8612 41.1129 44.753 41.0492C44.5863 40.9786 44.4057 40.9471 44.225 40.9572L42.964 40.9592ZM44.45 40.0592C44.7351 40.0528 45.0191 40.0982 45.288 40.1932C45.4812 40.2726 45.6527 40.3971 45.788 40.5562C45.9002 40.6866 45.9906 40.8341 46.056 40.9932C46.1248 41.1669 46.1588 41.3524 46.156 41.5392C46.1539 41.7938 46.0897 42.044 45.969 42.2682C45.8374 42.5094 45.6161 42.689 45.353 42.7682C45.5651 42.8418 45.7446 42.9877 45.86 43.1802C45.9768 43.4335 46.0287 43.7119 46.011 43.9902V44.3392C46.0057 44.5004 46.0151 44.6617 46.039 44.8212C46.0488 44.8827 46.0718 44.9413 46.1063 44.993C46.1408 45.0448 46.1861 45.0885 46.239 45.1212V45.2512H45.044C45.0113 45.1359 44.988 45.0432 44.974 44.9732C44.9456 44.8259 44.9302 44.6763 44.928 44.5262L44.921 44.0442C44.9461 43.8083 44.8807 43.5717 44.738 43.3822C44.5483 43.2499 44.3169 43.1909 44.087 43.2162H42.967V45.2512H41.907V40.0582L44.45 40.0592ZM50.629 40.0592H51.858L50.122 43.2992V45.2502H49.04V43.2932L47.24 40.0532H48.518L49.595 42.3142L50.629 40.0592Z" fill="#DBDBDB"/>
</svg>
