<?xml version="1.0" encoding="UTF-8" standalone="no"?>
<svg
   xmlns:dc="http://purl.org/dc/elements/1.1/"
   xmlns:cc="http://creativecommons.org/ns#"
   xmlns:rdf="http://www.w3.org/1999/02/22-rdf-syntax-ns#"
   xmlns:svg="http://www.w3.org/2000/svg"
   xmlns="http://www.w3.org/2000/svg"
   xmlns:sodipodi="http://sodipodi.sourceforge.net/DTD/sodipodi-0.dtd"
   xmlns:inkscape="http://www.inkscape.org/namespaces/inkscape"
   width="231"
   height="152"
   viewBox="0 0 231 152"
   fill="none"
   version="1.1"
   id="svg33"
   sodipodi:docname="Dogecoin.svg"
   inkscape:version="0.92.3 (2405546, 2018-03-11)">
  <metadata
     id="metadata37">
    <rdf:RDF>
      <cc:Work
         rdf:about="">
        <dc:format>image/svg+xml</dc:format>
        <dc:type
           rdf:resource="http://purl.org/dc/dcmitype/StillImage" />
      </cc:Work>
    </rdf:RDF>
  </metadata>
  <sodipodi:namedview
     pagecolor="#ffffff"
     bordercolor="#666666"
     borderopacity="1"
     objecttolerance="10"
     gridtolerance="10"
     guidetolerance="10"
     inkscape:pageopacity="0"
     inkscape:pageshadow="2"
     inkscape:window-width="1607"
     inkscape:window-height="766"
     id="namedview35"
     showgrid="false"
     inkscape:zoom="1.2294372"
     inkscape:cx="134.20775"
     inkscape:cy="76"
     inkscape:window-x="0"
     inkscape:window-y="0"
     inkscape:window-maximized="0"
     inkscape:current-layer="svg33" />
  <path
     opacity="0.8"
     d="M230.688 0.992981H0.00292969V151.283H230.688V0.992981Z"
     fill="url(#paint0_linear)"
     id="path2" />
  <path
     opacity="0.75"
     d="M34.2935 101.559C34.2935 102.707 34.122 103.739 33.779 104.656C33.436 105.573 32.953 106.354 32.33 106.998C31.707 107.642 30.958 108.135 30.083 108.478C29.215 108.821 28.256 108.993 27.206 108.993H21.7775V94.1355H27.206C28.256 94.1355 29.215 94.307 30.083 94.65C30.958 94.993 31.707 95.4865 32.33 96.1305C32.953 96.7745 33.436 97.555 33.779 98.472C34.122 99.389 34.2935 100.418 34.2935 101.559ZM33.1805 101.559C33.1805 100.523 33.037 99.599 32.75 98.787C32.463 97.975 32.057 97.289 31.532 96.729C31.007 96.169 30.377 95.742 29.642 95.448C28.907 95.154 28.095 95.007 27.206 95.007H22.859V108.121H27.206C28.095 108.121 28.907 107.974 29.642 107.68C30.377 107.386 31.007 106.959 31.532 106.399C32.057 105.839 32.463 105.153 32.75 104.341C33.037 103.529 33.1805 102.602 33.1805 101.559ZM41.233 98.3775C41.982 98.3775 42.6505 98.507 43.2385 98.766C43.8335 99.018 44.334 99.3785 44.74 99.8475C45.146 100.316 45.454 100.883 45.664 101.548C45.881 102.206 45.9895 102.945 45.9895 103.764C45.9895 104.583 45.881 105.321 45.664 105.979C45.454 106.637 45.146 107.201 44.74 107.67C44.334 108.139 43.8335 108.499 43.2385 108.751C42.6505 109.003 41.982 109.129 41.233 109.129C40.484 109.129 39.812 109.003 39.217 108.751C38.629 108.499 38.1285 108.139 37.7155 107.67C37.3095 107.201 36.998 106.637 36.781 105.979C36.571 105.321 36.466 104.583 36.466 103.764C36.466 102.945 36.571 102.206 36.781 101.548C36.998 100.883 37.3095 100.316 37.7155 99.8475C38.1285 99.3785 38.629 99.018 39.217 98.766C39.812 98.507 40.484 98.3775 41.233 98.3775ZM41.233 108.342C41.856 108.342 42.3985 108.237 42.8605 108.027C43.3295 107.81 43.718 107.502 44.026 107.103C44.341 106.704 44.5755 106.224 44.7295 105.664C44.8835 105.097 44.9605 104.464 44.9605 103.764C44.9605 103.071 44.8835 102.441 44.7295 101.874C44.5755 101.307 44.341 100.824 44.026 100.425C43.718 100.019 43.3295 99.7075 42.8605 99.4905C42.3985 99.2735 41.856 99.165 41.233 99.165C40.61 99.165 40.064 99.2735 39.595 99.4905C39.133 99.7075 38.7445 100.019 38.4295 100.425C38.1215 100.824 37.887 101.307 37.726 101.874C37.572 102.441 37.495 103.071 37.495 103.764C37.495 104.464 37.572 105.097 37.726 105.664C37.887 106.224 38.1215 106.704 38.4295 107.103C38.7445 107.502 39.133 107.81 39.595 108.027C40.064 108.237 40.61 108.342 41.233 108.342ZM52.1775 104.373C52.6255 104.373 53.0245 104.31 53.3745 104.184C53.7245 104.051 54.0185 103.869 54.2565 103.638C54.4945 103.407 54.6765 103.13 54.8025 102.808C54.9285 102.486 54.9915 102.129 54.9915 101.737C54.9915 101.345 54.925 100.988 54.792 100.666C54.666 100.337 54.4805 100.057 54.2355 99.8265C53.9975 99.5955 53.7035 99.417 53.3535 99.291C53.0105 99.165 52.6185 99.102 52.1775 99.102C51.7365 99.102 51.341 99.165 50.991 99.291C50.648 99.417 50.354 99.5955 50.109 99.8265C49.871 100.057 49.689 100.337 49.563 100.666C49.437 100.988 49.374 101.345 49.374 101.737C49.374 102.129 49.437 102.486 49.563 102.808C49.689 103.13 49.871 103.407 50.109 103.638C50.354 103.869 50.648 104.051 50.991 104.184C51.341 104.31 51.7365 104.373 52.1775 104.373ZM56.0835 109.696C56.0835 109.367 55.996 109.105 55.821 108.909C55.653 108.706 55.4255 108.548 55.1385 108.436C54.8515 108.324 54.519 108.247 54.141 108.205C53.77 108.156 53.378 108.121 52.965 108.1C52.559 108.079 52.1495 108.058 51.7365 108.037C51.3235 108.016 50.935 107.974 50.571 107.911C50.305 108.016 50.06 108.139 49.836 108.279C49.612 108.412 49.4195 108.566 49.2585 108.741C49.0975 108.916 48.9715 109.105 48.8805 109.308C48.7895 109.518 48.744 109.742 48.744 109.98C48.744 110.288 48.821 110.571 48.975 110.83C49.136 111.096 49.367 111.324 49.668 111.513C49.976 111.709 50.3505 111.863 50.7915 111.975C51.2325 112.087 51.74 112.143 52.314 112.143C52.846 112.143 53.3395 112.083 53.7945 111.964C54.2565 111.845 54.6555 111.677 54.9915 111.46C55.3345 111.243 55.6005 110.984 55.7895 110.683C55.9855 110.382 56.0835 110.053 56.0835 109.696ZM57.1755 99.0075V99.354C57.1755 99.508 57.0775 99.6025 56.8815 99.6375L55.2855 99.753C55.4815 100.019 55.632 100.316 55.737 100.645C55.842 100.974 55.8945 101.331 55.8945 101.716C55.8945 102.22 55.8035 102.679 55.6215 103.092C55.4465 103.498 55.1945 103.848 54.8655 104.142C54.5435 104.429 54.1515 104.653 53.6895 104.814C53.2345 104.975 52.7305 105.055 52.1775 105.055C51.5825 105.055 51.04 104.964 50.55 104.782C50.256 104.95 50.0215 105.15 49.8465 105.381C49.6785 105.605 49.5945 105.829 49.5945 106.053C49.5945 106.354 49.6995 106.585 49.9095 106.746C50.1265 106.907 50.4065 107.026 50.7495 107.103C51.0995 107.173 51.495 107.218 51.936 107.239C52.384 107.26 52.839 107.285 53.301 107.313C53.763 107.334 54.2145 107.376 54.6555 107.439C55.1035 107.502 55.499 107.614 55.842 107.775C56.192 107.929 56.472 108.149 56.682 108.436C56.899 108.716 57.0075 109.091 57.0075 109.56C57.0075 109.994 56.899 110.41 56.682 110.809C56.465 111.208 56.15 111.562 55.737 111.87C55.331 112.178 54.8375 112.423 54.2565 112.605C53.6755 112.794 53.0245 112.888 52.3035 112.888C51.5685 112.888 50.9245 112.811 50.3715 112.657C49.8185 112.51 49.353 112.307 48.975 112.048C48.604 111.796 48.324 111.502 48.135 111.166C47.946 110.83 47.8515 110.473 47.8515 110.095C47.8515 109.542 48.0335 109.07 48.3975 108.678C48.7615 108.279 49.2585 107.967 49.8885 107.743C49.5385 107.624 49.255 107.453 49.038 107.229C48.828 106.998 48.723 106.686 48.723 106.294C48.723 106.147 48.751 105.993 48.807 105.832C48.863 105.671 48.947 105.514 49.059 105.36C49.171 105.199 49.3075 105.048 49.4685 104.908C49.6295 104.768 49.8115 104.642 50.0145 104.53C49.5175 104.243 49.129 103.862 48.849 103.386C48.576 102.91 48.4395 102.353 48.4395 101.716C48.4395 101.212 48.527 100.757 48.702 100.351C48.884 99.9385 49.1395 99.585 49.4685 99.291C49.7975 98.997 50.1895 98.7695 50.6445 98.6085C51.1065 98.4475 51.6175 98.367 52.1775 98.367C52.6395 98.367 53.063 98.423 53.448 98.535C53.84 98.647 54.19 98.8045 54.498 99.0075H57.1755ZM66.676 102.714C66.676 102.154 66.5955 101.653 66.4345 101.212C66.2805 100.764 66.06 100.386 65.773 100.078C65.486 99.7705 65.143 99.536 64.744 99.375C64.352 99.207 63.918 99.123 63.442 99.123C62.903 99.123 62.42 99.207 61.993 99.375C61.566 99.543 61.195 99.7845 60.88 100.099C60.572 100.414 60.3235 100.792 60.1345 101.233C59.9455 101.674 59.8195 102.168 59.7565 102.714H66.676ZM59.704 103.354V103.554C59.704 104.338 59.795 105.027 59.977 105.622C60.159 106.217 60.418 106.718 60.754 107.124C61.09 107.523 61.496 107.824 61.972 108.027C62.448 108.23 62.98 108.331 63.568 108.331C64.093 108.331 64.548 108.275 64.933 108.163C65.318 108.044 65.64 107.915 65.899 107.775C66.165 107.628 66.375 107.498 66.529 107.386C66.683 107.267 66.795 107.208 66.865 107.208C66.956 107.208 67.026 107.243 67.075 107.313L67.348 107.649C67.18 107.859 66.956 108.055 66.676 108.237C66.403 108.419 66.095 108.576 65.752 108.709C65.416 108.835 65.052 108.937 64.66 109.014C64.275 109.091 63.8865 109.129 63.4945 109.129C62.7805 109.129 62.1295 109.007 61.5415 108.762C60.9535 108.51 60.4495 108.146 60.0295 107.67C59.6095 107.194 59.284 106.613 59.053 105.927C58.829 105.234 58.717 104.443 58.717 103.554C58.717 102.805 58.822 102.115 59.032 101.485C59.249 100.848 59.557 100.302 59.956 99.8475C60.362 99.3855 60.8555 99.025 61.4365 98.766C62.0245 98.507 62.6895 98.3775 63.4315 98.3775C64.0195 98.3775 64.5655 98.479 65.0695 98.682C65.5735 98.885 66.011 99.1825 66.382 99.5745C66.753 99.9595 67.0435 100.435 67.2535 101.002C67.4705 101.569 67.579 102.22 67.579 102.955C67.579 103.109 67.558 103.214 67.516 103.27C67.474 103.326 67.404 103.354 67.306 103.354H59.704ZM77.3227 99.942C77.2877 99.977 77.2527 100.008 77.2177 100.036C77.1897 100.057 77.1477 100.068 77.0917 100.068C77.0217 100.068 76.9272 100.022 76.8082 99.9315C76.6892 99.8335 76.5282 99.7285 76.3252 99.6165C76.1222 99.5045 75.8667 99.403 75.5587 99.312C75.2577 99.214 74.8902 99.165 74.4562 99.165C73.8542 99.165 73.3187 99.2735 72.8497 99.4905C72.3877 99.7005 71.9957 100.005 71.6737 100.404C71.3517 100.803 71.1067 101.286 70.9387 101.853C70.7777 102.42 70.6972 103.057 70.6972 103.764C70.6972 104.499 70.7812 105.15 70.9492 105.717C71.1242 106.284 71.3692 106.763 71.6842 107.155C71.9992 107.54 72.3807 107.834 72.8287 108.037C73.2767 108.24 73.7737 108.342 74.3197 108.342C74.8237 108.342 75.2437 108.282 75.5797 108.163C75.9227 108.044 76.2027 107.915 76.4197 107.775C76.6437 107.635 76.8187 107.505 76.9447 107.386C77.0707 107.267 77.1757 107.208 77.2597 107.208C77.3437 107.208 77.4137 107.243 77.4697 107.313L77.7322 107.649C77.5712 107.859 77.3682 108.055 77.1232 108.237C76.8782 108.419 76.6017 108.576 76.2937 108.709C75.9857 108.842 75.6497 108.944 75.2857 109.014C74.9287 109.091 74.5542 109.129 74.1622 109.129C73.4972 109.129 72.8882 109.01 72.3352 108.772C71.7892 108.527 71.3167 108.177 70.9177 107.722C70.5257 107.26 70.2177 106.697 69.9937 106.032C69.7767 105.367 69.6682 104.611 69.6682 103.764C69.6682 102.966 69.7732 102.238 69.9832 101.58C70.1932 100.922 70.5012 100.355 70.9072 99.879C71.3132 99.403 71.8067 99.0355 72.3877 98.7765C72.9757 98.5105 73.6477 98.3775 74.4037 98.3775C75.0827 98.3775 75.6847 98.486 76.2097 98.703C76.7347 98.92 77.1932 99.214 77.5852 99.585L77.3227 99.942ZM84.1354 98.3775C84.8844 98.3775 85.5529 98.507 86.1409 98.766C86.7359 99.018 87.2364 99.3785 87.6424 99.8475C88.0484 100.316 88.3564 100.883 88.5664 101.548C88.7834 102.206 88.8919 102.945 88.8919 103.764C88.8919 104.583 88.7834 105.321 88.5664 105.979C88.3564 106.637 88.0484 107.201 87.6424 107.67C87.2364 108.139 86.7359 108.499 86.1409 108.751C85.5529 109.003 84.8844 109.129 84.1354 109.129C83.3864 109.129 82.7144 109.003 82.1194 108.751C81.5314 108.499 81.0309 108.139 80.6179 107.67C80.2119 107.201 79.9004 106.637 79.6834 105.979C79.4734 105.321 79.3684 104.583 79.3684 103.764C79.3684 102.945 79.4734 102.206 79.6834 101.548C79.9004 100.883 80.2119 100.316 80.6179 99.8475C81.0309 99.3785 81.5314 99.018 82.1194 98.766C82.7144 98.507 83.3864 98.3775 84.1354 98.3775ZM84.1354 108.342C84.7584 108.342 85.3009 108.237 85.7629 108.027C86.2319 107.81 86.6204 107.502 86.9284 107.103C87.2434 106.704 87.4779 106.224 87.6319 105.664C87.7859 105.097 87.8629 104.464 87.8629 103.764C87.8629 103.071 87.7859 102.441 87.6319 101.874C87.4779 101.307 87.2434 100.824 86.9284 100.425C86.6204 100.019 86.2319 99.7075 85.7629 99.4905C85.3009 99.2735 84.7584 99.165 84.1354 99.165C83.5124 99.165 82.9664 99.2735 82.4974 99.4905C82.0354 99.7075 81.6469 100.019 81.3319 100.425C81.0239 100.824 80.7894 101.307 80.6284 101.874C80.4744 102.441 80.3974 103.071 80.3974 103.764C80.3974 104.464 80.4744 105.097 80.6284 105.664C80.7894 106.224 81.0239 106.704 81.3319 107.103C81.6469 107.502 82.0354 107.81 82.4974 108.027C82.9664 108.237 83.5124 108.342 84.1354 108.342ZM92.8213 98.5455V108.993H91.8238V98.5455H92.8213ZM93.2518 94.944C93.2518 95.07 93.2238 95.189 93.1678 95.301C93.1188 95.406 93.0523 95.5005 92.9683 95.5845C92.8843 95.6685 92.7863 95.735 92.6743 95.784C92.5623 95.833 92.4433 95.8575 92.3173 95.8575C92.1913 95.8575 92.0723 95.833 91.9603 95.784C91.8483 95.735 91.7503 95.6685 91.6663 95.5845C91.5823 95.5005 91.5158 95.406 91.4668 95.301C91.4178 95.189 91.3933 95.07 91.3933 94.944C91.3933 94.818 91.4178 94.699 91.4668 94.587C91.5158 94.468 91.5823 94.3665 91.6663 94.2825C91.7503 94.1985 91.8483 94.132 91.9603 94.083C92.0723 94.034 92.1913 94.0095 92.3173 94.0095C92.4433 94.0095 92.5623 94.034 92.6743 94.083C92.7863 94.132 92.8843 94.1985 92.9683 94.2825C93.0523 94.3665 93.1188 94.468 93.1678 94.587C93.2238 94.699 93.2518 94.818 93.2518 94.944ZM97.3396 100.372C97.8226 99.7705 98.3791 99.2875 99.0091 98.9235C99.6461 98.5595 100.353 98.3775 101.13 98.3775C101.704 98.3775 102.208 98.4685 102.642 98.6505C103.083 98.8325 103.447 99.095 103.734 99.438C104.021 99.781 104.238 100.194 104.385 100.677C104.532 101.16 104.606 101.706 104.606 102.315V108.993H103.598V102.315C103.598 101.335 103.374 100.568 102.926 100.015C102.478 99.4555 101.795 99.1755 100.878 99.1755C100.199 99.1755 99.5621 99.3505 98.9671 99.7005C98.3791 100.043 97.8541 100.523 97.3921 101.139V108.993H96.3841V98.5455H96.9406C97.1156 98.5455 97.2171 98.633 97.2451 98.808L97.3396 100.372Z"
     fill="white"
     fill-opacity="0.84"
     id="path4" />
  <path
     opacity="0.65"
     d="M194.425 132.649C194.765 132.649 195.068 132.591 195.335 132.474C195.605 132.354 195.833 132.189 196.02 131.979C196.207 131.769 196.348 131.523 196.445 131.239C196.545 130.953 196.595 130.644 196.595 130.314V125.939H197.105V130.314C197.105 130.704 197.043 131.069 196.92 131.409C196.797 131.746 196.618 132.041 196.385 132.294C196.155 132.544 195.873 132.741 195.54 132.884C195.21 133.028 194.838 133.099 194.425 133.099C194.012 133.099 193.638 133.028 193.305 132.884C192.975 132.741 192.693 132.544 192.46 132.294C192.23 132.041 192.053 131.746 191.93 131.409C191.807 131.069 191.745 130.704 191.745 130.314V125.939H192.26V130.309C192.26 130.639 192.308 130.948 192.405 131.234C192.505 131.518 192.647 131.764 192.83 131.974C193.017 132.184 193.243 132.349 193.51 132.469C193.78 132.589 194.085 132.649 194.425 132.649ZM202.536 126.799C202.506 126.856 202.462 126.884 202.406 126.884C202.362 126.884 202.306 126.854 202.236 126.794C202.169 126.731 202.077 126.663 201.961 126.589C201.844 126.513 201.697 126.443 201.521 126.379C201.347 126.316 201.132 126.284 200.876 126.284C200.619 126.284 200.392 126.321 200.196 126.394C200.002 126.468 199.839 126.568 199.706 126.694C199.576 126.821 199.476 126.968 199.406 127.134C199.339 127.301 199.306 127.476 199.306 127.659C199.306 127.899 199.356 128.098 199.456 128.254C199.559 128.411 199.694 128.544 199.861 128.654C200.027 128.764 200.216 128.858 200.426 128.934C200.639 129.008 200.857 129.081 201.081 129.154C201.304 129.228 201.521 129.309 201.731 129.399C201.944 129.486 202.134 129.596 202.301 129.729C202.467 129.863 202.601 130.028 202.701 130.224C202.804 130.418 202.856 130.659 202.856 130.949C202.856 131.246 202.804 131.526 202.701 131.789C202.601 132.049 202.454 132.276 202.261 132.469C202.067 132.663 201.831 132.816 201.551 132.929C201.271 133.039 200.951 133.094 200.591 133.094C200.124 133.094 199.722 133.013 199.386 132.849C199.049 132.683 198.754 132.456 198.501 132.169L198.641 131.949C198.681 131.899 198.727 131.874 198.781 131.874C198.811 131.874 198.849 131.894 198.896 131.934C198.942 131.974 198.999 132.024 199.066 132.084C199.132 132.141 199.212 132.204 199.306 132.274C199.399 132.341 199.507 132.404 199.631 132.464C199.754 132.521 199.896 132.569 200.056 132.609C200.216 132.649 200.397 132.669 200.601 132.669C200.881 132.669 201.131 132.628 201.351 132.544C201.571 132.458 201.756 132.341 201.906 132.194C202.059 132.048 202.176 131.874 202.256 131.674C202.336 131.471 202.376 131.254 202.376 131.024C202.376 130.774 202.324 130.569 202.221 130.409C202.121 130.246 201.987 130.111 201.821 130.004C201.654 129.894 201.464 129.803 201.251 129.729C201.041 129.656 200.824 129.584 200.601 129.514C200.377 129.444 200.159 129.366 199.946 129.279C199.736 129.193 199.547 129.083 199.381 128.949C199.214 128.813 199.079 128.644 198.976 128.444C198.876 128.241 198.826 127.988 198.826 127.684C198.826 127.448 198.871 127.219 198.961 126.999C199.051 126.779 199.182 126.586 199.356 126.419C199.529 126.249 199.742 126.114 199.996 126.014C200.252 125.911 200.544 125.859 200.871 125.859C201.237 125.859 201.566 125.918 201.856 126.034C202.149 126.151 202.416 126.329 202.656 126.569L202.536 126.799ZM210.412 129.474C210.412 130.021 210.331 130.513 210.167 130.949C210.004 131.386 209.774 131.758 209.477 132.064C209.181 132.371 208.824 132.606 208.407 132.769C207.994 132.933 207.537 133.014 207.037 133.014H204.452V125.939H207.037C207.537 125.939 207.994 126.021 208.407 126.184C208.824 126.348 209.181 126.583 209.477 126.889C209.774 127.196 210.004 127.568 210.167 128.004C210.331 128.441 210.412 128.931 210.412 129.474ZM209.882 129.474C209.882 128.981 209.814 128.541 209.677 128.154C209.541 127.768 209.347 127.441 209.097 127.174C208.847 126.908 208.547 126.704 208.197 126.564C207.847 126.424 207.461 126.354 207.037 126.354H204.967V132.599H207.037C207.461 132.599 207.847 132.529 208.197 132.389C208.547 132.249 208.847 132.046 209.097 131.779C209.347 131.513 209.541 131.186 209.677 130.799C209.814 130.413 209.882 129.971 209.882 129.474Z"
     fill="white"
     id="path6" />
  <path
     d="M35.654 44.3601C35.654 45.5408 35.467 46.6151 35.093 47.5831C34.719 48.5511 34.191 49.3798 33.509 50.0691C32.827 50.7585 32.0057 51.2938 31.045 51.6751C30.0917 52.0491 29.0357 52.2361 27.877 52.2361H21.992V36.4731H27.877C29.0357 36.4731 30.0917 36.6638 31.045 37.0451C32.0057 37.4191 32.827 37.9545 33.509 38.6511C34.191 39.3405 34.719 40.1691 35.093 41.1371C35.467 42.1051 35.654 43.1795 35.654 44.3601ZM33.465 44.3601C33.465 43.3921 33.333 42.5268 33.069 41.7641C32.805 41.0015 32.431 40.3561 31.947 39.8281C31.463 39.3001 30.8763 38.8968 30.187 38.6181C29.4977 38.3395 28.7277 38.2001 27.877 38.2001H24.126V50.5091H27.877C28.7277 50.5091 29.4977 50.3698 30.187 50.0911C30.8763 49.8125 31.463 49.4128 31.947 48.8921C32.431 48.3641 32.805 47.7188 33.069 46.9561C33.333 46.1935 33.465 45.3281 33.465 44.3601ZM53.2923 44.3601C53.2923 45.5408 53.1053 46.6261 52.7313 47.6161C52.3573 48.5988 51.8293 49.4458 51.1473 50.1571C50.4653 50.8685 49.644 51.4221 48.6833 51.8181C47.73 52.2068 46.674 52.4011 45.5153 52.4011C44.3567 52.4011 43.3007 52.2068 42.3473 51.8181C41.394 51.4221 40.5763 50.8685 39.8943 50.1571C39.2123 49.4458 38.6843 48.5988 38.3103 47.6161C37.9363 46.6261 37.7493 45.5408 37.7493 44.3601C37.7493 43.1795 37.9363 42.0978 38.3103 41.1151C38.6843 40.1251 39.2123 39.2745 39.8943 38.5631C40.5763 37.8445 41.394 37.2871 42.3473 36.8911C43.3007 36.4951 44.3567 36.2971 45.5153 36.2971C46.674 36.2971 47.73 36.4951 48.6833 36.8911C49.644 37.2871 50.4653 37.8445 51.1473 38.5631C51.8293 39.2745 52.3573 40.1251 52.7313 41.1151C53.1053 42.0978 53.2923 43.1795 53.2923 44.3601ZM51.1033 44.3601C51.1033 43.3921 50.9713 42.5231 50.7073 41.7531C50.4433 40.9831 50.0693 40.3341 49.5853 39.8061C49.1013 39.2708 48.5147 38.8601 47.8253 38.5741C47.136 38.2881 46.366 38.1451 45.5153 38.1451C44.672 38.1451 43.9057 38.2881 43.2163 38.5741C42.527 38.8601 41.9367 39.2708 41.4453 39.8061C40.9613 40.3341 40.5873 40.9831 40.3233 41.7531C40.0593 42.5231 39.9273 43.3921 39.9273 44.3601C39.9273 45.3281 40.0593 46.1971 40.3233 46.9671C40.5873 47.7298 40.9613 48.3788 41.4453 48.9141C41.9367 49.4421 42.527 49.8491 43.2163 50.1351C43.9057 50.4138 44.672 50.5531 45.5153 50.5531C46.366 50.5531 47.136 50.4138 47.8253 50.1351C48.5147 49.8491 49.1013 49.4421 49.5853 48.9141C50.0693 48.3788 50.4433 47.7298 50.7073 46.9671C50.9713 46.1971 51.1033 45.3281 51.1033 44.3601ZM69.1495 44.6571V50.7071C68.3575 51.2791 67.5105 51.7081 66.6085 51.9941C65.7139 52.2728 64.7312 52.4121 63.6605 52.4121C62.3919 52.4121 61.2479 52.2178 60.2285 51.8291C59.2092 51.4331 58.3365 50.8831 57.6105 50.1791C56.8919 49.4678 56.3382 48.6171 55.9495 47.6271C55.5609 46.6371 55.3665 45.5481 55.3665 44.3601C55.3665 43.1575 55.5535 42.0611 55.9275 41.0711C56.3089 40.0811 56.8479 39.2341 57.5445 38.5301C58.2412 37.8188 59.0882 37.2688 60.0855 36.8801C61.0829 36.4915 62.1975 36.2971 63.4295 36.2971C64.0529 36.2971 64.6322 36.3448 65.1675 36.4401C65.7029 36.5281 66.1979 36.6601 66.6525 36.8361C67.1072 37.0048 67.5289 37.2138 67.9175 37.4631C68.3062 37.7051 68.6692 37.9801 69.0065 38.2881L68.4015 39.2561C68.3062 39.4028 68.1815 39.4981 68.0275 39.5421C67.8809 39.5788 67.7159 39.5421 67.5325 39.4321C67.3565 39.3295 67.1549 39.2048 66.9275 39.0581C66.7002 38.9115 66.4215 38.7721 66.0915 38.6401C65.7689 38.5008 65.3839 38.3835 64.9365 38.2881C64.4965 38.1928 63.9722 38.1451 63.3635 38.1451C62.4762 38.1451 61.6732 38.2918 60.9545 38.5851C60.2359 38.8711 59.6235 39.2855 59.1175 39.8281C58.6115 40.3635 58.2229 41.0161 57.9515 41.7861C57.6802 42.5488 57.5445 43.4068 57.5445 44.3601C57.5445 45.3501 57.6839 46.2375 57.9625 47.0221C58.2485 47.7995 58.6519 48.4631 59.1725 49.0131C59.7005 49.5558 60.3385 49.9701 61.0865 50.2561C61.8345 50.5421 62.6742 50.6851 63.6055 50.6851C64.3389 50.6851 64.9879 50.6045 65.5525 50.4431C66.1245 50.2745 66.6819 50.0435 67.2245 49.7501V46.2851H64.7715C64.6322 46.2851 64.5185 46.2448 64.4305 46.1641C64.3499 46.0835 64.3095 45.9845 64.3095 45.8671V44.6571H69.1495ZM82.1398 50.4981L82.1288 52.2361H72.4158V36.4731H82.1288V38.2111H74.5498V43.4471H80.6878V45.1191H74.5498V50.4981H82.1398Z"
     fill="#484848"
     id="path8" />
  <g
     opacity="0.91"
     id="g18">
    <g
       opacity="0.91"
       id="g16">
      <path
         opacity="0.91"
         d="M181.003 75.993C197.571 75.993 211.003 62.5615 211.003 45.993C211.003 29.4244 197.571 15.993 181.003 15.993C164.434 15.993 151.003 29.4244 151.003 45.993C151.003 62.5615 164.434 75.993 181.003 75.993Z"
         fill="#484848"
         id="path14" />
    </g>
  </g>
  <g
     opacity="0.6"
     id="g22">
    <path
       opacity="0.6"
       fill-rule="evenodd"
       clip-rule="evenodd"
       d="M180.852 62.9698H169.134V47.3907H165.003V43.5744H169.133V27.9943H179.191C179.245 27.9943 179.307 27.994 179.375 27.9937L179.375 27.9937C182.283 27.9815 197.33 27.9182 197.33 45.7744C197.33 64.3509 180.853 62.9698 180.853 62.9698H180.852ZM180.357 34.4585H175.734V43.5735H183.008V47.3898H175.734V56.5041H180.584L180.632 56.5041C182.043 56.5059 190.814 56.5169 190.8 45.8997C190.786 35.1545 182.087 34.4585 180.357 34.4585Z"
       fill="white"
       id="path20" />
  </g>
  <defs
     id="defs31">
    <linearGradient
       id="paint0_linear"
       x1="0.00293828"
       y1="-5.61978"
       x2="89.7368"
       y2="263.536"
       gradientUnits="userSpaceOnUse">
      <stop
         stop-color="white"
         id="stop24" />
      <stop
         offset="0.552"
         stop-color="#777777"
         id="stop26" />
      <stop
         offset="1"
         stop-color="#848484"
         id="stop28" />
    </linearGradient>
  </defs>
</svg>
