<?xml version="1.0" encoding="UTF-8" standalone="no"?>
<svg
   xmlns:dc="http://purl.org/dc/elements/1.1/"
   xmlns:cc="http://creativecommons.org/ns#"
   xmlns:rdf="http://www.w3.org/1999/02/22-rdf-syntax-ns#"
   xmlns:svg="http://www.w3.org/2000/svg"
   xmlns="http://www.w3.org/2000/svg"
   xmlns:sodipodi="http://sodipodi.sourceforge.net/DTD/sodipodi-0.dtd"
   xmlns:inkscape="http://www.inkscape.org/namespaces/inkscape"
   width="231"
   height="152"
   viewBox="0 0 231 152"
   fill="none"
   version="1.1"
   id="svg33"
   sodipodi:docname="but_monero_a.svg"
   inkscape:version="0.92.3 (2405546, 2018-03-11)">
  <metadata
     id="metadata37">
    <rdf:RDF>
      <cc:Work
         rdf:about="">
        <dc:format>image/svg+xml</dc:format>
        <dc:type
           rdf:resource="http://purl.org/dc/dcmitype/StillImage" />
      </cc:Work>
    </rdf:RDF>
  </metadata>
  <sodipodi:namedview
     pagecolor="#ffffff"
     bordercolor="#666666"
     borderopacity="1"
     objecttolerance="10"
     gridtolerance="10"
     guidetolerance="10"
     inkscape:pageopacity="0"
     inkscape:pageshadow="2"
     inkscape:window-width="1475"
     inkscape:window-height="1002"
     id="namedview35"
     showgrid="false"
     inkscape:zoom="1.2294372"
     inkscape:cx="134.20775"
     inkscape:cy="76"
     inkscape:window-x="0"
     inkscape:window-y="0"
     inkscape:window-maximized="0"
     inkscape:current-layer="svg33" />
  <path
     opacity="0.8"
     d="M230.688 0.992981H0.00292969V151.283H230.688V0.992981Z"
     fill="url(#paint0_linear)"
     id="path2" />
  <path
     opacity="0.75"
     d="M36.4565 94.1355V108.993H35.522V96.33C35.522 96.148 35.5325 95.9555 35.5535 95.7525L29.705 106.137C29.607 106.319 29.467 106.41 29.285 106.41H29.117C28.935 106.41 28.795 106.319 28.697 106.137L22.691 95.7315C22.712 95.9415 22.7225 96.141 22.7225 96.33V108.993H21.7775V94.1355H22.523C22.621 94.1355 22.698 94.146 22.754 94.167C22.81 94.188 22.866 94.244 22.922 94.335L28.9175 104.667C29.0225 104.863 29.1135 105.073 29.1905 105.297C29.2325 105.185 29.278 105.076 29.327 104.971C29.376 104.859 29.4285 104.754 29.4845 104.656L35.312 94.335C35.368 94.244 35.424 94.188 35.48 94.167C35.543 94.146 35.6235 94.1355 35.7215 94.1355H36.4565ZM44.1861 98.3775C44.9351 98.3775 45.6036 98.507 46.1916 98.766C46.7866 99.018 47.2871 99.3785 47.6931 99.8475C48.0991 100.316 48.4071 100.883 48.6171 101.548C48.8341 102.206 48.9426 102.945 48.9426 103.764C48.9426 104.583 48.8341 105.321 48.6171 105.979C48.4071 106.637 48.0991 107.201 47.6931 107.67C47.2871 108.139 46.7866 108.499 46.1916 108.751C45.6036 109.003 44.9351 109.129 44.1861 109.129C43.4371 109.129 42.7651 109.003 42.1701 108.751C41.5821 108.499 41.0816 108.139 40.6686 107.67C40.2626 107.201 39.9511 106.637 39.7341 105.979C39.5241 105.321 39.4191 104.583 39.4191 103.764C39.4191 102.945 39.5241 102.206 39.7341 101.548C39.9511 100.883 40.2626 100.316 40.6686 99.8475C41.0816 99.3785 41.5821 99.018 42.1701 98.766C42.7651 98.507 43.4371 98.3775 44.1861 98.3775ZM44.1861 108.342C44.8091 108.342 45.3516 108.237 45.8136 108.027C46.2826 107.81 46.6711 107.502 46.9791 107.103C47.2941 106.704 47.5286 106.224 47.6826 105.664C47.8366 105.097 47.9136 104.464 47.9136 103.764C47.9136 103.071 47.8366 102.441 47.6826 101.874C47.5286 101.307 47.2941 100.824 46.9791 100.425C46.6711 100.019 46.2826 99.7075 45.8136 99.4905C45.3516 99.2735 44.8091 99.165 44.1861 99.165C43.5631 99.165 43.0171 99.2735 42.5481 99.4905C42.0861 99.7075 41.6976 100.019 41.3826 100.425C41.0746 100.824 40.8401 101.307 40.6791 101.874C40.5251 102.441 40.4481 103.071 40.4481 103.764C40.4481 104.464 40.5251 105.097 40.6791 105.664C40.8401 106.224 41.0746 106.704 41.3826 107.103C41.6976 107.502 42.0861 107.81 42.5481 108.027C43.0171 108.237 43.5631 108.342 44.1861 108.342ZM52.7146 100.372C53.1976 99.7705 53.7541 99.2875 54.3841 98.9235C55.0211 98.5595 55.7281 98.3775 56.5051 98.3775C57.0791 98.3775 57.5831 98.4685 58.0171 98.6505C58.4581 98.8325 58.8221 99.095 59.1091 99.438C59.3961 99.781 59.6131 100.194 59.7601 100.677C59.9071 101.16 59.9806 101.706 59.9806 102.315V108.993H58.9726V102.315C58.9726 101.335 58.7486 100.568 58.3006 100.015C57.8526 99.4555 57.1701 99.1755 56.2531 99.1755C55.5741 99.1755 54.9371 99.3505 54.3421 99.7005C53.7541 100.043 53.2291 100.523 52.7671 101.139V108.993H51.7591V98.5455H52.3156C52.4906 98.5455 52.5921 98.633 52.6201 98.808L52.7146 100.372ZM70.634 102.714C70.634 102.154 70.5535 101.653 70.3925 101.212C70.2385 100.764 70.018 100.386 69.731 100.078C69.444 99.7705 69.101 99.536 68.702 99.375C68.31 99.207 67.876 99.123 67.4 99.123C66.861 99.123 66.378 99.207 65.951 99.375C65.524 99.543 65.153 99.7845 64.838 100.099C64.53 100.414 64.2815 100.792 64.0925 101.233C63.9035 101.674 63.7775 102.168 63.7145 102.714H70.634ZM63.662 103.354V103.554C63.662 104.338 63.753 105.027 63.935 105.622C64.117 106.217 64.376 106.718 64.712 107.124C65.048 107.523 65.454 107.824 65.93 108.027C66.406 108.23 66.938 108.331 67.526 108.331C68.051 108.331 68.506 108.275 68.891 108.163C69.276 108.044 69.598 107.915 69.857 107.775C70.123 107.628 70.333 107.498 70.487 107.386C70.641 107.267 70.753 107.208 70.823 107.208C70.914 107.208 70.984 107.243 71.033 107.313L71.306 107.649C71.138 107.859 70.914 108.055 70.634 108.237C70.361 108.419 70.053 108.576 69.71 108.709C69.374 108.835 69.01 108.937 68.618 109.014C68.233 109.091 67.8445 109.129 67.4525 109.129C66.7385 109.129 66.0875 109.007 65.4995 108.762C64.9115 108.51 64.4075 108.146 63.9875 107.67C63.5675 107.194 63.242 106.613 63.011 105.927C62.787 105.234 62.675 104.443 62.675 103.554C62.675 102.805 62.78 102.115 62.99 101.485C63.207 100.848 63.515 100.302 63.914 99.8475C64.32 99.3855 64.8135 99.025 65.3945 98.766C65.9825 98.507 66.6475 98.3775 67.3895 98.3775C67.9775 98.3775 68.5235 98.479 69.0275 98.682C69.5315 98.885 69.969 99.1825 70.34 99.5745C70.711 99.9595 71.0015 100.435 71.2115 101.002C71.4285 101.569 71.537 102.22 71.537 102.955C71.537 103.109 71.516 103.214 71.474 103.27C71.432 103.326 71.362 103.354 71.264 103.354H63.662ZM75.2117 101.065C75.3727 100.638 75.5547 100.26 75.7577 99.9315C75.9677 99.5955 76.2057 99.312 76.4717 99.081C76.7447 98.85 77.0457 98.675 77.3747 98.556C77.7107 98.43 78.0817 98.367 78.4877 98.367C78.7047 98.367 78.9182 98.388 79.1282 98.43C79.3382 98.465 79.5237 98.5315 79.6847 98.6295L79.6007 99.3225C79.5657 99.4345 79.4992 99.4905 79.4012 99.4905C79.3172 99.4905 79.1877 99.466 79.0127 99.417C78.8447 99.368 78.6207 99.3435 78.3407 99.3435C77.9347 99.3435 77.5742 99.4065 77.2592 99.5325C76.9512 99.6515 76.6712 99.8335 76.4192 100.078C76.1742 100.323 75.9572 100.628 75.7682 100.992C75.5862 101.349 75.4182 101.762 75.2642 102.231V108.993H74.2562V98.5455H74.7917C74.9107 98.5455 74.9947 98.57 75.0437 98.619C75.0927 98.668 75.1242 98.752 75.1382 98.871L75.2117 101.065ZM85.2223 98.3775C85.9713 98.3775 86.6398 98.507 87.2278 98.766C87.8228 99.018 88.3233 99.3785 88.7293 99.8475C89.1353 100.316 89.4433 100.883 89.6533 101.548C89.8703 102.206 89.9788 102.945 89.9788 103.764C89.9788 104.583 89.8703 105.321 89.6533 105.979C89.4433 106.637 89.1353 107.201 88.7293 107.67C88.3233 108.139 87.8228 108.499 87.2278 108.751C86.6398 109.003 85.9713 109.129 85.2223 109.129C84.4733 109.129 83.8013 109.003 83.2063 108.751C82.6183 108.499 82.1178 108.139 81.7048 107.67C81.2988 107.201 80.9873 106.637 80.7703 105.979C80.5603 105.321 80.4553 104.583 80.4553 103.764C80.4553 102.945 80.5603 102.206 80.7703 101.548C80.9873 100.883 81.2988 100.316 81.7048 99.8475C82.1178 99.3785 82.6183 99.018 83.2063 98.766C83.8013 98.507 84.4733 98.3775 85.2223 98.3775ZM85.2223 108.342C85.8453 108.342 86.3878 108.237 86.8498 108.027C87.3188 107.81 87.7073 107.502 88.0153 107.103C88.3303 106.704 88.5648 106.224 88.7188 105.664C88.8728 105.097 88.9498 104.464 88.9498 103.764C88.9498 103.071 88.8728 102.441 88.7188 101.874C88.5648 101.307 88.3303 100.824 88.0153 100.425C87.7073 100.019 87.3188 99.7075 86.8498 99.4905C86.3878 99.2735 85.8453 99.165 85.2223 99.165C84.5993 99.165 84.0533 99.2735 83.5843 99.4905C83.1223 99.7075 82.7338 100.019 82.4188 100.425C82.1108 100.824 81.8763 101.307 81.7153 101.874C81.5613 102.441 81.4843 103.071 81.4843 103.764C81.4843 104.464 81.5613 105.097 81.7153 105.664C81.8763 106.224 82.1108 106.704 82.4188 107.103C82.7338 107.502 83.1223 107.81 83.5843 108.027C84.0533 108.237 84.5993 108.342 85.2223 108.342Z"
     fill="white"
     fill-opacity="0.84"
     id="path4" />
  <path
     opacity="0.65"
     d="M194.425 132.649C194.765 132.649 195.068 132.591 195.335 132.474C195.605 132.354 195.833 132.189 196.02 131.979C196.207 131.769 196.348 131.523 196.445 131.239C196.545 130.953 196.595 130.644 196.595 130.314V125.939H197.105V130.314C197.105 130.704 197.043 131.069 196.92 131.409C196.797 131.746 196.618 132.041 196.385 132.294C196.155 132.544 195.873 132.741 195.54 132.884C195.21 133.028 194.838 133.099 194.425 133.099C194.012 133.099 193.638 133.028 193.305 132.884C192.975 132.741 192.693 132.544 192.46 132.294C192.23 132.041 192.053 131.746 191.93 131.409C191.807 131.069 191.745 130.704 191.745 130.314V125.939H192.26V130.309C192.26 130.639 192.308 130.948 192.405 131.234C192.505 131.518 192.647 131.764 192.83 131.974C193.017 132.184 193.243 132.349 193.51 132.469C193.78 132.589 194.085 132.649 194.425 132.649ZM202.536 126.799C202.506 126.856 202.462 126.884 202.406 126.884C202.362 126.884 202.306 126.854 202.236 126.794C202.169 126.731 202.077 126.663 201.961 126.589C201.844 126.513 201.697 126.443 201.521 126.379C201.347 126.316 201.132 126.284 200.876 126.284C200.619 126.284 200.392 126.321 200.196 126.394C200.002 126.468 199.839 126.568 199.706 126.694C199.576 126.821 199.476 126.968 199.406 127.134C199.339 127.301 199.306 127.476 199.306 127.659C199.306 127.899 199.356 128.098 199.456 128.254C199.559 128.411 199.694 128.544 199.861 128.654C200.027 128.764 200.216 128.858 200.426 128.934C200.639 129.008 200.857 129.081 201.081 129.154C201.304 129.228 201.521 129.309 201.731 129.399C201.944 129.486 202.134 129.596 202.301 129.729C202.467 129.863 202.601 130.028 202.701 130.224C202.804 130.418 202.856 130.659 202.856 130.949C202.856 131.246 202.804 131.526 202.701 131.789C202.601 132.049 202.454 132.276 202.261 132.469C202.067 132.663 201.831 132.816 201.551 132.929C201.271 133.039 200.951 133.094 200.591 133.094C200.124 133.094 199.722 133.013 199.386 132.849C199.049 132.683 198.754 132.456 198.501 132.169L198.641 131.949C198.681 131.899 198.727 131.874 198.781 131.874C198.811 131.874 198.849 131.894 198.896 131.934C198.942 131.974 198.999 132.024 199.066 132.084C199.132 132.141 199.212 132.204 199.306 132.274C199.399 132.341 199.507 132.404 199.631 132.464C199.754 132.521 199.896 132.569 200.056 132.609C200.216 132.649 200.397 132.669 200.601 132.669C200.881 132.669 201.131 132.628 201.351 132.544C201.571 132.458 201.756 132.341 201.906 132.194C202.059 132.048 202.176 131.874 202.256 131.674C202.336 131.471 202.376 131.254 202.376 131.024C202.376 130.774 202.324 130.569 202.221 130.409C202.121 130.246 201.987 130.111 201.821 130.004C201.654 129.894 201.464 129.803 201.251 129.729C201.041 129.656 200.824 129.584 200.601 129.514C200.377 129.444 200.159 129.366 199.946 129.279C199.736 129.193 199.547 129.083 199.381 128.949C199.214 128.813 199.079 128.644 198.976 128.444C198.876 128.241 198.826 127.988 198.826 127.684C198.826 127.448 198.871 127.219 198.961 126.999C199.051 126.779 199.182 126.586 199.356 126.419C199.529 126.249 199.742 126.114 199.996 126.014C200.252 125.911 200.544 125.859 200.871 125.859C201.237 125.859 201.566 125.918 201.856 126.034C202.149 126.151 202.416 126.329 202.656 126.569L202.536 126.799ZM210.412 129.474C210.412 130.021 210.331 130.513 210.167 130.949C210.004 131.386 209.774 131.758 209.477 132.064C209.181 132.371 208.824 132.606 208.407 132.769C207.994 132.933 207.537 133.014 207.037 133.014H204.452V125.939H207.037C207.537 125.939 207.994 126.021 208.407 126.184C208.824 126.348 209.181 126.583 209.477 126.889C209.774 127.196 210.004 127.568 210.167 128.004C210.331 128.441 210.412 128.931 210.412 129.474ZM209.882 129.474C209.882 128.981 209.814 128.541 209.677 128.154C209.541 127.768 209.347 127.441 209.097 127.174C208.847 126.908 208.547 126.704 208.197 126.564C207.847 126.424 207.461 126.354 207.037 126.354H204.967V132.599H207.037C207.461 132.599 207.847 132.529 208.197 132.389C208.547 132.249 208.847 132.046 209.097 131.779C209.347 131.513 209.541 131.186 209.677 130.799C209.814 130.413 209.882 129.971 209.882 129.474Z"
     fill="white"
     id="path6" />
  <path
     d="M34.015 52.2361H31.903C31.7417 52.2361 31.6133 52.1958 31.518 52.1151C31.43 52.0271 31.3567 51.9318 31.298 51.8291L27.074 45.2071C27.0153 45.3831 26.9493 45.5335 26.876 45.6581L22.762 51.8291C22.6887 51.9318 22.608 52.0271 22.52 52.1151C22.4393 52.1958 22.3257 52.2361 22.179 52.2361H20.199L25.622 44.1401L20.419 36.4731H22.542C22.696 36.4731 22.8097 36.4988 22.883 36.5501C22.9563 36.6015 23.0223 36.6748 23.081 36.7701L27.195 43.0841C27.2463 42.9301 27.3233 42.7615 27.426 42.5781L31.309 36.8141C31.3677 36.7115 31.4373 36.6308 31.518 36.5721C31.5987 36.5061 31.694 36.4731 31.804 36.4731H33.839L28.614 44.0411L34.015 52.2361ZM52.6801 36.4731V52.2361H50.8101V40.6531C50.8101 40.4991 50.8138 40.3341 50.8211 40.1581C50.8358 39.9821 50.8504 39.8025 50.8651 39.6191L45.4531 49.4751C45.2844 49.8051 45.0278 49.9701 44.6831 49.9701H44.3751C44.0304 49.9701 43.7738 49.8051 43.6051 49.4751L38.0831 39.5751C38.1271 39.9638 38.1491 40.3231 38.1491 40.6531V52.2361H36.2791V36.4731H37.8521C38.0428 36.4731 38.1894 36.4915 38.2921 36.5281C38.3948 36.5648 38.4938 36.6675 38.5891 36.8361L44.0341 46.5381C44.1221 46.7141 44.2064 46.8975 44.2871 47.0881C44.3751 47.2788 44.4558 47.4731 44.5291 47.6711C44.6024 47.4731 44.6794 47.2788 44.7601 47.0881C44.8408 46.8901 44.9288 46.7031 45.0241 46.5271L50.3701 36.8361C50.4581 36.6675 50.5534 36.5648 50.6561 36.5281C50.7661 36.4915 50.9164 36.4731 51.1071 36.4731H52.6801ZM61.0778 44.1071C61.6938 44.1071 62.2364 44.0338 62.7058 43.8871C63.1824 43.7331 63.5784 43.5205 63.8938 43.2491C64.2164 42.9705 64.4584 42.6405 64.6198 42.2591C64.7811 41.8778 64.8618 41.4561 64.8618 40.9941C64.8618 40.0555 64.5538 39.3478 63.9378 38.8711C63.3218 38.3945 62.3978 38.1561 61.1658 38.1561H58.8338V44.1071H61.0778ZM68.3598 52.2361H66.4678C66.0791 52.2361 65.7931 52.0858 65.6098 51.7851L61.5178 46.1531C61.3931 45.9771 61.2574 45.8525 61.1108 45.7791C60.9714 45.6985 60.7514 45.6581 60.4508 45.6581H58.8338V52.2361H56.7108V36.4731H61.1658C62.1631 36.4731 63.0248 36.5758 63.7508 36.7811C64.4768 36.9791 65.0744 37.2688 65.5438 37.6501C66.0204 38.0315 66.3724 38.4935 66.5998 39.0361C66.8271 39.5715 66.9408 40.1728 66.9408 40.8401C66.9408 41.3975 66.8528 41.9181 66.6768 42.4021C66.5008 42.8861 66.2441 43.3225 65.9068 43.7111C65.5768 44.0925 65.1698 44.4188 64.6858 44.6901C64.2091 44.9615 63.6664 45.1668 63.0578 45.3061C63.3291 45.4601 63.5638 45.6838 63.7618 45.9771L68.3598 52.2361Z"
     fill="#484848"
     id="path8" />
  <g
     opacity="0.91"
     id="g18">
    <g
       opacity="0.91"
       id="g16">
      <path
         opacity="0.91"
         d="M181.003 75.993C197.571 75.993 211.003 62.5615 211.003 45.993C211.003 29.4244 197.571 15.993 181.003 15.993C164.434 15.993 151.003 29.4244 151.003 45.993C151.003 62.5615 164.434 75.993 181.003 75.993Z"
         fill="#484848"
         id="path14" />
    </g>
  </g>
  <g
     opacity="0.6"
     id="g22">
    <path
       opacity="0.6"
       d="M209.615 54.9181C208.868 57.2075 207.848 59.3983 206.576 61.4434H194.054V45.6891L193.787 45.5592L180.835 58.5282L167.876 45.5652V61.4917H155.371C154.087 59.436 153.058 57.2322 152.305 54.9287C152.49 55.1794 152.767 55.2701 153.219 55.2595C155.554 55.2112 157.89 55.2414 160.226 55.2414C161.269 55.2414 161.271 55.2414 161.271 54.1629C161.271 46.4282 161.271 38.6926 161.271 30.9559C161.271 30.6538 161.306 30.3517 161.339 29.8094L181.079 49.5484L200.617 30.0088V55.2414C203.38 55.2414 206.016 55.2081 208.65 55.2625C209.127 55.2716 209.417 55.1719 209.615 54.9181Z"
       fill="white"
       id="path20" />
  </g>
  <defs
     id="defs31">
    <linearGradient
       id="paint0_linear"
       x1="0.00293828"
       y1="-5.61978"
       x2="89.7368"
       y2="263.536"
       gradientUnits="userSpaceOnUse">
      <stop
         stop-color="white"
         id="stop24" />
      <stop
         offset="0.552"
         stop-color="#777777"
         id="stop26" />
      <stop
         offset="1"
         stop-color="#848484"
         id="stop28" />
    </linearGradient>
  </defs>
</svg>
