<svg xmlns="http://www.w3.org/2000/svg" xmlns:xlink="http://www.w3.org/1999/xlink" viewBox="0 0 230.685 150.29">
  <defs>
    <style>
      .cls-1, .cls-6 {
        fill: #484848;
      }

      .cls-2 {
        fill: rgba(1,1,1,0.82);
      }

      .cls-2, .cls-3 {
        opacity: 0.42;
      }

      .cls-4 {
        fill: rgba(255,255,255,0.84);
        font-size: 21px;
        opacity: 0.75;
      }

      .cls-4, .cls-5, .cls-6 {
        font-family: SegoeUI, Segoe UI;
      }

      .cls-10, .cls-11, .cls-5 {
        fill: #fff;
      }

      .cls-5 {
        font-size: 10px;
        opacity: 0.65;
      }

      .cls-6 {
        font-size: 22px;
      }

      .cls-7 {
        opacity: 0.91;
      }

      .cls-8 {
        clip-path: url(#clip-path);
      }

      .cls-9 {
        opacity: 0.6;
      }

      .cls-10 {
        stroke: rgba(0,0,0,0);
      }
    </style>
    <clipPath id="clip-path">
      <circle id="Mask" class="cls-1" cx="30" cy="30" r="30"/>
    </clipPath>
  </defs>
  <g id="Group_1951" data-name="Group 1951" transform="translate(-560.003 -1014)">
    <g id="Group_1950" data-name="Group 1950">
      <rect id="Rectangle_1662" data-name="Rectangle 1662" class="cls-2" width="230" height="150" transform="translate(560.003 1014)"/>
    </g>
    <g id="Group_1940" data-name="Group 1940" class="cls-3" transform="translate(-26 566)">
      <text id="Ethereum" class="cls-4" transform="translate(605.583 556)"><tspan x="0" y="0">Ethereum</tspan></text>
      <text id="USD" class="cls-5" transform="translate(776.79 580.021)"><tspan x="0" y="0">USD</tspan></text>
      <text id="ETH" class="cls-6" transform="translate(605.979 499.243)"><tspan x="0" y="0">ETH</tspan></text>
      <g id="BCC" class="cls-7" transform="translate(737.74 462.54)">
        <g id="Shape">
          <circle id="Mask-2" data-name="Mask" class="cls-1" cx="30" cy="30" r="30"/>
        </g>
      </g>
      <g id="Group_1923" data-name="Group 1923" class="cls-9" transform="translate(754.905 473.6)">
        <g id="eth-2" data-name="eth" transform="translate(0 0)">
          <path id="Union_1" data-name="Union 1" class="cls-10" d="M12.4,26.279a3.574,3.574,0,0,1-.51-.3L.254,19.484a.2.2,0,0,0-.127-.061c.636-.3,1.272-.541,1.908-.842L4.514,17.5c.148-.07.3-.136.442-.2l-1.587.682c-.572.241-1.143.481-1.78.782-.444.18-.953.421-1.4.6a.125.125,0,0,0-.064.022v0c-.016.007-.031.007-.063-.022H0c.191-.3.382-.542.573-.842,1.016-1.624,2.1-3.248,3.116-4.871,1.08-1.745,2.225-3.488,3.305-5.232C8.011,6.8,9.028,5.171,10.046,3.608c.763-1.2,1.526-2.345,2.226-3.548.127,0,.127-.06.19-.06V14.012a.1.1,0,0,1-.008.037l.008-.007V.06L24.67,19.183c.064.061.127.12.127.181-.254-.12-.509-.241-.827-.361s-.636-.3-.953-.421c-.152-.048-.3-.134-.489-.2.274.117.547.242.806.378.446.18.89.421,1.4.6,0-.061,0,0,.063,0-.955.6-1.971,1.142-2.925,1.684-3.115,1.744-6.167,3.428-9.282,5.171a.085.085,0,0,0-.063.03v.03a.074.074,0,0,1-.047.027C12.455,26.306,12.441,26.279,12.4,26.279ZM11.063,14.673c.317-.128.635-.257.952-.408C11.7,14.4,11.4,14.537,11.063,14.673ZM12.462,0Z"/>
          <path id="Union_2" data-name="Union 2" class="cls-10" d="M12.4,16.357v-9.5c.826-.481,1.652-.962,2.479-1.383L24.607.06c0-.06.063-.06.063-.06,0,.06,0,.06-.063.12-3.688,4.931-7.376,9.8-11.064,14.733-.382.541-.762,1.022-1.144,1.564Zm0,.061c-.064,0-.064,0-.127-.061C11,14.673,9.791,13.049,8.52,11.365S5.977,8,4.705,6.314C3.5,4.69,2.226,3.067,1.017,1.383L.064.12C.064.06,0,.06,0,0,.064,0,.064.06.127.06c1.718.962,3.5,1.925,5.214,2.887,1.971,1.142,4.006,2.225,5.976,3.368.317.18.7.361,1.018.541.064,0,.064.061.064.12v9.442Zm0,0Z" transform="translate(0.064 21.649)"/>
          <path id="Shape-3" data-name="Shape" class="cls-11" d="M0,0Z" transform="translate(0.064 19.363)"/>
        </g>
      </g>
    </g>
  </g>
</svg>
