<?xml version="1.0" encoding="UTF-8" standalone="no"?>
<svg
   xmlns:dc="http://purl.org/dc/elements/1.1/"
   xmlns:cc="http://creativecommons.org/ns#"
   xmlns:rdf="http://www.w3.org/1999/02/22-rdf-syntax-ns#"
   xmlns:svg="http://www.w3.org/2000/svg"
   xmlns="http://www.w3.org/2000/svg"
   xmlns:sodipodi="http://sodipodi.sourceforge.net/DTD/sodipodi-0.dtd"
   xmlns:inkscape="http://www.inkscape.org/namespaces/inkscape"
   width="231"
   height="152"
   viewBox="0 0 231 152"
   fill="none"
   version="1.1"
   id="svg33"
   sodipodi:docname="but_CHIA_a.svg"
   inkscape:version="0.92.3 (2405546, 2018-03-11)">
  <metadata
     id="metadata37">
    <rdf:RDF>
      <cc:Work
         rdf:about="">
        <dc:format>image/svg+xml</dc:format>
        <dc:type
           rdf:resource="http://purl.org/dc/dcmitype/StillImage" />
      </cc:Work>
    </rdf:RDF>
  </metadata>
  <sodipodi:namedview
     pagecolor="#ffffff"
     bordercolor="#666666"
     borderopacity="1"
     objecttolerance="10"
     gridtolerance="10"
     guidetolerance="10"
     inkscape:pageopacity="0"
     inkscape:pageshadow="2"
     inkscape:window-width="684"
     inkscape:window-height="480"
     id="namedview35"
     showgrid="false"
     inkscape:zoom="1.2294372"
     inkscape:cx="134.20775"
     inkscape:cy="76"
     inkscape:window-x="0"
     inkscape:window-y="0"
     inkscape:window-maximized="0"
     inkscape:current-layer="svg33" />
  <path
     opacity="0.8"
     d="M230.688 0.992981H0.00292969V151.283H230.688V0.992981Z"
     fill="url(#paint0_linear)"
     id="path2" />
  <path
     opacity="0.75"
     d="M32.498 106.494C32.568 106.494 32.6275 106.518 32.6765 106.567L33.0965 107.019C32.7885 107.348 32.4525 107.645 32.0885 107.911C31.7315 108.17 31.336 108.394 30.902 108.583C30.475 108.765 30.0025 108.905 29.4845 109.003C28.9735 109.108 28.41 109.161 27.794 109.161C26.765 109.161 25.82 108.982 24.959 108.625C24.105 108.261 23.37 107.75 22.754 107.092C22.138 106.427 21.6585 105.626 21.3155 104.688C20.9795 103.75 20.8115 102.707 20.8115 101.559C20.8115 100.432 20.9865 99.403 21.3365 98.472C21.6865 97.541 22.1765 96.743 22.8065 96.078C23.4365 95.406 24.1925 94.888 25.0745 94.524C25.9565 94.153 26.9295 93.9675 27.9935 93.9675C29.0085 93.9675 29.908 94.125 30.692 94.44C31.476 94.755 32.19 95.1995 32.834 95.7735L32.5085 96.246C32.4525 96.33 32.365 96.372 32.246 96.372C32.162 96.372 32.0255 96.295 31.8365 96.141C31.6475 95.987 31.385 95.819 31.049 95.637C30.713 95.448 30.293 95.2765 29.789 95.1225C29.292 94.9685 28.6935 94.8915 27.9935 94.8915C27.0975 94.8915 26.275 95.0455 25.526 95.3535C24.784 95.6615 24.1435 96.1025 23.6045 96.6765C23.0725 97.2505 22.656 97.9505 22.355 98.7765C22.054 99.6025 21.9035 100.53 21.9035 101.559C21.9035 102.609 22.054 103.547 22.355 104.373C22.663 105.199 23.083 105.899 23.615 106.473C24.147 107.04 24.7735 107.477 25.4945 107.785C26.2225 108.086 27.0065 108.237 27.8465 108.237C28.3785 108.237 28.851 108.202 29.264 108.132C29.684 108.062 30.069 107.957 30.419 107.817C30.769 107.677 31.0945 107.505 31.3955 107.302C31.6965 107.099 31.994 106.861 32.288 106.588C32.323 106.56 32.358 106.539 32.393 106.525C32.428 106.504 32.463 106.494 32.498 106.494ZM36.5044 100.309C36.9874 99.7215 37.5369 99.2525 38.1529 98.9025C38.7759 98.5525 39.4724 98.3775 40.2424 98.3775C40.8164 98.3775 41.3204 98.4685 41.7544 98.6505C42.1954 98.8325 42.5594 99.095 42.8464 99.438C43.1334 99.781 43.3504 100.194 43.4974 100.677C43.6444 101.16 43.7179 101.706 43.7179 102.315V108.993H42.7099V102.315C42.7099 101.335 42.4859 100.568 42.0379 100.015C41.5899 99.4555 40.9074 99.1755 39.9904 99.1755C39.3114 99.1755 38.6744 99.3505 38.0794 99.7005C37.4914 100.043 36.9664 100.523 36.5044 101.139V108.993H35.4964V93.7155H36.5044V100.309ZM48.1553 98.5455V108.993H47.1578V98.5455H48.1553ZM48.5858 94.944C48.5858 95.07 48.5578 95.189 48.5018 95.301C48.4528 95.406 48.3863 95.5005 48.3023 95.5845C48.2183 95.6685 48.1203 95.735 48.0083 95.784C47.8963 95.833 47.7773 95.8575 47.6513 95.8575C47.5253 95.8575 47.4063 95.833 47.2943 95.784C47.1823 95.735 47.0843 95.6685 47.0003 95.5845C46.9163 95.5005 46.8498 95.406 46.8008 95.301C46.7518 95.189 46.7273 95.07 46.7273 94.944C46.7273 94.818 46.7518 94.699 46.8008 94.587C46.8498 94.468 46.9163 94.3665 47.0003 94.2825C47.0843 94.1985 47.1823 94.132 47.2943 94.083C47.4063 94.034 47.5253 94.0095 47.6513 94.0095C47.7773 94.0095 47.8963 94.034 48.0083 94.083C48.1203 94.132 48.2183 94.1985 48.3023 94.2825C48.3863 94.3665 48.4528 94.468 48.5018 94.587C48.5578 94.699 48.5858 94.818 48.5858 94.944ZM57.5666 103.942C56.5726 103.977 55.7151 104.058 54.9941 104.184C54.2801 104.303 53.6886 104.467 53.2196 104.677C52.7576 104.887 52.4146 105.139 52.1906 105.433C51.9666 105.72 51.8546 106.049 51.8546 106.42C51.8546 106.77 51.9106 107.075 52.0226 107.334C52.1416 107.586 52.2956 107.796 52.4846 107.964C52.6806 108.125 52.9046 108.244 53.1566 108.321C53.4086 108.398 53.6711 108.436 53.9441 108.436C54.3501 108.436 54.7211 108.394 55.0571 108.31C55.4001 108.219 55.7151 108.097 56.0021 107.943C56.2961 107.782 56.5691 107.593 56.8211 107.376C57.0731 107.159 57.3216 106.924 57.5666 106.672V103.942ZM51.4241 100.026C51.9701 99.48 52.5441 99.067 53.1461 98.787C53.7481 98.507 54.4306 98.367 55.1936 98.367C55.7536 98.367 56.2436 98.458 56.6636 98.64C57.0836 98.815 57.4301 99.0705 57.7031 99.4065C57.9831 99.7355 58.1931 100.138 58.3331 100.614C58.4731 101.083 58.5431 101.608 58.5431 102.189V108.993H58.1441C57.9341 108.993 57.8046 108.895 57.7556 108.699L57.6086 107.355C57.3216 107.635 57.0346 107.887 56.7476 108.111C56.4676 108.335 56.1736 108.524 55.8656 108.678C55.5576 108.832 55.2251 108.951 54.8681 109.035C54.5111 109.119 54.1191 109.161 53.6921 109.161C53.3351 109.161 52.9886 109.108 52.6526 109.003C52.3166 108.898 52.0156 108.737 51.7496 108.52C51.4906 108.303 51.2806 108.027 51.1196 107.691C50.9656 107.348 50.8886 106.938 50.8886 106.462C50.8886 106.021 51.0146 105.612 51.2666 105.234C51.5186 104.856 51.9141 104.527 52.4531 104.247C52.9921 103.967 53.6816 103.743 54.5216 103.575C55.3686 103.407 56.3836 103.309 57.5666 103.281V102.189C57.5666 101.223 57.3566 100.481 56.9366 99.963C56.5236 99.438 55.9076 99.1755 55.0886 99.1755C54.5846 99.1755 54.1541 99.2455 53.7971 99.3855C53.4471 99.5255 53.1496 99.6795 52.9046 99.8475C52.6596 100.015 52.4601 100.169 52.3061 100.309C52.1521 100.449 52.0226 100.519 51.9176 100.519C51.8406 100.519 51.7776 100.502 51.7286 100.467C51.6796 100.432 51.6376 100.386 51.6026 100.33L51.4241 100.026Z"
     fill="white"
     fill-opacity="0.84"
     id="path4" />
  <path
     opacity="0.65"
     d="M194.425 132.649C194.765 132.649 195.068 132.591 195.335 132.474C195.605 132.354 195.833 132.189 196.02 131.979C196.207 131.769 196.348 131.523 196.445 131.239C196.545 130.953 196.595 130.644 196.595 130.314V125.939H197.105V130.314C197.105 130.704 197.043 131.069 196.92 131.409C196.797 131.746 196.618 132.041 196.385 132.294C196.155 132.544 195.873 132.741 195.54 132.884C195.21 133.028 194.838 133.099 194.425 133.099C194.012 133.099 193.638 133.028 193.305 132.884C192.975 132.741 192.693 132.544 192.46 132.294C192.23 132.041 192.053 131.746 191.93 131.409C191.807 131.069 191.745 130.704 191.745 130.314V125.939H192.26V130.309C192.26 130.639 192.308 130.948 192.405 131.234C192.505 131.518 192.647 131.764 192.83 131.974C193.017 132.184 193.243 132.349 193.51 132.469C193.78 132.589 194.085 132.649 194.425 132.649ZM202.536 126.799C202.506 126.856 202.462 126.884 202.406 126.884C202.362 126.884 202.306 126.854 202.236 126.794C202.169 126.731 202.077 126.663 201.961 126.589C201.844 126.513 201.697 126.443 201.521 126.379C201.347 126.316 201.132 126.284 200.876 126.284C200.619 126.284 200.392 126.321 200.196 126.394C200.002 126.468 199.839 126.568 199.706 126.694C199.576 126.821 199.476 126.968 199.406 127.134C199.339 127.301 199.306 127.476 199.306 127.659C199.306 127.899 199.356 128.098 199.456 128.254C199.559 128.411 199.694 128.544 199.861 128.654C200.027 128.764 200.216 128.858 200.426 128.934C200.639 129.008 200.857 129.081 201.081 129.154C201.304 129.228 201.521 129.309 201.731 129.399C201.944 129.486 202.134 129.596 202.301 129.729C202.467 129.863 202.601 130.028 202.701 130.224C202.804 130.418 202.856 130.659 202.856 130.949C202.856 131.246 202.804 131.526 202.701 131.789C202.601 132.049 202.454 132.276 202.261 132.469C202.067 132.663 201.831 132.816 201.551 132.929C201.271 133.039 200.951 133.094 200.591 133.094C200.124 133.094 199.722 133.013 199.386 132.849C199.049 132.683 198.754 132.456 198.501 132.169L198.641 131.949C198.681 131.899 198.727 131.874 198.781 131.874C198.811 131.874 198.849 131.894 198.896 131.934C198.942 131.974 198.999 132.024 199.066 132.084C199.132 132.141 199.212 132.204 199.306 132.274C199.399 132.341 199.507 132.404 199.631 132.464C199.754 132.521 199.896 132.569 200.056 132.609C200.216 132.649 200.397 132.669 200.601 132.669C200.881 132.669 201.131 132.628 201.351 132.544C201.571 132.458 201.756 132.341 201.906 132.194C202.059 132.048 202.176 131.874 202.256 131.674C202.336 131.471 202.376 131.254 202.376 131.024C202.376 130.774 202.324 130.569 202.221 130.409C202.121 130.246 201.987 130.111 201.821 130.004C201.654 129.894 201.464 129.803 201.251 129.729C201.041 129.656 200.824 129.584 200.601 129.514C200.377 129.444 200.159 129.366 199.946 129.279C199.736 129.193 199.547 129.083 199.381 128.949C199.214 128.813 199.079 128.644 198.976 128.444C198.876 128.241 198.826 127.988 198.826 127.684C198.826 127.448 198.871 127.219 198.961 126.999C199.051 126.779 199.182 126.586 199.356 126.419C199.529 126.249 199.742 126.114 199.996 126.014C200.252 125.911 200.544 125.859 200.871 125.859C201.237 125.859 201.566 125.918 201.856 126.034C202.149 126.151 202.416 126.329 202.656 126.569L202.536 126.799ZM210.412 129.474C210.412 130.021 210.331 130.513 210.167 130.949C210.004 131.386 209.774 131.758 209.477 132.064C209.181 132.371 208.824 132.606 208.407 132.769C207.994 132.933 207.537 133.014 207.037 133.014H204.452V125.939H207.037C207.537 125.939 207.994 126.021 208.407 126.184C208.824 126.348 209.181 126.583 209.477 126.889C209.774 127.196 210.004 127.568 210.167 128.004C210.331 128.441 210.412 128.931 210.412 129.474ZM209.882 129.474C209.882 128.981 209.814 128.541 209.677 128.154C209.541 127.768 209.347 127.441 209.097 127.174C208.847 126.908 208.547 126.704 208.197 126.564C207.847 126.424 207.461 126.354 207.037 126.354H204.967V132.599H207.037C207.461 132.599 207.847 132.529 208.197 132.389C208.547 132.249 208.847 132.046 209.097 131.779C209.347 131.513 209.541 131.186 209.677 130.799C209.814 130.413 209.882 129.971 209.882 129.474Z"
     fill="white"
     id="path6" />
  <path
     d="M34.015 52.2361H31.903C31.7417 52.2361 31.6133 52.1958 31.518 52.1151C31.43 52.0271 31.3567 51.9318 31.298 51.8291L27.074 45.2071C27.0153 45.3831 26.9493 45.5335 26.876 45.6581L22.762 51.8291C22.6887 51.9318 22.608 52.0271 22.52 52.1151C22.4393 52.1958 22.3257 52.2361 22.179 52.2361H20.199L25.622 44.1401L20.419 36.4731H22.542C22.696 36.4731 22.8097 36.4988 22.883 36.5501C22.9563 36.6015 23.0223 36.6748 23.081 36.7701L27.195 43.0841C27.2463 42.9301 27.3233 42.7615 27.426 42.5781L31.309 36.8141C31.3677 36.7115 31.4373 36.6308 31.518 36.5721C31.5987 36.5061 31.694 36.4731 31.804 36.4731H33.839L28.614 44.0411L34.015 52.2361ZM46.7006 48.9801C46.8179 48.9801 46.9206 49.0278 47.0086 49.1231L47.8556 50.0361C47.2102 50.7841 46.4256 51.3671 45.5016 51.7851C44.5849 52.2031 43.4739 52.4121 42.1686 52.4121C41.0392 52.4121 40.0126 52.2178 39.0886 51.8291C38.1646 51.4331 37.3762 50.8831 36.7236 50.1791C36.0709 49.4678 35.5649 48.6171 35.2056 47.6271C34.8462 46.6371 34.6666 45.5481 34.6666 44.3601C34.6666 43.1721 34.8536 42.0831 35.2276 41.0931C35.6016 40.1031 36.1259 39.2525 36.8006 38.5411C37.4826 37.8298 38.2966 37.2798 39.2426 36.8911C40.1886 36.4951 41.2336 36.2971 42.3776 36.2971C43.4996 36.2971 44.4896 36.4768 45.3476 36.8361C46.2056 37.1955 46.9609 37.6831 47.6136 38.2991L46.9096 39.2781C46.8656 39.3515 46.8069 39.4138 46.7336 39.4651C46.6676 39.5091 46.5759 39.5311 46.4586 39.5311C46.3266 39.5311 46.1652 39.4615 45.9746 39.3221C45.7839 39.1755 45.5346 39.0141 45.2266 38.8381C44.9186 38.6621 44.5336 38.5045 44.0716 38.3651C43.6096 38.2185 43.0412 38.1451 42.3666 38.1451C41.5526 38.1451 40.8082 38.2881 40.1336 38.5741C39.4589 38.8528 38.8759 39.2598 38.3846 39.7951C37.9006 40.3305 37.5229 40.9831 37.2516 41.7531C36.9802 42.5231 36.8446 43.3921 36.8446 44.3601C36.8446 45.3428 36.9839 46.2191 37.2626 46.9891C37.5486 47.7591 37.9336 48.4118 38.4176 48.9471C38.9089 49.4751 39.4846 49.8785 40.1446 50.1571C40.8119 50.4358 41.5306 50.5751 42.3006 50.5751C42.7699 50.5751 43.1916 50.5495 43.5656 50.4981C43.9469 50.4395 44.2952 50.3515 44.6106 50.2341C44.9332 50.1168 45.2302 49.9701 45.5016 49.7941C45.7802 49.6108 46.0552 49.3945 46.3266 49.1451C46.4512 49.0351 46.5759 48.9801 46.7006 48.9801ZM63.1009 36.4731V52.2361H60.9669V45.0641H52.4639V52.2361H50.3299V36.4731H52.4639V43.5021H60.9669V36.4731H63.1009Z"
     fill="#484848"
     id="path8" />
  <g
     opacity="0.91"
     id="g18">
    <g
       opacity="0.91"
       id="g16">
      <path
         opacity="0.91"
         d="M181.003 75.993C197.571 75.993 211.003 62.5615 211.003 45.993C211.003 29.4244 197.571 15.993 181.003 15.993C164.434 15.993 151.003 29.4244 151.003 45.993C151.003 62.5615 164.434 75.993 181.003 75.993Z"
         fill="#484848"
         id="path14" />
    </g>
  </g>
  <g
     opacity="0.6"
     id="g22">
    <path
       opacity="0.6"
       fill-rule="evenodd"
       clip-rule="evenodd"
       d="M189.242 37.625C188.817 37.1846 188.284 36.9978 187.575 36.993C186.915 37.0054 186.283 37.2777 185.867 37.9412C185.547 38.4504 185.474 39.0127 185.589 39.5983C185.702 40.1779 185.999 40.6423 186.508 40.9505C187.016 41.2588 187.569 41.3225 188.146 41.2171C188.609 41.1323 189.001 40.9153 189.308 40.5561C189.714 40.0785 189.846 39.5145 189.798 38.9049C189.76 38.419 189.586 37.9807 189.242 37.625ZM158.426 51.1925C158.274 51.324 158.121 51.456 158.003 51.6265C158.019 51.6195 158.035 51.6129 158.05 51.6063L158.05 51.6062C158.067 51.5993 158.084 51.5924 158.1 51.585L158.531 51.3944L158.531 51.3941C159.077 51.1527 159.622 50.9112 160.166 50.6663C160.265 50.622 160.297 50.6352 160.331 50.7401C160.66 51.7599 161.246 52.6022 162.1 53.252C163.33 54.1891 164.749 54.5889 166.27 54.6727C166.832 54.7006 167.395 54.6799 167.954 54.6107C168.934 54.494 169.89 54.2195 170.783 53.7975C171.335 53.537 171.87 53.2436 172.387 52.9188C172.397 52.9129 172.407 52.9053 172.417 52.8976L172.417 52.8976C172.451 52.8717 172.488 52.8436 172.522 52.8652C172.555 52.886 172.55 52.929 172.546 52.9703C172.544 52.9845 172.543 52.9984 172.543 53.0113V54.1235C172.543 54.2945 172.543 54.2945 172.718 54.2945H176.511H176.595C176.653 54.2945 176.685 54.2667 176.685 54.2073C176.685 54.2007 176.685 54.1941 176.685 54.1874C176.685 54.1746 176.685 54.1617 176.686 54.1489C176.686 54.1245 176.686 54.1002 176.686 54.0758C176.69 51.7718 176.689 49.4677 176.684 47.1633C176.684 46.6208 176.939 46.2046 177.324 45.8686C177.709 45.5325 178.183 45.4612 178.673 45.5019C179.213 45.5467 179.621 45.8113 179.87 46.2987C180.022 46.5952 180.083 46.9159 180.083 47.2469V54.1115C180.083 54.2952 180.083 54.2952 180.269 54.2952H184.038H184.134C184.192 54.2952 184.224 54.2684 184.224 54.2088C184.225 54.1688 184.225 54.1291 184.225 54.0892V54.089C184.226 51.4181 184.226 48.7472 184.225 46.0762C184.225 45.7374 184.193 45.3994 184.13 45.0667C183.98 44.2811 183.662 43.5758 183.102 42.9969C182.356 42.2274 181.42 41.8967 180.368 41.8576C179.814 41.8365 179.259 41.8766 178.713 41.9774C177.975 42.1146 177.235 42.2609 176.699 42.8671C176.68 42.8336 176.682 42.798 176.685 42.7631C176.686 42.7514 176.687 42.7398 176.687 42.7284V38.1959C176.687 38.0239 176.686 38.0239 176.512 38.0239H172.717C172.541 38.0239 172.541 38.0244 172.541 38.1951C172.543 40.6948 172.542 43.1943 172.539 45.6937C172.539 45.8104 172.576 45.8734 172.683 45.9213C173.206 46.1512 173.702 46.4331 174.192 46.726C174.324 46.8045 174.324 46.8067 174.24 46.9303C173.791 47.5801 173.286 48.1898 172.732 48.7524C172.219 49.2779 171.666 49.7583 171.055 50.1743C170.094 50.8287 169.063 51.2923 167.884 51.3795C167.111 51.4368 166.361 51.3517 165.653 51.0239C164.845 50.649 164.314 50.0398 164.132 49.15C164.112 49.0492 164.142 49.0001 164.228 48.95C164.662 48.6976 165.119 48.4933 165.577 48.2886L165.722 48.2234C167.07 47.6193 168.477 47.2165 169.923 46.9401C169.935 46.9378 169.947 46.9359 169.959 46.934L169.959 46.934C170.01 46.9259 170.065 46.9172 170.131 46.8786C168.064 46.7143 166.087 46.9521 164.197 47.7724C164.18 47.7269 164.193 47.6911 164.205 47.6568C164.207 47.6503 164.21 47.6438 164.212 47.6373C164.598 46.4326 165.389 45.5884 166.542 45.0926C167.426 44.7123 168.36 44.7113 169.296 44.838C169.89 44.9185 170.468 45.0768 171.038 45.2593C171.176 45.3033 171.181 45.2983 171.181 45.1563C171.181 44.9182 171.181 44.6801 171.181 44.442C171.18 43.8708 171.18 43.2996 171.183 42.7284C171.184 42.619 171.141 42.5737 171.041 42.5471C170.867 42.5015 170.694 42.4523 170.521 42.4031L170.521 42.4031L170.521 42.4031L170.521 42.4031C170.406 42.3704 170.291 42.3378 170.176 42.3062C168.895 41.9539 167.593 41.7839 166.261 41.8734C165.536 41.9185 164.818 42.0448 164.121 42.2499C163.249 42.5105 162.456 42.9174 161.792 43.5495C161.09 44.2189 160.648 45.0449 160.382 45.9699C160.204 46.6032 160.098 47.2548 160.067 47.912C160.034 48.5455 160.017 49.178 160.115 49.8077C160.127 49.8829 160.093 49.9255 160.034 49.9643C159.488 50.325 158.967 50.7216 158.474 51.1513L158.426 51.1925ZM203.355 54.1136V51.0762C203.355 50.6749 203.355 50.2737 203.355 49.8723L203.355 49.8631C203.354 49.3302 203.354 48.7972 203.354 48.2635C203.355 48.0722 203.344 47.8812 203.322 47.6913C203.21 46.7668 202.938 45.8909 202.485 45.0766C201.815 43.8703 200.85 42.9913 199.57 42.4605C198.726 42.1102 197.837 41.9799 196.934 41.9265C195.918 41.8663 194.937 42.0187 194.001 42.427C193.295 42.7348 192.683 43.17 192.183 43.7575C191.616 44.4237 191.262 45.1985 191.041 46.0368C190.785 47.0077 190.715 47.9986 190.731 48.9987C190.739 49.5532 190.816 50.1045 190.96 50.64C191.368 52.1568 192.291 53.2597 193.684 53.9691C194.471 54.3703 195.312 54.5856 196.194 54.6603C197.069 54.7346 197.903 54.606 198.694 54.2194C198.921 54.1124 199.14 53.9888 199.35 53.8496C199.422 53.8003 199.449 53.8166 199.446 53.9011C199.444 53.9515 199.445 54.0018 199.445 54.0522V54.0525C199.445 54.0777 199.446 54.1029 199.446 54.1282C199.447 54.2941 199.448 54.2958 199.613 54.2958H203.18C203.355 54.2958 203.355 54.2953 203.355 54.1136ZM194.064 48.4012C194.065 48.3692 194.065 48.3373 194.065 48.3054C194.051 47.6839 194.169 47.0918 194.483 46.5513C194.919 45.805 195.592 45.3897 196.42 45.2129C196.997 45.0898 197.576 45.0735 198.139 45.2955C198.947 45.6141 199.476 46.209 199.807 46.996C199.979 47.4052 200.066 47.8454 200.062 48.2893C200.055 49.278 199.729 50.1431 198.984 50.8173C198.511 51.2455 197.952 51.4831 197.303 51.4987C196.62 51.5152 195.977 51.3768 195.395 51.0149C194.605 50.5234 194.209 49.7824 194.089 48.878C194.077 48.7844 194.068 48.6886 194.065 48.5928C194.063 48.529 194.064 48.4652 194.064 48.4014V48.4012ZM185.587 48.2902V42.4777C185.587 42.3819 185.587 42.334 185.611 42.3101C185.635 42.2861 185.683 42.2861 185.779 42.2861H189.536C189.731 42.2861 189.732 42.2876 189.732 42.4777V54.1125C189.732 54.2955 189.732 54.296 189.545 54.296H185.788C185.588 54.296 185.588 54.296 185.588 54.09L185.587 48.2902Z"
       fill="white"
       id="path20" />
  </g>
  <defs
     id="defs31">
    <linearGradient
       id="paint0_linear"
       x1="0.00293828"
       y1="-5.61978"
       x2="89.7368"
       y2="263.536"
       gradientUnits="userSpaceOnUse">
      <stop
         stop-color="white"
         id="stop24" />
      <stop
         offset="0.552"
         stop-color="#777777"
         id="stop26" />
      <stop
         offset="1"
         stop-color="#848484"
         id="stop28" />
    </linearGradient>
  </defs>
</svg>
