<?xml version="1.0" encoding="UTF-8" standalone="no"?>
<svg
   xmlns:dc="http://purl.org/dc/elements/1.1/"
   xmlns:cc="http://creativecommons.org/ns#"
   xmlns:rdf="http://www.w3.org/1999/02/22-rdf-syntax-ns#"
   xmlns:svg="http://www.w3.org/2000/svg"
   xmlns="http://www.w3.org/2000/svg"
   xmlns:sodipodi="http://sodipodi.sourceforge.net/DTD/sodipodi-0.dtd"
   xmlns:inkscape="http://www.inkscape.org/namespaces/inkscape"
   width="231"
   height="152"
   viewBox="0 0 231 152"
   fill="none"
   version="1.1"
   id="svg33"
   sodipodi:docname="but_BCH_a.svg"
   inkscape:version="0.92.3 (2405546, 2018-03-11)">
  <metadata
     id="metadata37">
    <rdf:RDF>
      <cc:Work
         rdf:about="">
        <dc:format>image/svg+xml</dc:format>
        <dc:type
           rdf:resource="http://purl.org/dc/dcmitype/StillImage" />
      </cc:Work>
    </rdf:RDF>
  </metadata>
  <sodipodi:namedview
     pagecolor="#ffffff"
     bordercolor="#666666"
     borderopacity="1"
     objecttolerance="10"
     gridtolerance="10"
     guidetolerance="10"
     inkscape:pageopacity="0"
     inkscape:pageshadow="2"
     inkscape:window-width="684"
     inkscape:window-height="480"
     id="namedview35"
     showgrid="false"
     inkscape:zoom="1.2294372"
     inkscape:cx="134.20775"
     inkscape:cy="76"
     inkscape:window-x="0"
     inkscape:window-y="0"
     inkscape:window-maximized="0"
     inkscape:current-layer="svg33" />
  <path
     opacity="0.8"
     d="M230.688 0.992981H0.00292969V151.283H230.688V0.992981Z"
     fill="url(#paint0_linear)"
     id="path2" />
  <path
     opacity="0.75"
     d="M26.5865 108.132C27.8885 108.132 28.872 107.852 29.537 107.292C30.209 106.725 30.545 105.93 30.545 104.908C30.545 104.439 30.454 104.019 30.272 103.648C30.097 103.27 29.8415 102.952 29.5055 102.693C29.1695 102.427 28.7565 102.224 28.2665 102.084C27.7765 101.944 27.22 101.874 26.597 101.874H22.859V108.132H26.5865ZM22.859 94.986V101.086H26.072C26.758 101.086 27.3425 100.999 27.8255 100.824C28.3155 100.649 28.7145 100.418 29.0225 100.131C29.3375 99.844 29.5685 99.5185 29.7155 99.1545C29.8625 98.7905 29.936 98.416 29.936 98.031C29.936 97.03 29.6175 96.274 28.9805 95.763C28.3505 95.245 27.374 94.986 26.051 94.986H22.859ZM26.051 94.1355C26.898 94.1355 27.633 94.2195 28.256 94.3875C28.879 94.5555 29.3935 94.804 29.7995 95.133C30.2055 95.455 30.5065 95.8505 30.7025 96.3195C30.8985 96.7885 30.9965 97.3205 30.9965 97.9155C30.9965 98.3075 30.9265 98.6855 30.7865 99.0495C30.6535 99.4135 30.4575 99.7495 30.1985 100.057C29.9465 100.365 29.6315 100.635 29.2535 100.866C28.8825 101.09 28.4555 101.261 27.9725 101.38C29.1415 101.548 30.0375 101.937 30.6605 102.546C31.2905 103.148 31.6055 103.942 31.6055 104.929C31.6055 105.559 31.4935 106.126 31.2695 106.63C31.0455 107.134 30.72 107.561 30.293 107.911C29.866 108.261 29.341 108.531 28.718 108.72C28.095 108.902 27.388 108.993 26.597 108.993H21.7775V94.1355H26.051ZM35.4405 98.5455V108.993H34.443V98.5455H35.4405ZM35.871 94.944C35.871 95.07 35.843 95.189 35.787 95.301C35.738 95.406 35.6715 95.5005 35.5875 95.5845C35.5035 95.6685 35.4055 95.735 35.2935 95.784C35.1815 95.833 35.0625 95.8575 34.9365 95.8575C34.8105 95.8575 34.6915 95.833 34.5795 95.784C34.4675 95.735 34.3695 95.6685 34.2855 95.5845C34.2015 95.5005 34.135 95.406 34.086 95.301C34.037 95.189 34.0125 95.07 34.0125 94.944C34.0125 94.818 34.037 94.699 34.086 94.587C34.135 94.468 34.2015 94.3665 34.2855 94.2825C34.3695 94.1985 34.4675 94.132 34.5795 94.083C34.6915 94.034 34.8105 94.0095 34.9365 94.0095C35.0625 94.0095 35.1815 94.034 35.2935 94.083C35.4055 94.132 35.5035 94.1985 35.5875 94.2825C35.6715 94.3665 35.738 94.468 35.787 94.587C35.843 94.699 35.871 94.818 35.871 94.944ZM41.8593 109.161C41.1523 109.161 40.5993 108.965 40.2003 108.573C39.8083 108.181 39.6123 107.575 39.6123 106.756V99.6165H38.1108C38.0338 99.6165 37.9708 99.5955 37.9218 99.5535C37.8728 99.5115 37.8483 99.452 37.8483 99.375V98.9865L39.6333 98.8605L39.8853 95.1225C39.8993 95.0595 39.9273 95.0035 39.9693 94.9545C40.0113 94.9055 40.0708 94.881 40.1478 94.881H40.6203V98.871H43.9173V99.6165H40.6203V106.704C40.6203 106.991 40.6553 107.239 40.7253 107.449C40.8023 107.652 40.9038 107.82 41.0298 107.953C41.1628 108.086 41.3168 108.184 41.4918 108.247C41.6668 108.31 41.8558 108.342 42.0588 108.342C42.3108 108.342 42.5278 108.307 42.7098 108.237C42.8918 108.16 43.0493 108.079 43.1823 107.995C43.3153 107.904 43.4238 107.824 43.5078 107.754C43.5918 107.677 43.6583 107.638 43.7073 107.638C43.7633 107.638 43.8193 107.673 43.8753 107.743L44.1483 108.184C43.8823 108.478 43.5428 108.716 43.1298 108.898C42.7238 109.073 42.3003 109.161 41.8593 109.161ZM53.185 99.942C53.15 99.977 53.115 100.008 53.08 100.036C53.052 100.057 53.01 100.068 52.954 100.068C52.884 100.068 52.7895 100.022 52.6705 99.9315C52.5515 99.8335 52.3905 99.7285 52.1875 99.6165C51.9845 99.5045 51.729 99.403 51.421 99.312C51.12 99.214 50.7525 99.165 50.3185 99.165C49.7165 99.165 49.181 99.2735 48.712 99.4905C48.25 99.7005 47.858 100.005 47.536 100.404C47.214 100.803 46.969 101.286 46.801 101.853C46.64 102.42 46.5595 103.057 46.5595 103.764C46.5595 104.499 46.6435 105.15 46.8115 105.717C46.9865 106.284 47.2315 106.763 47.5465 107.155C47.8615 107.54 48.243 107.834 48.691 108.037C49.139 108.24 49.636 108.342 50.182 108.342C50.686 108.342 51.106 108.282 51.442 108.163C51.785 108.044 52.065 107.915 52.282 107.775C52.506 107.635 52.681 107.505 52.807 107.386C52.933 107.267 53.038 107.208 53.122 107.208C53.206 107.208 53.276 107.243 53.332 107.313L53.5945 107.649C53.4335 107.859 53.2305 108.055 52.9855 108.237C52.7405 108.419 52.464 108.576 52.156 108.709C51.848 108.842 51.512 108.944 51.148 109.014C50.791 109.091 50.4165 109.129 50.0245 109.129C49.3595 109.129 48.7505 109.01 48.1975 108.772C47.6515 108.527 47.179 108.177 46.78 107.722C46.388 107.26 46.08 106.697 45.856 106.032C45.639 105.367 45.5305 104.611 45.5305 103.764C45.5305 102.966 45.6355 102.238 45.8455 101.58C46.0555 100.922 46.3635 100.355 46.7695 99.879C47.1755 99.403 47.669 99.0355 48.25 98.7765C48.838 98.5105 49.51 98.3775 50.266 98.3775C50.945 98.3775 51.547 98.486 52.072 98.703C52.597 98.92 53.0555 99.214 53.4475 99.585L53.185 99.942ZM59.9977 98.3775C60.7467 98.3775 61.4152 98.507 62.0032 98.766C62.5982 99.018 63.0987 99.3785 63.5047 99.8475C63.9107 100.316 64.2187 100.883 64.4287 101.548C64.6457 102.206 64.7542 102.945 64.7542 103.764C64.7542 104.583 64.6457 105.321 64.4287 105.979C64.2187 106.637 63.9107 107.201 63.5047 107.67C63.0987 108.139 62.5982 108.499 62.0032 108.751C61.4152 109.003 60.7467 109.129 59.9977 109.129C59.2487 109.129 58.5767 109.003 57.9817 108.751C57.3937 108.499 56.8932 108.139 56.4802 107.67C56.0742 107.201 55.7627 106.637 55.5457 105.979C55.3357 105.321 55.2307 104.583 55.2307 103.764C55.2307 102.945 55.3357 102.206 55.5457 101.548C55.7627 100.883 56.0742 100.316 56.4802 99.8475C56.8932 99.3785 57.3937 99.018 57.9817 98.766C58.5767 98.507 59.2487 98.3775 59.9977 98.3775ZM59.9977 108.342C60.6207 108.342 61.1632 108.237 61.6252 108.027C62.0942 107.81 62.4827 107.502 62.7907 107.103C63.1057 106.704 63.3402 106.224 63.4942 105.664C63.6482 105.097 63.7252 104.464 63.7252 103.764C63.7252 103.071 63.6482 102.441 63.4942 101.874C63.3402 101.307 63.1057 100.824 62.7907 100.425C62.4827 100.019 62.0942 99.7075 61.6252 99.4905C61.1632 99.2735 60.6207 99.165 59.9977 99.165C59.3747 99.165 58.8287 99.2735 58.3597 99.4905C57.8977 99.7075 57.5092 100.019 57.1942 100.425C56.8862 100.824 56.6517 101.307 56.4907 101.874C56.3367 102.441 56.2597 103.071 56.2597 103.764C56.2597 104.464 56.3367 105.097 56.4907 105.664C56.6517 106.224 56.8862 106.704 57.1942 107.103C57.5092 107.502 57.8977 107.81 58.3597 108.027C58.8287 108.237 59.3747 108.342 59.9977 108.342ZM68.6836 98.5455V108.993H67.6861V98.5455H68.6836ZM69.1141 94.944C69.1141 95.07 69.0861 95.189 69.0301 95.301C68.9811 95.406 68.9146 95.5005 68.8306 95.5845C68.7466 95.6685 68.6486 95.735 68.5366 95.784C68.4246 95.833 68.3056 95.8575 68.1796 95.8575C68.0536 95.8575 67.9346 95.833 67.8226 95.784C67.7106 95.735 67.6126 95.6685 67.5286 95.5845C67.4446 95.5005 67.3781 95.406 67.3291 95.301C67.2801 95.189 67.2556 95.07 67.2556 94.944C67.2556 94.818 67.2801 94.699 67.3291 94.587C67.3781 94.468 67.4446 94.3665 67.5286 94.2825C67.6126 94.1985 67.7106 94.132 67.8226 94.083C67.9346 94.034 68.0536 94.0095 68.1796 94.0095C68.3056 94.0095 68.4246 94.034 68.5366 94.083C68.6486 94.132 68.7466 94.1985 68.8306 94.2825C68.9146 94.3665 68.9811 94.468 69.0301 94.587C69.0861 94.699 69.1141 94.818 69.1141 94.944ZM73.2019 100.372C73.6849 99.7705 74.2414 99.2875 74.8714 98.9235C75.5084 98.5595 76.2154 98.3775 76.9924 98.3775C77.5664 98.3775 78.0704 98.4685 78.5044 98.6505C78.9454 98.8325 79.3094 99.095 79.5964 99.438C79.8834 99.781 80.1004 100.194 80.2474 100.677C80.3944 101.16 80.4679 101.706 80.4679 102.315V108.993H79.4599V102.315C79.4599 101.335 79.2359 100.568 78.7879 100.015C78.3399 99.4555 77.6574 99.1755 76.7404 99.1755C76.0614 99.1755 75.4244 99.3505 74.8294 99.7005C74.2414 100.043 73.7164 100.523 73.2544 101.139V108.993H72.2464V98.5455H72.8029C72.9779 98.5455 73.0794 98.633 73.1074 98.808L73.2019 100.372ZM90.8168 99.942C90.7818 99.977 90.7468 100.008 90.7118 100.036C90.6838 100.057 90.6418 100.068 90.5858 100.068C90.5158 100.068 90.4213 100.022 90.3023 99.9315C90.1833 99.8335 90.0223 99.7285 89.8193 99.6165C89.6163 99.5045 89.3608 99.403 89.0528 99.312C88.7518 99.214 88.3843 99.165 87.9503 99.165C87.3483 99.165 86.8128 99.2735 86.3438 99.4905C85.8818 99.7005 85.4898 100.005 85.1678 100.404C84.8458 100.803 84.6008 101.286 84.4328 101.853C84.2718 102.42 84.1913 103.057 84.1913 103.764C84.1913 104.499 84.2753 105.15 84.4433 105.717C84.6183 106.284 84.8633 106.763 85.1783 107.155C85.4933 107.54 85.8748 107.834 86.3228 108.037C86.7708 108.24 87.2678 108.342 87.8138 108.342C88.3178 108.342 88.7378 108.282 89.0738 108.163C89.4168 108.044 89.6968 107.915 89.9138 107.775C90.1378 107.635 90.3128 107.505 90.4388 107.386C90.5648 107.267 90.6698 107.208 90.7538 107.208C90.8378 107.208 90.9078 107.243 90.9638 107.313L91.2263 107.649C91.0653 107.859 90.8623 108.055 90.6173 108.237C90.3723 108.419 90.0958 108.576 89.7878 108.709C89.4798 108.842 89.1438 108.944 88.7798 109.014C88.4228 109.091 88.0483 109.129 87.6563 109.129C86.9913 109.129 86.3823 109.01 85.8293 108.772C85.2833 108.527 84.8108 108.177 84.4118 107.722C84.0198 107.26 83.7118 106.697 83.4878 106.032C83.2708 105.367 83.1623 104.611 83.1623 103.764C83.1623 102.966 83.2673 102.238 83.4773 101.58C83.6873 100.922 83.9953 100.355 84.4013 99.879C84.8073 99.403 85.3008 99.0355 85.8818 98.7765C86.4698 98.5105 87.1418 98.3775 87.8978 98.3775C88.5768 98.3775 89.1788 98.486 89.7038 98.703C90.2288 98.92 90.6873 99.214 91.0793 99.585L90.8168 99.942ZM99.5461 103.942C98.5521 103.977 97.6946 104.058 96.9736 104.184C96.2596 104.303 95.6681 104.467 95.1991 104.677C94.7371 104.887 94.3941 105.139 94.1701 105.433C93.9461 105.72 93.8341 106.049 93.8341 106.42C93.8341 106.77 93.8901 107.075 94.0021 107.334C94.1211 107.586 94.2751 107.796 94.4641 107.964C94.6601 108.125 94.8841 108.244 95.1361 108.321C95.3881 108.398 95.6506 108.436 95.9236 108.436C96.3296 108.436 96.7006 108.394 97.0366 108.31C97.3796 108.219 97.6946 108.097 97.9816 107.943C98.2756 107.782 98.5486 107.593 98.8006 107.376C99.0526 107.159 99.3011 106.924 99.5461 106.672V103.942ZM93.4036 100.026C93.9496 99.48 94.5236 99.067 95.1256 98.787C95.7276 98.507 96.4101 98.367 97.1731 98.367C97.7331 98.367 98.2231 98.458 98.6431 98.64C99.0631 98.815 99.4096 99.0705 99.6826 99.4065C99.9626 99.7355 100.173 100.138 100.313 100.614C100.453 101.083 100.523 101.608 100.523 102.189V108.993H100.124C99.9136 108.993 99.7841 108.895 99.7351 108.699L99.5881 107.355C99.3011 107.635 99.0141 107.887 98.7271 108.111C98.4471 108.335 98.1531 108.524 97.8451 108.678C97.5371 108.832 97.2046 108.951 96.8476 109.035C96.4906 109.119 96.0986 109.161 95.6716 109.161C95.3146 109.161 94.9681 109.108 94.6321 109.003C94.2961 108.898 93.9951 108.737 93.7291 108.52C93.4701 108.303 93.2601 108.027 93.0991 107.691C92.9451 107.348 92.8681 106.938 92.8681 106.462C92.8681 106.021 92.9941 105.612 93.2461 105.234C93.4981 104.856 93.8936 104.527 94.4326 104.247C94.9716 103.967 95.6611 103.743 96.5011 103.575C97.3481 103.407 98.3631 103.309 99.5461 103.281V102.189C99.5461 101.223 99.3361 100.481 98.9161 99.963C98.5031 99.438 97.8871 99.1755 97.0681 99.1755C96.5641 99.1755 96.1336 99.2455 95.7766 99.3855C95.4266 99.5255 95.1291 99.6795 94.8841 99.8475C94.6391 100.015 94.4396 100.169 94.2856 100.309C94.1316 100.449 94.0021 100.519 93.8971 100.519C93.8201 100.519 93.7571 100.502 93.7081 100.467C93.6591 100.432 93.6171 100.386 93.5821 100.33L93.4036 100.026ZM109.613 99.837C109.557 99.935 109.476 99.984 109.371 99.984C109.294 99.984 109.196 99.942 109.077 99.858C108.958 99.767 108.797 99.669 108.594 99.564C108.398 99.452 108.153 99.354 107.859 99.27C107.565 99.179 107.208 99.1335 106.788 99.1335C106.41 99.1335 106.064 99.1895 105.749 99.3015C105.441 99.4065 105.175 99.55 104.951 99.732C104.734 99.914 104.566 100.127 104.447 100.372C104.328 100.61 104.268 100.862 104.268 101.128C104.268 101.457 104.352 101.73 104.52 101.947C104.688 102.164 104.905 102.35 105.171 102.504C105.444 102.658 105.756 102.791 106.106 102.903C106.456 103.015 106.809 103.127 107.166 103.239C107.53 103.351 107.887 103.477 108.237 103.617C108.587 103.75 108.895 103.918 109.161 104.121C109.434 104.324 109.655 104.572 109.823 104.866C109.991 105.16 110.075 105.517 110.075 105.937C110.075 106.392 109.994 106.816 109.833 107.208C109.672 107.6 109.434 107.939 109.119 108.226C108.811 108.513 108.43 108.741 107.975 108.909C107.52 109.077 106.998 109.161 106.41 109.161C105.675 109.161 105.042 109.045 104.51 108.814C103.978 108.576 103.502 108.268 103.082 107.89L103.313 107.533C103.348 107.477 103.386 107.435 103.428 107.407C103.477 107.379 103.54 107.365 103.617 107.365C103.708 107.365 103.817 107.421 103.943 107.533C104.076 107.645 104.251 107.768 104.468 107.901C104.685 108.027 104.951 108.146 105.266 108.258C105.588 108.37 105.983 108.426 106.452 108.426C106.893 108.426 107.282 108.366 107.618 108.247C107.954 108.121 108.234 107.953 108.458 107.743C108.682 107.533 108.85 107.288 108.962 107.008C109.081 106.721 109.14 106.42 109.14 106.105C109.14 105.755 109.056 105.465 108.888 105.234C108.72 105.003 108.5 104.807 108.227 104.646C107.954 104.485 107.642 104.348 107.292 104.236C106.949 104.124 106.596 104.012 106.232 103.9C105.868 103.788 105.511 103.666 105.161 103.533C104.818 103.4 104.51 103.232 104.237 103.029C103.964 102.826 103.743 102.581 103.575 102.294C103.407 102 103.323 101.636 103.323 101.202C103.323 100.831 103.404 100.474 103.565 100.131C103.726 99.788 103.953 99.487 104.247 99.228C104.548 98.969 104.912 98.7625 105.339 98.6085C105.766 98.4545 106.246 98.3775 106.778 98.3775C107.415 98.3775 107.978 98.4685 108.468 98.6505C108.965 98.8325 109.417 99.1125 109.823 99.4905L109.613 99.837ZM113.798 100.309C114.281 99.7215 114.831 99.2525 115.447 98.9025C116.07 98.5525 116.766 98.3775 117.536 98.3775C118.11 98.3775 118.614 98.4685 119.048 98.6505C119.489 98.8325 119.853 99.095 120.14 99.438C120.427 99.781 120.644 100.194 120.791 100.677C120.938 101.16 121.012 101.706 121.012 102.315V108.993H120.004V102.315C120.004 101.335 119.78 100.568 119.332 100.015C118.884 99.4555 118.201 99.1755 117.284 99.1755C116.605 99.1755 115.968 99.3505 115.373 99.7005C114.785 100.043 114.26 100.523 113.798 101.139V108.993H112.79V93.7155H113.798V100.309Z"
     fill="white"
     fill-opacity="0.84"
     id="path4" />
  <path
     opacity="0.65"
     d="M194.425 132.649C194.765 132.649 195.068 132.591 195.335 132.474C195.605 132.354 195.833 132.189 196.02 131.979C196.207 131.769 196.348 131.523 196.445 131.239C196.545 130.953 196.595 130.644 196.595 130.314V125.939H197.105V130.314C197.105 130.704 197.043 131.069 196.92 131.409C196.797 131.746 196.618 132.041 196.385 132.294C196.155 132.544 195.873 132.741 195.54 132.884C195.21 133.028 194.838 133.099 194.425 133.099C194.012 133.099 193.638 133.028 193.305 132.884C192.975 132.741 192.693 132.544 192.46 132.294C192.23 132.041 192.053 131.746 191.93 131.409C191.807 131.069 191.745 130.704 191.745 130.314V125.939H192.26V130.309C192.26 130.639 192.308 130.948 192.405 131.234C192.505 131.518 192.647 131.764 192.83 131.974C193.017 132.184 193.243 132.349 193.51 132.469C193.78 132.589 194.085 132.649 194.425 132.649ZM202.536 126.799C202.506 126.856 202.462 126.884 202.406 126.884C202.362 126.884 202.306 126.854 202.236 126.794C202.169 126.731 202.077 126.663 201.961 126.589C201.844 126.513 201.697 126.443 201.521 126.379C201.347 126.316 201.132 126.284 200.876 126.284C200.619 126.284 200.392 126.321 200.196 126.394C200.002 126.468 199.839 126.568 199.706 126.694C199.576 126.821 199.476 126.968 199.406 127.134C199.339 127.301 199.306 127.476 199.306 127.659C199.306 127.899 199.356 128.098 199.456 128.254C199.559 128.411 199.694 128.544 199.861 128.654C200.027 128.764 200.216 128.858 200.426 128.934C200.639 129.008 200.857 129.081 201.081 129.154C201.304 129.228 201.521 129.309 201.731 129.399C201.944 129.486 202.134 129.596 202.301 129.729C202.467 129.863 202.601 130.028 202.701 130.224C202.804 130.418 202.856 130.659 202.856 130.949C202.856 131.246 202.804 131.526 202.701 131.789C202.601 132.049 202.454 132.276 202.261 132.469C202.067 132.663 201.831 132.816 201.551 132.929C201.271 133.039 200.951 133.094 200.591 133.094C200.124 133.094 199.722 133.013 199.386 132.849C199.049 132.683 198.754 132.456 198.501 132.169L198.641 131.949C198.681 131.899 198.727 131.874 198.781 131.874C198.811 131.874 198.849 131.894 198.896 131.934C198.942 131.974 198.999 132.024 199.066 132.084C199.132 132.141 199.212 132.204 199.306 132.274C199.399 132.341 199.507 132.404 199.631 132.464C199.754 132.521 199.896 132.569 200.056 132.609C200.216 132.649 200.397 132.669 200.601 132.669C200.881 132.669 201.131 132.628 201.351 132.544C201.571 132.458 201.756 132.341 201.906 132.194C202.059 132.048 202.176 131.874 202.256 131.674C202.336 131.471 202.376 131.254 202.376 131.024C202.376 130.774 202.324 130.569 202.221 130.409C202.121 130.246 201.987 130.111 201.821 130.004C201.654 129.894 201.464 129.803 201.251 129.729C201.041 129.656 200.824 129.584 200.601 129.514C200.377 129.444 200.159 129.366 199.946 129.279C199.736 129.193 199.547 129.083 199.381 128.949C199.214 128.813 199.079 128.644 198.976 128.444C198.876 128.241 198.826 127.988 198.826 127.684C198.826 127.448 198.871 127.219 198.961 126.999C199.051 126.779 199.182 126.586 199.356 126.419C199.529 126.249 199.742 126.114 199.996 126.014C200.252 125.911 200.544 125.859 200.871 125.859C201.237 125.859 201.566 125.918 201.856 126.034C202.149 126.151 202.416 126.329 202.656 126.569L202.536 126.799ZM210.412 129.474C210.412 130.021 210.331 130.513 210.167 130.949C210.004 131.386 209.774 131.758 209.477 132.064C209.181 132.371 208.824 132.606 208.407 132.769C207.994 132.933 207.537 133.014 207.037 133.014H204.452V125.939H207.037C207.537 125.939 207.994 126.021 208.407 126.184C208.824 126.348 209.181 126.583 209.477 126.889C209.774 127.196 210.004 127.568 210.167 128.004C210.331 128.441 210.412 128.931 210.412 129.474ZM209.882 129.474C209.882 128.981 209.814 128.541 209.677 128.154C209.541 127.768 209.347 127.441 209.097 127.174C208.847 126.908 208.547 126.704 208.197 126.564C207.847 126.424 207.461 126.354 207.037 126.354H204.967V132.599H207.037C207.461 132.599 207.847 132.529 208.197 132.389C208.547 132.249 208.847 132.046 209.097 131.779C209.347 131.513 209.541 131.186 209.677 130.799C209.814 130.413 209.882 129.971 209.882 129.474Z"
     fill="white"
     id="path6" />
  <path
     d="M27.525 50.5421C28.1337 50.5421 28.658 50.4725 29.098 50.3331C29.538 50.1938 29.8973 49.9995 30.176 49.7501C30.462 49.4935 30.671 49.1928 30.803 48.8481C30.935 48.4961 31.001 48.1111 31.001 47.6931C31.001 46.8791 30.7113 46.2375 30.132 45.7681C29.5527 45.2915 28.6837 45.0531 27.525 45.0531H24.115V50.5421H27.525ZM24.115 38.1561V43.5351H26.931C27.5323 43.5351 28.053 43.4691 28.493 43.3371C28.9403 43.2051 29.307 43.0218 29.593 42.7871C29.8863 42.5525 30.1027 42.2701 30.242 41.9401C30.3813 41.6028 30.451 41.2361 30.451 40.8401C30.451 39.9088 30.1723 39.2305 29.615 38.8051C29.0577 38.3725 28.1923 38.1561 27.019 38.1561H24.115ZM27.019 36.4731C27.987 36.4731 28.8193 36.5685 29.516 36.7591C30.22 36.9498 30.7957 37.2211 31.243 37.5731C31.6977 37.9251 32.0313 38.3578 32.244 38.8711C32.4567 39.3771 32.563 39.9491 32.563 40.5871C32.563 40.9758 32.5007 41.3498 32.376 41.7091C32.2587 42.0611 32.079 42.3911 31.837 42.6991C31.595 43.0071 31.287 43.2858 30.913 43.5351C30.5463 43.7771 30.1137 43.9751 29.615 44.1291C30.7737 44.3491 31.6427 44.7635 32.222 45.3721C32.8087 45.9735 33.102 46.7655 33.102 47.7481C33.102 48.4155 32.9773 49.0241 32.728 49.5741C32.486 50.1241 32.1267 50.5971 31.65 50.9931C31.1807 51.3891 30.6013 51.6971 29.912 51.9171C29.2227 52.1298 28.438 52.2361 27.558 52.2361H21.992V36.4731H27.019ZM47.2807 48.9801C47.398 48.9801 47.5007 49.0278 47.5887 49.1231L48.4357 50.0361C47.7903 50.7841 47.0057 51.3671 46.0817 51.7851C45.165 52.2031 44.054 52.4121 42.7487 52.4121C41.6193 52.4121 40.5927 52.2178 39.6687 51.8291C38.7447 51.4331 37.9563 50.8831 37.3037 50.1791C36.651 49.4678 36.145 48.6171 35.7857 47.6271C35.4263 46.6371 35.2467 45.5481 35.2467 44.3601C35.2467 43.1721 35.4337 42.0831 35.8077 41.0931C36.1817 40.1031 36.706 39.2525 37.3807 38.5411C38.0627 37.8298 38.8767 37.2798 39.8227 36.8911C40.7687 36.4951 41.8137 36.2971 42.9577 36.2971C44.0797 36.2971 45.0697 36.4768 45.9277 36.8361C46.7857 37.1955 47.541 37.6831 48.1937 38.2991L47.4897 39.2781C47.4457 39.3515 47.387 39.4138 47.3137 39.4651C47.2477 39.5091 47.156 39.5311 47.0387 39.5311C46.9067 39.5311 46.7453 39.4615 46.5547 39.3221C46.364 39.1755 46.1147 39.0141 45.8067 38.8381C45.4987 38.6621 45.1137 38.5045 44.6517 38.3651C44.1897 38.2185 43.6213 38.1451 42.9467 38.1451C42.1327 38.1451 41.3883 38.2881 40.7137 38.5741C40.039 38.8528 39.456 39.2598 38.9647 39.7951C38.4807 40.3305 38.103 40.9831 37.8317 41.7531C37.5603 42.5231 37.4247 43.3921 37.4247 44.3601C37.4247 45.3428 37.564 46.2191 37.8427 46.9891C38.1287 47.7591 38.5137 48.4118 38.9977 48.9471C39.489 49.4751 40.0647 49.8785 40.7247 50.1571C41.392 50.4358 42.1107 50.5751 42.8807 50.5751C43.35 50.5751 43.7717 50.5495 44.1457 50.4981C44.527 50.4395 44.8753 50.3515 45.1907 50.2341C45.5133 50.1168 45.8103 49.9701 46.0817 49.7941C46.3603 49.6108 46.6353 49.3945 46.9067 49.1451C47.0313 49.0351 47.156 48.9801 47.2807 48.9801ZM63.681 36.4731V52.2361H61.547V45.0641H53.044V52.2361H50.91V36.4731H53.044V43.5021H61.547V36.4731H63.681Z"
     fill="#484848"
     id="path8" />
  <g
     opacity="0.91"
     id="g18">
    <g
       opacity="0.91"
       id="g16">
      <path
         opacity="0.91"
         d="M181.003 75.993C197.571 75.993 211.003 62.5615 211.003 45.993C211.003 29.4244 197.571 15.993 181.003 15.993C164.434 15.993 151.003 29.4244 151.003 45.993C151.003 62.5615 164.434 75.993 181.003 75.993Z"
         fill="#484848"
         id="path14" />
    </g>
  </g>
  <g
     opacity="0.6"
     id="g22">
    <path
       opacity="0.6"
       d="M194.162 50.0737C194.026 47.5048 192.817 45.7166 190.344 44.8504C190.074 44.7564 189.808 44.6492 189.466 44.5222C189.629 44.4133 189.716 44.3512 189.808 44.2942C190.505 43.8629 191.085 43.2673 191.498 42.5595C191.912 41.8517 192.145 41.0534 192.178 40.2346C192.261 38.9312 191.951 37.6328 191.287 36.5077C190.925 35.9225 190.449 35.4157 189.888 35.0174C189.327 34.619 188.691 34.3371 188.019 34.1884C186.84 33.8869 185.645 33.645 184.441 33.4635C184.105 33.4066 184.051 33.288 184.048 33.0048C184.031 31.4742 183.996 29.9447 183.974 28.4141C183.974 28.1251 183.887 27.9832 183.562 27.9935C182.712 28.0197 181.861 28.0134 181.01 28.0294C180.554 28.0379 180.542 28.0573 180.54 28.5109C180.535 29.9956 180.533 31.4804 180.531 32.9655C180.531 33.1991 180.449 33.2909 180.207 33.2892C179.646 33.2892 179.088 33.3137 178.527 33.3228C178.088 33.3308 178.103 33.3228 178.102 32.8737C178.102 31.3756 178.083 29.8774 178.08 28.3799C178.08 28.1217 177.98 28.0448 177.729 28.0511C176.825 28.0721 175.921 28.0887 175.016 28.0807C174.699 28.0807 174.608 28.185 174.613 28.4933C174.639 30.0433 174.636 31.5938 174.67 33.1444C174.677 33.4533 174.561 33.5086 174.3 33.5068C173.364 33.5012 172.428 33.5012 171.492 33.5068C170.439 33.5137 169.383 33.5296 168.325 33.5445C168.162 33.5445 167.996 33.5268 168.003 33.7849C168.034 34.797 168.044 35.8096 168.077 36.8206C168.089 37.2491 168.129 37.2673 168.561 37.2525C169.263 37.228 169.965 37.1744 170.66 37.1955C171.779 37.2297 172.296 37.7722 172.354 38.8943C172.354 38.9581 172.359 39.0242 172.359 39.088C172.384 42.6526 172.409 46.2171 172.434 49.7813C172.442 50.8584 172.502 51.9343 172.486 53.0101C172.471 54.0518 172.047 54.4382 171.004 54.4775C170.844 54.4827 170.682 54.4713 170.52 54.4644C170.069 54.4479 169.618 54.4205 169.167 54.4154C169.121 54.4085 169.074 54.4112 169.03 54.4233C168.985 54.4353 168.943 54.4565 168.907 54.4854C168.871 54.5144 168.841 54.5505 168.82 54.5915C168.798 54.6325 168.785 54.6775 168.782 54.7237C168.619 55.8634 168.444 57.0031 168.278 58.1428C168.221 58.5491 168.235 58.5508 168.65 58.5491C170.611 58.5394 172.573 58.5406 174.534 58.5281C174.773 58.5281 174.859 58.5959 174.854 58.8432C174.838 59.5855 174.835 60.3282 174.845 61.0713C174.857 61.9438 174.885 62.8151 174.909 63.6875C174.913 63.8408 174.915 63.9947 175.144 63.993C176.081 63.9844 177.018 63.9753 177.952 63.985C178.245 63.985 178.329 63.8505 178.327 63.5946V62.3637C178.32 61.221 178.312 60.0784 178.303 58.9361C178.303 58.748 178.287 58.5571 178.567 58.5577C179.127 58.5577 179.687 58.536 180.247 58.5497C180.727 58.5628 180.76 58.6175 180.774 59.1133C180.794 60.5987 180.813 62.0851 180.831 63.5724C180.831 63.81 180.892 63.9576 181.172 63.9514C182.012 63.9371 182.854 63.9514 183.694 63.9252C184.329 63.9041 184.308 63.9873 184.299 63.2607C184.283 61.8273 184.278 60.394 184.283 58.9606C184.283 58.4654 184.305 58.483 184.801 58.4101C185.997 58.2346 187.194 58.0853 188.377 57.8402C189.966 57.5608 191.412 56.7446 192.473 55.5278C193.099 54.7742 193.571 53.9046 193.86 52.9688C194.15 52.0329 194.252 51.0491 194.162 50.0737ZM178.638 43.8788C178.41 43.8788 178.287 43.7962 178.287 43.5369C178.271 41.5994 178.243 39.6619 178.221 37.7204C178.221 37.5448 178.26 37.4029 178.484 37.3933C180.125 37.2494 181.778 37.3271 183.398 37.6241C183.784 37.7699 184.159 37.9412 184.522 38.1369C185.013 38.4372 185.404 38.8782 185.642 39.4029C185.88 39.9276 185.955 40.5118 185.857 41.0797C185.764 41.498 185.57 41.8873 185.293 42.2141C185.015 42.5409 184.663 42.7954 184.265 42.9556C182.831 43.5927 181.275 43.9099 179.706 43.8851C179.35 43.897 178.993 43.8788 178.638 43.8788ZM186.85 52.4397C186.206 53.2498 185.294 53.8027 184.278 53.9983C182.833 54.3065 181.356 54.4368 179.879 54.3863H178.341C178.322 52.0169 178.304 49.685 178.284 47.3025C178.752 47.2877 179.242 47.27 179.733 47.2586C181.23 47.1668 182.733 47.2581 184.209 47.5304C185.011 47.6648 185.767 47.9972 186.409 48.4975C186.989 48.9636 187.361 49.6407 187.444 50.3805C187.526 51.1204 187.312 51.8626 186.848 52.4448L186.85 52.4397Z"
       fill="white"
       id="path20" />
  </g>
  <defs
     id="defs31">
    <linearGradient
       id="paint0_linear"
       x1="0.00293828"
       y1="-5.61978"
       x2="89.7368"
       y2="263.536"
       gradientUnits="userSpaceOnUse">
      <stop
         stop-color="white"
         id="stop24" />
      <stop
         offset="0.552"
         stop-color="#777777"
         id="stop26" />
      <stop
         offset="1"
         stop-color="#848484"
         id="stop28" />
    </linearGradient>
  </defs>
</svg>
