<?xml version="1.0" encoding="UTF-8" standalone="no"?>
<svg
   xmlns:dc="http://purl.org/dc/elements/1.1/"
   xmlns:cc="http://creativecommons.org/ns#"
   xmlns:rdf="http://www.w3.org/1999/02/22-rdf-syntax-ns#"
   xmlns:svg="http://www.w3.org/2000/svg"
   xmlns="http://www.w3.org/2000/svg"
   xmlns:sodipodi="http://sodipodi.sourceforge.net/DTD/sodipodi-0.dtd"
   xmlns:inkscape="http://www.inkscape.org/namespaces/inkscape"
   width="231"
   height="151"
   viewBox="0 0 231 151"
   fill="none"
   version="1.1"
   id="svg20"
   sodipodi:docname="but_CHIA_p.svg"
   inkscape:version="0.92.3 (2405546, 2018-03-11)">
  <metadata
     id="metadata26">
    <rdf:RDF>
      <cc:Work
         rdf:about="">
        <dc:format>image/svg+xml</dc:format>
        <dc:type
           rdf:resource="http://purl.org/dc/dcmitype/StillImage" />
      </cc:Work>
    </rdf:RDF>
  </metadata>
  <defs
     id="defs24" />
  <sodipodi:namedview
     pagecolor="#ffffff"
     bordercolor="#666666"
     borderopacity="1"
     objecttolerance="10"
     gridtolerance="10"
     guidetolerance="10"
     inkscape:pageopacity="0"
     inkscape:pageshadow="2"
     inkscape:window-width="1425"
     inkscape:window-height="973"
     id="namedview22"
     showgrid="false"
     inkscape:zoom="1.2294372"
     inkscape:cx="134.20775"
     inkscape:cy="75.5"
     inkscape:window-x="0"
     inkscape:window-y="0"
     inkscape:window-maximized="0"
     inkscape:current-layer="svg20" />
  <path
     opacity="0.42"
     d="M230.685 0H0V150.29H230.685V0Z"
     fill="#010101"
     fill-opacity="0.82"
     id="path2" />
  <g
     opacity="0.42"
     id="g8">
    <path
       d="M181 75C197.569 75 211 61.5685 211 45C211 28.4315 197.569 15 181 15C164.431 15 151 28.4315 151 45C151 61.5685 164.431 75 181 75Z"
       fill="#484848"
       id="path4" />
    <path
       fill-rule="evenodd"
       clip-rule="evenodd"
       d="M189.239 35.632C188.814 35.1916 188.281 35.0048 187.572 35C186.912 35.0125 186.28 35.2848 185.864 35.9482C185.544 36.4574 185.471 37.0197 185.586 37.6053C185.699 38.1849 185.996 38.6493 186.505 38.9575C187.014 39.2658 187.567 39.3295 188.143 39.2241C188.606 39.1393 188.998 38.9223 189.305 38.5631C189.711 38.0855 189.843 37.5215 189.795 36.912C189.757 36.426 189.583 35.9877 189.239 35.632ZM158.423 49.1995C158.271 49.331 158.118 49.463 158 49.6335C158.016 49.6265 158.032 49.6199 158.047 49.6133L158.048 49.6132C158.064 49.6063 158.081 49.5994 158.097 49.592L158.528 49.4015L158.528 49.4011C159.074 49.1597 159.619 48.9182 160.163 48.6733C160.262 48.629 160.294 48.6422 160.328 48.7471C160.657 49.7669 161.243 50.6092 162.097 51.259C163.327 52.1962 164.746 52.5959 166.267 52.6797C166.829 52.7076 167.392 52.6869 167.951 52.6177C168.931 52.5011 169.887 52.2265 170.78 51.8046C171.332 51.5441 171.867 51.2506 172.384 50.9258C172.394 50.9199 172.404 50.9123 172.414 50.9046L172.414 50.9046C172.448 50.8787 172.485 50.8506 172.519 50.8722C172.552 50.893 172.548 50.936 172.543 50.9773C172.541 50.9915 172.54 51.0055 172.54 51.0183V52.1305C172.54 52.3015 172.54 52.3015 172.715 52.3015H176.509H176.592C176.651 52.3015 176.682 52.2738 176.682 52.2144C176.682 52.2077 176.682 52.2011 176.682 52.1945C176.682 52.1816 176.682 52.1687 176.683 52.1559C176.683 52.1315 176.683 52.1072 176.683 52.0829C176.687 49.7789 176.686 47.4747 176.681 45.1703C176.681 44.6279 176.937 44.2116 177.321 43.8756C177.706 43.5396 178.18 43.4682 178.67 43.5089C179.21 43.5537 179.618 43.8183 179.868 44.3057C180.019 44.6022 180.08 44.9229 180.08 45.2539V52.1186C180.08 52.3023 180.08 52.3023 180.266 52.3023H184.035H184.131C184.189 52.3023 184.221 52.2754 184.221 52.2158C184.222 52.1758 184.222 52.1361 184.222 52.0962V52.096C184.223 49.4251 184.223 46.7542 184.222 44.0832C184.222 43.7445 184.19 43.4065 184.127 43.0737C183.977 42.2882 183.659 41.5828 183.099 41.004C182.353 40.2344 181.417 39.9037 180.365 39.8646C179.811 39.8435 179.256 39.8836 178.71 39.9844C177.972 40.1216 177.233 40.268 176.697 40.8741C176.677 40.8406 176.679 40.805 176.682 40.7701C176.683 40.7584 176.684 40.7469 176.684 40.7355V36.2029C176.684 36.0309 176.683 36.0309 176.509 36.0309H172.714C172.539 36.0309 172.539 36.0314 172.539 36.2022C172.54 38.7018 172.539 41.2013 172.536 43.7008C172.536 43.8174 172.573 43.8804 172.68 43.9283C173.203 44.1582 173.699 44.4401 174.189 44.733C174.321 44.8116 174.321 44.8137 174.237 44.9373C173.788 45.5871 173.284 46.1968 172.729 46.7594C172.216 47.2849 171.663 47.7654 171.052 48.1814C170.092 48.8357 169.06 49.2994 167.881 49.3865C167.108 49.4438 166.358 49.3588 165.65 49.0309C164.842 48.6561 164.311 48.0468 164.129 47.157C164.109 47.0562 164.139 47.0071 164.225 46.957C164.659 46.7046 165.116 46.5003 165.574 46.2956L165.719 46.2304C167.067 45.6264 168.474 45.2235 169.921 44.9471C169.932 44.9448 169.944 44.9429 169.956 44.941L169.956 44.941C170.007 44.9329 170.062 44.9242 170.128 44.8856C168.061 44.7213 166.084 44.9591 164.194 45.7794C164.177 45.7339 164.19 45.6981 164.202 45.6638C164.205 45.6573 164.207 45.6508 164.209 45.6443C164.595 44.4396 165.387 43.5954 166.539 43.0996C167.423 42.7193 168.357 42.7183 169.293 42.845C169.887 42.9255 170.465 43.0838 171.035 43.2663C171.173 43.3104 171.178 43.3053 171.178 43.1633C171.178 42.9252 171.178 42.6871 171.178 42.449C171.178 41.8778 171.177 41.3066 171.18 40.7355C171.182 40.626 171.138 40.5807 171.038 40.5542C170.864 40.5085 170.691 40.4593 170.518 40.4101L170.518 40.4101L170.518 40.4101L170.518 40.4101C170.403 40.3775 170.289 40.3448 170.173 40.3132C168.892 39.9609 167.59 39.7909 166.258 39.8804C165.533 39.9255 164.815 40.0518 164.118 40.2569C163.246 40.5175 162.453 40.9244 161.789 41.5565C161.087 42.2259 160.646 43.0519 160.379 43.9769C160.201 44.6102 160.095 45.2618 160.064 45.919C160.031 46.5525 160.014 47.185 160.112 47.8147C160.124 47.8899 160.09 47.9325 160.031 47.9713C159.485 48.3321 158.964 48.7286 158.471 49.1583L158.423 49.1995ZM203.352 52.1206V49.0832C203.352 48.682 203.352 48.2807 203.352 47.8793L203.352 47.8701C203.351 47.3373 203.351 46.8042 203.351 46.2705C203.352 46.0793 203.341 45.8882 203.319 45.6983C203.207 44.7738 202.935 43.898 202.482 43.0837C201.813 41.8773 200.847 40.9983 199.567 40.4676C198.723 40.1172 197.834 39.9869 196.931 39.9335C195.915 39.8734 194.934 40.0257 193.998 40.434C193.292 40.7418 192.68 41.177 192.18 41.7645C191.613 42.4308 191.259 43.2056 191.038 44.0438C190.782 45.0148 190.712 46.0056 190.728 47.0057C190.736 47.5602 190.813 48.1115 190.957 48.6471C191.365 50.1638 192.288 51.2667 193.681 51.9761C194.468 52.3773 195.309 52.5926 196.191 52.6674C197.066 52.7416 197.9 52.613 198.691 52.2264C198.918 52.1194 199.138 51.9958 199.347 51.8566C199.419 51.8073 199.446 51.8236 199.443 51.9081C199.441 51.9585 199.442 52.0089 199.442 52.0592V52.0595C199.442 52.0847 199.443 52.11 199.443 52.1352C199.444 52.3012 199.445 52.3028 199.61 52.3028H203.177C203.352 52.3028 203.352 52.3024 203.352 52.1206ZM194.062 46.4082C194.062 46.3763 194.062 46.3443 194.062 46.3124C194.048 45.6909 194.166 45.0988 194.48 44.5583C194.916 43.812 195.589 43.3967 196.417 43.2199C196.994 43.0968 197.573 43.0805 198.136 43.3026C198.944 43.6211 199.473 44.216 199.804 45.003C199.976 45.4122 200.063 45.8524 200.059 46.2963C200.052 47.285 199.726 48.1501 198.981 48.8243C198.508 49.2525 197.949 49.4901 197.301 49.5057C196.617 49.5222 195.974 49.3838 195.392 49.0219C194.602 48.5304 194.206 47.7894 194.086 46.885C194.074 46.7914 194.065 46.6956 194.062 46.5998C194.06 46.536 194.061 46.4722 194.062 46.4085V46.4082ZM185.584 46.2972V40.4848C185.584 40.389 185.584 40.3411 185.608 40.3171C185.632 40.2932 185.68 40.2932 185.776 40.2932H189.533C189.728 40.2932 189.73 40.2946 189.73 40.4848V52.1196C189.73 52.3025 189.73 52.303 189.543 52.303H185.785C185.585 52.303 185.585 52.303 185.585 52.097L185.584 46.2972Z"
       fill="white"
       id="path6" />
  </g>
  <path
     opacity="0.42"
     d="M34.0121 51.2432H31.9001C31.7387 51.2432 31.6104 51.2028 31.5151 51.1222C31.4271 51.0342 31.3537 50.9388 31.2951 50.8362L27.0711 44.2142C27.0124 44.3902 26.9464 44.5405 26.8731 44.6652L22.7591 50.8362C22.6857 50.9388 22.6051 51.0342 22.5171 51.1222C22.4364 51.2028 22.3227 51.2432 22.1761 51.2432H20.1961L25.6191 43.1472L20.4161 35.4802H22.5391C22.6931 35.4802 22.8067 35.5058 22.8801 35.5572C22.9534 35.6085 23.0194 35.6818 23.0781 35.7772L27.1921 42.0912C27.2434 41.9372 27.3204 41.7685 27.4231 41.5852L31.3061 35.8212C31.3647 35.7185 31.4344 35.6378 31.5151 35.5792C31.5957 35.5132 31.6911 35.4802 31.8011 35.4802H33.8361L28.6111 43.0482L34.0121 51.2432ZM46.6977 47.9872C46.815 47.9872 46.9177 48.0348 47.0057 48.1302L47.8527 49.0432C47.2073 49.7912 46.4227 50.3742 45.4987 50.7922C44.582 51.2102 43.471 51.4192 42.1657 51.4192C41.0363 51.4192 40.0097 51.2248 39.0857 50.8362C38.1617 50.4402 37.3733 49.8902 36.7207 49.1862C36.068 48.4748 35.562 47.6242 35.2027 46.6342C34.8433 45.6442 34.6637 44.5552 34.6637 43.3672C34.6637 42.1792 34.8507 41.0902 35.2247 40.1002C35.5987 39.1102 36.123 38.2595 36.7977 37.5482C37.4797 36.8368 38.2937 36.2868 39.2397 35.8982C40.1857 35.5022 41.2307 35.3042 42.3747 35.3042C43.4967 35.3042 44.4867 35.4838 45.3447 35.8432C46.2027 36.2025 46.958 36.6902 47.6107 37.3062L46.9067 38.2852C46.8627 38.3585 46.804 38.4208 46.7307 38.4722C46.6647 38.5162 46.573 38.5382 46.4557 38.5382C46.3237 38.5382 46.1623 38.4685 45.9717 38.3292C45.781 38.1825 45.5317 38.0212 45.2237 37.8452C44.9157 37.6692 44.5307 37.5115 44.0687 37.3722C43.6067 37.2255 43.0383 37.1522 42.3637 37.1522C41.5497 37.1522 40.8053 37.2952 40.1307 37.5812C39.456 37.8598 38.873 38.2668 38.3817 38.8022C37.8977 39.3375 37.52 39.9902 37.2487 40.7602C36.9773 41.5302 36.8417 42.3992 36.8417 43.3672C36.8417 44.3498 36.981 45.2262 37.2597 45.9962C37.5457 46.7662 37.9307 47.4188 38.4147 47.9542C38.906 48.4822 39.4817 48.8855 40.1417 49.1642C40.809 49.4428 41.5277 49.5822 42.2977 49.5822C42.767 49.5822 43.1887 49.5565 43.5627 49.5052C43.944 49.4465 44.2923 49.3585 44.6077 49.2412C44.9303 49.1238 45.2273 48.9772 45.4987 48.8012C45.7773 48.6178 46.0523 48.4015 46.3237 48.1522C46.4483 48.0422 46.573 47.9872 46.6977 47.9872ZM63.098 35.4802V51.2432H60.964V44.0712H52.461V51.2432H50.327V35.4802H52.461V42.5092H60.964V35.4802H63.098Z"
     fill="#484848"
     id="path10" />
  <path
     opacity="0.85"
     d="M32.8911 105.744C32.9611 105.744 33.0206 105.769 33.0696 105.818L33.4896 106.269C33.1816 106.598 32.8456 106.896 32.4816 107.162C32.1246 107.421 31.7291 107.645 31.2951 107.834C30.8681 108.016 30.3956 108.156 29.8776 108.254C29.3666 108.359 28.8031 108.411 28.1871 108.411C27.1581 108.411 26.2131 108.233 25.3521 107.876C24.4981 107.512 23.7631 107.001 23.1471 106.343C22.5311 105.678 22.0516 104.876 21.7086 103.938C21.3726 103 21.2046 101.957 21.2046 100.809C21.2046 99.6822 21.3796 98.6532 21.7296 97.7222C22.0796 96.7912 22.5696 95.9932 23.1996 95.3282C23.8296 94.6562 24.5856 94.1382 25.4676 93.7742C26.3496 93.4032 27.3226 93.2177 28.3866 93.2177C29.4016 93.2177 30.3011 93.3752 31.0851 93.6902C31.8691 94.0052 32.5831 94.4497 33.2271 95.0237L32.9016 95.4962C32.8456 95.5802 32.7581 95.6222 32.6391 95.6222C32.5551 95.6222 32.4186 95.5452 32.2296 95.3912C32.0406 95.2372 31.7781 95.0692 31.4421 94.8872C31.1061 94.6982 30.6861 94.5267 30.1821 94.3727C29.6851 94.2187 29.0866 94.1417 28.3866 94.1417C27.4906 94.1417 26.6681 94.2957 25.9191 94.6037C25.1771 94.9117 24.5366 95.3527 23.9976 95.9267C23.4656 96.5007 23.0491 97.2007 22.7481 98.0267C22.4471 98.8527 22.2966 99.7802 22.2966 100.809C22.2966 101.859 22.4471 102.797 22.7481 103.623C23.0561 104.449 23.4761 105.149 24.0081 105.723C24.5401 106.29 25.1666 106.728 25.8876 107.036C26.6156 107.337 27.3996 107.487 28.2396 107.487C28.7716 107.487 29.2441 107.452 29.6571 107.382C30.0771 107.312 30.4621 107.207 30.8121 107.067C31.1621 106.927 31.4876 106.756 31.7886 106.553C32.0896 106.35 32.3871 106.112 32.6811 105.839C32.7161 105.811 32.7511 105.79 32.7861 105.776C32.8211 105.755 32.8561 105.744 32.8911 105.744ZM36.8975 99.5597C37.3805 98.9717 37.93 98.5027 38.546 98.1527C39.169 97.8027 39.8655 97.6277 40.6355 97.6277C41.2095 97.6277 41.7135 97.7187 42.1475 97.9007C42.5885 98.0827 42.9525 98.3452 43.2395 98.6882C43.5265 99.0312 43.7435 99.4442 43.8905 99.9272C44.0375 100.41 44.111 100.956 44.111 101.565V108.243H43.103V101.565C43.103 100.585 42.879 99.8187 42.431 99.2657C41.983 98.7057 41.3005 98.4257 40.3835 98.4257C39.7045 98.4257 39.0675 98.6007 38.4725 98.9507C37.8845 99.2937 37.3595 99.7732 36.8975 100.389V108.243H35.8895V92.9657H36.8975V99.5597ZM48.5484 97.7957V108.243H47.5509V97.7957H48.5484ZM48.9789 94.1942C48.9789 94.3202 48.9509 94.4392 48.8949 94.5512C48.8459 94.6562 48.7794 94.7507 48.6954 94.8347C48.6114 94.9187 48.5134 94.9852 48.4014 95.0342C48.2894 95.0832 48.1704 95.1077 48.0444 95.1077C47.9184 95.1077 47.7994 95.0832 47.6874 95.0342C47.5754 94.9852 47.4774 94.9187 47.3934 94.8347C47.3094 94.7507 47.2429 94.6562 47.1939 94.5512C47.1449 94.4392 47.1204 94.3202 47.1204 94.1942C47.1204 94.0682 47.1449 93.9492 47.1939 93.8372C47.2429 93.7182 47.3094 93.6167 47.3934 93.5327C47.4774 93.4487 47.5754 93.3822 47.6874 93.3332C47.7994 93.2842 47.9184 93.2597 48.0444 93.2597C48.1704 93.2597 48.2894 93.2842 48.4014 93.3332C48.5134 93.3822 48.6114 93.4487 48.6954 93.5327C48.7794 93.6167 48.8459 93.7182 48.8949 93.8372C48.9509 93.9492 48.9789 94.0682 48.9789 94.1942ZM57.9597 103.193C56.9657 103.228 56.1082 103.308 55.3872 103.434C54.6732 103.553 54.0817 103.718 53.6127 103.928C53.1507 104.138 52.8077 104.39 52.5837 104.684C52.3597 104.971 52.2477 105.3 52.2477 105.671C52.2477 106.021 52.3037 106.325 52.4157 106.584C52.5347 106.836 52.6887 107.046 52.8777 107.214C53.0737 107.375 53.2977 107.494 53.5497 107.571C53.8017 107.648 54.0642 107.687 54.3372 107.687C54.7432 107.687 55.1142 107.645 55.4502 107.561C55.7932 107.47 56.1082 107.347 56.3952 107.193C56.6892 107.032 56.9622 106.843 57.2142 106.626C57.4662 106.409 57.7147 106.175 57.9597 105.923V103.193ZM51.8172 99.2762C52.3632 98.7302 52.9372 98.3172 53.5392 98.0372C54.1412 97.7572 54.8237 97.6172 55.5867 97.6172C56.1467 97.6172 56.6367 97.7082 57.0567 97.8902C57.4767 98.0652 57.8232 98.3207 58.0962 98.6567C58.3762 98.9857 58.5862 99.3882 58.7262 99.8642C58.8662 100.333 58.9362 100.858 58.9362 101.439V108.243H58.5372C58.3272 108.243 58.1977 108.145 58.1487 107.949L58.0017 106.605C57.7147 106.885 57.4277 107.137 57.1407 107.361C56.8607 107.585 56.5667 107.774 56.2587 107.928C55.9507 108.082 55.6182 108.201 55.2612 108.285C54.9042 108.369 54.5122 108.411 54.0852 108.411C53.7282 108.411 53.3817 108.359 53.0457 108.254C52.7097 108.149 52.4087 107.988 52.1427 107.771C51.8837 107.554 51.6737 107.277 51.5127 106.941C51.3587 106.598 51.2817 106.189 51.2817 105.713C51.2817 105.272 51.4077 104.862 51.6597 104.484C51.9117 104.106 52.3072 103.777 52.8462 103.497C53.3852 103.217 54.0747 102.993 54.9147 102.825C55.7617 102.657 56.7767 102.559 57.9597 102.531V101.439C57.9597 100.473 57.7497 99.7312 57.3297 99.2132C56.9167 98.6882 56.3007 98.4257 55.4817 98.4257C54.9777 98.4257 54.5472 98.4957 54.1902 98.6357C53.8402 98.7757 53.5427 98.9297 53.2977 99.0977C53.0527 99.2657 52.8532 99.4197 52.6992 99.5597C52.5452 99.6997 52.4157 99.7697 52.3107 99.7697C52.2337 99.7697 52.1707 99.7522 52.1217 99.7172C52.0727 99.6822 52.0307 99.6367 51.9957 99.5807L51.8172 99.2762Z"
     fill="white"
     fill-opacity="0.84"
     id="path14" />
  <path
     opacity="0.75"
     d="M193.422 131.656C193.762 131.656 194.065 131.598 194.332 131.481C194.602 131.361 194.83 131.196 195.017 130.986C195.204 130.776 195.345 130.53 195.442 130.246C195.542 129.96 195.592 129.651 195.592 129.321V124.946H196.102V129.321C196.102 129.711 196.04 130.076 195.917 130.416C195.794 130.753 195.615 131.048 195.382 131.301C195.152 131.551 194.87 131.748 194.537 131.891C194.207 132.035 193.835 132.106 193.422 132.106C193.009 132.106 192.635 132.035 192.302 131.891C191.972 131.748 191.69 131.551 191.457 131.301C191.227 131.048 191.05 130.753 190.927 130.416C190.804 130.076 190.742 129.711 190.742 129.321V124.946H191.257V129.316C191.257 129.646 191.305 129.955 191.402 130.241C191.502 130.525 191.644 130.771 191.827 130.981C192.014 131.191 192.24 131.356 192.507 131.476C192.777 131.596 193.082 131.656 193.422 131.656ZM201.533 125.806C201.503 125.863 201.459 125.891 201.403 125.891C201.359 125.891 201.303 125.861 201.233 125.801C201.166 125.738 201.074 125.67 200.958 125.596C200.841 125.52 200.694 125.45 200.518 125.386C200.344 125.323 200.129 125.291 199.873 125.291C199.616 125.291 199.389 125.328 199.193 125.401C198.999 125.475 198.836 125.575 198.703 125.701C198.573 125.828 198.473 125.975 198.403 126.141C198.336 126.308 198.303 126.483 198.303 126.666C198.303 126.906 198.353 127.105 198.453 127.261C198.556 127.418 198.691 127.551 198.858 127.661C199.024 127.771 199.213 127.865 199.423 127.941C199.636 128.015 199.854 128.088 200.078 128.161C200.301 128.235 200.518 128.316 200.728 128.406C200.941 128.493 201.131 128.603 201.298 128.736C201.464 128.87 201.598 129.035 201.698 129.231C201.801 129.425 201.853 129.666 201.853 129.956C201.853 130.253 201.801 130.533 201.698 130.796C201.598 131.056 201.451 131.283 201.258 131.476C201.064 131.67 200.828 131.823 200.548 131.936C200.268 132.046 199.948 132.101 199.588 132.101C199.121 132.101 198.719 132.02 198.383 131.856C198.046 131.69 197.751 131.463 197.498 131.176L197.638 130.956C197.678 130.906 197.724 130.881 197.778 130.881C197.808 130.881 197.846 130.901 197.893 130.941C197.939 130.981 197.996 131.031 198.063 131.091C198.129 131.148 198.209 131.211 198.303 131.281C198.396 131.348 198.504 131.411 198.628 131.471C198.751 131.528 198.893 131.576 199.053 131.616C199.213 131.656 199.394 131.676 199.598 131.676C199.878 131.676 200.128 131.635 200.348 131.551C200.568 131.465 200.753 131.348 200.903 131.201C201.056 131.055 201.173 130.881 201.253 130.681C201.333 130.478 201.373 130.261 201.373 130.031C201.373 129.781 201.321 129.576 201.218 129.416C201.118 129.253 200.984 129.118 200.818 129.011C200.651 128.901 200.461 128.81 200.248 128.736C200.038 128.663 199.821 128.591 199.598 128.521C199.374 128.451 199.156 128.373 198.943 128.286C198.733 128.2 198.544 128.09 198.378 127.956C198.211 127.82 198.076 127.651 197.973 127.451C197.873 127.248 197.823 126.995 197.823 126.691C197.823 126.455 197.868 126.226 197.958 126.006C198.048 125.786 198.179 125.593 198.353 125.426C198.526 125.256 198.739 125.121 198.993 125.021C199.249 124.918 199.541 124.866 199.868 124.866C200.234 124.866 200.563 124.925 200.853 125.041C201.146 125.158 201.413 125.336 201.653 125.576L201.533 125.806ZM209.409 128.481C209.409 129.028 209.328 129.52 209.164 129.956C209.001 130.393 208.771 130.765 208.474 131.071C208.178 131.378 207.821 131.613 207.404 131.776C206.991 131.94 206.534 132.021 206.034 132.021H203.449V124.946H206.034C206.534 124.946 206.991 125.028 207.404 125.191C207.821 125.355 208.178 125.59 208.474 125.896C208.771 126.203 209.001 126.575 209.164 127.011C209.328 127.448 209.409 127.938 209.409 128.481ZM208.879 128.481C208.879 127.988 208.811 127.548 208.674 127.161C208.538 126.775 208.344 126.448 208.094 126.181C207.844 125.915 207.544 125.711 207.194 125.571C206.844 125.431 206.458 125.361 206.034 125.361H203.964V131.606H206.034C206.458 131.606 206.844 131.536 207.194 131.396C207.544 131.256 207.844 131.053 208.094 130.786C208.344 130.52 208.538 130.193 208.674 129.806C208.811 129.42 208.879 128.978 208.879 128.481Z"
     fill="#DEDEDE"
     fill-opacity="0.8"
     id="path18" />
</svg>
