<?xml version="1.0" encoding="UTF-8" standalone="no"?>
<svg
   xmlns:dc="http://purl.org/dc/elements/1.1/"
   xmlns:cc="http://creativecommons.org/ns#"
   xmlns:rdf="http://www.w3.org/1999/02/22-rdf-syntax-ns#"
   xmlns:svg="http://www.w3.org/2000/svg"
   xmlns="http://www.w3.org/2000/svg"
   xmlns:sodipodi="http://sodipodi.sourceforge.net/DTD/sodipodi-0.dtd"
   xmlns:inkscape="http://www.inkscape.org/namespaces/inkscape"
   width="231"
   height="151"
   viewBox="0 0 231 151"
   fill="none"
   version="1.1"
   id="svg20"
   sodipodi:docname="but_MNR_p.svg"
   inkscape:version="0.92.3 (2405546, 2018-03-11)">
  <metadata
     id="metadata26">
    <rdf:RDF>
      <cc:Work
         rdf:about="">
        <dc:format>image/svg+xml</dc:format>
        <dc:type
           rdf:resource="http://purl.org/dc/dcmitype/StillImage" />
      </cc:Work>
    </rdf:RDF>
  </metadata>
  <defs
     id="defs24" />
  <sodipodi:namedview
     pagecolor="#ffffff"
     bordercolor="#666666"
     borderopacity="1"
     objecttolerance="10"
     gridtolerance="10"
     guidetolerance="10"
     inkscape:pageopacity="0"
     inkscape:pageshadow="2"
     inkscape:window-width="684"
     inkscape:window-height="480"
     id="namedview22"
     showgrid="false"
     inkscape:zoom="1.2294372"
     inkscape:cx="134.20775"
     inkscape:cy="75.5"
     inkscape:window-x="0"
     inkscape:window-y="0"
     inkscape:window-maximized="0"
     inkscape:current-layer="svg20" />
  <path
     opacity="0.42"
     d="M230.738 0H0.0527344V150.29H230.738V0Z"
     fill="#010101"
     fill-opacity="0.82"
     id="path2" />
  <path
     opacity="0.42"
     d="M34.0653 51.2432H31.9533C31.792 51.2432 31.6636 51.2028 31.5683 51.1222C31.4803 51.0342 31.407 50.9388 31.3483 50.8362L27.1243 44.2142C27.0656 44.3902 26.9996 44.5405 26.9263 44.6652L22.8123 50.8362C22.739 50.9388 22.6583 51.0342 22.5703 51.1222C22.4896 51.2028 22.376 51.2432 22.2293 51.2432H20.2493L25.6723 43.1472L20.4693 35.4802H22.5923C22.7463 35.4802 22.86 35.5058 22.9333 35.5572C23.0066 35.6085 23.0726 35.6818 23.1313 35.7772L27.2453 42.0912C27.2966 41.9372 27.3736 41.7685 27.4763 41.5852L31.3593 35.8212C31.418 35.7185 31.4876 35.6378 31.5683 35.5792C31.649 35.5132 31.7443 35.4802 31.8543 35.4802H33.8893L28.6643 43.0482L34.0653 51.2432ZM52.7304 35.4802V51.2432H50.8604V39.6602C50.8604 39.5062 50.8641 39.3412 50.8714 39.1652C50.8861 38.9892 50.9007 38.8095 50.9154 38.6262L45.5034 48.4822C45.3347 48.8122 45.0781 48.9772 44.7334 48.9772H44.4254C44.0807 48.9772 43.8241 48.8122 43.6554 48.4822L38.1334 38.5822C38.1774 38.9708 38.1994 39.3302 38.1994 39.6602V51.2432H36.3294V35.4802H37.9024C38.0931 35.4802 38.2397 35.4985 38.3424 35.5352C38.4451 35.5718 38.5441 35.6745 38.6394 35.8432L44.0844 45.5452C44.1724 45.7212 44.2567 45.9045 44.3374 46.0952C44.4254 46.2858 44.5061 46.4802 44.5794 46.6782C44.6527 46.4802 44.7297 46.2858 44.8104 46.0952C44.8911 45.8972 44.9791 45.7102 45.0744 45.5342L50.4204 35.8432C50.5084 35.6745 50.6037 35.5718 50.7064 35.5352C50.8164 35.4985 50.9667 35.4802 51.1574 35.4802H52.7304ZM61.128 43.1142C61.744 43.1142 62.2867 43.0408 62.756 42.8942C63.2327 42.7402 63.6287 42.5275 63.944 42.2562C64.2667 41.9775 64.5087 41.6475 64.67 41.2662C64.8314 40.8848 64.912 40.4632 64.912 40.0012C64.912 39.0625 64.604 38.3548 63.988 37.8782C63.372 37.4015 62.448 37.1632 61.216 37.1632H58.884V43.1142H61.128ZM68.41 51.2432H66.518C66.1294 51.2432 65.8434 51.0928 65.66 50.7922L61.568 45.1602C61.4434 44.9842 61.3077 44.8595 61.161 44.7862C61.0217 44.7055 60.8017 44.6652 60.501 44.6652H58.884V51.2432H56.761V35.4802H61.216C62.2134 35.4802 63.075 35.5828 63.801 35.7882C64.527 35.9862 65.1247 36.2758 65.594 36.6572C66.0707 37.0385 66.4227 37.5005 66.65 38.0432C66.8774 38.5785 66.991 39.1798 66.991 39.8472C66.991 40.4045 66.903 40.9252 66.727 41.4092C66.551 41.8932 66.2944 42.3295 65.957 42.7182C65.627 43.0995 65.22 43.4258 64.736 43.6972C64.2594 43.9685 63.7167 44.1738 63.108 44.3132C63.3794 44.4672 63.614 44.6908 63.812 44.9842L68.41 51.2432Z"
     fill="#484848"
     id="path4" />
  <path
     opacity="0.85"
     d="M36.9028 93.3857V108.243H35.9683V95.5802C35.9683 95.3982 35.9788 95.2057 35.9998 95.0027L30.1513 105.387C30.0533 105.569 29.9133 105.66 29.7313 105.66H29.5633C29.3813 105.66 29.2413 105.569 29.1433 105.387L23.1373 94.9817C23.1583 95.1917 23.1688 95.3912 23.1688 95.5802V108.243H22.2238V93.3857H22.9693C23.0673 93.3857 23.1443 93.3962 23.2003 93.4172C23.2563 93.4382 23.3123 93.4942 23.3683 93.5852L29.3638 103.917C29.4688 104.113 29.5598 104.323 29.6368 104.547C29.6788 104.435 29.7243 104.327 29.7733 104.222C29.8223 104.11 29.8748 104.005 29.9308 103.907L35.7583 93.5852C35.8143 93.4942 35.8703 93.4382 35.9263 93.4172C35.9893 93.3962 36.0698 93.3857 36.1678 93.3857H36.9028ZM44.6324 97.6277C45.3814 97.6277 46.0499 97.7572 46.6379 98.0162C47.2329 98.2682 47.7334 98.6287 48.1394 99.0977C48.5454 99.5667 48.8534 100.134 49.0634 100.799C49.2804 101.457 49.3889 102.195 49.3889 103.014C49.3889 103.833 49.2804 104.572 49.0634 105.23C48.8534 105.888 48.5454 106.451 48.1394 106.92C47.7334 107.389 47.2329 107.75 46.6379 108.002C46.0499 108.254 45.3814 108.38 44.6324 108.38C43.8834 108.38 43.2114 108.254 42.6164 108.002C42.0284 107.75 41.5279 107.389 41.1149 106.92C40.7089 106.451 40.3974 105.888 40.1804 105.23C39.9704 104.572 39.8654 103.833 39.8654 103.014C39.8654 102.195 39.9704 101.457 40.1804 100.799C40.3974 100.134 40.7089 99.5667 41.1149 99.0977C41.5279 98.6287 42.0284 98.2682 42.6164 98.0162C43.2114 97.7572 43.8834 97.6277 44.6324 97.6277ZM44.6324 107.592C45.2554 107.592 45.7979 107.487 46.2599 107.277C46.7289 107.06 47.1174 106.752 47.4254 106.353C47.7404 105.954 47.9749 105.475 48.1289 104.915C48.2829 104.348 48.3599 103.714 48.3599 103.014C48.3599 102.321 48.2829 101.691 48.1289 101.124C47.9749 100.557 47.7404 100.074 47.4254 99.6752C47.1174 99.2692 46.7289 98.9577 46.2599 98.7407C45.7979 98.5237 45.2554 98.4152 44.6324 98.4152C44.0094 98.4152 43.4634 98.5237 42.9944 98.7407C42.5324 98.9577 42.1439 99.2692 41.8289 99.6752C41.5209 100.074 41.2864 100.557 41.1254 101.124C40.9714 101.691 40.8944 102.321 40.8944 103.014C40.8944 103.714 40.9714 104.348 41.1254 104.915C41.2864 105.475 41.5209 105.954 41.8289 106.353C42.1439 106.752 42.5324 107.06 42.9944 107.277C43.4634 107.487 44.0094 107.592 44.6324 107.592ZM53.1609 99.6227C53.6439 99.0207 54.2004 98.5377 54.8304 98.1737C55.4674 97.8097 56.1744 97.6277 56.9514 97.6277C57.5254 97.6277 58.0294 97.7187 58.4634 97.9007C58.9044 98.0827 59.2684 98.3452 59.5554 98.6882C59.8424 99.0312 60.0594 99.4442 60.2064 99.9272C60.3534 100.41 60.4269 100.956 60.4269 101.565V108.243H59.4189V101.565C59.4189 100.585 59.1949 99.8187 58.7469 99.2657C58.2989 98.7057 57.6164 98.4257 56.6994 98.4257C56.0204 98.4257 55.3834 98.6007 54.7884 98.9507C54.2004 99.2937 53.6754 99.7732 53.2134 100.389V108.243H52.2054V97.7957H52.7619C52.9369 97.7957 53.0384 97.8832 53.0664 98.0582L53.1609 99.6227ZM71.0803 101.964C71.0803 101.404 70.9998 100.904 70.8388 100.463C70.6848 100.015 70.4643 99.6367 70.1773 99.3287C69.8903 99.0207 69.5473 98.7862 69.1483 98.6252C68.7563 98.4572 68.3223 98.3732 67.8463 98.3732C67.3073 98.3732 66.8243 98.4572 66.3973 98.6252C65.9703 98.7932 65.5993 99.0347 65.2843 99.3497C64.9763 99.6647 64.7278 100.043 64.5388 100.484C64.3498 100.925 64.2238 101.418 64.1608 101.964H71.0803ZM64.1083 102.605V102.804C64.1083 103.588 64.1993 104.278 64.3813 104.873C64.5633 105.468 64.8223 105.968 65.1583 106.374C65.4943 106.773 65.9003 107.074 66.3763 107.277C66.8523 107.48 67.3843 107.582 67.9723 107.582C68.4973 107.582 68.9523 107.526 69.3373 107.414C69.7223 107.295 70.0443 107.165 70.3033 107.025C70.5693 106.878 70.7793 106.749 70.9333 106.637C71.0873 106.518 71.1993 106.458 71.2693 106.458C71.3603 106.458 71.4303 106.493 71.4793 106.563L71.7523 106.899C71.5843 107.109 71.3603 107.305 71.0803 107.487C70.8073 107.669 70.4993 107.827 70.1563 107.96C69.8203 108.086 69.4563 108.187 69.0643 108.264C68.6793 108.341 68.2908 108.38 67.8988 108.38C67.1848 108.38 66.5338 108.257 65.9458 108.012C65.3578 107.76 64.8538 107.396 64.4338 106.92C64.0138 106.444 63.6883 105.863 63.4573 105.177C63.2333 104.484 63.1213 103.693 63.1213 102.804C63.1213 102.055 63.2263 101.366 63.4363 100.736C63.6533 100.099 63.9613 99.5527 64.3603 99.0977C64.7663 98.6357 65.2598 98.2752 65.8408 98.0162C66.4288 97.7572 67.0938 97.6277 67.8358 97.6277C68.4238 97.6277 68.9698 97.7292 69.4738 97.9322C69.9778 98.1352 70.4153 98.4327 70.7863 98.8247C71.1573 99.2097 71.4478 99.6857 71.6578 100.253C71.8748 100.82 71.9833 101.471 71.9833 102.206C71.9833 102.36 71.9623 102.465 71.9203 102.521C71.8783 102.577 71.8083 102.605 71.7103 102.605H64.1083ZM75.658 100.316C75.819 99.8887 76.001 99.5107 76.204 99.1817C76.414 98.8457 76.652 98.5622 76.918 98.3312C77.191 98.1002 77.492 97.9252 77.821 97.8062C78.157 97.6802 78.528 97.6172 78.934 97.6172C79.151 97.6172 79.3645 97.6382 79.5745 97.6802C79.7845 97.7152 79.97 97.7817 80.131 97.8797L80.047 98.5727C80.012 98.6847 79.9455 98.7407 79.8475 98.7407C79.7635 98.7407 79.634 98.7162 79.459 98.6672C79.291 98.6182 79.067 98.5937 78.787 98.5937C78.381 98.5937 78.0205 98.6567 77.7055 98.7827C77.3975 98.9017 77.1175 99.0837 76.8655 99.3287C76.6205 99.5737 76.4035 99.8782 76.2145 100.242C76.0325 100.599 75.8645 101.012 75.7105 101.481V108.243H74.7025V97.7957H75.238C75.357 97.7957 75.441 97.8202 75.49 97.8692C75.539 97.9182 75.5705 98.0022 75.5845 98.1212L75.658 100.316ZM85.6686 97.6277C86.4176 97.6277 87.0861 97.7572 87.6741 98.0162C88.2691 98.2682 88.7696 98.6287 89.1756 99.0977C89.5816 99.5667 89.8896 100.134 90.0996 100.799C90.3166 101.457 90.4251 102.195 90.4251 103.014C90.4251 103.833 90.3166 104.572 90.0996 105.23C89.8896 105.888 89.5816 106.451 89.1756 106.92C88.7696 107.389 88.2691 107.75 87.6741 108.002C87.0861 108.254 86.4176 108.38 85.6686 108.38C84.9196 108.38 84.2476 108.254 83.6526 108.002C83.0646 107.75 82.5641 107.389 82.1511 106.92C81.7451 106.451 81.4336 105.888 81.2166 105.23C81.0066 104.572 80.9016 103.833 80.9016 103.014C80.9016 102.195 81.0066 101.457 81.2166 100.799C81.4336 100.134 81.7451 99.5667 82.1511 99.0977C82.5641 98.6287 83.0646 98.2682 83.6526 98.0162C84.2476 97.7572 84.9196 97.6277 85.6686 97.6277ZM85.6686 107.592C86.2916 107.592 86.8341 107.487 87.2961 107.277C87.7651 107.06 88.1536 106.752 88.4616 106.353C88.7766 105.954 89.0111 105.475 89.1651 104.915C89.3191 104.348 89.3961 103.714 89.3961 103.014C89.3961 102.321 89.3191 101.691 89.1651 101.124C89.0111 100.557 88.7766 100.074 88.4616 99.6752C88.1536 99.2692 87.7651 98.9577 87.2961 98.7407C86.8341 98.5237 86.2916 98.4152 85.6686 98.4152C85.0456 98.4152 84.4996 98.5237 84.0306 98.7407C83.5686 98.9577 83.1801 99.2692 82.8651 99.6752C82.5571 100.074 82.3226 100.557 82.1616 101.124C82.0076 101.691 81.9306 102.321 81.9306 103.014C81.9306 103.714 82.0076 104.348 82.1616 104.915C82.3226 105.475 82.5571 105.954 82.8651 106.353C83.1801 106.752 83.5686 107.06 84.0306 107.277C84.4996 107.487 85.0456 107.592 85.6686 107.592Z"
     fill="white"
     fill-opacity="0.84"
     id="path8" />
  <path
     opacity="0.75"
     d="M193.475 131.656C193.815 131.656 194.118 131.598 194.385 131.481C194.655 131.361 194.883 131.196 195.07 130.986C195.257 130.776 195.398 130.53 195.495 130.246C195.595 129.96 195.645 129.651 195.645 129.321V124.946H196.155V129.321C196.155 129.711 196.093 130.076 195.97 130.416C195.847 130.753 195.668 131.048 195.435 131.301C195.205 131.551 194.923 131.748 194.59 131.891C194.26 132.035 193.888 132.106 193.475 132.106C193.062 132.106 192.688 132.035 192.355 131.891C192.025 131.748 191.743 131.551 191.51 131.301C191.28 131.048 191.103 130.753 190.98 130.416C190.857 130.076 190.795 129.711 190.795 129.321V124.946H191.31V129.316C191.31 129.646 191.358 129.955 191.455 130.241C191.555 130.525 191.697 130.771 191.88 130.981C192.067 131.191 192.293 131.356 192.56 131.476C192.83 131.596 193.135 131.656 193.475 131.656ZM201.585 125.806C201.555 125.863 201.512 125.891 201.455 125.891C201.412 125.891 201.355 125.861 201.285 125.801C201.219 125.738 201.127 125.67 201.01 125.596C200.894 125.52 200.747 125.45 200.57 125.386C200.397 125.323 200.182 125.291 199.925 125.291C199.669 125.291 199.442 125.328 199.245 125.401C199.052 125.475 198.889 125.575 198.755 125.701C198.625 125.828 198.525 125.975 198.455 126.141C198.389 126.308 198.355 126.483 198.355 126.666C198.355 126.906 198.405 127.105 198.505 127.261C198.609 127.418 198.744 127.551 198.91 127.661C199.077 127.771 199.265 127.865 199.475 127.941C199.689 128.015 199.907 128.088 200.13 128.161C200.354 128.235 200.57 128.316 200.78 128.406C200.994 128.493 201.184 128.603 201.35 128.736C201.517 128.87 201.65 129.035 201.75 129.231C201.854 129.425 201.905 129.666 201.905 129.956C201.905 130.253 201.854 130.533 201.75 130.796C201.65 131.056 201.504 131.283 201.31 131.476C201.117 131.67 200.88 131.823 200.6 131.936C200.32 132.046 200 132.101 199.64 132.101C199.174 132.101 198.772 132.02 198.435 131.856C198.099 131.69 197.804 131.463 197.55 131.176L197.69 130.956C197.73 130.906 197.777 130.881 197.83 130.881C197.86 130.881 197.899 130.901 197.945 130.941C197.992 130.981 198.049 131.031 198.115 131.091C198.182 131.148 198.262 131.211 198.355 131.281C198.449 131.348 198.557 131.411 198.68 131.471C198.804 131.528 198.945 131.576 199.105 131.616C199.265 131.656 199.447 131.676 199.65 131.676C199.93 131.676 200.18 131.635 200.4 131.551C200.62 131.465 200.805 131.348 200.955 131.201C201.109 131.055 201.225 130.881 201.305 130.681C201.385 130.478 201.425 130.261 201.425 130.031C201.425 129.781 201.374 129.576 201.27 129.416C201.17 129.253 201.037 129.118 200.87 129.011C200.704 128.901 200.514 128.81 200.3 128.736C200.09 128.663 199.874 128.591 199.65 128.521C199.427 128.451 199.209 128.373 198.995 128.286C198.785 128.2 198.597 128.09 198.43 127.956C198.264 127.82 198.129 127.651 198.025 127.451C197.925 127.248 197.875 126.995 197.875 126.691C197.875 126.455 197.92 126.226 198.01 126.006C198.1 125.786 198.232 125.593 198.405 125.426C198.579 125.256 198.792 125.121 199.045 125.021C199.302 124.918 199.594 124.866 199.92 124.866C200.287 124.866 200.615 124.925 200.905 125.041C201.199 125.158 201.465 125.336 201.705 125.576L201.585 125.806ZM209.462 128.481C209.462 129.028 209.38 129.52 209.217 129.956C209.054 130.393 208.824 130.765 208.527 131.071C208.23 131.378 207.874 131.613 207.457 131.776C207.044 131.94 206.587 132.021 206.087 132.021H203.502V124.946H206.087C206.587 124.946 207.044 125.028 207.457 125.191C207.874 125.355 208.23 125.59 208.527 125.896C208.824 126.203 209.054 126.575 209.217 127.011C209.38 127.448 209.462 127.938 209.462 128.481ZM208.932 128.481C208.932 127.988 208.864 127.548 208.727 127.161C208.59 126.775 208.397 126.448 208.147 126.181C207.897 125.915 207.597 125.711 207.247 125.571C206.897 125.431 206.51 125.361 206.087 125.361H204.017V131.606H206.087C206.51 131.606 206.897 131.536 207.247 131.396C207.597 131.256 207.897 131.053 208.147 130.786C208.397 130.52 208.59 130.193 208.727 129.806C208.864 129.42 208.932 128.978 208.932 128.481Z"
     fill="#DEDEDE"
     fill-opacity="0.8"
     id="path12" />
  <g
     opacity="0.42"
     id="g18">
    <path
       d="M181.053 75C197.621 75 211.053 61.5685 211.053 45C211.053 28.4315 197.621 15 181.053 15C164.484 15 151.053 28.4315 151.053 45C151.053 61.5685 164.484 75 181.053 75Z"
       fill="#484848"
       id="path14" />
    <path
       opacity="0.92"
       d="M209.651 54.1952C208.905 56.4799 207.887 58.6663 206.618 60.7072H194.122V44.985L193.855 44.8553L180.929 57.7979L167.997 44.8614V60.7554H155.517C154.236 58.7038 153.209 56.5046 152.457 54.2057C152.642 54.456 152.918 54.5464 153.369 54.5359C155.699 54.4876 158.031 54.5178 160.362 54.5178C161.403 54.5178 161.405 54.5178 161.405 53.4415C161.405 45.7226 161.405 38.0027 161.405 30.2818C161.405 29.9803 161.44 29.6789 161.473 29.1377L181.173 48.8364L200.671 29.3367V54.5178C203.428 54.5178 206.059 54.4846 208.688 54.5389C209.164 54.5479 209.453 54.4484 209.651 54.1952Z"
       fill="white"
       id="path16" />
  </g>
</svg>
