<?xml version="1.0" encoding="UTF-8" standalone="no"?>
<svg
   xmlns:dc="http://purl.org/dc/elements/1.1/"
   xmlns:cc="http://creativecommons.org/ns#"
   xmlns:rdf="http://www.w3.org/1999/02/22-rdf-syntax-ns#"
   xmlns:svg="http://www.w3.org/2000/svg"
   xmlns="http://www.w3.org/2000/svg"
   xmlns:sodipodi="http://sodipodi.sourceforge.net/DTD/sodipodi-0.dtd"
   xmlns:inkscape="http://www.inkscape.org/namespaces/inkscape"
   width="231"
   height="151"
   viewBox="0 0 231 151"
   fill="none"
   version="1.1"
   id="svg20"
   sodipodi:docname="but_BCH_p.svg"
   inkscape:version="0.92.3 (2405546, 2018-03-11)">
  <metadata
     id="metadata26">
    <rdf:RDF>
      <cc:Work
         rdf:about="">
        <dc:format>image/svg+xml</dc:format>
        <dc:type
           rdf:resource="http://purl.org/dc/dcmitype/StillImage" />
      </cc:Work>
    </rdf:RDF>
  </metadata>
  <defs
     id="defs24" />
  <sodipodi:namedview
     pagecolor="#ffffff"
     bordercolor="#666666"
     borderopacity="1"
     objecttolerance="10"
     gridtolerance="10"
     guidetolerance="10"
     inkscape:pageopacity="0"
     inkscape:pageshadow="2"
     inkscape:window-width="1271"
     inkscape:window-height="888"
     id="namedview22"
     showgrid="false"
     inkscape:zoom="1.2294372"
     inkscape:cx="134.20775"
     inkscape:cy="75.5"
     inkscape:window-x="0"
     inkscape:window-y="0"
     inkscape:window-maximized="0"
     inkscape:current-layer="svg20" />
  <path
     opacity="0.42"
     d="M230.685 0H0V150.29H230.685V0Z"
     fill="#010101"
     fill-opacity="0.82"
     id="path2" />
  <path
     opacity="0.42"
     d="M27.5221 49.5492C28.1307 49.5492 28.6551 49.4795 29.0951 49.3402C29.5351 49.2008 29.8944 49.0065 30.1731 48.7572C30.4591 48.5005 30.6681 48.1998 30.8001 47.8552C30.9321 47.5032 30.9981 47.1182 30.9981 46.7002C30.9981 45.8862 30.7084 45.2445 30.1291 44.7752C29.5497 44.2985 28.6807 44.0602 27.5221 44.0602H24.1121V49.5492H27.5221ZM24.1121 37.1632V42.5422H26.9281C27.5294 42.5422 28.0501 42.4762 28.4901 42.3442C28.9374 42.2122 29.3041 42.0288 29.5901 41.7942C29.8834 41.5595 30.0997 41.2772 30.2391 40.9472C30.3784 40.6098 30.4481 40.2432 30.4481 39.8472C30.4481 38.9158 30.1694 38.2375 29.6121 37.8122C29.0547 37.3795 28.1894 37.1632 27.0161 37.1632H24.1121ZM27.0161 35.4802C27.9841 35.4802 28.8164 35.5755 29.5131 35.7662C30.2171 35.9568 30.7927 36.2282 31.2401 36.5802C31.6947 36.9322 32.0284 37.3648 32.2411 37.8782C32.4537 38.3842 32.5601 38.9562 32.5601 39.5942C32.5601 39.9828 32.4977 40.3568 32.3731 40.7162C32.2557 41.0682 32.0761 41.3982 31.8341 41.7062C31.5921 42.0142 31.2841 42.2928 30.9101 42.5422C30.5434 42.7842 30.1107 42.9822 29.6121 43.1362C30.7707 43.3562 31.6397 43.7705 32.2191 44.3792C32.8057 44.9805 33.0991 45.7725 33.0991 46.7552C33.0991 47.4225 32.9744 48.0312 32.7251 48.5812C32.4831 49.1312 32.1237 49.6042 31.6471 50.0002C31.1777 50.3962 30.5984 50.7042 29.9091 50.9242C29.2197 51.1368 28.4351 51.2432 27.5551 51.2432H21.9891V35.4802H27.0161ZM47.2777 47.9872C47.3951 47.9872 47.4977 48.0348 47.5857 48.1302L48.4327 49.0432C47.7874 49.7912 47.0027 50.3742 46.0787 50.7922C45.1621 51.2102 44.0511 51.4192 42.7457 51.4192C41.6164 51.4192 40.5897 51.2248 39.6657 50.8362C38.7417 50.4402 37.9534 49.8902 37.3007 49.1862C36.6481 48.4748 36.1421 47.6242 35.7827 46.6342C35.4234 45.6442 35.2437 44.5552 35.2437 43.3672C35.2437 42.1792 35.4307 41.0902 35.8047 40.1002C36.1787 39.1102 36.7031 38.2595 37.3777 37.5482C38.0597 36.8368 38.8737 36.2868 39.8197 35.8982C40.7657 35.5022 41.8107 35.3042 42.9547 35.3042C44.0767 35.3042 45.0667 35.4838 45.9247 35.8432C46.7827 36.2025 47.5381 36.6902 48.1907 37.3062L47.4867 38.2852C47.4427 38.3585 47.3841 38.4208 47.3107 38.4722C47.2447 38.5162 47.1531 38.5382 47.0357 38.5382C46.9037 38.5382 46.7424 38.4685 46.5517 38.3292C46.3611 38.1825 46.1117 38.0212 45.8037 37.8452C45.4957 37.6692 45.1107 37.5115 44.6487 37.3722C44.1867 37.2255 43.6184 37.1522 42.9437 37.1522C42.1297 37.1522 41.3854 37.2952 40.7107 37.5812C40.0361 37.8598 39.4531 38.2668 38.9617 38.8022C38.4777 39.3375 38.1001 39.9902 37.8287 40.7602C37.5574 41.5302 37.4217 42.3992 37.4217 43.3672C37.4217 44.3498 37.5611 45.2262 37.8397 45.9962C38.1257 46.7662 38.5107 47.4188 38.9947 47.9542C39.4861 48.4822 40.0617 48.8855 40.7217 49.1642C41.3891 49.4428 42.1077 49.5822 42.8777 49.5822C43.3471 49.5822 43.7687 49.5565 44.1427 49.5052C44.5241 49.4465 44.8724 49.3585 45.1877 49.2412C45.5104 49.1238 45.8074 48.9772 46.0787 48.8012C46.3574 48.6178 46.6324 48.4015 46.9037 48.1522C47.0284 48.0422 47.1531 47.9872 47.2777 47.9872ZM63.678 35.4802V51.2432H61.544V44.0712H53.041V51.2432H50.907V35.4802H53.041V42.5092H61.544V35.4802H63.678Z"
     fill="#484848"
     id="path4" />
  <path
     opacity="0.85"
     d="M26.9796 107.382C28.2816 107.382 29.2651 107.102 29.9301 106.542C30.6021 105.975 30.9381 105.181 30.9381 104.159C30.9381 103.69 30.8471 103.27 30.6651 102.899C30.4901 102.521 30.2346 102.202 29.8986 101.943C29.5626 101.677 29.1496 101.474 28.6596 101.334C28.1696 101.194 27.6131 101.124 26.9901 101.124H23.2521V107.382H26.9796ZM23.2521 94.2362V100.337H26.4651C27.1511 100.337 27.7356 100.249 28.2186 100.074C28.7086 99.8992 29.1076 99.6682 29.4156 99.3812C29.7306 99.0942 29.9616 98.7687 30.1086 98.4047C30.2556 98.0407 30.3291 97.6662 30.3291 97.2812C30.3291 96.2802 30.0106 95.5242 29.3736 95.0132C28.7436 94.4952 27.7671 94.2362 26.4441 94.2362H23.2521ZM26.4441 93.3857C27.2911 93.3857 28.0261 93.4697 28.6491 93.6377C29.2721 93.8057 29.7866 94.0542 30.1926 94.3832C30.5986 94.7052 30.8996 95.1007 31.0956 95.5697C31.2916 96.0387 31.3896 96.5707 31.3896 97.1657C31.3896 97.5577 31.3196 97.9357 31.1796 98.2997C31.0466 98.6637 30.8506 98.9997 30.5916 99.3077C30.3396 99.6157 30.0246 99.8852 29.6466 100.116C29.2756 100.34 28.8486 100.512 28.3656 100.631C29.5346 100.799 30.4306 101.187 31.0536 101.796C31.6836 102.398 31.9986 103.193 31.9986 104.18C31.9986 104.81 31.8866 105.377 31.6626 105.881C31.4386 106.385 31.1131 106.812 30.6861 107.162C30.2591 107.512 29.7341 107.781 29.1111 107.97C28.4881 108.152 27.7811 108.243 26.9901 108.243H22.1706V93.3857H26.4441ZM35.8335 97.7957V108.243H34.836V97.7957H35.8335ZM36.264 94.1942C36.264 94.3202 36.236 94.4392 36.18 94.5512C36.131 94.6562 36.0645 94.7507 35.9805 94.8347C35.8965 94.9187 35.7985 94.9852 35.6865 95.0342C35.5745 95.0832 35.4555 95.1077 35.3295 95.1077C35.2035 95.1077 35.0845 95.0832 34.9725 95.0342C34.8605 94.9852 34.7625 94.9187 34.6785 94.8347C34.5945 94.7507 34.528 94.6562 34.479 94.5512C34.43 94.4392 34.4055 94.3202 34.4055 94.1942C34.4055 94.0682 34.43 93.9492 34.479 93.8372C34.528 93.7182 34.5945 93.6167 34.6785 93.5327C34.7625 93.4487 34.8605 93.3822 34.9725 93.3332C35.0845 93.2842 35.2035 93.2597 35.3295 93.2597C35.4555 93.2597 35.5745 93.2842 35.6865 93.3332C35.7985 93.3822 35.8965 93.4487 35.9805 93.5327C36.0645 93.6167 36.131 93.7182 36.18 93.8372C36.236 93.9492 36.264 94.0682 36.264 94.1942ZM42.2523 108.411C41.5453 108.411 40.9923 108.215 40.5933 107.823C40.2013 107.431 40.0053 106.826 40.0053 106.007V98.8667H38.5038C38.4268 98.8667 38.3638 98.8457 38.3148 98.8037C38.2658 98.7617 38.2413 98.7022 38.2413 98.6252V98.2367L40.0263 98.1107L40.2783 94.3727C40.2923 94.3097 40.3203 94.2537 40.3623 94.2047C40.4043 94.1557 40.4638 94.1312 40.5408 94.1312H41.0133V98.1212H44.3103V98.8667H41.0133V105.954C41.0133 106.241 41.0483 106.49 41.1183 106.7C41.1953 106.903 41.2968 107.071 41.4228 107.204C41.5558 107.337 41.7098 107.435 41.8848 107.498C42.0598 107.561 42.2488 107.592 42.4518 107.592C42.7038 107.592 42.9208 107.557 43.1028 107.487C43.2848 107.41 43.4423 107.33 43.5753 107.246C43.7083 107.155 43.8168 107.074 43.9008 107.004C43.9848 106.927 44.0513 106.889 44.1003 106.889C44.1563 106.889 44.2123 106.924 44.2683 106.994L44.5413 107.435C44.2753 107.729 43.9358 107.967 43.5228 108.149C43.1168 108.324 42.6933 108.411 42.2523 108.411ZM53.578 99.1922C53.543 99.2272 53.508 99.2587 53.473 99.2867C53.445 99.3077 53.403 99.3182 53.347 99.3182C53.277 99.3182 53.1825 99.2727 53.0635 99.1817C52.9445 99.0837 52.7835 98.9787 52.5805 98.8667C52.3775 98.7547 52.122 98.6532 51.814 98.5622C51.513 98.4642 51.1455 98.4152 50.7115 98.4152C50.1095 98.4152 49.574 98.5237 49.105 98.7407C48.643 98.9507 48.251 99.2552 47.929 99.6542C47.607 100.053 47.362 100.536 47.194 101.103C47.033 101.67 46.9525 102.307 46.9525 103.014C46.9525 103.749 47.0365 104.4 47.2045 104.967C47.3795 105.534 47.6245 106.014 47.9395 106.406C48.2545 106.791 48.636 107.085 49.084 107.288C49.532 107.491 50.029 107.592 50.575 107.592C51.079 107.592 51.499 107.533 51.835 107.414C52.178 107.295 52.458 107.165 52.675 107.025C52.899 106.885 53.074 106.756 53.2 106.637C53.326 106.518 53.431 106.458 53.515 106.458C53.599 106.458 53.669 106.493 53.725 106.563L53.9875 106.899C53.8265 107.109 53.6235 107.305 53.3785 107.487C53.1335 107.669 52.857 107.827 52.549 107.96C52.241 108.093 51.905 108.194 51.541 108.264C51.184 108.341 50.8095 108.38 50.4175 108.38C49.7525 108.38 49.1435 108.261 48.5905 108.023C48.0445 107.778 47.572 107.428 47.173 106.973C46.781 106.511 46.473 105.947 46.249 105.282C46.032 104.617 45.9235 103.861 45.9235 103.014C45.9235 102.216 46.0285 101.488 46.2385 100.83C46.4485 100.172 46.7565 99.6052 47.1625 99.1292C47.5685 98.6532 48.062 98.2857 48.643 98.0267C49.231 97.7607 49.903 97.6277 50.659 97.6277C51.338 97.6277 51.94 97.7362 52.465 97.9532C52.99 98.1702 53.4485 98.4642 53.8405 98.8352L53.578 99.1922ZM60.3907 97.6277C61.1397 97.6277 61.8082 97.7572 62.3962 98.0162C62.9912 98.2682 63.4917 98.6287 63.8977 99.0977C64.3037 99.5667 64.6117 100.134 64.8217 100.799C65.0387 101.457 65.1472 102.195 65.1472 103.014C65.1472 103.833 65.0387 104.572 64.8217 105.23C64.6117 105.888 64.3037 106.451 63.8977 106.92C63.4917 107.389 62.9912 107.75 62.3962 108.002C61.8082 108.254 61.1397 108.38 60.3907 108.38C59.6417 108.38 58.9697 108.254 58.3747 108.002C57.7867 107.75 57.2862 107.389 56.8732 106.92C56.4672 106.451 56.1557 105.888 55.9387 105.23C55.7287 104.572 55.6237 103.833 55.6237 103.014C55.6237 102.195 55.7287 101.457 55.9387 100.799C56.1557 100.134 56.4672 99.5667 56.8732 99.0977C57.2862 98.6287 57.7867 98.2682 58.3747 98.0162C58.9697 97.7572 59.6417 97.6277 60.3907 97.6277ZM60.3907 107.592C61.0137 107.592 61.5562 107.487 62.0182 107.277C62.4872 107.06 62.8757 106.752 63.1837 106.353C63.4987 105.954 63.7332 105.475 63.8872 104.915C64.0412 104.348 64.1182 103.714 64.1182 103.014C64.1182 102.321 64.0412 101.691 63.8872 101.124C63.7332 100.557 63.4987 100.074 63.1837 99.6752C62.8757 99.2692 62.4872 98.9577 62.0182 98.7407C61.5562 98.5237 61.0137 98.4152 60.3907 98.4152C59.7677 98.4152 59.2217 98.5237 58.7527 98.7407C58.2907 98.9577 57.9022 99.2692 57.5872 99.6752C57.2792 100.074 57.0447 100.557 56.8837 101.124C56.7297 101.691 56.6527 102.321 56.6527 103.014C56.6527 103.714 56.7297 104.348 56.8837 104.915C57.0447 105.475 57.2792 105.954 57.5872 106.353C57.9022 106.752 58.2907 107.06 58.7527 107.277C59.2217 107.487 59.7677 107.592 60.3907 107.592ZM69.0767 97.7957V108.243H68.0792V97.7957H69.0767ZM69.5072 94.1942C69.5072 94.3202 69.4792 94.4392 69.4232 94.5512C69.3742 94.6562 69.3077 94.7507 69.2237 94.8347C69.1397 94.9187 69.0417 94.9852 68.9297 95.0342C68.8177 95.0832 68.6987 95.1077 68.5727 95.1077C68.4467 95.1077 68.3277 95.0832 68.2157 95.0342C68.1037 94.9852 68.0057 94.9187 67.9217 94.8347C67.8377 94.7507 67.7712 94.6562 67.7222 94.5512C67.6732 94.4392 67.6487 94.3202 67.6487 94.1942C67.6487 94.0682 67.6732 93.9492 67.7222 93.8372C67.7712 93.7182 67.8377 93.6167 67.9217 93.5327C68.0057 93.4487 68.1037 93.3822 68.2157 93.3332C68.3277 93.2842 68.4467 93.2597 68.5727 93.2597C68.6987 93.2597 68.8177 93.2842 68.9297 93.3332C69.0417 93.3822 69.1397 93.4487 69.2237 93.5327C69.3077 93.6167 69.3742 93.7182 69.4232 93.8372C69.4792 93.9492 69.5072 94.0682 69.5072 94.1942ZM73.595 99.6227C74.078 99.0207 74.6345 98.5377 75.2645 98.1737C75.9015 97.8097 76.6085 97.6277 77.3855 97.6277C77.9595 97.6277 78.4635 97.7187 78.8975 97.9007C79.3385 98.0827 79.7025 98.3452 79.9895 98.6882C80.2765 99.0312 80.4935 99.4442 80.6405 99.9272C80.7875 100.41 80.861 100.956 80.861 101.565V108.243H79.853V101.565C79.853 100.585 79.629 99.8187 79.181 99.2657C78.733 98.7057 78.0505 98.4257 77.1335 98.4257C76.4545 98.4257 75.8175 98.6007 75.2225 98.9507C74.6345 99.2937 74.1095 99.7732 73.6475 100.389V108.243H72.6395V97.7957H73.196C73.371 97.7957 73.4725 97.8832 73.5005 98.0582L73.595 99.6227ZM91.2099 99.1922C91.1749 99.2272 91.1399 99.2587 91.1049 99.2867C91.0769 99.3077 91.0349 99.3182 90.9789 99.3182C90.9089 99.3182 90.8144 99.2727 90.6954 99.1817C90.5764 99.0837 90.4154 98.9787 90.2124 98.8667C90.0094 98.7547 89.7539 98.6532 89.4459 98.5622C89.1449 98.4642 88.7774 98.4152 88.3434 98.4152C87.7414 98.4152 87.2059 98.5237 86.7369 98.7407C86.2749 98.9507 85.8829 99.2552 85.5609 99.6542C85.2389 100.053 84.9939 100.536 84.8259 101.103C84.6649 101.67 84.5844 102.307 84.5844 103.014C84.5844 103.749 84.6684 104.4 84.8364 104.967C85.0114 105.534 85.2564 106.014 85.5714 106.406C85.8864 106.791 86.2679 107.085 86.7159 107.288C87.1639 107.491 87.6609 107.592 88.2069 107.592C88.7109 107.592 89.1309 107.533 89.4669 107.414C89.8099 107.295 90.0899 107.165 90.3069 107.025C90.5309 106.885 90.7059 106.756 90.8319 106.637C90.9579 106.518 91.0629 106.458 91.1469 106.458C91.2309 106.458 91.3009 106.493 91.3569 106.563L91.6194 106.899C91.4584 107.109 91.2554 107.305 91.0104 107.487C90.7654 107.669 90.4889 107.827 90.1809 107.96C89.8729 108.093 89.5369 108.194 89.1729 108.264C88.8159 108.341 88.4414 108.38 88.0494 108.38C87.3844 108.38 86.7754 108.261 86.2224 108.023C85.6764 107.778 85.2039 107.428 84.8049 106.973C84.4129 106.511 84.1049 105.947 83.8809 105.282C83.6639 104.617 83.5554 103.861 83.5554 103.014C83.5554 102.216 83.6604 101.488 83.8704 100.83C84.0804 100.172 84.3884 99.6052 84.7944 99.1292C85.2004 98.6532 85.6939 98.2857 86.2749 98.0267C86.8629 97.7607 87.5349 97.6277 88.2909 97.6277C88.9699 97.6277 89.5719 97.7362 90.0969 97.9532C90.6219 98.1702 91.0804 98.4642 91.4724 98.8352L91.2099 99.1922ZM99.9392 103.193C98.9452 103.228 98.0877 103.308 97.3667 103.434C96.6527 103.553 96.0612 103.718 95.5922 103.928C95.1302 104.138 94.7872 104.39 94.5632 104.684C94.3392 104.971 94.2272 105.3 94.2272 105.671C94.2272 106.021 94.2832 106.325 94.3952 106.584C94.5142 106.836 94.6682 107.046 94.8572 107.214C95.0532 107.375 95.2772 107.494 95.5292 107.571C95.7812 107.648 96.0437 107.687 96.3167 107.687C96.7227 107.687 97.0937 107.645 97.4297 107.561C97.7727 107.47 98.0877 107.347 98.3747 107.193C98.6687 107.032 98.9417 106.843 99.1937 106.626C99.4457 106.409 99.6942 106.175 99.9392 105.923V103.193ZM93.7967 99.2762C94.3427 98.7302 94.9167 98.3172 95.5187 98.0372C96.1207 97.7572 96.8032 97.6172 97.5662 97.6172C98.1262 97.6172 98.6162 97.7082 99.0362 97.8902C99.4562 98.0652 99.8027 98.3207 100.076 98.6567C100.356 98.9857 100.566 99.3882 100.706 99.8642C100.846 100.333 100.916 100.858 100.916 101.439V108.243H100.517C100.307 108.243 100.177 108.145 100.128 107.949L99.9812 106.605C99.6942 106.885 99.4072 107.137 99.1202 107.361C98.8402 107.585 98.5462 107.774 98.2382 107.928C97.9302 108.082 97.5977 108.201 97.2407 108.285C96.8837 108.369 96.4917 108.411 96.0647 108.411C95.7077 108.411 95.3612 108.359 95.0252 108.254C94.6892 108.149 94.3882 107.988 94.1222 107.771C93.8632 107.554 93.6532 107.277 93.4922 106.941C93.3382 106.598 93.2612 106.189 93.2612 105.713C93.2612 105.272 93.3872 104.862 93.6392 104.484C93.8912 104.106 94.2867 103.777 94.8257 103.497C95.3647 103.217 96.0542 102.993 96.8942 102.825C97.7412 102.657 98.7562 102.559 99.9392 102.531V101.439C99.9392 100.473 99.7292 99.7312 99.3092 99.2132C98.8962 98.6882 98.2802 98.4257 97.4612 98.4257C96.9572 98.4257 96.5267 98.4957 96.1697 98.6357C95.8197 98.7757 95.5222 98.9297 95.2772 99.0977C95.0322 99.2657 94.8327 99.4197 94.6787 99.5597C94.5247 99.6997 94.3952 99.7697 94.2902 99.7697C94.2132 99.7697 94.1502 99.7522 94.1012 99.7172C94.0522 99.6822 94.0102 99.6367 93.9752 99.5807L93.7967 99.2762ZM110.006 99.0872C109.95 99.1852 109.87 99.2342 109.765 99.2342C109.688 99.2342 109.59 99.1922 109.471 99.1082C109.352 99.0172 109.191 98.9192 108.988 98.8142C108.792 98.7022 108.547 98.6042 108.253 98.5202C107.959 98.4292 107.602 98.3837 107.182 98.3837C106.804 98.3837 106.457 98.4397 106.142 98.5517C105.834 98.6567 105.568 98.8002 105.344 98.9822C105.127 99.1642 104.959 99.3777 104.84 99.6227C104.721 99.8607 104.662 100.113 104.662 100.379C104.662 100.708 104.746 100.981 104.914 101.198C105.082 101.415 105.299 101.6 105.565 101.754C105.838 101.908 106.149 102.041 106.499 102.153C106.849 102.265 107.203 102.377 107.56 102.489C107.924 102.601 108.281 102.727 108.631 102.867C108.981 103 109.289 103.168 109.555 103.371C109.828 103.574 110.048 103.823 110.216 104.117C110.384 104.411 110.468 104.768 110.468 105.188C110.468 105.643 110.388 106.066 110.227 106.458C110.066 106.85 109.828 107.19 109.513 107.477C109.205 107.764 108.823 107.991 108.368 108.159C107.913 108.327 107.392 108.411 106.804 108.411C106.069 108.411 105.435 108.296 104.903 108.065C104.371 107.827 103.895 107.519 103.475 107.141L103.706 106.784C103.741 106.728 103.78 106.686 103.822 106.658C103.871 106.63 103.934 106.616 104.011 106.616C104.102 106.616 104.21 106.672 104.336 106.784C104.469 106.896 104.644 107.018 104.861 107.151C105.078 107.277 105.344 107.396 105.659 107.508C105.981 107.62 106.377 107.676 106.846 107.676C107.287 107.676 107.675 107.617 108.011 107.498C108.347 107.372 108.627 107.204 108.851 106.994C109.075 106.784 109.243 106.539 109.355 106.259C109.474 105.972 109.534 105.671 109.534 105.356C109.534 105.006 109.45 104.715 109.282 104.484C109.114 104.253 108.893 104.057 108.62 103.896C108.347 103.735 108.036 103.599 107.686 103.487C107.343 103.375 106.989 103.263 106.625 103.151C106.261 103.039 105.904 102.916 105.554 102.783C105.211 102.65 104.903 102.482 104.63 102.279C104.357 102.076 104.137 101.831 103.969 101.544C103.801 101.25 103.717 100.886 103.717 100.452C103.717 100.081 103.797 99.7242 103.958 99.3812C104.119 99.0382 104.347 98.7372 104.641 98.4782C104.942 98.2192 105.306 98.0127 105.733 97.8587C106.16 97.7047 106.639 97.6277 107.171 97.6277C107.808 97.6277 108.372 97.7187 108.862 97.9007C109.359 98.0827 109.81 98.3627 110.216 98.7407L110.006 99.0872ZM114.191 99.5597C114.674 98.9717 115.224 98.5027 115.84 98.1527C116.463 97.8027 117.159 97.6277 117.929 97.6277C118.503 97.6277 119.007 97.7187 119.441 97.9007C119.882 98.0827 120.246 98.3452 120.533 98.6882C120.82 99.0312 121.037 99.4442 121.184 99.9272C121.331 100.41 121.405 100.956 121.405 101.565V108.243H120.397V101.565C120.397 100.585 120.173 99.8187 119.725 99.2657C119.277 98.7057 118.594 98.4257 117.677 98.4257C116.998 98.4257 116.361 98.6007 115.766 98.9507C115.178 99.2937 114.653 99.7732 114.191 100.389V108.243H113.183V92.9657H114.191V99.5597Z"
     fill="white"
     fill-opacity="0.84"
     id="path8" />
  <path
     opacity="0.75"
     d="M193.422 131.656C193.762 131.656 194.065 131.598 194.332 131.481C194.602 131.361 194.83 131.196 195.017 130.986C195.204 130.776 195.345 130.53 195.442 130.246C195.542 129.96 195.592 129.651 195.592 129.321V124.946H196.102V129.321C196.102 129.711 196.04 130.076 195.917 130.416C195.794 130.753 195.615 131.048 195.382 131.301C195.152 131.551 194.87 131.748 194.537 131.891C194.207 132.035 193.835 132.106 193.422 132.106C193.009 132.106 192.635 132.035 192.302 131.891C191.972 131.748 191.69 131.551 191.457 131.301C191.227 131.048 191.05 130.753 190.927 130.416C190.804 130.076 190.742 129.711 190.742 129.321V124.946H191.257V129.316C191.257 129.646 191.305 129.955 191.402 130.241C191.502 130.525 191.644 130.771 191.827 130.981C192.014 131.191 192.24 131.356 192.507 131.476C192.777 131.596 193.082 131.656 193.422 131.656ZM201.533 125.806C201.503 125.863 201.459 125.891 201.403 125.891C201.359 125.891 201.303 125.861 201.233 125.801C201.166 125.738 201.074 125.67 200.958 125.596C200.841 125.52 200.694 125.45 200.518 125.386C200.344 125.323 200.129 125.291 199.873 125.291C199.616 125.291 199.389 125.328 199.193 125.401C198.999 125.475 198.836 125.575 198.703 125.701C198.573 125.828 198.473 125.975 198.403 126.141C198.336 126.308 198.303 126.483 198.303 126.666C198.303 126.906 198.353 127.105 198.453 127.261C198.556 127.418 198.691 127.551 198.858 127.661C199.024 127.771 199.213 127.865 199.423 127.941C199.636 128.015 199.854 128.088 200.078 128.161C200.301 128.235 200.518 128.316 200.728 128.406C200.941 128.493 201.131 128.603 201.298 128.736C201.464 128.87 201.598 129.035 201.698 129.231C201.801 129.425 201.853 129.666 201.853 129.956C201.853 130.253 201.801 130.533 201.698 130.796C201.598 131.056 201.451 131.283 201.258 131.476C201.064 131.67 200.828 131.823 200.548 131.936C200.268 132.046 199.948 132.101 199.588 132.101C199.121 132.101 198.719 132.02 198.383 131.856C198.046 131.69 197.751 131.463 197.498 131.176L197.638 130.956C197.678 130.906 197.724 130.881 197.778 130.881C197.808 130.881 197.846 130.901 197.893 130.941C197.939 130.981 197.996 131.031 198.063 131.091C198.129 131.148 198.209 131.211 198.303 131.281C198.396 131.348 198.504 131.411 198.628 131.471C198.751 131.528 198.893 131.576 199.053 131.616C199.213 131.656 199.394 131.676 199.598 131.676C199.878 131.676 200.128 131.635 200.348 131.551C200.568 131.465 200.753 131.348 200.903 131.201C201.056 131.055 201.173 130.881 201.253 130.681C201.333 130.478 201.373 130.261 201.373 130.031C201.373 129.781 201.321 129.576 201.218 129.416C201.118 129.253 200.984 129.118 200.818 129.011C200.651 128.901 200.461 128.81 200.248 128.736C200.038 128.663 199.821 128.591 199.598 128.521C199.374 128.451 199.156 128.373 198.943 128.286C198.733 128.2 198.544 128.09 198.378 127.956C198.211 127.82 198.076 127.651 197.973 127.451C197.873 127.248 197.823 126.995 197.823 126.691C197.823 126.455 197.868 126.226 197.958 126.006C198.048 125.786 198.179 125.593 198.353 125.426C198.526 125.256 198.739 125.121 198.993 125.021C199.249 124.918 199.541 124.866 199.868 124.866C200.234 124.866 200.563 124.925 200.853 125.041C201.146 125.158 201.413 125.336 201.653 125.576L201.533 125.806ZM209.409 128.481C209.409 129.028 209.328 129.52 209.164 129.956C209.001 130.393 208.771 130.765 208.474 131.071C208.178 131.378 207.821 131.613 207.404 131.776C206.991 131.94 206.534 132.021 206.034 132.021H203.449V124.946H206.034C206.534 124.946 206.991 125.028 207.404 125.191C207.821 125.355 208.178 125.59 208.474 125.896C208.771 126.203 209.001 126.575 209.164 127.011C209.328 127.448 209.409 127.938 209.409 128.481ZM208.879 128.481C208.879 127.988 208.811 127.548 208.674 127.161C208.538 126.775 208.344 126.448 208.094 126.181C207.844 125.915 207.544 125.711 207.194 125.571C206.844 125.431 206.458 125.361 206.034 125.361H203.964V131.606H206.034C206.458 131.606 206.844 131.536 207.194 131.396C207.544 131.256 207.844 131.053 208.094 130.786C208.344 130.52 208.538 130.193 208.674 129.806C208.811 129.42 208.879 128.978 208.879 128.481Z"
     fill="#DEDEDE"
     fill-opacity="0.8"
     id="path12" />
  <g
     opacity="0.42"
     id="g18">
    <path
       d="M181 75C197.569 75 211 61.5685 211 45C211 28.4315 197.569 15 181 15C164.431 15 151 28.4315 151 45C151 61.5685 164.431 75 181 75Z"
       fill="#484848"
       id="path14" />
    <path
       d="M194.159 49.0807C194.023 46.5118 192.815 44.7236 190.341 43.8574C190.071 43.7634 189.805 43.6562 189.463 43.5292C189.626 43.4203 189.713 43.3582 189.805 43.3012C190.502 42.8699 191.082 42.2743 191.496 41.5665C191.909 40.8587 192.142 40.0604 192.175 39.2416C192.258 37.9382 191.948 36.6399 191.284 35.5147C190.922 34.9295 190.446 34.4227 189.885 34.0244C189.324 33.626 188.688 33.3442 188.016 33.1954C186.837 32.8939 185.642 32.652 184.438 32.4706C184.102 32.4136 184.048 32.295 184.045 32.0118C184.029 30.4812 183.993 28.9517 183.972 27.4211C183.972 27.1322 183.884 26.9903 183.559 27.0005C182.709 27.0267 181.858 27.0205 181.007 27.0364C180.551 27.045 180.539 27.0643 180.537 27.5179C180.532 29.0026 180.53 30.4875 180.528 31.9725C180.528 32.2061 180.446 32.2979 180.204 32.2962C179.643 32.2962 179.085 32.3207 178.524 32.3298C178.085 32.3378 178.1 32.3298 178.099 31.8808C178.099 30.3826 178.08 28.8845 178.077 27.3869C178.077 27.1287 177.977 27.0518 177.726 27.0581C176.822 27.0792 175.918 27.0957 175.013 27.0877C174.696 27.0877 174.605 27.192 174.611 27.5003C174.636 29.0503 174.633 30.6009 174.668 32.1514C174.674 32.4603 174.558 32.5156 174.297 32.5139C173.361 32.5082 172.425 32.5082 171.489 32.5139C170.436 32.5207 169.38 32.5367 168.322 32.5515C168.159 32.5515 167.993 32.5338 168 32.792C168.032 33.804 168.041 34.8167 168.074 35.8276C168.086 36.2561 168.126 36.2743 168.558 36.2595C169.26 36.235 169.962 36.1815 170.657 36.2025C171.776 36.2367 172.293 36.7792 172.351 37.9013C172.351 37.9651 172.356 38.0312 172.356 38.095C172.381 41.6597 172.406 45.2241 172.431 48.7884C172.439 49.8654 172.499 50.9413 172.483 52.0172C172.468 53.0589 172.044 53.4452 171.001 53.4845C170.842 53.4897 170.679 53.4783 170.517 53.4714C170.066 53.4549 169.615 53.4276 169.164 53.4224C169.118 53.4156 169.071 53.4182 169.027 53.4303C168.982 53.4423 168.94 53.4635 168.904 53.4924C168.868 53.5214 168.838 53.5575 168.817 53.5985C168.795 53.6395 168.782 53.6845 168.779 53.7307C168.616 54.8704 168.441 56.0101 168.275 57.1499C168.218 57.5562 168.232 57.5579 168.647 57.5562C170.608 57.5465 172.57 57.5476 174.531 57.5351C174.77 57.5351 174.856 57.6029 174.851 57.8502C174.835 58.5925 174.832 59.3352 174.842 60.0783C174.854 60.9508 174.882 61.8221 174.906 62.6945C174.91 62.8478 174.912 63.0017 175.141 63C176.078 62.9914 177.015 62.9823 177.949 62.992C178.242 62.992 178.326 62.8575 178.324 62.6017V61.3708C178.317 60.228 178.309 59.0855 178.3 57.9431C178.3 57.755 178.284 57.5641 178.564 57.5647C179.124 57.5647 179.685 57.5431 180.244 57.5567C180.724 57.5698 180.757 57.6245 180.771 58.1203C180.792 59.6057 180.811 61.0921 180.828 62.5794C180.828 62.8171 180.889 62.9647 181.17 62.9584C182.01 62.9441 182.851 62.9584 183.691 62.9322C184.327 62.9111 184.305 62.9943 184.296 62.2677C184.28 60.8343 184.275 59.401 184.28 57.9676C184.28 57.4724 184.302 57.4901 184.798 57.4171C185.995 57.2416 187.191 57.0923 188.374 56.8473C189.964 56.5678 191.41 55.7516 192.47 54.5348C193.096 53.7812 193.568 52.9116 193.857 51.9758C194.147 51.0399 194.25 50.0562 194.159 49.0807ZM178.635 42.8858C178.407 42.8858 178.284 42.8032 178.284 42.5439C178.268 40.6064 178.241 38.6689 178.218 36.7274C178.218 36.5519 178.257 36.41 178.481 36.4003C180.122 36.2565 181.775 36.3341 183.395 36.6311C183.781 36.7769 184.156 36.9483 184.519 37.1439C185.01 37.4442 185.401 37.8853 185.639 38.41C185.877 38.9347 185.952 39.5188 185.854 40.0867C185.761 40.505 185.567 40.8943 185.29 41.2211C185.012 41.5479 184.66 41.8024 184.262 41.9626C182.828 42.5998 181.272 42.9169 179.703 42.8921C179.347 42.904 178.99 42.8858 178.635 42.8858ZM186.847 51.4467C186.203 52.2569 185.291 52.8097 184.275 53.0053C182.83 53.3135 181.353 53.4439 179.877 53.3934H178.338C178.319 51.0239 178.301 48.6921 178.281 46.3095C178.749 46.2947 179.239 46.277 179.73 46.2656C181.227 46.1738 182.73 46.2651 184.206 46.5374C185.008 46.6718 185.764 47.0042 186.406 47.5045C186.986 47.9706 187.358 48.6477 187.441 49.3876C187.523 50.1274 187.309 50.8697 186.845 51.4519L186.847 51.4467Z"
       fill="white"
       id="path16" />
  </g>
</svg>
