<?xml version="1.0" encoding="UTF-8" standalone="no"?>
<svg
   xmlns:dc="http://purl.org/dc/elements/1.1/"
   xmlns:cc="http://creativecommons.org/ns#"
   xmlns:rdf="http://www.w3.org/1999/02/22-rdf-syntax-ns#"
   xmlns:svg="http://www.w3.org/2000/svg"
   xmlns="http://www.w3.org/2000/svg"
   xmlns:sodipodi="http://sodipodi.sourceforge.net/DTD/sodipodi-0.dtd"
   xmlns:inkscape="http://www.inkscape.org/namespaces/inkscape"
   width="231"
   height="151"
   viewBox="0 0 231 151"
   fill="none"
   version="1.1"
   id="svg22"
   sodipodi:docname="but_DOGE_p.svg"
   inkscape:version="0.92.3 (2405546, 2018-03-11)">
  <metadata
     id="metadata28">
    <rdf:RDF>
      <cc:Work
         rdf:about="">
        <dc:format>image/svg+xml</dc:format>
        <dc:type
           rdf:resource="http://purl.org/dc/dcmitype/StillImage" />
      </cc:Work>
    </rdf:RDF>
  </metadata>
  <defs
     id="defs26" />
  <sodipodi:namedview
     pagecolor="#ffffff"
     bordercolor="#666666"
     borderopacity="1"
     objecttolerance="10"
     gridtolerance="10"
     guidetolerance="10"
     inkscape:pageopacity="0"
     inkscape:pageshadow="2"
     inkscape:window-width="1164"
     inkscape:window-height="899"
     id="namedview24"
     showgrid="false"
     inkscape:zoom="1.2294372"
     inkscape:cx="134.20775"
     inkscape:cy="75.5"
     inkscape:window-x="0"
     inkscape:window-y="0"
     inkscape:window-maximized="0"
     inkscape:current-layer="svg22" />
  <path
     opacity="0.42"
     d="M230.738 0H0.0527344V150.29H230.738V0Z"
     fill="#010101"
     fill-opacity="0.82"
     id="path2" />
  <g
     opacity="0.42"
     id="g10">
    <g
       opacity="0.91"
       id="g6">
      <path
         d="M181.053 75C197.621 75 211.053 61.5685 211.053 45C211.053 28.4315 197.621 15 181.053 15C164.484 15 151.053 28.4315 151.053 45C151.053 61.5685 164.484 75 181.053 75Z"
         fill="#484848"
         id="path4" />
    </g>
    <path
       fill-rule="evenodd"
       clip-rule="evenodd"
       d="M180.996 61.9782H169.948V47.2893H166.053V43.691H169.947V29.0012H179.43C179.481 29.0012 179.539 29.001 179.603 29.0007L179.603 29.0007C182.345 28.9892 196.532 28.9295 196.532 45.7654C196.532 63.2803 180.997 61.9782 180.997 61.9782H180.996ZM180.53 35.0958H176.171V43.6899H183.029V47.2881H176.171V55.8816H180.744L180.789 55.8817C182.119 55.8833 190.389 55.8937 190.376 45.8832C190.363 35.752 182.161 35.0958 180.53 35.0958Z"
       fill="white"
       id="path8" />
  </g>
  <path
     opacity="0.75"
     d="M193.475 131.656C193.815 131.656 194.118 131.598 194.385 131.481C194.655 131.361 194.883 131.196 195.07 130.986C195.257 130.776 195.398 130.53 195.495 130.246C195.595 129.96 195.645 129.651 195.645 129.321V124.946H196.155V129.321C196.155 129.711 196.093 130.076 195.97 130.416C195.847 130.753 195.668 131.048 195.435 131.301C195.205 131.551 194.923 131.748 194.59 131.891C194.26 132.035 193.888 132.106 193.475 132.106C193.062 132.106 192.688 132.035 192.355 131.891C192.025 131.748 191.743 131.551 191.51 131.301C191.28 131.048 191.103 130.753 190.98 130.416C190.857 130.076 190.795 129.711 190.795 129.321V124.946H191.31V129.316C191.31 129.646 191.358 129.955 191.455 130.241C191.555 130.525 191.697 130.771 191.88 130.981C192.067 131.191 192.293 131.356 192.56 131.476C192.83 131.596 193.135 131.656 193.475 131.656ZM201.585 125.806C201.555 125.863 201.512 125.891 201.455 125.891C201.412 125.891 201.355 125.861 201.285 125.801C201.219 125.738 201.127 125.67 201.01 125.596C200.894 125.52 200.747 125.45 200.57 125.386C200.397 125.323 200.182 125.291 199.925 125.291C199.669 125.291 199.442 125.328 199.245 125.401C199.052 125.475 198.889 125.575 198.755 125.701C198.625 125.828 198.525 125.975 198.455 126.141C198.389 126.308 198.355 126.483 198.355 126.666C198.355 126.906 198.405 127.105 198.505 127.261C198.609 127.418 198.744 127.551 198.91 127.661C199.077 127.771 199.265 127.865 199.475 127.941C199.689 128.015 199.907 128.088 200.13 128.161C200.354 128.235 200.57 128.316 200.78 128.406C200.994 128.493 201.184 128.603 201.35 128.736C201.517 128.87 201.65 129.035 201.75 129.231C201.854 129.425 201.905 129.666 201.905 129.956C201.905 130.253 201.854 130.533 201.75 130.796C201.65 131.056 201.504 131.283 201.31 131.476C201.117 131.67 200.88 131.823 200.6 131.936C200.32 132.046 200 132.101 199.64 132.101C199.174 132.101 198.772 132.02 198.435 131.856C198.099 131.69 197.804 131.463 197.55 131.176L197.69 130.956C197.73 130.906 197.777 130.881 197.83 130.881C197.86 130.881 197.899 130.901 197.945 130.941C197.992 130.981 198.049 131.031 198.115 131.091C198.182 131.148 198.262 131.211 198.355 131.281C198.449 131.348 198.557 131.411 198.68 131.471C198.804 131.528 198.945 131.576 199.105 131.616C199.265 131.656 199.447 131.676 199.65 131.676C199.93 131.676 200.18 131.635 200.4 131.551C200.62 131.465 200.805 131.348 200.955 131.201C201.109 131.055 201.225 130.881 201.305 130.681C201.385 130.478 201.425 130.261 201.425 130.031C201.425 129.781 201.374 129.576 201.27 129.416C201.17 129.253 201.037 129.118 200.87 129.011C200.704 128.901 200.514 128.81 200.3 128.736C200.09 128.663 199.874 128.591 199.65 128.521C199.427 128.451 199.209 128.373 198.995 128.286C198.785 128.2 198.597 128.09 198.43 127.956C198.264 127.82 198.129 127.651 198.025 127.451C197.925 127.248 197.875 126.995 197.875 126.691C197.875 126.455 197.92 126.226 198.01 126.006C198.1 125.786 198.232 125.593 198.405 125.426C198.579 125.256 198.792 125.121 199.045 125.021C199.302 124.918 199.594 124.866 199.92 124.866C200.287 124.866 200.615 124.925 200.905 125.041C201.199 125.158 201.465 125.336 201.705 125.576L201.585 125.806ZM209.462 128.481C209.462 129.028 209.38 129.52 209.217 129.956C209.054 130.393 208.824 130.765 208.527 131.071C208.23 131.378 207.874 131.613 207.457 131.776C207.044 131.94 206.587 132.021 206.087 132.021H203.502V124.946H206.087C206.587 124.946 207.044 125.028 207.457 125.191C207.874 125.355 208.23 125.59 208.527 125.896C208.824 126.203 209.054 126.575 209.217 127.011C209.38 127.448 209.462 127.938 209.462 128.481ZM208.932 128.481C208.932 127.988 208.864 127.548 208.727 127.161C208.59 126.775 208.397 126.448 208.147 126.181C207.897 125.915 207.597 125.711 207.247 125.571C206.897 125.431 206.51 125.361 206.087 125.361H204.017V131.606H206.087C206.51 131.606 206.897 131.536 207.247 131.396C207.597 131.256 207.897 131.053 208.147 130.786C208.397 130.52 208.59 130.193 208.727 129.806C208.864 129.42 208.932 128.978 208.932 128.481Z"
     fill="#DEDEDE"
     fill-opacity="0.8"
     id="path12" />
  <path
     opacity="0.42"
     d="M35.7043 43.3672C35.7043 44.5478 35.5173 45.6222 35.1433 46.5902C34.7693 47.5582 34.2413 48.3868 33.5593 49.0762C32.8773 49.7655 32.056 50.3008 31.0953 50.6822C30.142 51.0562 29.086 51.2432 27.9273 51.2432H22.0423V35.4802H27.9273C29.086 35.4802 30.142 35.6708 31.0953 36.0522C32.056 36.4262 32.8773 36.9615 33.5593 37.6582C34.2413 38.3475 34.7693 39.1762 35.1433 40.1442C35.5173 41.1122 35.7043 42.1865 35.7043 43.3672ZM33.5153 43.3672C33.5153 42.3992 33.3833 41.5338 33.1193 40.7712C32.8553 40.0085 32.4813 39.3632 31.9973 38.8352C31.5133 38.3072 30.9266 37.9038 30.2373 37.6252C29.548 37.3465 28.778 37.2072 27.9273 37.2072H24.1763V49.5162H27.9273C28.778 49.5162 29.548 49.3768 30.2373 49.0982C30.9266 48.8195 31.5133 48.4198 31.9973 47.8992C32.4813 47.3712 32.8553 46.7258 33.1193 45.9632C33.3833 45.2005 33.5153 44.3352 33.5153 43.3672ZM53.3426 43.3672C53.3426 44.5478 53.1556 45.6332 52.7816 46.6232C52.4076 47.6058 51.8796 48.4528 51.1976 49.1642C50.5156 49.8755 49.6943 50.4292 48.7336 50.8252C47.7803 51.2138 46.7243 51.4082 45.5656 51.4082C44.407 51.4082 43.351 51.2138 42.3976 50.8252C41.4443 50.4292 40.6266 49.8755 39.9446 49.1642C39.2626 48.4528 38.7346 47.6058 38.3606 46.6232C37.9866 45.6332 37.7996 44.5478 37.7996 43.3672C37.7996 42.1865 37.9866 41.1048 38.3606 40.1222C38.7346 39.1322 39.2626 38.2815 39.9446 37.5702C40.6266 36.8515 41.4443 36.2942 42.3976 35.8982C43.351 35.5022 44.407 35.3042 45.5656 35.3042C46.7243 35.3042 47.7803 35.5022 48.7336 35.8982C49.6943 36.2942 50.5156 36.8515 51.1976 37.5702C51.8796 38.2815 52.4076 39.1322 52.7816 40.1222C53.1556 41.1048 53.3426 42.1865 53.3426 43.3672ZM51.1536 43.3672C51.1536 42.3992 51.0216 41.5302 50.7576 40.7602C50.4936 39.9902 50.1196 39.3412 49.6356 38.8132C49.1516 38.2778 48.565 37.8672 47.8756 37.5812C47.1863 37.2952 46.4163 37.1522 45.5656 37.1522C44.7223 37.1522 43.956 37.2952 43.2666 37.5812C42.5773 37.8672 41.987 38.2778 41.4956 38.8132C41.0116 39.3412 40.6376 39.9902 40.3736 40.7602C40.1096 41.5302 39.9776 42.3992 39.9776 43.3672C39.9776 44.3352 40.1096 45.2042 40.3736 45.9742C40.6376 46.7368 41.0116 47.3858 41.4956 47.9212C41.987 48.4492 42.5773 48.8562 43.2666 49.1422C43.956 49.4208 44.7223 49.5602 45.5656 49.5602C46.4163 49.5602 47.1863 49.4208 47.8756 49.1422C48.565 48.8562 49.1516 48.4492 49.6356 47.9212C50.1196 47.3858 50.4936 46.7368 50.7576 45.9742C51.0216 45.2042 51.1536 44.3352 51.1536 43.3672ZM69.1998 43.6642V49.7142C68.4078 50.2862 67.5608 50.7152 66.6588 51.0012C65.7641 51.2798 64.7815 51.4192 63.7108 51.4192C62.4421 51.4192 61.2981 51.2248 60.2788 50.8362C59.2595 50.4402 58.3868 49.8902 57.6608 49.1862C56.9421 48.4748 56.3885 47.6242 55.9998 46.6342C55.6111 45.6442 55.4168 44.5552 55.4168 43.3672C55.4168 42.1645 55.6038 41.0682 55.9778 40.0782C56.3591 39.0882 56.8981 38.2412 57.5948 37.5372C58.2915 36.8258 59.1385 36.2758 60.1358 35.8872C61.1331 35.4985 62.2478 35.3042 63.4798 35.3042C64.1031 35.3042 64.6825 35.3518 65.2178 35.4472C65.7531 35.5352 66.2481 35.6672 66.7028 35.8432C67.1575 36.0118 67.5791 36.2208 67.9678 36.4702C68.3565 36.7122 68.7195 36.9872 69.0568 37.2952L68.4518 38.2632C68.3565 38.4098 68.2318 38.5052 68.0778 38.5492C67.9311 38.5858 67.7661 38.5492 67.5828 38.4392C67.4068 38.3365 67.2051 38.2118 66.9778 38.0652C66.7505 37.9185 66.4718 37.7792 66.1418 37.6472C65.8191 37.5078 65.4341 37.3905 64.9868 37.2952C64.5468 37.1998 64.0225 37.1522 63.4138 37.1522C62.5265 37.1522 61.7235 37.2988 61.0048 37.5922C60.2861 37.8782 59.6738 38.2925 59.1678 38.8352C58.6618 39.3705 58.2731 40.0232 58.0018 40.7932C57.7305 41.5558 57.5948 42.4138 57.5948 43.3672C57.5948 44.3572 57.7341 45.2445 58.0128 46.0292C58.2988 46.8065 58.7021 47.4702 59.2228 48.0202C59.7508 48.5628 60.3888 48.9772 61.1368 49.2632C61.8848 49.5492 62.7245 49.6922 63.6558 49.6922C64.3891 49.6922 65.0381 49.6115 65.6028 49.4502C66.1748 49.2815 66.7321 49.0505 67.2748 48.7572V45.2922H64.8218C64.6825 45.2922 64.5688 45.2518 64.4808 45.1712C64.4001 45.0905 64.3598 44.9915 64.3598 44.8742V43.6642H69.1998ZM82.1901 49.5052L82.1791 51.2432H72.4661V35.4802H82.1791V37.2182H74.6001V42.4542H80.7381V44.1262H74.6001V49.5052H82.1901Z"
     fill="#484848"
     id="path14" />
  <path
     opacity="0.85"
     d="M34.7398 100.809C34.7398 101.957 34.5683 102.99 34.2253 103.907C33.8823 104.824 33.3993 105.604 32.7763 106.248C32.1533 106.892 31.4043 107.386 30.5293 107.729C29.6613 108.072 28.7023 108.243 27.6523 108.243H22.2238V93.3857H27.6523C28.7023 93.3857 29.6613 93.5572 30.5293 93.9002C31.4043 94.2432 32.1533 94.7367 32.7763 95.3807C33.3993 96.0247 33.8823 96.8052 34.2253 97.7222C34.5683 98.6392 34.7398 99.6682 34.7398 100.809ZM33.6268 100.809C33.6268 99.7732 33.4833 98.8492 33.1963 98.0372C32.9093 97.2252 32.5033 96.5392 31.9783 95.9792C31.4533 95.4192 30.8233 94.9922 30.0883 94.6982C29.3533 94.4042 28.5413 94.2572 27.6523 94.2572H23.3053V107.372H27.6523C28.5413 107.372 29.3533 107.225 30.0883 106.931C30.8233 106.637 31.4533 106.21 31.9783 105.65C32.5033 105.09 32.9093 104.404 33.1963 103.592C33.4833 102.78 33.6268 101.852 33.6268 100.809ZM41.6793 97.6277C42.4283 97.6277 43.0968 97.7572 43.6848 98.0162C44.2798 98.2682 44.7803 98.6287 45.1863 99.0977C45.5923 99.5667 45.9003 100.134 46.1103 100.799C46.3273 101.457 46.4358 102.195 46.4358 103.014C46.4358 103.833 46.3273 104.572 46.1103 105.23C45.9003 105.888 45.5923 106.451 45.1863 106.92C44.7803 107.389 44.2798 107.75 43.6848 108.002C43.0968 108.254 42.4283 108.38 41.6793 108.38C40.9303 108.38 40.2583 108.254 39.6633 108.002C39.0753 107.75 38.5748 107.389 38.1618 106.92C37.7558 106.451 37.4443 105.888 37.2273 105.23C37.0173 104.572 36.9123 103.833 36.9123 103.014C36.9123 102.195 37.0173 101.457 37.2273 100.799C37.4443 100.134 37.7558 99.5667 38.1618 99.0977C38.5748 98.6287 39.0753 98.2682 39.6633 98.0162C40.2583 97.7572 40.9303 97.6277 41.6793 97.6277ZM41.6793 107.592C42.3023 107.592 42.8448 107.487 43.3068 107.277C43.7758 107.06 44.1643 106.752 44.4723 106.353C44.7873 105.954 45.0218 105.475 45.1758 104.915C45.3298 104.348 45.4068 103.714 45.4068 103.014C45.4068 102.321 45.3298 101.691 45.1758 101.124C45.0218 100.557 44.7873 100.074 44.4723 99.6752C44.1643 99.2692 43.7758 98.9577 43.3068 98.7407C42.8448 98.5237 42.3023 98.4152 41.6793 98.4152C41.0563 98.4152 40.5103 98.5237 40.0413 98.7407C39.5793 98.9577 39.1908 99.2692 38.8758 99.6752C38.5678 100.074 38.3333 100.557 38.1723 101.124C38.0183 101.691 37.9413 102.321 37.9413 103.014C37.9413 103.714 38.0183 104.348 38.1723 104.915C38.3333 105.475 38.5678 105.954 38.8758 106.353C39.1908 106.752 39.5793 107.06 40.0413 107.277C40.5103 107.487 41.0563 107.592 41.6793 107.592ZM52.6238 103.623C53.0718 103.623 53.4708 103.56 53.8208 103.434C54.1708 103.301 54.4648 103.119 54.7028 102.888C54.9408 102.657 55.1228 102.381 55.2488 102.059C55.3748 101.737 55.4378 101.38 55.4378 100.988C55.4378 100.596 55.3713 100.239 55.2383 99.9167C55.1123 99.5877 54.9268 99.3077 54.6818 99.0767C54.4438 98.8457 54.1498 98.6672 53.7998 98.5412C53.4568 98.4152 53.0648 98.3522 52.6238 98.3522C52.1828 98.3522 51.7873 98.4152 51.4373 98.5412C51.0943 98.6672 50.8003 98.8457 50.5553 99.0767C50.3173 99.3077 50.1353 99.5877 50.0093 99.9167C49.8833 100.239 49.8203 100.596 49.8203 100.988C49.8203 101.38 49.8833 101.737 50.0093 102.059C50.1353 102.381 50.3173 102.657 50.5553 102.888C50.8003 103.119 51.0943 103.301 51.4373 103.434C51.7873 103.56 52.1828 103.623 52.6238 103.623ZM56.5298 108.947C56.5298 108.618 56.4423 108.355 56.2673 108.159C56.0993 107.956 55.8718 107.799 55.5848 107.687C55.2978 107.575 54.9653 107.498 54.5873 107.456C54.2163 107.407 53.8243 107.372 53.4113 107.351C53.0053 107.33 52.5958 107.309 52.1828 107.288C51.7698 107.267 51.3813 107.225 51.0173 107.162C50.7513 107.267 50.5063 107.389 50.2823 107.529C50.0583 107.662 49.8658 107.816 49.7048 107.991C49.5438 108.166 49.4178 108.355 49.3268 108.558C49.2358 108.768 49.1903 108.992 49.1903 109.23C49.1903 109.538 49.2673 109.822 49.4213 110.081C49.5823 110.347 49.8133 110.574 50.1143 110.763C50.4223 110.959 50.7968 111.113 51.2378 111.225C51.6788 111.337 52.1863 111.393 52.7603 111.393C53.2923 111.393 53.7858 111.334 54.2408 111.215C54.7028 111.096 55.1018 110.928 55.4378 110.711C55.7808 110.494 56.0468 110.235 56.2358 109.934C56.4318 109.633 56.5298 109.304 56.5298 108.947ZM57.6218 98.2577V98.6042C57.6218 98.7582 57.5238 98.8527 57.3278 98.8877L55.7318 99.0032C55.9278 99.2692 56.0783 99.5667 56.1833 99.8957C56.2883 100.225 56.3408 100.582 56.3408 100.967C56.3408 101.471 56.2498 101.929 56.0678 102.342C55.8928 102.748 55.6408 103.098 55.3118 103.392C54.9898 103.679 54.5978 103.903 54.1358 104.064C53.6808 104.225 53.1768 104.306 52.6238 104.306C52.0288 104.306 51.4863 104.215 50.9963 104.033C50.7023 104.201 50.4678 104.4 50.2928 104.631C50.1248 104.855 50.0408 105.079 50.0408 105.303C50.0408 105.604 50.1458 105.835 50.3558 105.996C50.5728 106.157 50.8528 106.276 51.1958 106.353C51.5458 106.423 51.9413 106.469 52.3823 106.49C52.8303 106.511 53.2853 106.535 53.7473 106.563C54.2093 106.584 54.6608 106.626 55.1018 106.689C55.5498 106.752 55.9453 106.864 56.2883 107.025C56.6383 107.179 56.9183 107.4 57.1283 107.687C57.3453 107.967 57.4538 108.341 57.4538 108.81C57.4538 109.244 57.3453 109.661 57.1283 110.06C56.9113 110.459 56.5963 110.812 56.1833 111.12C55.7773 111.428 55.2838 111.673 54.7028 111.855C54.1218 112.044 53.4708 112.139 52.7498 112.139C52.0148 112.139 51.3708 112.062 50.8178 111.908C50.2648 111.761 49.7993 111.558 49.4213 111.299C49.0503 111.047 48.7703 110.753 48.5813 110.417C48.3923 110.081 48.2978 109.724 48.2978 109.346C48.2978 108.793 48.4798 108.32 48.8438 107.928C49.2078 107.529 49.7048 107.218 50.3348 106.994C49.9848 106.875 49.7013 106.703 49.4843 106.479C49.2743 106.248 49.1693 105.937 49.1693 105.545C49.1693 105.398 49.1973 105.244 49.2533 105.083C49.3093 104.922 49.3933 104.764 49.5053 104.61C49.6173 104.449 49.7538 104.299 49.9148 104.159C50.0758 104.019 50.2578 103.893 50.4608 103.781C49.9638 103.494 49.5753 103.112 49.2953 102.636C49.0223 102.16 48.8858 101.604 48.8858 100.967C48.8858 100.463 48.9733 100.008 49.1483 99.6017C49.3303 99.1887 49.5858 98.8352 49.9148 98.5412C50.2438 98.2472 50.6358 98.0197 51.0908 97.8587C51.5528 97.6977 52.0638 97.6172 52.6238 97.6172C53.0858 97.6172 53.5093 97.6732 53.8943 97.7852C54.2863 97.8972 54.6363 98.0547 54.9443 98.2577H57.6218ZM67.1223 101.964C67.1223 101.404 67.0418 100.904 66.8808 100.463C66.7268 100.015 66.5063 99.6367 66.2193 99.3287C65.9323 99.0207 65.5893 98.7862 65.1903 98.6252C64.7983 98.4572 64.3643 98.3732 63.8883 98.3732C63.3493 98.3732 62.8663 98.4572 62.4393 98.6252C62.0123 98.7932 61.6413 99.0347 61.3263 99.3497C61.0183 99.6647 60.7698 100.043 60.5808 100.484C60.3918 100.925 60.2658 101.418 60.2028 101.964H67.1223ZM60.1503 102.605V102.804C60.1503 103.588 60.2413 104.278 60.4233 104.873C60.6053 105.468 60.8643 105.968 61.2003 106.374C61.5363 106.773 61.9423 107.074 62.4183 107.277C62.8943 107.48 63.4263 107.582 64.0143 107.582C64.5393 107.582 64.9943 107.526 65.3793 107.414C65.7643 107.295 66.0863 107.165 66.3453 107.025C66.6113 106.878 66.8213 106.749 66.9753 106.637C67.1293 106.518 67.2413 106.458 67.3113 106.458C67.4023 106.458 67.4723 106.493 67.5213 106.563L67.7943 106.899C67.6263 107.109 67.4023 107.305 67.1223 107.487C66.8493 107.669 66.5413 107.827 66.1983 107.96C65.8623 108.086 65.4983 108.187 65.1063 108.264C64.7213 108.341 64.3328 108.38 63.9408 108.38C63.2268 108.38 62.5758 108.257 61.9878 108.012C61.3998 107.76 60.8958 107.396 60.4758 106.92C60.0558 106.444 59.7303 105.863 59.4993 105.177C59.2753 104.484 59.1633 103.693 59.1633 102.804C59.1633 102.055 59.2683 101.366 59.4783 100.736C59.6953 100.099 60.0033 99.5527 60.4023 99.0977C60.8083 98.6357 61.3018 98.2752 61.8828 98.0162C62.4708 97.7572 63.1358 97.6277 63.8778 97.6277C64.4658 97.6277 65.0118 97.7292 65.5158 97.9322C66.0198 98.1352 66.4573 98.4327 66.8283 98.8247C67.1993 99.2097 67.4898 99.6857 67.6998 100.253C67.9168 100.82 68.0253 101.471 68.0253 102.206C68.0253 102.36 68.0043 102.465 67.9623 102.521C67.9203 102.577 67.8503 102.605 67.7523 102.605H60.1503ZM77.769 99.1922C77.734 99.2272 77.699 99.2587 77.664 99.2867C77.636 99.3077 77.594 99.3182 77.538 99.3182C77.468 99.3182 77.3735 99.2727 77.2545 99.1817C77.1355 99.0837 76.9745 98.9787 76.7715 98.8667C76.5685 98.7547 76.313 98.6532 76.005 98.5622C75.704 98.4642 75.3365 98.4152 74.9025 98.4152C74.3005 98.4152 73.765 98.5237 73.296 98.7407C72.834 98.9507 72.442 99.2552 72.12 99.6542C71.798 100.053 71.553 100.536 71.385 101.103C71.224 101.67 71.1435 102.307 71.1435 103.014C71.1435 103.749 71.2275 104.4 71.3955 104.967C71.5705 105.534 71.8155 106.014 72.1305 106.406C72.4455 106.791 72.827 107.085 73.275 107.288C73.723 107.491 74.22 107.592 74.766 107.592C75.27 107.592 75.69 107.533 76.026 107.414C76.369 107.295 76.649 107.165 76.866 107.025C77.09 106.885 77.265 106.756 77.391 106.637C77.517 106.518 77.622 106.458 77.706 106.458C77.79 106.458 77.86 106.493 77.916 106.563L78.1785 106.899C78.0175 107.109 77.8145 107.305 77.5695 107.487C77.3245 107.669 77.048 107.827 76.74 107.96C76.432 108.093 76.096 108.194 75.732 108.264C75.375 108.341 75.0005 108.38 74.6085 108.38C73.9435 108.38 73.3345 108.261 72.7815 108.023C72.2355 107.778 71.763 107.428 71.364 106.973C70.972 106.511 70.664 105.947 70.44 105.282C70.223 104.617 70.1145 103.861 70.1145 103.014C70.1145 102.216 70.2195 101.488 70.4295 100.83C70.6395 100.172 70.9475 99.6052 71.3535 99.1292C71.7595 98.6532 72.253 98.2857 72.834 98.0267C73.422 97.7607 74.094 97.6277 74.85 97.6277C75.529 97.6277 76.131 97.7362 76.656 97.9532C77.181 98.1702 77.6395 98.4642 78.0315 98.8352L77.769 99.1922ZM84.5817 97.6277C85.3307 97.6277 85.9992 97.7572 86.5872 98.0162C87.1822 98.2682 87.6827 98.6287 88.0887 99.0977C88.4947 99.5667 88.8027 100.134 89.0127 100.799C89.2297 101.457 89.3382 102.195 89.3382 103.014C89.3382 103.833 89.2297 104.572 89.0127 105.23C88.8027 105.888 88.4947 106.451 88.0887 106.92C87.6827 107.389 87.1822 107.75 86.5872 108.002C85.9992 108.254 85.3307 108.38 84.5817 108.38C83.8327 108.38 83.1607 108.254 82.5657 108.002C81.9777 107.75 81.4772 107.389 81.0642 106.92C80.6582 106.451 80.3467 105.888 80.1297 105.23C79.9197 104.572 79.8147 103.833 79.8147 103.014C79.8147 102.195 79.9197 101.457 80.1297 100.799C80.3467 100.134 80.6582 99.5667 81.0642 99.0977C81.4772 98.6287 81.9777 98.2682 82.5657 98.0162C83.1607 97.7572 83.8327 97.6277 84.5817 97.6277ZM84.5817 107.592C85.2047 107.592 85.7472 107.487 86.2092 107.277C86.6782 107.06 87.0667 106.752 87.3747 106.353C87.6897 105.954 87.9242 105.475 88.0782 104.915C88.2322 104.348 88.3092 103.714 88.3092 103.014C88.3092 102.321 88.2322 101.691 88.0782 101.124C87.9242 100.557 87.6897 100.074 87.3747 99.6752C87.0667 99.2692 86.6782 98.9577 86.2092 98.7407C85.7472 98.5237 85.2047 98.4152 84.5817 98.4152C83.9587 98.4152 83.4127 98.5237 82.9437 98.7407C82.4817 98.9577 82.0932 99.2692 81.7782 99.6752C81.4702 100.074 81.2357 100.557 81.0747 101.124C80.9207 101.691 80.8437 102.321 80.8437 103.014C80.8437 103.714 80.9207 104.348 81.0747 104.915C81.2357 105.475 81.4702 105.954 81.7782 106.353C82.0932 106.752 82.4817 107.06 82.9437 107.277C83.4127 107.487 83.9587 107.592 84.5817 107.592ZM93.2676 97.7957V108.243H92.2701V97.7957H93.2676ZM93.6981 94.1942C93.6981 94.3202 93.6701 94.4392 93.6141 94.5512C93.5651 94.6562 93.4986 94.7507 93.4146 94.8347C93.3306 94.9187 93.2326 94.9852 93.1206 95.0342C93.0086 95.0832 92.8896 95.1077 92.7636 95.1077C92.6376 95.1077 92.5186 95.0832 92.4066 95.0342C92.2946 94.9852 92.1966 94.9187 92.1126 94.8347C92.0286 94.7507 91.9621 94.6562 91.9131 94.5512C91.8641 94.4392 91.8396 94.3202 91.8396 94.1942C91.8396 94.0682 91.8641 93.9492 91.9131 93.8372C91.9621 93.7182 92.0286 93.6167 92.1126 93.5327C92.1966 93.4487 92.2946 93.3822 92.4066 93.3332C92.5186 93.2842 92.6376 93.2597 92.7636 93.2597C92.8896 93.2597 93.0086 93.2842 93.1206 93.3332C93.2326 93.3822 93.3306 93.4487 93.4146 93.5327C93.4986 93.6167 93.5651 93.7182 93.6141 93.8372C93.6701 93.9492 93.6981 94.0682 93.6981 94.1942ZM97.7859 99.6227C98.2689 99.0207 98.8254 98.5377 99.4554 98.1737C100.092 97.8097 100.799 97.6277 101.576 97.6277C102.15 97.6277 102.654 97.7187 103.088 97.9007C103.529 98.0827 103.893 98.3452 104.18 98.6882C104.467 99.0312 104.684 99.4442 104.831 99.9272C104.978 100.41 105.052 100.956 105.052 101.565V108.243H104.044V101.565C104.044 100.585 103.82 99.8187 103.372 99.2657C102.924 98.7057 102.241 98.4257 101.324 98.4257C100.645 98.4257 100.008 98.6007 99.4134 98.9507C98.8254 99.2937 98.3004 99.7732 97.8384 100.389V108.243H96.8304V97.7957H97.3869C97.5619 97.7957 97.6634 97.8832 97.6914 98.0582L97.7859 99.6227Z"
     fill="white"
     fill-opacity="0.84"
     id="path18" />
</svg>
