<svg width="42" height="42" viewBox="0 0 42 42" fill="none" xmlns="http://www.w3.org/2000/svg">
<path fill-rule="evenodd" clip-rule="evenodd" d="M42 21C42 32.598 32.598 42 21 42C9.40202 42 0 32.598 0 21C0 9.40202 9.40202 0 21 0C32.598 0 42 9.40202 42 21ZM24.3943 16.3334H17.607C16.9041 16.3334 16.3342 16.9033 16.3342 17.6062V24.3941C16.3342 25.0969 16.9041 25.6668 17.607 25.6668H24.3943C25.0972 25.6668 25.6671 25.0969 25.6671 24.3941V17.6062C25.6671 16.9033 25.0972 16.3334 24.3943 16.3334ZM23.1216 23.1213H18.8797V18.8789H23.1216V23.1213ZM35 20.9997C35 21.7025 34.4302 22.2724 33.7273 22.2724H30.758V24.8182H33.7273C34.4302 24.8182 35 25.388 35 26.0909C35 26.7938 34.4302 27.3636 33.7273 27.3636H30.758V29.4852C30.758 30.1881 30.1882 30.7579 29.4853 30.7579H27.3637V33.7273C27.3637 34.4302 26.7939 35 26.091 35C25.3881 35 24.8183 34.4302 24.8183 33.7273V30.7579H22.2733V33.7273C22.2733 34.4302 21.7035 35 21.0006 35C20.2977 35 19.7279 34.4302 19.7279 33.7273V30.7579H17.1824V33.7273C17.1824 34.4302 16.6126 35 15.9097 35C15.2068 35 14.637 34.4302 14.637 33.7273V30.7579H12.5155C11.8126 30.7579 11.2428 30.1881 11.2428 29.4852V27.3636H8.27273C7.56984 27.3636 7 26.7938 7 26.0909C7 25.388 7.56984 24.8182 8.27273 24.8182H11.2428V22.2724H8.27273C7.56984 22.2724 7 21.7025 7 20.9997C7 20.2968 7.56984 19.7269 8.27273 19.7269H11.2428V17.1818H8.27273C7.56984 17.1818 7 16.612 7 15.9091C7 15.2062 7.56984 14.6364 8.27273 14.6364H11.2428V12.514C11.2428 11.8112 11.8126 11.2413 12.5155 11.2413H14.637V8.27273C14.637 7.56984 15.2068 7 15.9097 7C16.6126 7 17.1824 7.56984 17.1824 8.27273V11.2413H19.7279V8.27273C19.7279 7.56984 20.2977 7 21.0006 7C21.7035 7 22.2733 7.56984 22.2733 8.27273V11.2413H24.8183V8.27273C24.8183 7.56984 25.3881 7 26.091 7C26.7939 7 27.3637 7.56984 27.3637 8.27273V11.2413H29.4853C30.1882 11.2413 30.758 11.8112 30.758 12.514V14.6364H33.7273C34.4302 14.6364 35 15.2062 35 15.9091C35 16.612 34.4302 17.1818 33.7273 17.1818H30.758V19.7269H33.7273C34.4302 19.7269 35 20.2968 35 20.9997ZM13.7882 28.2125H28.2125V13.7868H13.7882V28.2125Z" fill="url(#paint0_linear)"/>
<defs>
<linearGradient id="paint0_linear" x1="3.024" y1="15.078" x2="45.276" y2="53.55" gradientUnits="userSpaceOnUse">
<stop stop-color="white"/>
<stop offset="0.326" stop-color="#888888"/>
<stop offset="0.552" stop-color="#636363"/>
<stop offset="1" stop-color="#161616"/>
</linearGradient>
</defs>
</svg>
