<?xml version="1.0" encoding="UTF-8" standalone="no"?>
<svg
   xmlns:dc="http://purl.org/dc/elements/1.1/"
   xmlns:cc="http://creativecommons.org/ns#"
   xmlns:rdf="http://www.w3.org/1999/02/22-rdf-syntax-ns#"
   xmlns:svg="http://www.w3.org/2000/svg"
   xmlns="http://www.w3.org/2000/svg"
   xmlns:sodipodi="http://sodipodi.sourceforge.net/DTD/sodipodi-0.dtd"
   xmlns:inkscape="http://www.inkscape.org/namespaces/inkscape"
   width="28"
   height="28"
   viewBox="0 0 28 28"
   fill="none"
   version="1.1"
   id="svg26"
   sodipodi:docname="cpu.svg"
   inkscape:version="0.92.3 (2405546, 2018-03-11)">
  <metadata
     id="metadata30">
    <rdf:RDF>
      <cc:Work
         rdf:about="">
        <dc:format>image/svg+xml</dc:format>
        <dc:type
           rdf:resource="http://purl.org/dc/dcmitype/StillImage" />
      </cc:Work>
    </rdf:RDF>
  </metadata>
  <sodipodi:namedview
     pagecolor="#ffffff"
     bordercolor="#666666"
     borderopacity="1"
     objecttolerance="10"
     gridtolerance="10"
     guidetolerance="10"
     inkscape:pageopacity="0"
     inkscape:pageshadow="2"
     inkscape:window-width="1278"
     inkscape:window-height="1402"
     id="namedview28"
     showgrid="false"
     inkscape:zoom="8.4285714"
     inkscape:cx="16.728814"
     inkscape:cy="14"
     inkscape:window-x="-7"
     inkscape:window-y="0"
     inkscape:window-maximized="0"
     inkscape:current-layer="svg26" />
  <defs
     id="defs24">
    <linearGradient
       id="paint0_linear"
       x1="10.0064"
       y1="12.6841"
       x2="19.3957"
       y2="21.2329"
       gradientUnits="userSpaceOnUse"
       gradientTransform="translate(-8.85e-4)">
      <stop
         stop-color="white"
         id="stop6" />
      <stop
         offset="0.326"
         stop-color="#888888"
         id="stop8" />
      <stop
         offset="0.552"
         stop-color="#636363"
         id="stop10" />
      <stop
         offset="1"
         stop-color="#161616"
         id="stop12" />
    </linearGradient>
    <linearGradient
       id="paint1_linear"
       x1="2.016"
       y1="10.052"
       x2="30.184"
       y2="35.7"
       gradientUnits="userSpaceOnUse">
      <stop
         stop-color="white"
         id="stop15" />
      <stop
         offset="0.326"
         stop-color="#888888"
         id="stop17" />
      <stop
         offset="0.552"
         stop-color="#636363"
         id="stop19" />
      <stop
         offset="1"
         stop-color="#161616"
         id="stop21" />
    </linearGradient>
  </defs>
  <g
     style="fill:none"
     id="g53"
     transform="translate(-7,-7.5932204)">
    <circle
       id="circle42"
       r="21"
       cy="21"
       cx="21"
       style="fill:#121212" />
  </g>
  <path
     d="m 17.393715,9.33345 h -6.7874 c -0.70289,0 -1.27273,0.56984 -1.27273,1.27275 v 6.7879 c 0,0.7028 0.56984,1.2727 1.27273,1.2727 h 6.7874 c 0.7029,0 1.2727,-0.5699 1.2727,-1.2727 v -6.7879 c 0,-0.70291 -0.5698,-1.27275 -1.2727,-1.27275 z m -1.2728,6.78785 h -4.2419 v -4.2424 h 4.2419 z"
     id="path2"
     style="fill:url(#paint0_linear)"
     inkscape:connector-curvature="0" />
  <path
     d="M26.7273 15.2724C27.4302 15.2724 28 14.7025 28 13.9997C28 13.2968 27.4302 12.7269 26.7273 12.7269H23.758V10.1818H26.7273C27.4302 10.1818 28 9.61198 28 8.90909C28 8.20621 27.4302 7.63636 26.7273 7.63636H23.758V5.51405C23.758 4.81116 23.1882 4.24132 22.4853 4.24132H20.3637V1.27273C20.3637 0.569842 19.7939 0 19.091 0C18.3881 0 17.8183 0.569842 17.8183 1.27273V4.24132H15.2733V1.27273C15.2733 0.569842 14.7035 0 14.0006 0C13.2977 0 12.7279 0.569842 12.7279 1.27273V4.24132H10.1824V1.27273C10.1824 0.569842 9.61257 0 8.90969 0C8.2068 0 7.63696 0.569842 7.63696 1.27273V4.24132H5.51549C4.81261 4.24132 4.24276 4.81116 4.24276 5.51405V7.63636H1.27273C0.569842 7.63636 0 8.20621 0 8.90909C0 9.61198 0.569842 10.1818 1.27273 10.1818H4.24276V12.7269H1.27273C0.569842 12.7269 0 13.2968 0 13.9997C0 14.7025 0.569842 15.2724 1.27273 15.2724H4.24276V17.8182H1.27273C0.569842 17.8182 0 18.388 0 19.0909C0 19.7938 0.569842 20.3636 1.27273 20.3636H4.24276V22.4852C4.24276 23.1881 4.81261 23.7579 5.51549 23.7579H7.63696V26.7273C7.63696 27.4302 8.2068 28 8.90969 28C9.61257 28 10.1824 27.4302 10.1824 26.7273V23.7579H12.7279V26.7273C12.7279 27.4302 13.2977 28 14.0006 28C14.7035 28 15.2733 27.4302 15.2733 26.7273V23.7579H17.8183V26.7273C17.8183 27.4302 18.3881 28 19.091 28C19.7939 28 20.3637 27.4302 20.3637 26.7273V23.7579H22.4853C23.1882 23.7579 23.758 23.1881 23.758 22.4852V20.3636H26.7273C27.4302 20.3636 28 19.7938 28 19.0909C28 18.388 27.4302 17.8182 26.7273 17.8182H23.758V15.2724H26.7273ZM21.2125 21.2125H6.78822V6.78678H21.2125V21.2125Z"
     fill="url(#paint1_linear)"
     id="path4" />
</svg>
