<svg width="70" height="70" viewBox="0 0 70 70" fill="none" xmlns="http://www.w3.org/2000/svg">
<path d="M43.4852 23.334H26.5168C24.7596 23.334 23.335 24.7586 23.335 26.5158V43.4855C23.335 45.2427 24.7596 46.6673 26.5168 46.6673H43.4852C45.2424 46.6673 46.667 45.2427 46.667 43.4855V26.5158C46.667 24.7586 45.2424 23.334 43.4852 23.334ZM40.3034 40.3037H29.6986V29.6976H40.3034V40.3037Z" fill="url(#paint0_linear)"/>
<path d="M66.8182 38.181C68.5754 38.181 70 36.7564 70 34.9992C70 33.2419 68.5754 31.8173 66.8182 31.8173H59.395V25.4545H66.8182C68.5754 25.4545 70 24.0299 70 22.2727C70 20.5155 68.5754 19.0909 66.8182 19.0909H59.395V13.7851C59.395 12.0279 57.9704 10.6033 56.2132 10.6033H50.9093V3.18182C50.9093 1.42461 49.4847 0 47.7275 0C45.9703 0 44.5457 1.42461 44.5457 3.18182V10.6033H38.1833V3.18182C38.1833 1.42461 36.7587 0 35.0015 0C33.2443 0 31.8197 1.42461 31.8197 3.18182V10.6033H25.456V3.18182C25.456 1.42461 24.0314 0 22.2742 0C20.517 0 19.0924 1.42461 19.0924 3.18182V10.6033H13.7887C12.0315 10.6033 10.6069 12.0279 10.6069 13.7851V19.0909H3.18182C1.42461 19.0909 0 20.5155 0 22.2727C0 24.0299 1.42461 25.4545 3.18182 25.4545H10.6069V31.8173H3.18182C1.42461 31.8173 0 33.2419 0 34.9992C0 36.7564 1.42461 38.181 3.18182 38.181H10.6069V44.5455H3.18182C1.42461 44.5455 0 45.9701 0 47.7273C0 49.4845 1.42461 50.9091 3.18182 50.9091H10.6069V56.213C10.6069 57.9702 12.0315 59.3948 13.7887 59.3948H19.0924V66.8182C19.0924 68.5754 20.517 70 22.2742 70C24.0314 70 25.456 68.5754 25.456 66.8182V59.3948H31.8197V66.8182C31.8197 68.5754 33.2443 70 35.0015 70C36.7587 70 38.1833 68.5754 38.1833 66.8182V59.3948H44.5457V66.8182C44.5457 68.5754 45.9703 70 47.7275 70C49.4847 70 50.9093 68.5754 50.9093 66.8182V59.3948H56.2132C57.9704 59.3948 59.395 57.9702 59.395 56.213V50.9091H66.8182C68.5754 50.9091 70 49.4845 70 47.7273C70 45.9701 68.5754 44.5455 66.8182 44.5455H59.395V38.181H66.8182ZM53.0314 53.0312H16.9705V16.9669H53.0314V53.0312Z" fill="url(#paint1_linear)"/>
<defs>
<linearGradient id="paint0_linear" x1="25.0149" y1="31.7107" x2="48.4881" y2="53.0827" gradientUnits="userSpaceOnUse">
<stop stop-color="white"/>
<stop offset="0.326" stop-color="#888888"/>
<stop offset="0.552" stop-color="#636363"/>
<stop offset="1" stop-color="#161616"/>
</linearGradient>
<linearGradient id="paint1_linear" x1="5.04" y1="25.13" x2="75.46" y2="89.25" gradientUnits="userSpaceOnUse">
<stop stop-color="white"/>
<stop offset="0.326" stop-color="#888888"/>
<stop offset="0.552" stop-color="#636363"/>
<stop offset="1" stop-color="#161616"/>
</linearGradient>
</defs>
</svg>
