<svg width="114" height="27" viewBox="0 0 114 27" fill="none" xmlns="http://www.w3.org/2000/svg">
<rect width="114" height="27" fill="#E5E5E5"/>
<g clip-path="url(#clip0)">
<path d="M887.699 -217.3H-489.301V551.402H887.699V-217.3Z" fill="url(#paint0_linear)"/>
<path opacity="0.467" d="M199.673 921.328C616.457 921.328 954.328 583.458 954.328 166.673C954.328 -250.111 616.457 -587.982 199.673 -587.982C-217.112 -587.982 -554.982 -250.111 -554.982 166.673C-554.982 583.458 -217.112 921.328 199.673 921.328Z" fill="url(#paint1_radial)"/>
<path opacity="0.548" d="M193.905 740.298C506.463 740.298 759.841 486.92 759.841 174.362C759.841 -138.196 506.463 -391.574 193.905 -391.574C-118.653 -391.574 -372.031 -138.196 -372.031 174.362C-372.031 486.92 -118.653 740.298 193.905 740.298Z" fill="url(#paint2_radial)"/>
<path opacity="0.315" d="M193.904 551.689C402.296 551.689 571.231 382.754 571.231 174.362C571.231 -34.0298 402.296 -202.965 193.904 -202.965C-14.4878 -202.965 -183.423 -34.0298 -183.423 174.362C-183.423 382.754 -14.4878 551.689 193.904 551.689Z" fill="url(#paint3_radial)"/>
<path opacity="0.142" d="M193.906 362.972C298.072 362.972 382.515 278.529 382.515 174.363C382.515 70.197 298.072 -14.2461 193.906 -14.2461C89.74 -14.2461 5.29688 70.197 5.29688 174.363C5.29688 278.529 89.74 362.972 193.906 362.972Z" fill="url(#paint4_radial)"/>
<path opacity="0.42" d="M502.688 -139H-390.997V551.29H502.688V-139Z" fill="#010101" fill-opacity="0.82"/>
<path opacity="0.75" d="M15.0594 24.5125L15.0244 26H0.184356V1.2375H15.0244V2.725H1.98686V12.735H12.8369V14.1875H1.98686V24.5125H15.0594ZM26.5771 13.47C27.6738 13.47 28.6538 13.3417 29.5171 13.085C30.3921 12.8167 31.1271 12.4375 31.7221 11.9475C32.3288 11.4575 32.7896 10.8683 33.1046 10.18C33.4196 9.49167 33.5771 8.71583 33.5771 7.8525C33.5771 6.09083 32.9996 4.78417 31.8446 3.9325C30.7013 3.08083 29.0271 2.655 26.8221 2.655H22.2896V13.47H26.5771ZM37.5671 26H36.0271C35.8288 26 35.6596 25.9708 35.5196 25.9125C35.3913 25.8425 35.2688 25.72 35.1521 25.545L27.2071 15.5C27.1138 15.3717 27.0146 15.2608 26.9096 15.1675C26.8163 15.0742 26.7054 15.0042 26.5771 14.9575C26.4604 14.8992 26.3146 14.8583 26.1396 14.835C25.9763 14.8117 25.7721 14.8 25.5271 14.8H22.2896V26H20.4871V1.2375H26.8221C29.6688 1.2375 31.7979 1.79167 33.2096 2.9C34.6329 3.99667 35.3446 5.6125 35.3446 7.7475C35.3446 8.6925 35.1813 9.55583 34.8546 10.3375C34.5279 11.1192 34.0554 11.8075 33.4371 12.4025C32.8304 12.9858 32.0896 13.4642 31.2146 13.8375C30.3513 14.2108 29.3771 14.4617 28.2921 14.59C28.5721 14.765 28.8229 14.9983 29.0446 15.29L37.5671 26ZM59.4776 21.835C59.5943 21.835 59.6935 21.8758 59.7751 21.9575L60.4751 22.71C59.9618 23.2583 59.4018 23.7542 58.7951 24.1975C58.2001 24.6292 57.541 25.0025 56.8176 25.3175C56.106 25.6208 55.3185 25.8542 54.4551 26.0175C53.6035 26.1925 52.6643 26.28 51.6376 26.28C49.9226 26.28 48.3476 25.9825 46.9126 25.3875C45.4893 24.7808 44.2643 23.9292 43.2376 22.8325C42.211 21.7242 41.4118 20.3883 40.8401 18.825C40.2801 17.2617 40.0001 15.5233 40.0001 13.61C40.0001 11.7317 40.2918 10.0167 40.8751 8.465C41.4585 6.91333 42.2751 5.58333 43.3251 4.475C44.3751 3.355 45.6351 2.49167 47.1051 1.885C48.5751 1.26667 50.1968 0.957498 51.9701 0.957498C53.6618 0.957498 55.161 1.22 56.4676 1.745C57.7743 2.27 58.9643 3.01083 60.0376 3.9675L59.4951 4.755C59.4018 4.895 59.256 4.965 59.0576 4.965C58.9176 4.965 58.6901 4.83667 58.3751 4.58C58.0601 4.32333 57.6226 4.04333 57.0626 3.74C56.5026 3.425 55.8026 3.13917 54.9626 2.8825C54.1343 2.62583 53.1368 2.4975 51.9701 2.4975C50.4768 2.4975 49.106 2.75417 47.8576 3.2675C46.621 3.78083 45.5535 4.51583 44.6551 5.4725C43.7685 6.42917 43.0743 7.59583 42.5726 8.9725C42.071 10.3492 41.8201 11.895 41.8201 13.61C41.8201 15.36 42.071 16.9233 42.5726 18.3C43.086 19.6767 43.786 20.8433 44.6726 21.8C45.5593 22.745 46.6035 23.4742 47.8051 23.9875C49.0185 24.4892 50.3251 24.74 51.7251 24.74C52.6118 24.74 53.3993 24.6817 54.0876 24.565C54.7876 24.4483 55.4293 24.2733 56.0126 24.04C56.596 23.8067 57.1385 23.5208 57.6401 23.1825C58.1418 22.8442 58.6376 22.4475 59.1276 21.9925C59.186 21.9458 59.2443 21.9108 59.3026 21.8875C59.361 21.8525 59.4193 21.835 59.4776 21.835ZM64.02 14.905H72.1575V16.3225H64.02V14.905ZM91.9541 24.425C92.1407 24.425 92.2866 24.4833 92.3916 24.6C92.4966 24.705 92.5491 24.845 92.5491 25.02V26H76.5716V25.405C76.5716 25.2767 76.6007 25.1483 76.6591 25.02C76.7291 24.88 76.8166 24.7633 76.9216 24.67L85.3741 16.1125C86.0741 15.4008 86.7216 14.7125 87.3166 14.0475C87.9116 13.3825 88.4249 12.7117 88.8566 12.035C89.2999 11.3583 89.6441 10.6642 89.8891 9.9525C90.1341 9.24083 90.2566 8.4825 90.2566 7.6775C90.2566 6.7675 90.1049 5.98 89.8016 5.315C89.4982 4.63833 89.0957 4.08417 88.5941 3.6525C88.0924 3.22083 87.5091 2.9 86.8441 2.69C86.1791 2.48 85.4907 2.375 84.7791 2.375C83.9974 2.375 83.2741 2.4975 82.6091 2.7425C81.9557 2.97583 81.3724 3.30833 80.8591 3.74C80.3574 4.16 79.9374 4.6675 79.5991 5.2625C79.2724 5.84583 79.0449 6.4875 78.9166 7.1875C78.8349 7.44417 78.7241 7.61333 78.5841 7.695C78.4557 7.77667 78.2749 7.80583 78.0416 7.7825L77.1841 7.6425C77.3357 6.58083 77.6274 5.63583 78.0591 4.8075C78.4907 3.97917 79.0391 3.27917 79.7041 2.7075C80.3691 2.13583 81.1391 1.70416 82.0141 1.4125C82.8891 1.10916 83.8341 0.957498 84.8491 0.957498C85.7941 0.957498 86.6924 1.0975 87.5441 1.3775C88.4074 1.64583 89.1657 2.06 89.8191 2.62C90.4841 3.16833 91.0091 3.8625 91.3941 4.7025C91.7791 5.53083 91.9716 6.505 91.9716 7.625C91.9716 8.55833 91.8257 9.4275 91.5341 10.2325C91.2541 11.0258 90.8691 11.79 90.3791 12.525C89.8891 13.26 89.3174 13.9775 88.6641 14.6775C88.0224 15.3658 87.3457 16.0717 86.6341 16.795L78.8816 24.705C79.2549 24.6117 79.6399 24.5417 80.0366 24.495C80.4449 24.4483 80.8532 24.425 81.2616 24.425H91.9541ZM113.884 13.61C113.884 15.78 113.651 17.6583 113.184 19.245C112.718 20.8317 112.082 22.1442 111.277 23.1825C110.472 24.2208 109.527 24.9967 108.442 25.51C107.368 26.0117 106.219 26.2625 104.994 26.2625C103.769 26.2625 102.62 26.0117 101.547 25.51C100.473 24.9967 99.5343 24.2208 98.7293 23.1825C97.9243 22.1442 97.2885 20.8317 96.8218 19.245C96.3668 17.6583 96.1393 15.78 96.1393 13.61C96.1393 11.44 96.3668 9.56167 96.8218 7.975C97.2885 6.38833 97.9243 5.07583 98.7293 4.0375C99.5343 2.99916 100.473 2.22916 101.547 1.7275C102.62 1.21416 103.769 0.957498 104.994 0.957498C106.219 0.957498 107.368 1.21416 108.442 1.7275C109.527 2.22916 110.472 2.99916 111.277 4.0375C112.082 5.07583 112.718 6.38833 113.184 7.975C113.651 9.56167 113.884 11.44 113.884 13.61ZM112.134 13.61C112.134 11.6033 111.942 9.88833 111.557 8.465C111.172 7.04167 110.653 5.88083 109.999 4.9825C109.358 4.0725 108.599 3.4075 107.724 2.9875C106.861 2.5675 105.951 2.3575 104.994 2.3575C104.038 2.3575 103.128 2.5675 102.264 2.9875C101.401 3.4075 100.643 4.0725 99.9893 4.9825C99.336 5.88083 98.8168 7.04167 98.4318 8.465C98.0468 9.88833 97.8543 11.6033 97.8543 13.61C97.8543 15.6283 98.0468 17.3492 98.4318 18.7725C98.8168 20.1842 99.336 21.345 99.9893 22.255C100.643 23.1533 101.401 23.8125 102.264 24.2325C103.128 24.6408 104.038 24.845 104.994 24.845C105.951 24.845 106.861 24.6408 107.724 24.2325C108.599 23.8125 109.358 23.1533 109.999 22.255C110.653 21.345 111.172 20.1842 111.557 18.7725C111.942 17.3492 112.134 15.6283 112.134 13.61Z" fill="white"/>
</g>
<defs>
<linearGradient id="paint0_linear" x1="139.988" y1="590.606" x2="138.701" y2="-217.304" gradientUnits="userSpaceOnUse">
<stop stop-color="#090909"/>
<stop offset="0.481" stop-color="#161616"/>
<stop offset="1" stop-color="#070707"/>
</linearGradient>
<radialGradient id="paint1_radial" cx="0" cy="0" r="1" gradientUnits="userSpaceOnUse" gradientTransform="translate(199.673 166.673) scale(754.655)">
<stop stop-color="#3B3B3B"/>
<stop offset="1" stop-color="#1F1F1F"/>
</radialGradient>
<radialGradient id="paint2_radial" cx="0" cy="0" r="1" gradientUnits="userSpaceOnUse" gradientTransform="translate(193.905 174.362) scale(565.936)">
<stop stop-color="#3B3B3B"/>
<stop offset="1" stop-color="#1F1F1F"/>
</radialGradient>
<radialGradient id="paint3_radial" cx="0" cy="0" r="1" gradientUnits="userSpaceOnUse" gradientTransform="translate(193.904 174.362) scale(377.327)">
<stop stop-color="#3B3B3B"/>
<stop offset="1" stop-color="#1F1F1F"/>
</radialGradient>
<radialGradient id="paint4_radial" cx="0" cy="0" r="1" gradientUnits="userSpaceOnUse" gradientTransform="translate(193.906 174.363) scale(188.609)">
<stop stop-color="#3B3B3B"/>
<stop offset="1" stop-color="#1F1F1F"/>
</radialGradient>
<clipPath id="clip0">
<rect width="1366" height="768" fill="white" transform="translate(-489 -217)"/>
</clipPath>
</defs>
</svg>
