<svg xmlns="http://www.w3.org/2000/svg" xmlns:xlink="http://www.w3.org/1999/xlink" viewBox="0 0 60 60">
  <defs>
    <style>
      .cls-1 {
        fill: #484848;
      }

      .cls-2 {
        opacity: 0.91;
      }

      .cls-3 {
        clip-path: url(#clip-path);
      }

      .cls-4 {
        fill: #fff;
        opacity: 0.6;
      }
    </style>
    <clipPath id="clip-path">
      <ellipse id="Mask" class="cls-1" cx="30" cy="30" rx="30" ry="30"/>
    </clipPath>
  </defs>
  <g id="Group_662" data-name="Group 662" transform="translate(-489.74 -294.54)">
    <g id="Group_2259" data-name="Group 2259">
      <g id="BCC" class="cls-2" transform="translate(489.74 294.54)">
        <g id="Shape">
          <ellipse id="Mask-2" data-name="Mask" class="cls-1" cx="30" cy="30" rx="30" ry="30"/>
        </g>
      </g>
      <path id="Shape-3" data-name="Shape" class="cls-4" d="M13.594,37.1A1.011,1.011,0,0,1,13.26,37c-.437-.1-.923-.225-1.313-.328s-.876-.231-1.313-.328c-.137-.045-.209-.092-.234-.151a.285.285,0,0,1,.046-.224l.008-.035c.366-1.556.745-3.165,1.211-4.653a.809.809,0,0,1,.012-.125l0-.011c.017-.1.028-.17-.107-.238-.687-.172-1.466-.368-2.344-.563-.1.428-.219.873-.328,1.265s-.233.838-.328,1.266-.219.873-.328,1.265-.233.838-.328,1.266l-.03.062c-.047.1-.075.163-.172.163a.569.569,0,0,1-.173-.037c-.936-.281-1.88-.47-2.793-.652l-.02,0c-.137-.045-.209-.092-.234-.151a.285.285,0,0,1,.046-.224l.008-.035c.366-1.554.744-3.161,1.211-4.653a.336.336,0,0,1,.034-.121.618.618,0,0,0,.06-.253l-.154-.04c-1.824-.476-4.094-1.068-6.409-1.647.085-.17.151-.323.215-.471l.018-.041c.068-.159.142-.33.236-.52C.109,26,.5,25.109.791,24.346c.094-.281.188-.281.468-.281a16.043,16.043,0,0,0,2.063.468,1.546,1.546,0,0,0,.374.048.986.986,0,0,0,1.032-.892l0-.006C5.925,19,7.16,14.151,8.291,9.252A1.619,1.619,0,0,0,7.166,7.377C6.5,7.155,5.849,7,5.218,6.84l-.042-.01-.013,0-.435-.107a.227.227,0,0,1-.205-.079.206.206,0,0,1,.018-.2c.14-.512.281-1.054.426-1.611L5,4.686c.1-.393.209-.8.315-1.19.448.116.9.219,1.333.318C7.2,3.94,7.7,4.054,8.2,4.189s1.02.255,1.517.369l.029.007c.479.108,1.022.231,1.547.375a.58.58,0,0,0,.179.035c.155,0,.223-.116.29-.316.171-.73.346-1.449.514-2.145l.047-.193V2.314l.016-.065c.179-.739.365-1.5.547-2.279.067-.2.136-.316.29-.316a.581.581,0,0,1,.179.035c.924.278,1.755.463,2.719.656.137.046.209.093.234.152a.285.285,0,0,1-.046.224c-.176.7-.354,1.437-.525,2.146l-.034.141-.095.39,0,.006c-.154.633-.313,1.288-.469,1.911a.713.713,0,0,1-.094.375c.358.09.745.181,1.118.269l.049.011.087.02c.365.086.742.175,1.089.261.062,0,.125-.083.186-.164l.015-.02a1.024,1.024,0,0,1,.081-.1c.248-1.076.534-2.252.937-3.562l.1-.406c.057-.228.113-.451.169-.675l.011-.044c0-.145.054-.225.151-.225a.3.3,0,0,1,.131.037c.539.162,1.066.29,1.624.425l.011,0c.409.1.832.2,1.271.322a.12.12,0,0,1,.094.047.121.121,0,0,0,.094.046c-.292,1.263-.585,2.434-.843,3.466a7.836,7.836,0,0,1-.375,1.409.341.341,0,0,0,0,.3.508.508,0,0,0,.281.165l1.547.7,1.547.7a7.928,7.928,0,0,1,2.438,2.25,5.624,5.624,0,0,1,.562,4.406,5.871,5.871,0,0,1-1.406,2.719,5.674,5.674,0,0,1-2.063,1.219.337.337,0,0,0-.121.034.618.618,0,0,1-.253.06c.194.145.4.272.562.374l.008,0c.182.114.371.232.556.371a5.92,5.92,0,0,1,2.25,3.188A7.3,7.3,0,0,1,26.76,26.5a9.139,9.139,0,0,1-1.688,3.469,5.828,5.828,0,0,1-3.844,2.062,14.185,14.185,0,0,1-2.028.139,24.986,24.986,0,0,1-3.691-.327.611.611,0,0,0-.193-.035c-.175,0-.3.106-.369.316-.176.7-.354,1.436-.526,2.147l-.035.144,0,.007-.083.343c-.157.646-.32,1.314-.48,1.954l-.012.046C13.756,36.986,13.729,37.1,13.594,37.1Zm-1.81-17.567c-.108,0-.135.082-.187.245l-.01.032-.013.041c-.093.463-.211.911-.325,1.344l0,.01,0,.01c-.115.437-.233.888-.326,1.355-.218.759-.405,1.527-.586,2.27-.139.568-.283,1.155-.445,1.762a.331.331,0,0,1,.187.094c.211.052.439.111.719.183a21.026,21.026,0,0,0,3.968.754c.429.036.778.052,1.1.052a5.946,5.946,0,0,0,2.091-.334,2.817,2.817,0,0,0,1.795-1.822,2.9,2.9,0,0,0-.294-2.584,5.743,5.743,0,0,0-1.962-1.683l-.007,0A18.284,18.284,0,0,0,12.128,19.6h-.006l-.174-.035A.554.554,0,0,0,11.784,19.529Zm2.423-9.749c-.155,0-.224.116-.29.316-.561,2.357-1.009,4.1-1.5,5.813a.242.242,0,0,0-.029.187c.022.067.087.123.216.188.187.047.354.095.516.141s.328.094.516.141c.386.051.762.111,1.126.168a18.456,18.456,0,0,0,3,.3,6.127,6.127,0,0,0,1.031-.187,2.718,2.718,0,0,0,1.914-1.568,2.675,2.675,0,0,0-.133-2.464,4.4,4.4,0,0,0-2.156-1.781,21.439,21.439,0,0,0-3.207-1c-.268-.069-.545-.14-.824-.214A.578.578,0,0,0,14.206,9.779Z" transform="translate(498.909 315.573) rotate(-30)"/>
    </g>
  </g>
</svg>
