<svg xmlns="http://www.w3.org/2000/svg" xmlns:xlink="http://www.w3.org/1999/xlink" viewBox="0 0 42 42">
  <defs>
    <style>
      .cls-1 {
        opacity: 0.8;
        fill: url(#linear-gradient);
      }
    </style>
    <linearGradient id="linear-gradient" x1="0.174" y1="0.076" x2="0.811" y2="0.884" gradientUnits="objectBoundingBox">
      <stop offset="0" stop-color="#fff"/>
      <stop offset="1" stop-color="#363636"/>
    </linearGradient>
  </defs>
  <path id="Subtraction_128" data-name="Subtraction 128" class="cls-1" d="M14381,42a21.005,21.005,0,0,1-8.173-40.349,21.005,21.005,0,0,1,16.347,38.7A20.868,20.868,0,0,1,14381,42Zm.123-13.478h0a9.534,9.534,0,1,0,5.836-17.086,8.861,8.861,0,0,0-5.613,1.988,9.534,9.534,0,1,0-5.833,17.089,8.817,8.817,0,0,0,5.608-1.991Zm5.837-.871a6.632,6.632,0,0,1-4.724-1.955l-.321-.321-3.637-3.637a3.428,3.428,0,0,0,.1-.763,2.863,2.863,0,1,0-2.862,2.863,3.472,3.472,0,0,0,.665-.088l.05-.01.385.385.5.5.456.456c.484.485.974.974,1.424,1.422a5.738,5.738,0,0,1-3.528,1.1,6.676,6.676,0,1,1,4.721-11.4l.538.537,3.705,3.706-1.142,1.146a.787.787,0,0,0-.191.712.727.727,0,0,0,.57.477l5.245.954a.7.7,0,0,0,.24.043.676.676,0,0,0,.524-.254.662.662,0,0,0,.143-.552l-.954-5.245a.83.83,0,0,0-.478-.575.534.534,0,0,0-.2-.037.758.758,0,0,0-.518.228l-1.142,1.146-.5-.5-.525-.525c-.676-.675-1.393-1.392-2.033-2.029a5.628,5.628,0,0,1,3.484-1.146,6.676,6.676,0,0,1,0,13.352Z" transform="translate(-14359.999)"/>
</svg>
