<svg width="70" height="44" viewBox="0 0 70 44" fill="none" xmlns="http://www.w3.org/2000/svg">
<path opacity="0.81" d="M34.7418 39.4116C31.1112 42.3977 26.5596 44.02 21.8686 43.9998C18.3888 43.9973 14.9597 43.1606 11.8659 41.5591C8.77206 39.9577 6.10276 37.6376 4.07943 34.7915C2.05611 31.9454 0.737115 28.6552 0.231885 25.1941C-0.273346 21.7329 0.0497581 18.2006 1.17439 14.8901C2.29902 11.5796 4.19274 8.58644 6.69844 6.15897C9.20413 3.7315 12.2495 1.9397 15.582 0.932255C18.9144 -0.075188 22.4378 -0.269232 25.8598 0.366224C29.2818 1.00168 32.5037 2.44832 35.2582 4.5861C38.8898 1.60031 43.4422 -0.0211406 48.1337 0.000208152C51.6134 0.0031005 55.0423 0.840122 58.1359 2.44183C61.2295 4.04353 63.8985 6.36373 65.9216 9.20993C67.9446 12.0561 69.2633 15.3463 69.7683 18.8074C70.2733 22.2684 69.95 25.8007 68.8252 29.111C67.7005 32.4214 65.8067 35.4143 63.3009 37.8417C60.7952 40.269 57.7498 42.0606 54.4175 43.0679C51.0851 44.0753 47.5618 44.2692 44.1399 43.6337C40.7181 42.9983 37.4963 41.5516 34.7418 39.4139V39.4116ZM32.594 37.5108L32.3301 37.2455L32.594 37.5108ZM28.4337 22C28.4182 22.5931 28.3413 23.183 28.2043 23.7601L37.2867 32.8903C39.0687 34.6805 41.2624 36.0013 43.6734 36.7358C46.0844 37.4703 48.6384 37.5958 51.1092 37.1012C53.58 36.6066 55.8914 35.5071 57.8386 33.9002C59.7858 32.2933 61.3088 30.2284 62.2727 27.8885C63.2366 25.5487 63.6117 23.0059 63.3647 20.4855C63.1178 17.9652 62.2564 15.5449 60.8569 13.439C59.4574 11.3332 57.5629 9.60674 55.3412 8.41261C53.1195 7.21847 50.6392 6.59349 48.1199 6.593C45.2392 6.5558 42.4283 7.48523 40.1321 9.23426L37.3945 6.48227L47.1332 16.2723L49.7583 13.631C49.9614 13.4078 50.2238 13.2477 50.5146 13.1696C50.8053 13.0915 51.1122 13.0988 51.399 13.1904C51.672 13.308 51.9135 13.4889 52.1037 13.7182C52.2939 13.9475 52.4275 14.2188 52.4936 14.5099L54.6827 26.609C54.7302 26.8814 54.7057 27.1616 54.6117 27.4216C54.5177 27.6816 54.3574 27.9121 54.1469 28.0903C53.9365 28.2685 53.6832 28.388 53.4124 28.4369C53.1415 28.4858 52.8627 28.4624 52.6037 28.369L40.5681 26.1707C40.272 26.1205 39.9944 25.9922 39.7638 25.7989C39.5332 25.6056 39.3578 25.3541 39.2555 25.0703C39.191 24.7803 39.1972 24.4788 39.2735 24.1917C39.3498 23.9045 39.494 23.6401 39.6938 23.421L42.3189 20.7797L32.5825 10.992C30.8005 9.2031 28.6071 7.88343 26.1967 7.14985C23.7863 6.41626 21.2331 6.29139 18.7633 6.78629C16.2934 7.28119 13.983 8.38058 12.0366 9.98716C10.0901 11.5937 8.56776 13.6579 7.60417 15.997C6.64058 18.3361 6.2655 20.878 6.51215 23.3975C6.7588 25.9171 7.61956 28.3367 9.01824 30.4421C10.4169 32.5475 12.3104 34.2737 14.531 35.4681C16.7516 36.6624 19.2309 37.288 21.7493 37.2894C24.6519 37.3607 27.4971 36.4689 29.845 34.7519L23.5002 28.3713C22.9621 28.5021 22.4126 28.5793 21.8595 28.602C20.561 28.602 19.2917 28.215 18.2121 27.4898C17.1325 26.7646 16.291 25.7339 15.7941 24.5279C15.2972 23.322 15.1672 21.995 15.4205 20.7148C15.6738 19.4346 16.2991 18.2586 17.2172 17.3356C18.1354 16.4126 19.3052 15.7841 20.5787 15.5294C21.8522 15.2748 23.1722 15.4055 24.3718 15.905C25.5714 16.4045 26.5968 17.2504 27.3182 18.3357C28.0395 19.421 28.4246 20.697 28.4246 22.0023L28.4337 22Z" fill="url(#paint0_linear_606_2688)"/>
<defs>
<linearGradient id="paint0_linear_606_2688" x1="15.75" y1="1.20722e-06" x2="49.0548" y2="88.8138" gradientUnits="userSpaceOnUse">
<stop stop-color="white"/>
<stop offset="0.326" stop-color="#888888"/>
<stop offset="0.552" stop-color="#636363"/>
<stop offset="1" stop-color="#616161"/>
</linearGradient>
</defs>
</svg>
