<svg xmlns="http://www.w3.org/2000/svg" xmlns:xlink="http://www.w3.org/1999/xlink" viewBox="0 0 41.999 42">
  <defs>
    <style>
      .cls-1 {
        fill: rgba(0,0,0,0.66);
        opacity: 0.39;
      }

      .cls-2 {
        opacity: 0.81;
        fill: url(#linear-gradient);
      }
    </style>
    <linearGradient id="linear-gradient" x1="0.225" x2="1.238" y2="1.698" gradientUnits="objectBoundingBox">
      <stop offset="0" stop-color="#fff"/>
      <stop offset="0.326" stop-color="#888"/>
      <stop offset="0.552" stop-color="#636363"/>
      <stop offset="1" stop-color="#616161"/>
    </linearGradient>
  </defs>
  <g id="Group_1932" data-name="Group 1932" transform="translate(-20.001 -455.564)">
    <circle id="Ellipse_2127" data-name="Ellipse 2127" class="cls-1" cx="21" cy="21" r="21" transform="translate(20 455.564)"/>
    <path id="Intersection_7" data-name="Intersection 7" class="cls-2" d="M21.122,28.961a8.8,8.8,0,0,1-5.61,1.989,9.537,9.537,0,1,1,5.835-17.086,8.8,8.8,0,0,1,5.611-1.988,9.537,9.537,0,1,1-5.836,17.086Zm-.936-.824-.115-.115Zm-1.813-6.724a3.707,3.707,0,0,1-.1.763l3.958,3.958a6.677,6.677,0,1,0,4.721-11.4,5.644,5.644,0,0,0-3.481,1.145l-1.193-1.193,4.244,4.244,1.144-1.145a.687.687,0,0,1,.715-.191.821.821,0,0,1,.477.572l.954,5.245a.685.685,0,0,1-.906.763l-5.245-.953a.739.739,0,0,1-.572-.477.8.8,0,0,1,.191-.715l1.144-1.145-4.243-4.243a6.676,6.676,0,1,0-4.721,11.4,5.758,5.758,0,0,0,3.528-1.1l-2.765-2.766a3.682,3.682,0,0,1-.715.1,2.861,2.861,0,1,1,2.861-2.861Z" transform="translate(20.001 455.104)"/>
  </g>
</svg>
