<?xml version="1.0" encoding="UTF-8" standalone="no"?>
<svg
   xmlns:dc="http://purl.org/dc/elements/1.1/"
   xmlns:cc="http://creativecommons.org/ns#"
   xmlns:rdf="http://www.w3.org/1999/02/22-rdf-syntax-ns#"
   xmlns:svg="http://www.w3.org/2000/svg"
   xmlns="http://www.w3.org/2000/svg"
   xmlns:xlink="http://www.w3.org/1999/xlink"
   xmlns:sodipodi="http://sodipodi.sourceforge.net/DTD/sodipodi-0.dtd"
   xmlns:inkscape="http://www.inkscape.org/namespaces/inkscape"
   width="309"
   height="186"
   viewBox="0 0 309 186"
   version="1.1"
   id="svg120"
   sodipodi:docname="Group 5.svg"
   inkscape:version="0.92.3 (2405546, 2018-03-11)">
  <metadata
     id="metadata124">
    <rdf:RDF>
      <cc:Work
         rdf:about="">
        <dc:format>image/svg+xml</dc:format>
        <dc:type
           rdf:resource="http://purl.org/dc/dcmitype/StillImage" />
        <dc:title>Group 5</dc:title>
      </cc:Work>
    </rdf:RDF>
  </metadata>
  <sodipodi:namedview
     pagecolor="#ffffff"
     bordercolor="#666666"
     borderopacity="1"
     objecttolerance="10"
     gridtolerance="10"
     guidetolerance="10"
     inkscape:pageopacity="0"
     inkscape:pageshadow="2"
     inkscape:window-width="1920"
     inkscape:window-height="1017"
     id="namedview122"
     showgrid="false"
     inkscape:zoom="1.8381877"
     inkscape:cx="200.85194"
     inkscape:cy="66.739873"
     inkscape:window-x="-8"
     inkscape:window-y="-8"
     inkscape:window-maximized="1"
     inkscape:current-layer="Canvas" />
  <title
     id="title85">Group 5</title>
  <desc
     id="desc87">Created using Figma</desc>
  <g
     id="Canvas"
     transform="translate(-3206 -585)">
    <g
       id="Group 5"
       transform="matrix(1,0,0,0.99598884,0,2.3625755)">
      <g
         id="Ellipse"
         style="filter:url(#filter0_d)">
        <use
           xlink:href="#path1_fill"
           transform="translate(3299,589)"
           id="use92"
           style="fill:#1d2229"
           x="0"
           y="0"
           width="100%"
           height="100%" />
      </g>
      <g
         id="Vector">
        <use
           xlink:href="#path2_stroke"
           transform="translate(3341,645)"
           id="use95"
           style="fill:#2cc958"
           x="0"
           y="0"
           width="100%"
           height="100%" />
      </g>
    </g>
  </g>
  <defs
     id="defs118">
    <filter
       id="filter0_d"
       filterUnits="userSpaceOnUse"
       x="3291"
       y="585"
       width="140"
       height="140"
       color-interpolation-filters="sRGB">
      <feFlood
         flood-opacity="0"
         result="BackgroundImageFix"
         id="feFlood100" />
      <feColorMatrix
         in="SourceAlpha"
         type="matrix"
         values="0 0 0 0 0 0 0 0 0 0 0 0 0 0 0 0 0 0 255 0"
         id="feColorMatrix102" />
      <feOffset
         dx="0"
         dy="4"
         id="feOffset104" />
      <feGaussianBlur
         stdDeviation="4"
         id="feGaussianBlur106" />
      <feColorMatrix
         type="matrix"
         values="0 0 0 0 0.0546 0 0 0 0 0.099008 0 0 0 0 0.14 0 0 0 0.25 0"
         id="feColorMatrix108" />
      <feBlend
         mode="normal"
         in2="BackgroundImageFix"
         result="effect1_dropShadow"
         id="feBlend110" />
      <feBlend
         mode="normal"
         in="SourceGraphic"
         in2="effect1_dropShadow"
         result="shape"
         id="feBlend112" />
    </filter>
    <path
       id="path0_fill"
       d="M 7.96875 5.625L 9.6875 5.625L 5.77344 12.75L 5.77344 17L 4.25 17L 4.25 12.75L 0.335938 5.625L 2.07031 5.625L 5.01562 11.3438L 7.96875 5.625ZM 10.0312 12.6875C 10.0312 11.8698 10.1875 11.1354 10.5 10.4844C 10.8125 9.83333 11.2578 9.32292 11.8359 8.95312C 12.4193 8.57812 13.0964 8.39062 13.8672 8.39062C 14.6484 8.39062 15.3307 8.57812 15.9141 8.95312C 16.4974 9.32292 16.9453 9.83333 17.2578 10.4844C 17.5703 11.1354 17.7266 11.8698 17.7266 12.6875L 17.7266 12.8672C 17.7266 13.6849 17.5703 14.4193 17.2578 15.0703C 16.9453 15.7161 16.4974 16.2266 15.9141 16.6016C 15.3359 16.9714 14.6589 17.1562 13.8828 17.1562C 13.1068 17.1562 12.4271 16.9714 11.8438 16.6016C 11.2656 16.2266 10.8177 15.7161 10.5 15.0703C 10.1875 14.4193 10.0312 13.6849 10.0312 12.8672L 10.0312 12.6875ZM 11.4922 12.8672C 11.4922 13.4401 11.5807 13.9635 11.7578 14.4375C 11.9401 14.9115 12.2109 15.2891 12.5703 15.5703C 12.9297 15.8464 13.3672 15.9844 13.8828 15.9844C 14.3932 15.9844 14.8281 15.8464 15.1875 15.5703C 15.5469 15.2891 15.8151 14.9115 15.9922 14.4375C 16.1745 13.9635 16.2656 13.4401 16.2656 12.8672L 16.2656 12.6875C 16.2656 12.1146 16.1745 11.5911 15.9922 11.1172C 15.8099 10.6432 15.5391 10.2656 15.1797 9.98438C 14.8203 9.70312 14.3828 9.5625 13.8672 9.5625C 13.3568 9.5625 12.9219 9.70312 12.5625 9.98438C 12.2083 10.2656 11.9401 10.6432 11.7578 11.1172C 11.5807 11.5911 11.4922 12.1146 11.4922 12.6875L 11.4922 12.8672ZM 26.1797 8.54688L 26.1797 17L 24.7891 17L 24.7656 16.1641C 24.2031 16.8255 23.3776 17.1562 22.2891 17.1562C 21.4193 17.1562 20.7396 16.901 20.25 16.3906C 19.7604 15.8802 19.5156 15.0833 19.5156 14L 19.5156 8.54688L 20.9766 8.54688L 20.9766 14.0156C 20.9766 14.7188 21.1198 15.2161 21.4062 15.5078C 21.6979 15.7943 22.0703 15.9375 22.5234 15.9375C 23.6172 15.9375 24.349 15.5286 24.7188 14.7109L 24.7188 8.54688L 26.1797 8.54688ZM 31.8281 8.39062C 31.9219 8.39062 32.0391 8.40365 32.1797 8.42969C 32.3203 8.45052 32.4167 8.47396 32.4688 8.5L 32.4688 9.83594C 32.2448 9.79427 32.0078 9.77344 31.7578 9.77344C 31.2786 9.77344 30.8776 9.88021 30.5547 10.0938C 30.237 10.3073 29.9974 10.6068 29.8359 10.9922L 29.8359 17L 28.375 17L 28.375 8.54688L 29.7969 8.54688L 29.8281 9.50781C 30.0469 9.15365 30.3229 8.88021 30.6562 8.6875C 30.9896 8.48958 31.3802 8.39062 31.8281 8.39062ZM 41.3516 17C 41.0182 17.1042 40.6458 17.1562 40.2344 17.1562C 39.6458 17.1562 39.1719 16.9792 38.8125 16.625C 38.4583 16.2708 38.2812 15.6953 38.2812 14.8984L 38.2812 9.64844L 36.7422 9.64844L 36.7422 8.54688L 38.2812 8.54688L 38.2812 6.49219L 39.7422 6.49219L 39.7422 8.54688L 41.3203 8.54688L 41.3203 9.64844L 39.7422 9.64844L 39.7422 14.9062C 39.7422 15.3073 39.8255 15.5781 39.9922 15.7188C 40.1589 15.8542 40.3854 15.9219 40.6719 15.9219C 40.7812 15.9219 40.901 15.9141 41.0312 15.8984C 41.1615 15.8776 41.2656 15.8568 41.3438 15.8359L 41.3516 17ZM 46.4531 8.39062C 46.5469 8.39062 46.6641 8.40365 46.8047 8.42969C 46.9453 8.45052 47.0417 8.47396 47.0938 8.5L 47.0938 9.83594C 46.8698 9.79427 46.6328 9.77344 46.3828 9.77344C 45.9036 9.77344 45.5026 9.88021 45.1797 10.0938C 44.862 10.3073 44.6224 10.6068 44.4609 10.9922L 44.4609 17L 43 17L 43 8.54688L 44.4219 8.54688L 44.4531 9.50781C 44.6719 9.15365 44.9479 8.88021 45.2812 8.6875C 45.6146 8.48958 46.0052 8.39062 46.4531 8.39062ZM 54.6172 15.1562C 54.6172 15.4531 54.6432 15.7604 54.6953 16.0781C 54.7474 16.3906 54.8203 16.6562 54.9141 16.875L 54.9141 17L 53.3906 17C 53.3021 16.7969 53.2344 16.5026 53.1875 16.1172C 52.8958 16.4297 52.5443 16.6823 52.1328 16.875C 51.7266 17.0625 51.2786 17.1562 50.7891 17.1562C 50.2266 17.1562 49.7266 17.0469 49.2891 16.8281C 48.8568 16.6042 48.5208 16.3021 48.2812 15.9219C 48.0469 15.5417 47.9297 15.1198 47.9297 14.6562C 47.9297 14.0573 48.0833 13.5495 48.3906 13.1328C 48.7031 12.7161 49.1432 12.4036 49.7109 12.1953C 50.2839 11.9818 50.9583 11.875 51.7344 11.875L 53.1562 11.875L 53.1562 11.2031C 53.1562 10.6875 53.0026 10.2839 52.6953 9.99219C 52.3932 9.69531 51.9557 9.54688 51.3828 9.54688C 51.0339 9.54688 50.7214 9.60938 50.4453 9.73438C 50.1693 9.85417 49.9531 10.0182 49.7969 10.2266C 49.6458 10.4297 49.5703 10.651 49.5703 10.8906L 48.1094 10.8906C 48.1094 10.4792 48.25 10.0807 48.5312 9.69531C 48.8125 9.3099 49.2083 8.9974 49.7188 8.75781C 50.2292 8.51302 50.8125 8.39062 51.4688 8.39062C 52.0938 8.39062 52.6406 8.4974 53.1094 8.71094C 53.5833 8.91927 53.9531 9.23698 54.2188 9.66406C 54.4844 10.0859 54.6172 10.6042 54.6172 11.2188L 54.6172 15.1562ZM 51 15.9062C 51.3333 15.9062 51.6432 15.849 51.9297 15.7344C 52.2214 15.6146 52.4714 15.4583 52.6797 15.2656C 52.888 15.0729 53.0469 14.8646 53.1562 14.6406L 53.1562 12.8906L 51.9688 12.8906C 51.1354 12.8906 50.4974 13.0234 50.0547 13.2891C 49.612 13.5495 49.3906 13.9375 49.3906 14.4531C 49.3906 14.7292 49.4531 14.9766 49.5781 15.1953C 49.7031 15.4141 49.8854 15.5885 50.125 15.7188C 50.3646 15.8438 50.6562 15.9062 51 15.9062ZM 60.8359 8.39062C 62.6432 8.39062 63.5469 9.41406 63.5469 11.4609L 63.5469 17L 62.0859 17L 62.0859 11.4453C 62.0859 10.7995 61.9453 10.3307 61.6641 10.0391C 61.388 9.7474 60.9688 9.60156 60.4062 9.60156C 59.9583 9.60156 59.5547 9.72396 59.1953 9.96875C 58.8411 10.2135 58.5599 10.5417 58.3516 10.9531L 58.3516 17L 56.8906 17L 56.8906 8.54688L 58.2734 8.54688L 58.3203 9.58594C 58.6276 9.20573 58.9948 8.91146 59.4219 8.70312C 59.849 8.49479 60.3203 8.39062 60.8359 8.39062ZM 68.7188 13.2891C 67.7135 13.0807 66.9531 12.7891 66.4375 12.4141C 65.9271 12.0391 65.6719 11.5208 65.6719 10.8594C 65.6719 10.4115 65.8021 10 66.0625 9.625C 66.3229 9.25 66.6901 8.95052 67.1641 8.72656C 67.6432 8.5026 68.1901 8.39062 68.8047 8.39062C 69.4609 8.39062 70.0339 8.50781 70.5234 8.74219C 71.013 8.97656 71.3854 9.29427 71.6406 9.69531C 71.901 10.0911 72.0312 10.5339 72.0312 11.0234L 70.5703 11.0234C 70.5703 10.7839 70.5 10.5521 70.3594 10.3281C 70.2188 10.1042 70.013 9.92188 69.7422 9.78125C 69.4766 9.63542 69.1641 9.5625 68.8047 9.5625C 68.4245 9.5625 68.1094 9.6224 67.8594 9.74219C 67.6094 9.85677 67.4245 10.0104 67.3047 10.2031C 67.1901 10.3906 67.1328 10.5938 67.1328 10.8125C 67.1328 11.0365 67.1849 11.224 67.2891 11.375C 67.3984 11.5208 67.5911 11.6536 67.8672 11.7734C 68.1484 11.8932 68.5521 12.0104 69.0781 12.125C 69.7865 12.2865 70.362 12.4766 70.8047 12.6953C 71.2474 12.9141 71.5755 13.1823 71.7891 13.5C 72.0078 13.8177 72.1172 14.2031 72.1172 14.6562C 72.1172 15.1458 71.9818 15.5807 71.7109 15.9609C 71.4401 16.3359 71.0573 16.6302 70.5625 16.8438C 70.0677 17.0521 69.4948 17.1562 68.8438 17.1562C 68.125 17.1562 67.5026 17.0286 66.9766 16.7734C 66.4557 16.513 66.0599 16.1719 65.7891 15.75C 65.5182 15.3281 65.3828 14.8776 65.3828 14.3984L 66.8438 14.3984C 66.8646 14.7734 66.974 15.0807 67.1719 15.3203C 67.3698 15.5547 67.6146 15.724 67.9062 15.8281C 68.2031 15.9323 68.5156 15.9844 68.8438 15.9844C 69.224 15.9844 69.5495 15.9323 69.8203 15.8281C 70.0964 15.7188 70.3047 15.5729 70.4453 15.3906C 70.5859 15.2031 70.6562 14.9922 70.6562 14.7578C 70.6562 14.5234 70.6068 14.3203 70.5078 14.1484C 70.4089 13.9766 70.2188 13.8177 69.9375 13.6719C 69.6562 13.526 69.25 13.3984 68.7188 13.2891ZM 80.4453 15.1562C 80.4453 15.4531 80.4714 15.7604 80.5234 16.0781C 80.5755 16.3906 80.6484 16.6562 80.7422 16.875L 80.7422 17L 79.2188 17C 79.1302 16.7969 79.0625 16.5026 79.0156 16.1172C 78.724 16.4297 78.3724 16.6823 77.9609 16.875C 77.5547 17.0625 77.1068 17.1562 76.6172 17.1562C 76.0547 17.1562 75.5547 17.0469 75.1172 16.8281C 74.6849 16.6042 74.349 16.3021 74.1094 15.9219C 73.875 15.5417 73.7578 15.1198 73.7578 14.6562C 73.7578 14.0573 73.9115 13.5495 74.2188 13.1328C 74.5312 12.7161 74.9714 12.4036 75.5391 12.1953C 76.112 11.9818 76.7865 11.875 77.5625 11.875L 78.9844 11.875L 78.9844 11.2031C 78.9844 10.6875 78.8307 10.2839 78.5234 9.99219C 78.2214 9.69531 77.7839 9.54688 77.2109 9.54688C 76.862 9.54688 76.5495 9.60938 76.2734 9.73438C 75.9974 9.85417 75.7812 10.0182 75.625 10.2266C 75.474 10.4297 75.3984 10.651 75.3984 10.8906L 73.9375 10.8906C 73.9375 10.4792 74.0781 10.0807 74.3594 9.69531C 74.6406 9.3099 75.0365 8.9974 75.5469 8.75781C 76.0573 8.51302 76.6406 8.39062 77.2969 8.39062C 77.9219 8.39062 78.4688 8.4974 78.9375 8.71094C 79.4115 8.91927 79.7812 9.23698 80.0469 9.66406C 80.3125 10.0859 80.4453 10.6042 80.4453 11.2188L 80.4453 15.1562ZM 76.8281 15.9062C 77.1615 15.9062 77.4714 15.849 77.7578 15.7344C 78.0495 15.6146 78.2995 15.4583 78.5078 15.2656C 78.7161 15.0729 78.875 14.8646 78.9844 14.6406L 78.9844 12.8906L 77.7969 12.8906C 76.9635 12.8906 76.3255 13.0234 75.8828 13.2891C 75.4401 13.5495 75.2188 13.9375 75.2188 14.4531C 75.2188 14.7292 75.2812 14.9766 75.4062 15.1953C 75.5312 15.4141 75.7135 15.5885 75.9531 15.7188C 76.1927 15.8438 76.4844 15.9062 76.8281 15.9062ZM 89.4844 14.3281C 89.4583 14.8229 89.2891 15.2891 88.9766 15.7266C 88.6641 16.1589 88.2526 16.5052 87.7422 16.7656C 87.237 17.026 86.6927 17.1562 86.1094 17.1562C 85.2917 17.1562 84.599 16.9688 84.0312 16.5938C 83.4688 16.2135 83.0469 15.7057 82.7656 15.0703C 82.4844 14.4297 82.3438 13.7188 82.3438 12.9375L 82.3438 12.6094C 82.3438 11.8281 82.4844 11.1198 82.7656 10.4844C 83.0469 9.84375 83.4688 9.33594 84.0312 8.96094C 84.599 8.58073 85.2917 8.39062 86.1094 8.39062C 86.7552 8.39062 87.3281 8.52344 87.8281 8.78906C 88.3333 9.05469 88.7292 9.42188 89.0156 9.89062C 89.3021 10.3542 89.4583 10.875 89.4844 11.4531L 88.1016 11.4531C 88.0755 11.1042 87.9766 10.7865 87.8047 10.5C 87.6328 10.2083 87.401 9.97917 87.1094 9.8125C 86.8177 9.64583 86.4844 9.5625 86.1094 9.5625C 85.5521 9.5625 85.1016 9.70833 84.7578 10C 84.4141 10.2865 84.1693 10.6589 84.0234 11.1172C 83.8776 11.5703 83.8047 12.0677 83.8047 12.6094L 83.8047 12.9375C 83.8047 13.8021 83.9818 14.526 84.3359 15.1094C 84.6953 15.6927 85.2865 15.9844 86.1094 15.9844C 86.4479 15.9844 86.763 15.9141 87.0547 15.7734C 87.3516 15.6276 87.5938 15.4297 87.7812 15.1797C 87.9688 14.9245 88.0755 14.6406 88.1016 14.3281L 89.4844 14.3281ZM 94.6953 17C 94.362 17.1042 93.9896 17.1562 93.5781 17.1562C 92.9896 17.1562 92.5156 16.9792 92.1562 16.625C 91.8021 16.2708 91.625 15.6953 91.625 14.8984L 91.625 9.64844L 90.0859 9.64844L 90.0859 8.54688L 91.625 8.54688L 91.625 6.49219L 93.0859 6.49219L 93.0859 8.54688L 94.6641 8.54688L 94.6641 9.64844L 93.0859 9.64844L 93.0859 14.9062C 93.0859 15.3073 93.1693 15.5781 93.3359 15.7188C 93.5026 15.8542 93.7292 15.9219 94.0156 15.9219C 94.125 15.9219 94.2448 15.9141 94.375 15.8984C 94.5052 15.8776 94.6094 15.8568 94.6875 15.8359L 94.6953 17ZM 97.2109 5.46875C 97.4818 5.46875 97.6927 5.54688 97.8438 5.70312C 98 5.85938 98.0781 6.05729 98.0781 6.29688C 98.0781 6.53125 98 6.72656 97.8438 6.88281C 97.6927 7.03385 97.4818 7.10938 97.2109 7.10938C 96.9401 7.10938 96.7292 7.03385 96.5781 6.88281C 96.4323 6.72656 96.3594 6.53125 96.3594 6.29688C 96.3594 6.05729 96.4323 5.85938 96.5781 5.70312C 96.7292 5.54688 96.9401 5.46875 97.2109 5.46875ZM 96.4688 17L 96.4688 8.54688L 97.9297 8.54688L 97.9297 17L 96.4688 17ZM 99.8594 12.6875C 99.8594 11.8698 100.016 11.1354 100.328 10.4844C 100.641 9.83333 101.086 9.32292 101.664 8.95312C 102.247 8.57812 102.924 8.39062 103.695 8.39062C 104.477 8.39062 105.159 8.57812 105.742 8.95312C 106.326 9.32292 106.773 9.83333 107.086 10.4844C 107.398 11.1354 107.555 11.8698 107.555 12.6875L 107.555 12.8672C 107.555 13.6849 107.398 14.4193 107.086 15.0703C 106.773 15.7161 106.326 16.2266 105.742 16.6016C 105.164 16.9714 104.487 17.1562 103.711 17.1562C 102.935 17.1562 102.255 16.9714 101.672 16.6016C 101.094 16.2266 100.646 15.7161 100.328 15.0703C 100.016 14.4193 99.8594 13.6849 99.8594 12.8672L 99.8594 12.6875ZM 101.32 12.8672C 101.32 13.4401 101.409 13.9635 101.586 14.4375C 101.768 14.9115 102.039 15.2891 102.398 15.5703C 102.758 15.8464 103.195 15.9844 103.711 15.9844C 104.221 15.9844 104.656 15.8464 105.016 15.5703C 105.375 15.2891 105.643 14.9115 105.82 14.4375C 106.003 13.9635 106.094 13.4401 106.094 12.8672L 106.094 12.6875C 106.094 12.1146 106.003 11.5911 105.82 11.1172C 105.638 10.6432 105.367 10.2656 105.008 9.98438C 104.648 9.70312 104.211 9.5625 103.695 9.5625C 103.185 9.5625 102.75 9.70312 102.391 9.98438C 102.036 10.2656 101.768 10.6432 101.586 11.1172C 101.409 11.5911 101.32 12.1146 101.32 12.6875L 101.32 12.8672ZM 113.32 8.39062C 115.128 8.39062 116.031 9.41406 116.031 11.4609L 116.031 17L 114.57 17L 114.57 11.4453C 114.57 10.7995 114.43 10.3307 114.148 10.0391C 113.872 9.7474 113.453 9.60156 112.891 9.60156C 112.443 9.60156 112.039 9.72396 111.68 9.96875C 111.326 10.2135 111.044 10.5417 110.836 10.9531L 110.836 17L 109.375 17L 109.375 8.54688L 110.758 8.54688L 110.805 9.58594C 111.112 9.20573 111.479 8.91146 111.906 8.70312C 112.333 8.49479 112.805 8.39062 113.32 8.39062ZM 123.055 5.46875C 123.326 5.46875 123.536 5.54688 123.688 5.70312C 123.844 5.85938 123.922 6.05729 123.922 6.29688C 123.922 6.53125 123.844 6.72656 123.688 6.88281C 123.536 7.03385 123.326 7.10938 123.055 7.10938C 122.784 7.10938 122.573 7.03385 122.422 6.88281C 122.276 6.72656 122.203 6.53125 122.203 6.29688C 122.203 6.05729 122.276 5.85938 122.422 5.70312C 122.573 5.54688 122.784 5.46875 123.055 5.46875ZM 122.312 17L 122.312 8.54688L 123.773 8.54688L 123.773 17L 122.312 17ZM 129.062 13.2891C 128.057 13.0807 127.297 12.7891 126.781 12.4141C 126.271 12.0391 126.016 11.5208 126.016 10.8594C 126.016 10.4115 126.146 10 126.406 9.625C 126.667 9.25 127.034 8.95052 127.508 8.72656C 127.987 8.5026 128.534 8.39062 129.148 8.39062C 129.805 8.39062 130.378 8.50781 130.867 8.74219C 131.357 8.97656 131.729 9.29427 131.984 9.69531C 132.245 10.0911 132.375 10.5339 132.375 11.0234L 130.914 11.0234C 130.914 10.7839 130.844 10.5521 130.703 10.3281C 130.562 10.1042 130.357 9.92188 130.086 9.78125C 129.82 9.63542 129.508 9.5625 129.148 9.5625C 128.768 9.5625 128.453 9.6224 128.203 9.74219C 127.953 9.85677 127.768 10.0104 127.648 10.2031C 127.534 10.3906 127.477 10.5938 127.477 10.8125C 127.477 11.0365 127.529 11.224 127.633 11.375C 127.742 11.5208 127.935 11.6536 128.211 11.7734C 128.492 11.8932 128.896 12.0104 129.422 12.125C 130.13 12.2865 130.706 12.4766 131.148 12.6953C 131.591 12.9141 131.919 13.1823 132.133 13.5C 132.352 13.8177 132.461 14.2031 132.461 14.6562C 132.461 15.1458 132.326 15.5807 132.055 15.9609C 131.784 16.3359 131.401 16.6302 130.906 16.8438C 130.411 17.0521 129.839 17.1562 129.188 17.1562C 128.469 17.1562 127.846 17.0286 127.32 16.7734C 126.799 16.513 126.404 16.1719 126.133 15.75C 125.862 15.3281 125.727 14.8776 125.727 14.3984L 127.188 14.3984C 127.208 14.7734 127.318 15.0807 127.516 15.3203C 127.714 15.5547 127.958 15.724 128.25 15.8281C 128.547 15.9323 128.859 15.9844 129.188 15.9844C 129.568 15.9844 129.893 15.9323 130.164 15.8281C 130.44 15.7188 130.648 15.5729 130.789 15.3906C 130.93 15.2031 131 14.9922 131 14.7578C 131 14.5234 130.951 14.3203 130.852 14.1484C 130.753 13.9766 130.562 13.8177 130.281 13.6719C 130 13.526 129.594 13.3984 129.062 13.2891ZM 141.297 13.2891C 140.292 13.0807 139.531 12.7891 139.016 12.4141C 138.505 12.0391 138.25 11.5208 138.25 10.8594C 138.25 10.4115 138.38 10 138.641 9.625C 138.901 9.25 139.268 8.95052 139.742 8.72656C 140.221 8.5026 140.768 8.39062 141.383 8.39062C 142.039 8.39062 142.612 8.50781 143.102 8.74219C 143.591 8.97656 143.964 9.29427 144.219 9.69531C 144.479 10.0911 144.609 10.5339 144.609 11.0234L 143.148 11.0234C 143.148 10.7839 143.078 10.5521 142.938 10.3281C 142.797 10.1042 142.591 9.92188 142.32 9.78125C 142.055 9.63542 141.742 9.5625 141.383 9.5625C 141.003 9.5625 140.688 9.6224 140.438 9.74219C 140.188 9.85677 140.003 10.0104 139.883 10.2031C 139.768 10.3906 139.711 10.5938 139.711 10.8125C 139.711 11.0365 139.763 11.224 139.867 11.375C 139.977 11.5208 140.169 11.6536 140.445 11.7734C 140.727 11.8932 141.13 12.0104 141.656 12.125C 142.365 12.2865 142.94 12.4766 143.383 12.6953C 143.826 12.9141 144.154 13.1823 144.367 13.5C 144.586 13.8177 144.695 14.2031 144.695 14.6562C 144.695 15.1458 144.56 15.5807 144.289 15.9609C 144.018 16.3359 143.635 16.6302 143.141 16.8438C 142.646 17.0521 142.073 17.1562 141.422 17.1562C 140.703 17.1562 140.081 17.0286 139.555 16.7734C 139.034 16.513 138.638 16.1719 138.367 15.75C 138.096 15.3281 137.961 14.8776 137.961 14.3984L 139.422 14.3984C 139.443 14.7734 139.552 15.0807 139.75 15.3203C 139.948 15.5547 140.193 15.724 140.484 15.8281C 140.781 15.9323 141.094 15.9844 141.422 15.9844C 141.802 15.9844 142.128 15.9323 142.398 15.8281C 142.674 15.7188 142.883 15.5729 143.023 15.3906C 143.164 15.2031 143.234 14.9922 143.234 14.7578C 143.234 14.5234 143.185 14.3203 143.086 14.1484C 142.987 13.9766 142.797 13.8177 142.516 13.6719C 142.234 13.526 141.828 13.3984 141.297 13.2891ZM 153.211 8.54688L 153.211 17L 151.82 17L 151.797 16.1641C 151.234 16.8255 150.409 17.1562 149.32 17.1562C 148.451 17.1562 147.771 16.901 147.281 16.3906C 146.792 15.8802 146.547 15.0833 146.547 14L 146.547 8.54688L 148.008 8.54688L 148.008 14.0156C 148.008 14.7188 148.151 15.2161 148.438 15.5078C 148.729 15.7943 149.102 15.9375 149.555 15.9375C 150.648 15.9375 151.38 15.5286 151.75 14.7109L 151.75 8.54688L 153.211 8.54688ZM 162.172 14.3281C 162.146 14.8229 161.977 15.2891 161.664 15.7266C 161.352 16.1589 160.94 16.5052 160.43 16.7656C 159.924 17.026 159.38 17.1562 158.797 17.1562C 157.979 17.1562 157.286 16.9688 156.719 16.5938C 156.156 16.2135 155.734 15.7057 155.453 15.0703C 155.172 14.4297 155.031 13.7188 155.031 12.9375L 155.031 12.6094C 155.031 11.8281 155.172 11.1198 155.453 10.4844C 155.734 9.84375 156.156 9.33594 156.719 8.96094C 157.286 8.58073 157.979 8.39062 158.797 8.39062C 159.443 8.39062 160.016 8.52344 160.516 8.78906C 161.021 9.05469 161.417 9.42188 161.703 9.89062C 161.99 10.3542 162.146 10.875 162.172 11.4531L 160.789 11.4531C 160.763 11.1042 160.664 10.7865 160.492 10.5C 160.32 10.2083 160.089 9.97917 159.797 9.8125C 159.505 9.64583 159.172 9.5625 158.797 9.5625C 158.24 9.5625 157.789 9.70833 157.445 10C 157.102 10.2865 156.857 10.6589 156.711 11.1172C 156.565 11.5703 156.492 12.0677 156.492 12.6094L 156.492 12.9375C 156.492 13.8021 156.669 14.526 157.023 15.1094C 157.383 15.6927 157.974 15.9844 158.797 15.9844C 159.135 15.9844 159.451 15.9141 159.742 15.7734C 160.039 15.6276 160.281 15.4297 160.469 15.1797C 160.656 14.9245 160.763 14.6406 160.789 14.3281L 162.172 14.3281ZM 170.562 14.3281C 170.536 14.8229 170.367 15.2891 170.055 15.7266C 169.742 16.1589 169.331 16.5052 168.82 16.7656C 168.315 17.026 167.771 17.1562 167.188 17.1562C 166.37 17.1562 165.677 16.9688 165.109 16.5938C 164.547 16.2135 164.125 15.7057 163.844 15.0703C 163.562 14.4297 163.422 13.7188 163.422 12.9375L 163.422 12.6094C 163.422 11.8281 163.562 11.1198 163.844 10.4844C 164.125 9.84375 164.547 9.33594 165.109 8.96094C 165.677 8.58073 166.37 8.39062 167.188 8.39062C 167.833 8.39062 168.406 8.52344 168.906 8.78906C 169.411 9.05469 169.807 9.42188 170.094 9.89062C 170.38 10.3542 170.536 10.875 170.562 11.4531L 169.18 11.4531C 169.154 11.1042 169.055 10.7865 168.883 10.5C 168.711 10.2083 168.479 9.97917 168.188 9.8125C 167.896 9.64583 167.562 9.5625 167.188 9.5625C 166.63 9.5625 166.18 9.70833 165.836 10C 165.492 10.2865 165.247 10.6589 165.102 11.1172C 164.956 11.5703 164.883 12.0677 164.883 12.6094L 164.883 12.9375C 164.883 13.8021 165.06 14.526 165.414 15.1094C 165.773 15.6927 166.365 15.9844 167.188 15.9844C 167.526 15.9844 167.841 15.9141 168.133 15.7734C 168.43 15.6276 168.672 15.4297 168.859 15.1797C 169.047 14.9245 169.154 14.6406 169.18 14.3281L 170.562 14.3281ZM 179 13.1719L 173.281 13.1719C 173.297 13.6979 173.406 14.1745 173.609 14.6016C 173.812 15.0286 174.099 15.3672 174.469 15.6172C 174.844 15.862 175.281 15.9844 175.781 15.9844C 176.271 15.9844 176.693 15.8854 177.047 15.6875C 177.406 15.4896 177.727 15.2057 178.008 14.8359L 178.891 15.5234C 178.578 16.0026 178.161 16.3958 177.641 16.7031C 177.12 17.0052 176.474 17.1562 175.703 17.1562C 174.932 17.1562 174.253 16.9818 173.664 16.6328C 173.076 16.2839 172.62 15.7995 172.297 15.1797C 171.979 14.5599 171.82 13.8568 171.82 13.0703L 171.82 12.7344C 171.82 11.8542 171.992 11.0859 172.336 10.4297C 172.68 9.76823 173.133 9.26302 173.695 8.91406C 174.263 8.5651 174.87 8.39062 175.516 8.39062C 176.302 8.39062 176.953 8.56771 177.469 8.92188C 177.99 9.27083 178.375 9.75521 178.625 10.375C 178.875 10.9948 179 11.7109 179 12.5234L 179 13.1719ZM 177.539 11.8906C 177.497 11.2292 177.318 10.6771 177 10.2344C 176.688 9.78646 176.193 9.5625 175.516 9.5625C 174.932 9.5625 174.445 9.77604 174.055 10.2031C 173.669 10.625 173.427 11.224 173.328 12L 177.539 12L 177.539 11.8906ZM 183.672 13.2891C 182.667 13.0807 181.906 12.7891 181.391 12.4141C 180.88 12.0391 180.625 11.5208 180.625 10.8594C 180.625 10.4115 180.755 10 181.016 9.625C 181.276 9.25 181.643 8.95052 182.117 8.72656C 182.596 8.5026 183.143 8.39062 183.758 8.39062C 184.414 8.39062 184.987 8.50781 185.477 8.74219C 185.966 8.97656 186.339 9.29427 186.594 9.69531C 186.854 10.0911 186.984 10.5339 186.984 11.0234L 185.523 11.0234C 185.523 10.7839 185.453 10.5521 185.312 10.3281C 185.172 10.1042 184.966 9.92188 184.695 9.78125C 184.43 9.63542 184.117 9.5625 183.758 9.5625C 183.378 9.5625 183.062 9.6224 182.812 9.74219C 182.562 9.85677 182.378 10.0104 182.258 10.2031C 182.143 10.3906 182.086 10.5938 182.086 10.8125C 182.086 11.0365 182.138 11.224 182.242 11.375C 182.352 11.5208 182.544 11.6536 182.82 11.7734C 183.102 11.8932 183.505 12.0104 184.031 12.125C 184.74 12.2865 185.315 12.4766 185.758 12.6953C 186.201 12.9141 186.529 13.1823 186.742 13.5C 186.961 13.8177 187.07 14.2031 187.07 14.6562C 187.07 15.1458 186.935 15.5807 186.664 15.9609C 186.393 16.3359 186.01 16.6302 185.516 16.8438C 185.021 17.0521 184.448 17.1562 183.797 17.1562C 183.078 17.1562 182.456 17.0286 181.93 16.7734C 181.409 16.513 181.013 16.1719 180.742 15.75C 180.471 15.3281 180.336 14.8776 180.336 14.3984L 181.797 14.3984C 181.818 14.7734 181.927 15.0807 182.125 15.3203C 182.323 15.5547 182.568 15.724 182.859 15.8281C 183.156 15.9323 183.469 15.9844 183.797 15.9844C 184.177 15.9844 184.503 15.9323 184.773 15.8281C 185.049 15.7188 185.258 15.5729 185.398 15.3906C 185.539 15.2031 185.609 14.9922 185.609 14.7578C 185.609 14.5234 185.56 14.3203 185.461 14.1484C 185.362 13.9766 185.172 13.8177 184.891 13.6719C 184.609 13.526 184.203 13.3984 183.672 13.2891ZM 191.938 13.2891C 190.932 13.0807 190.172 12.7891 189.656 12.4141C 189.146 12.0391 188.891 11.5208 188.891 10.8594C 188.891 10.4115 189.021 10 189.281 9.625C 189.542 9.25 189.909 8.95052 190.383 8.72656C 190.862 8.5026 191.409 8.39062 192.023 8.39062C 192.68 8.39062 193.253 8.50781 193.742 8.74219C 194.232 8.97656 194.604 9.29427 194.859 9.69531C 195.12 10.0911 195.25 10.5339 195.25 11.0234L 193.789 11.0234C 193.789 10.7839 193.719 10.5521 193.578 10.3281C 193.438 10.1042 193.232 9.92188 192.961 9.78125C 192.695 9.63542 192.383 9.5625 192.023 9.5625C 191.643 9.5625 191.328 9.6224 191.078 9.74219C 190.828 9.85677 190.643 10.0104 190.523 10.2031C 190.409 10.3906 190.352 10.5938 190.352 10.8125C 190.352 11.0365 190.404 11.224 190.508 11.375C 190.617 11.5208 190.81 11.6536 191.086 11.7734C 191.367 11.8932 191.771 12.0104 192.297 12.125C 193.005 12.2865 193.581 12.4766 194.023 12.6953C 194.466 12.9141 194.794 13.1823 195.008 13.5C 195.227 13.8177 195.336 14.2031 195.336 14.6562C 195.336 15.1458 195.201 15.5807 194.93 15.9609C 194.659 16.3359 194.276 16.6302 193.781 16.8438C 193.286 17.0521 192.714 17.1562 192.062 17.1562C 191.344 17.1562 190.721 17.0286 190.195 16.7734C 189.674 16.513 189.279 16.1719 189.008 15.75C 188.737 15.3281 188.602 14.8776 188.602 14.3984L 190.062 14.3984C 190.083 14.7734 190.193 15.0807 190.391 15.3203C 190.589 15.5547 190.833 15.724 191.125 15.8281C 191.422 15.9323 191.734 15.9844 192.062 15.9844C 192.443 15.9844 192.768 15.9323 193.039 15.8281C 193.315 15.7188 193.523 15.5729 193.664 15.3906C 193.805 15.2031 193.875 14.9922 193.875 14.7578C 193.875 14.5234 193.826 14.3203 193.727 14.1484C 193.628 13.9766 193.438 13.8177 193.156 13.6719C 192.875 13.526 192.469 13.3984 191.938 13.2891ZM 200.852 6.0625C 200.388 6.0625 200.029 6.20052 199.773 6.47656C 199.518 6.7474 199.391 7.13802 199.391 7.64844L 199.391 8.54688L 201.188 8.54688L 201.188 9.64844L 199.391 9.64844L 199.391 17L 197.93 17L 197.93 9.64844L 196.602 9.64844L 196.602 8.54688L 197.93 8.54688L 197.93 7.64844C 197.93 6.7474 198.174 6.05469 198.664 5.57031C 199.159 5.08073 199.844 4.83594 200.719 4.83594C 201.036 4.83594 201.367 4.8776 201.711 4.96094L 201.633 6.125C 201.398 6.08333 201.138 6.0625 200.852 6.0625ZM 209.414 8.54688L 209.414 17L 208.023 17L 208 16.1641C 207.438 16.8255 206.612 17.1562 205.523 17.1562C 204.654 17.1562 203.974 16.901 203.484 16.3906C 202.995 15.8802 202.75 15.0833 202.75 14L 202.75 8.54688L 204.211 8.54688L 204.211 14.0156C 204.211 14.7188 204.354 15.2161 204.641 15.5078C 204.932 15.7943 205.305 15.9375 205.758 15.9375C 206.852 15.9375 207.583 15.5286 207.953 14.7109L 207.953 8.54688L 209.414 8.54688ZM 211.734 17L 211.734 5L 213.195 5L 213.195 17L 211.734 17ZM 215.625 17L 215.625 5L 217.086 5L 217.086 17L 215.625 17ZM 225.672 8.54688L 222.281 18.3047C 222.073 18.8724 221.771 19.3646 221.375 19.7812C 220.984 20.2031 220.451 20.4141 219.773 20.4141C 219.664 20.4141 219.521 20.3984 219.344 20.3672C 219.172 20.3411 219.042 20.3151 218.953 20.2891L 218.953 19.125C 219.01 19.1354 219.076 19.1432 219.148 19.1484C 219.221 19.1589 219.286 19.1641 219.344 19.1641C 219.839 19.1641 220.221 19.0599 220.492 18.8516C 220.768 18.6484 220.992 18.2891 221.164 17.7734L 221.484 16.9062L 218.469 8.54688L 220.062 8.54688L 222.156 14.875L 224.117 8.54688L 225.672 8.54688ZM 237.703 14.3281C 237.677 14.8229 237.508 15.2891 237.195 15.7266C 236.883 16.1589 236.471 16.5052 235.961 16.7656C 235.456 17.026 234.911 17.1562 234.328 17.1562C 233.51 17.1562 232.818 16.9688 232.25 16.5938C 231.688 16.2135 231.266 15.7057 230.984 15.0703C 230.703 14.4297 230.562 13.7188 230.562 12.9375L 230.562 12.6094C 230.562 11.8281 230.703 11.1198 230.984 10.4844C 231.266 9.84375 231.688 9.33594 232.25 8.96094C 232.818 8.58073 233.51 8.39062 234.328 8.39062C 234.974 8.39062 235.547 8.52344 236.047 8.78906C 236.552 9.05469 236.948 9.42188 237.234 9.89062C 237.521 10.3542 237.677 10.875 237.703 11.4531L 236.32 11.4531C 236.294 11.1042 236.195 10.7865 236.023 10.5C 235.852 10.2083 235.62 9.97917 235.328 9.8125C 235.036 9.64583 234.703 9.5625 234.328 9.5625C 233.771 9.5625 233.32 9.70833 232.977 10C 232.633 10.2865 232.388 10.6589 232.242 11.1172C 232.096 11.5703 232.023 12.0677 232.023 12.6094L 232.023 12.9375C 232.023 13.8021 232.201 14.526 232.555 15.1094C 232.914 15.6927 233.505 15.9844 234.328 15.9844C 234.667 15.9844 234.982 15.9141 235.273 15.7734C 235.57 15.6276 235.812 15.4297 236 15.1797C 236.188 14.9245 236.294 14.6406 236.32 14.3281L 237.703 14.3281ZM 238.953 12.6875C 238.953 11.8698 239.109 11.1354 239.422 10.4844C 239.734 9.83333 240.18 9.32292 240.758 8.95312C 241.341 8.57812 242.018 8.39062 242.789 8.39062C 243.57 8.39062 244.253 8.57812 244.836 8.95312C 245.419 9.32292 245.867 9.83333 246.18 10.4844C 246.492 11.1354 246.648 11.8698 246.648 12.6875L 246.648 12.8672C 246.648 13.6849 246.492 14.4193 246.18 15.0703C 245.867 15.7161 245.419 16.2266 244.836 16.6016C 244.258 16.9714 243.581 17.1562 242.805 17.1562C 242.029 17.1562 241.349 16.9714 240.766 16.6016C 240.188 16.2266 239.74 15.7161 239.422 15.0703C 239.109 14.4193 238.953 13.6849 238.953 12.8672L 238.953 12.6875ZM 240.414 12.8672C 240.414 13.4401 240.503 13.9635 240.68 14.4375C 240.862 14.9115 241.133 15.2891 241.492 15.5703C 241.852 15.8464 242.289 15.9844 242.805 15.9844C 243.315 15.9844 243.75 15.8464 244.109 15.5703C 244.469 15.2891 244.737 14.9115 244.914 14.4375C 245.096 13.9635 245.188 13.4401 245.188 12.8672L 245.188 12.6875C 245.188 12.1146 245.096 11.5911 244.914 11.1172C 244.732 10.6432 244.461 10.2656 244.102 9.98438C 243.742 9.70312 243.305 9.5625 242.789 9.5625C 242.279 9.5625 241.844 9.70312 241.484 9.98438C 241.13 10.2656 240.862 10.6432 240.68 11.1172C 240.503 11.5911 240.414 12.1146 240.414 12.6875L 240.414 12.8672ZM 257.484 8.39062C 258.411 8.39062 259.115 8.63802 259.594 9.13281C 260.073 9.6276 260.312 10.3984 260.312 11.4453L 260.312 17L 258.852 17L 258.852 11.4297C 258.852 10.7578 258.698 10.2865 258.391 10.0156C 258.089 9.73958 257.643 9.60156 257.055 9.60156C 256.68 9.60156 256.352 9.68229 256.07 9.84375C 255.789 10 255.568 10.2135 255.406 10.4844C 255.25 10.7552 255.154 11.0599 255.117 11.3984L 255.117 17L 253.656 17L 253.656 11.4375C 253.656 10.2135 253.055 9.60156 251.852 9.60156C 251.367 9.60156 250.966 9.70833 250.648 9.92188C 250.331 10.1302 250.089 10.4219 249.922 10.7969L 249.922 17L 248.461 17L 248.461 8.54688L 249.844 8.54688L 249.891 9.46094C 250.182 9.11719 250.536 8.85417 250.953 8.67188C 251.37 8.48438 251.846 8.39062 252.383 8.39062C 252.94 8.39062 253.427 8.5026 253.844 8.72656C 254.266 8.94531 254.583 9.28125 254.797 9.73438C 255.089 9.31771 255.461 8.98958 255.914 8.75C 256.372 8.51042 256.896 8.39062 257.484 8.39062ZM 266.352 8.39062C 267.049 8.39062 267.646 8.57031 268.141 8.92969C 268.635 9.28385 269.01 9.78646 269.266 10.4375C 269.521 11.0833 269.648 11.8385 269.648 12.7031L 269.648 12.8672C 269.648 13.6953 269.518 14.4349 269.258 15.0859C 269.003 15.7318 268.628 16.2396 268.133 16.6094C 267.643 16.974 267.057 17.1562 266.375 17.1562C 265.354 17.1562 264.549 16.8333 263.961 16.1875L 263.961 20.25L 262.5 20.25L 262.5 8.54688L 263.828 8.54688L 263.906 9.46875C 264.495 8.75 265.31 8.39062 266.352 8.39062ZM 268.188 12.7031C 268.188 12.1198 268.104 11.5964 267.938 11.1328C 267.776 10.6641 267.523 10.2917 267.18 10.0156C 266.841 9.73958 266.419 9.60156 265.914 9.60156C 265.456 9.60156 265.065 9.70573 264.742 9.91406C 264.419 10.1224 264.159 10.4062 263.961 10.7656L 263.961 14.8359C 264.393 15.6016 265.049 15.9844 265.93 15.9844C 266.43 15.9844 266.849 15.8464 267.188 15.5703C 267.526 15.2891 267.776 14.9141 267.938 14.4453C 268.104 13.9766 268.188 13.4505 268.188 12.8672L 268.188 12.7031ZM 271.609 17L 271.609 5L 273.07 5L 273.07 17L 271.609 17ZM 282.188 13.1719L 276.469 13.1719C 276.484 13.6979 276.594 14.1745 276.797 14.6016C 277 15.0286 277.286 15.3672 277.656 15.6172C 278.031 15.862 278.469 15.9844 278.969 15.9844C 279.458 15.9844 279.88 15.8854 280.234 15.6875C 280.594 15.4896 280.914 15.2057 281.195 14.8359L 282.078 15.5234C 281.766 16.0026 281.349 16.3958 280.828 16.7031C 280.307 17.0052 279.661 17.1562 278.891 17.1562C 278.12 17.1562 277.44 16.9818 276.852 16.6328C 276.263 16.2839 275.807 15.7995 275.484 15.1797C 275.167 14.5599 275.008 13.8568 275.008 13.0703L 275.008 12.7344C 275.008 11.8542 275.18 11.0859 275.523 10.4297C 275.867 9.76823 276.32 9.26302 276.883 8.91406C 277.451 8.5651 278.057 8.39062 278.703 8.39062C 279.49 8.39062 280.141 8.56771 280.656 8.92188C 281.177 9.27083 281.562 9.75521 281.812 10.375C 282.062 10.9948 282.188 11.7109 282.188 12.5234L 282.188 13.1719ZM 280.727 11.8906C 280.685 11.2292 280.505 10.6771 280.188 10.2344C 279.875 9.78646 279.38 9.5625 278.703 9.5625C 278.12 9.5625 277.633 9.77604 277.242 10.2031C 276.857 10.625 276.615 11.224 276.516 12L 280.727 12L 280.727 11.8906ZM 287.461 17C 287.128 17.1042 286.755 17.1562 286.344 17.1562C 285.755 17.1562 285.281 16.9792 284.922 16.625C 284.568 16.2708 284.391 15.6953 284.391 14.8984L 284.391 9.64844L 282.852 9.64844L 282.852 8.54688L 284.391 8.54688L 284.391 6.49219L 285.852 6.49219L 285.852 8.54688L 287.43 8.54688L 287.43 9.64844L 285.852 9.64844L 285.852 14.9062C 285.852 15.3073 285.935 15.5781 286.102 15.7188C 286.268 15.8542 286.495 15.9219 286.781 15.9219C 286.891 15.9219 287.01 15.9141 287.141 15.8984C 287.271 15.8776 287.375 15.8568 287.453 15.8359L 287.461 17ZM 295.922 13.1719L 290.203 13.1719C 290.219 13.6979 290.328 14.1745 290.531 14.6016C 290.734 15.0286 291.021 15.3672 291.391 15.6172C 291.766 15.862 292.203 15.9844 292.703 15.9844C 293.193 15.9844 293.615 15.8854 293.969 15.6875C 294.328 15.4896 294.648 15.2057 294.93 14.8359L 295.812 15.5234C 295.5 16.0026 295.083 16.3958 294.562 16.7031C 294.042 17.0052 293.396 17.1562 292.625 17.1562C 291.854 17.1562 291.174 16.9818 290.586 16.6328C 289.997 16.2839 289.542 15.7995 289.219 15.1797C 288.901 14.5599 288.742 13.8568 288.742 13.0703L 288.742 12.7344C 288.742 11.8542 288.914 11.0859 289.258 10.4297C 289.602 9.76823 290.055 9.26302 290.617 8.91406C 291.185 8.5651 291.792 8.39062 292.438 8.39062C 293.224 8.39062 293.875 8.56771 294.391 8.92188C 294.911 9.27083 295.297 9.75521 295.547 10.375C 295.797 10.9948 295.922 11.7109 295.922 12.5234L 295.922 13.1719ZM 294.461 11.8906C 294.419 11.2292 294.24 10.6771 293.922 10.2344C 293.609 9.78646 293.115 9.5625 292.438 9.5625C 291.854 9.5625 291.367 9.77604 290.977 10.2031C 290.591 10.625 290.349 11.224 290.25 12L 294.461 12L 294.461 11.8906ZM 304.398 5L 304.398 17L 303.062 17L 302.992 16.1016C 302.419 16.8047 301.617 17.1562 300.586 17.1562C 299.935 17.1562 299.357 16.9714 298.852 16.6016C 298.346 16.2318 297.953 15.7214 297.672 15.0703C 297.396 14.4193 297.258 13.6849 297.258 12.8672L 297.258 12.7031C 297.258 11.849 297.396 11.0964 297.672 10.4453C 297.948 9.79427 298.339 9.28906 298.844 8.92969C 299.349 8.57031 299.935 8.39062 300.602 8.39062C 301.596 8.39062 302.375 8.72135 302.938 9.38281L 302.938 5L 304.398 5ZM 300.945 15.9375C 301.846 15.9375 302.51 15.5286 302.938 14.7109L 302.938 10.7969C 302.74 10.4271 302.477 10.1354 302.148 9.92188C 301.826 9.70833 301.43 9.60156 300.961 9.60156C 300.456 9.60156 300.034 9.73958 299.695 10.0156C 299.362 10.2865 299.115 10.6562 298.953 11.125C 298.797 11.5938 298.719 12.1198 298.719 12.7031L 298.719 12.8672C 298.719 13.4505 298.797 13.974 298.953 14.4375C 299.115 14.8958 299.362 15.2604 299.695 15.5312C 300.029 15.8021 300.445 15.9375 300.945 15.9375ZM 307.57 15.3672C 307.857 15.3672 308.078 15.4505 308.234 15.6172C 308.396 15.7786 308.477 15.987 308.477 16.2422C 308.477 16.4922 308.396 16.6953 308.234 16.8516C 308.078 17.0078 307.857 17.0859 307.57 17.0859C 307.289 17.0859 307.068 17.0078 306.906 16.8516C 306.75 16.6901 306.672 16.487 306.672 16.2422C 306.672 15.987 306.75 15.7786 306.906 15.6172C 307.068 15.4505 307.289 15.3672 307.57 15.3672Z" />
    <path
       id="path1_fill"
       d="M 124 62C 124 96.2417 96.2417 124 62 124C 27.7583 124 0 96.2417 0 62C 0 27.7583 27.7583 0 62 0C 96.2417 0 124 27.7583 124 62Z" />
    <path
       id="path2_stroke"
       d="M 12.3588 23L 9.71377 25.2921L 11.9604 27.8847L 14.5975 25.6904L 12.3588 23ZM -2.64503 11.0304L 9.71377 25.2921L 15.0038 20.7079L 2.64503 6.4462L -2.64503 11.0304ZM 14.5975 25.6904L 42.2387 2.69042L 37.7613 -2.69042L 10.1201 20.3096L 14.5975 25.6904Z" />
  </defs>
</svg>
