<svg width="18" height="8" viewBox="0 0 18 8" version="1.1" xmlns="http://www.w3.org/2000/svg" xmlns:xlink="http://www.w3.org/1999/xlink">
<title>i_usb_connection_on</title>
<desc>Created using Figma</desc>
<g id="Canvas" transform="translate(2251 254)">
<g id="i_usb_connection_on">
<g id="Rectangle">
<use xlink:href="#path0_fill" transform="translate(-2251 -254)" fill="#2CC958"/>
</g>
<g id="Rectangle">
<use xlink:href="#path1_fill" transform="translate(-2239 -253)" fill="#FFFFFF"/>
</g>
<g id="Union">
<use xlink:href="#path2_fill" transform="translate(-2236 -252)" fill="#0F1012"/>
</g>
</g>
</g>
<defs>
<path id="path0_fill" d="M 0 1C 0 0.447715 0.447715 0 1 0L 11 0C 11.5523 0 12 0.447715 12 1L 12 7C 12 7.55228 11.5523 8 11 8L 1 8C 0.447715 8 0 7.55228 0 7L 0 1Z"/>
<path id="path1_fill" d="M 0 0L 6 0L 6 6L 0 6L 0 0Z"/>
<path id="path2_fill" fill-rule="evenodd" d="M 2 0L 0 0L 0 1L 2 1L 2 0ZM 2 3L 0 3L 0 4L 2 4L 2 3Z"/>
</defs>
</svg>
