<svg xmlns="http://www.w3.org/2000/svg" xmlns:xlink="http://www.w3.org/1999/xlink" viewBox="0 0 106.512 106.512">
  <defs>
    <style>
      .cls-1 {
        opacity: 0.8;
      }

      .cls-2, .cls-3 {
        fill: url(#linear-gradient);
      }

      .cls-3 {
        stroke: rgba(0,0,0,0);
      }
    </style>
    <linearGradient id="linear-gradient" x1="0.201" x2="0.827" y2="0.914" gradientUnits="objectBoundingBox">
      <stop offset="0" stop-color="#00cca3"/>
      <stop offset="0" stop-color="#fff"/>
      <stop offset="1" stop-color="#848484"/>
    </linearGradient>
  </defs>
  <g id="Group_1162" data-name="Group 1162" class="cls-1" transform="translate(0)">
    <path id="Subtraction_24" data-name="Subtraction 24" class="cls-2" d="M53.256,106.512a53,53,0,0,1-29.776-9.1,53.408,53.408,0,0,1-19.3-23.431A53.187,53.187,0,0,1,9.1,23.48,53.416,53.416,0,0,1,32.526,4.185,53.185,53.185,0,0,1,83.032,9.1a53.408,53.408,0,0,1,19.3,23.431,53.187,53.187,0,0,1-4.91,50.506,53.416,53.416,0,0,1-23.431,19.295A52.923,52.923,0,0,1,53.256,106.512Zm0-104.114a50.858,50.858,0,1,0,50.858,50.858A50.916,50.916,0,0,0,53.255,2.4Z" transform="translate(0)"/>
    <g id="Group_365" data-name="Group 365" transform="translate(35.932 26.124)">
      <g id="eth" transform="translate(0 0)">
        <path id="Union_1" data-name="Union 1" class="cls-3" d="M17.8,37.726a5.13,5.13,0,0,1-.732-.431L.365,27.972a.289.289,0,0,0-.183-.087c.913-.431,1.825-.776,2.739-1.209l3.559-1.554c.212-.1.424-.2.635-.288l-2.278.979c-.821.345-1.641.691-2.556,1.123-.638.258-1.369.6-2.007.863a.18.18,0,0,0-.092.032v0c-.023.011-.045.011-.09-.032H0c.275-.432.548-.778.822-1.209,1.459-2.332,3.012-4.662,4.473-6.993,1.551-2.5,3.194-5.008,4.745-7.511,1.46-2.331,2.921-4.662,4.382-6.907,1.1-1.725,2.191-3.367,3.2-5.093C17.8.086,17.8,0,17.891,0V20.115a.143.143,0,0,1-.011.053l.011-.01V.086L35.416,27.539c.092.087.182.173.182.26-.365-.173-.73-.345-1.187-.518s-.913-.432-1.369-.605c-.218-.068-.437-.192-.7-.284.393.169.785.347,1.158.543.64.258,1.278.6,2.01.863,0-.087,0,0,.091,0-1.37.863-2.829,1.64-4.2,2.418-4.472,2.5-8.854,4.921-13.326,7.424a.122.122,0,0,0-.091.043v.043a.106.106,0,0,1-.068.039C17.881,37.765,17.86,37.726,17.8,37.726ZM15.882,21.064c.455-.184.911-.369,1.367-.585C16.793,20.674,16.364,20.87,15.882,21.064ZM17.891,0Z"/>
        <path id="Union_2" data-name="Union 2" class="cls-3" d="M17.8,23.482V9.841c1.186-.691,2.372-1.381,3.559-1.985L35.326.086c0-.086.091-.086.091-.086,0,.086,0,.086-.091.173C30.031,7.251,24.736,14.244,19.442,21.324c-.548.776-1.094,1.467-1.642,2.245Zm0,.087c-.092,0-.092,0-.182-.087-1.827-2.417-3.562-4.748-5.387-7.166s-3.65-4.835-5.476-7.251C5.02,6.733,3.2,4.4,1.46,1.985L.092.173C.092.086,0,.086,0,0,.092,0,.092.086.182.086,2.648,1.467,5.2,2.849,7.668,4.23c2.829,1.64,5.751,3.194,8.58,4.835.456.258,1,.518,1.461.776.092,0,.092.087.092.173V23.569Zm0,0Z" transform="translate(0.091 31.079)"/>
        <path id="Shape" class="cls-2" d="M0,0Z" transform="translate(0.091 27.798)"/>
      </g>
    </g>
  </g>
</svg>
