<svg xmlns="http://www.w3.org/2000/svg" xmlns:xlink="http://www.w3.org/1999/xlink" viewBox="0 0 106.512 106.512">
  <defs>
    <style>
      .cls-1 {
        opacity: 0.8;
      }

      .cls-2 {
        fill: url(#linear-gradient);
      }
    </style>
    <linearGradient id="linear-gradient" x1="0.201" x2="0.827" y2="0.914" gradientUnits="objectBoundingBox">
      <stop offset="0" stop-color="#00cca3"/>
      <stop offset="0" stop-color="#fff"/>
      <stop offset="1" stop-color="#848484"/>
    </linearGradient>
  </defs>
  <g id="Group_1126" data-name="Group 1126" class="cls-1" transform="translate(0)">
    <path id="Subtraction_23" data-name="Subtraction 23" class="cls-2" d="M53.256,106.512a53,53,0,0,1-29.776-9.1,53.408,53.408,0,0,1-19.3-23.431A53.187,53.187,0,0,1,9.1,23.48a53.416,53.416,0,0,1,23.431-19.3A53.185,53.185,0,0,1,83.032,9.1a53.408,53.408,0,0,1,19.3,23.431,53.187,53.187,0,0,1-4.91,50.506,53.416,53.416,0,0,1-23.431,19.3A52.923,52.923,0,0,1,53.256,106.512Zm0-104.115a50.858,50.858,0,1,0,50.858,50.858A50.916,50.916,0,0,0,53.255,2.4Z" transform="translate(0 0)"/>
    <g id="Group_646" data-name="Group 646" transform="translate(30.608 29.892)">
      <path id="Shape" class="cls-2" d="M20.609,37.645c8.5.149,16.833.3,25.328.6a31.93,31.93,0,0,0-.787,3.273,44.615,44.615,0,0,0-1.259,4.315c-.157.744-.472.893-1.259.893H2.045C3.461,41.514,4.877,36.6,6.293,31.4,4.09,32.14,2.2,32.884,0,33.776c.629-2.232,1.259-4.166,2.045-6.249,0-.3.472-.446.787-.446,1.416-.6,2.989-1.042,4.4-1.637A1.3,1.3,0,0,0,8.181,24.4L14.788,1.19C14.945.3,15.26,0,16.361,0H30.677c-1.731,6.1-3.3,12.2-5.034,18.6,2.517-1.042,4.877-1.934,7.551-2.827-.315,1.19-.787,2.232-.944,3.273-.315,2.381-1.731,3.72-4.248,4.315a29.387,29.387,0,0,0-3.3,1.19,2.643,2.643,0,0,0-.944.893c-1.1,4.017-2.2,7.886-3.146,11.9Z" transform="translate(0 0)"/>
    </g>
  </g>
</svg>
