<svg xmlns="http://www.w3.org/2000/svg" xmlns:xlink="http://www.w3.org/1999/xlink" viewBox="0 0 106 106
">
<path d="M32.7734 102.572C26.4483 99.8916 20.6992 96.0158 15.8428 91.157C13.4313 88.7415 11.2549 86.1023 9.34277 83.275C3.40399 74.4803 0.231445 64.1106 0.231445 53.4985C0.231445 42.8864 3.40399 32.5167 9.34277 23.722C13.1741 18.0515 18.058 13.1683 23.7285 9.33699C32.5229 3.39717 42.8925 0.223267 53.5049 0.223267C64.1172 0.223267 74.4869 3.39717 83.2812 9.33699C88.9517 13.1683 93.8347 18.0515 97.666 23.722C103.605 32.5167 106.778 42.8864 106.778 53.4985C106.778 64.1106 103.605 74.4803 97.666 83.275C91.8851 91.838 83.7464 98.5419 74.2344 102.575C67.6721 105.336 60.6241 106.757 53.5049 106.757C46.3857 106.757 39.3386 105.336 32.7764 102.575L32.7734 102.572ZM53.5 104.358C62.4125 104.354 71.1679 102.009 78.8896 97.5584C86.6114 93.1079 93.0286 86.7076 97.5 78.998H75.5996V52.098L53.7002 73.998L31.7998 52.098V78.998H9.50781C13.9783 86.7067 20.395 93.1064 28.1152 97.5569C35.8355 102.007 44.5888 104.353 53.5 104.358ZM85.5996 68.999H101.949C104.386 61.3736 104.988 53.2808 103.707 45.3787C102.426 37.4767 99.2982 29.9886 94.5771 23.5237C89.8561 17.0588 83.6752 11.7996 76.5381 8.17398C69.401 4.54834 61.5091 2.65866 53.5039 2.65866C45.4987 2.65866 37.6059 4.54834 30.4688 8.17398C23.3316 11.7996 17.1517 17.0588 12.4307 23.5237C7.70961 29.9886 4.58087 37.4767 3.2998 45.3787C2.01874 53.2808 2.62085 61.3736 5.05762 68.999H21.8018V27.999L53.7021 59.899L85.6025 27.999L85.5996 68.999Z" fill="url(#paint0_linear)"/>
<defs>
<linearGradient id="paint0_linear" x1="21.6474" y1="0.223269" x2="88.3349" y2="97.6029" gradientUnits="userSpaceOnUse">
<stop stop-color="white"/>
<stop offset="1" stop-color="#848484"/>
</linearGradient>
</defs>
</svg>
