<svg viewBox="0 0 107 107" fill="none" xmlns="http://www.w3.org/2000/svg">
<path d="M53.277 106.531C42.6644 106.548 32.2914 103.378 23.501 97.4315C14.9367 91.6523 8.23253 83.5132 4.20098 74.0005C0.749318 65.8392 -0.60858 56.9449 0.250641 48.1255C1.10986 39.306 4.15897 30.841 9.12098 23.4995C14.8998 14.9381 23.037 8.23588 32.547 4.20447C40.7085 0.751021 49.6036 -0.608282 58.424 0.250077C67.2444 1.10844 75.7105 4.15725 83.053 9.11947C91.6172 14.8986 98.3214 23.0378 102.353 32.5505C105.807 40.7116 107.167 49.6064 106.31 58.4268C105.452 67.2471 102.404 75.7134 97.443 83.0565C91.6628 91.6186 83.5238 98.3209 74.012 102.351C67.452 105.126 60.3995 106.548 53.277 106.531ZM53.277 2.41747C43.2182 2.41747 33.3853 5.40024 25.0218 10.9886C16.6582 16.5769 10.1396 24.5199 6.29032 33.813C2.44099 43.106 1.43384 53.3319 3.3962 63.1974C5.35857 73.0629 10.2023 82.1249 17.3149 89.2375C24.4276 96.3501 33.4896 101.194 43.3551 103.156C53.2206 105.119 63.4464 104.111 72.7395 100.262C82.0326 96.4128 89.9755 89.8942 95.5639 81.5307C101.152 73.1671 104.135 63.3342 104.135 53.2755C104.119 39.792 98.7556 26.8653 89.221 17.3313C79.6864 7.79733 66.7595 2.43456 53.276 2.41947L53.277 2.41747Z" fill="url(#paint0_linear)"/>
<path fill-rule="evenodd" clip-rule="evenodd" d="M66.9723 40.0313C66.2775 39.3126 65.4083 39.0078 64.252 39C63.1746 39.0203 62.1437 39.4646 61.4645 40.5471C60.9428 41.378 60.8236 42.2955 61.0104 43.251C61.1956 44.1967 61.6802 44.9545 62.5103 45.4574C63.3403 45.9603 64.2426 46.0643 65.1832 45.8923C65.9383 45.754 66.5784 45.4 67.0786 44.8138C67.7421 44.0345 67.9575 43.1142 67.8793 42.1197C67.8164 41.3268 67.5327 40.6116 66.9723 40.0313ZM16.6903 62.1689C16.4422 62.3835 16.1932 62.5988 16 62.877C16.0257 62.8656 16.0516 62.8548 16.0774 62.844L16.0775 62.844L16.0775 62.844C16.1047 62.8327 16.1318 62.8214 16.1587 62.8094L16.8607 62.4985L16.8614 62.4982C17.7517 62.1041 18.642 61.71 19.5296 61.3103C19.6902 61.238 19.7438 61.2595 19.7993 61.4307C20.335 63.0946 21.2921 64.469 22.6845 65.5293C24.6923 67.0584 27.0078 67.7106 29.4893 67.8474C30.4061 67.893 31.3251 67.8591 32.2361 67.7462C33.8363 67.5559 35.3951 67.1079 36.8521 66.4195C37.7528 65.9944 38.6272 65.5156 39.4704 64.9857C39.486 64.976 39.5022 64.9636 39.5189 64.951L39.5189 64.951C39.5747 64.9088 39.6352 64.8629 39.6908 64.8981C39.7446 64.9322 39.7367 65.0023 39.7292 65.0696C39.7266 65.0928 39.724 65.1156 39.724 65.1365V66.9513C39.7244 67.2304 39.7252 67.2304 40.0101 67.2304H46.1998H46.3366C46.4315 67.2304 46.4827 67.185 46.4827 67.0881C46.4829 67.0563 46.4834 67.0246 46.4839 66.9928C46.4845 66.953 46.4851 66.9133 46.4851 66.8736C46.4911 63.1142 46.4899 59.3545 46.4816 55.5946C46.4816 54.7095 46.8981 54.0303 47.5261 53.482C48.1541 52.9337 48.9271 52.8173 49.7267 52.8837C50.6079 52.9568 51.2738 53.3886 51.6806 54.1839C51.928 54.6677 52.0269 55.1909 52.0269 55.731V66.9318C52.0269 67.2315 52.0273 67.2315 52.3309 67.2315H58.4804H58.6367C58.7312 67.2315 58.784 67.1878 58.784 67.0905C58.7863 67.0253 58.7863 66.9605 58.7863 66.8954V66.8951C58.7879 62.537 58.7879 58.1789 58.7863 53.8208C58.7863 53.2681 58.734 52.7165 58.63 52.1736C58.3858 50.8919 57.8676 49.741 56.9535 48.7964C55.7366 47.5408 54.2083 47.0012 52.4931 46.9375C51.5884 46.9029 50.6826 46.9685 49.7923 47.1329C48.5879 47.3568 47.3812 47.5956 46.5066 48.5846C46.4744 48.5299 46.4786 48.4718 46.4827 48.4149C46.4841 48.3959 46.4855 48.377 46.4855 48.3584V40.9627C46.4855 40.6821 46.4839 40.6821 46.2006 40.6821H40.0077C39.7221 40.6821 39.7221 40.6829 39.7221 40.9615C39.7244 45.0401 39.7231 49.1185 39.7182 53.1967C39.7182 53.387 39.778 53.4898 39.9526 53.568C40.8061 53.9431 41.6155 54.4031 42.4146 54.881C42.6299 55.0092 42.6311 55.0127 42.4928 55.2144C41.7605 56.2747 40.9377 57.2694 40.0335 58.1875C39.1953 59.0449 38.2934 59.8288 37.2968 60.5076C35.7294 61.5753 34.0459 62.3318 32.1232 62.4741C30.8609 62.5675 29.6374 62.4287 28.483 61.8937C27.1633 61.2822 26.2969 60.288 26.0007 58.8362C25.9686 58.6717 26.0163 58.5916 26.157 58.5099C26.8657 58.098 27.611 57.7646 28.3576 57.4308L28.3577 57.4307L28.5955 57.3242C30.7937 56.3387 33.09 55.6814 35.4504 55.2304C35.4696 55.2267 35.489 55.2236 35.5089 55.2204L35.5089 55.2204C35.5915 55.2072 35.6807 55.193 35.7884 55.13C32.4163 54.8619 29.1911 55.2499 26.1066 56.5884C26.0793 56.5142 26.1001 56.4557 26.1199 56.3998C26.1237 56.3891 26.1274 56.3786 26.1308 56.368C26.7616 54.4023 28.0523 53.0248 29.9324 52.2159C31.376 51.5953 32.8985 51.5937 34.4265 51.8004C35.3964 51.9317 36.3382 52.1901 37.2695 52.4878C37.4942 52.5597 37.5016 52.5515 37.5016 52.3198C37.5018 51.9314 37.5017 51.543 37.5016 51.1546C37.5014 50.2225 37.5011 49.2904 37.5055 48.3584C37.5079 48.1798 37.4375 48.1059 37.2734 48.0625C36.9894 47.9881 36.7073 47.9078 36.4252 47.8275C36.238 47.7743 36.0509 47.721 35.863 47.6694C33.7723 47.0946 31.6472 46.8171 29.4736 46.9633C28.2908 47.0368 27.12 47.2429 25.9831 47.5776C24.5602 48.0028 23.2652 48.6667 22.1827 49.698C21.0365 50.7903 20.3167 52.1381 19.8825 53.6473C19.5915 54.6807 19.419 55.7438 19.3682 56.8162C19.3135 57.8499 19.2869 58.8819 19.4464 59.9093C19.4651 60.032 19.41 60.1016 19.3139 60.1649C18.4234 60.7535 17.5728 61.4005 16.7679 62.1016L16.6903 62.1689ZM90 66.9351V61.9791C90 61.3247 89.9996 60.6703 89.9991 60.0157V60.015C89.9986 59.1405 89.998 58.2656 89.9984 57.3897C89.9999 57.0777 89.9822 56.7659 89.9453 56.4561C89.7624 54.9477 89.3192 53.5185 88.5807 52.1899C87.4876 50.2214 85.9119 48.7872 83.824 47.9213C82.446 47.3495 80.9966 47.1369 79.5222 47.0498C77.8652 46.9517 76.2649 47.2003 74.7369 47.8665C73.5857 48.3687 72.5868 49.0788 71.7705 50.0374C70.8451 51.1246 70.2679 52.3888 69.9072 53.7565C69.4894 55.3408 69.3749 56.9575 69.4015 58.5894C69.4151 59.4941 69.5406 60.3936 69.7751 61.2675C70.441 63.7424 71.9467 65.5419 74.2199 66.6995C75.5041 67.354 76.8765 67.7054 78.315 67.8273C79.7429 67.9484 81.1045 67.7386 82.3941 67.1078C82.7652 66.9332 83.1229 66.7316 83.4644 66.5045C83.5817 66.424 83.6258 66.4505 83.6208 66.5885C83.6181 66.6708 83.619 66.7531 83.6199 66.8355C83.6203 66.8766 83.6208 66.9178 83.6208 66.9589C83.6227 67.2298 83.6247 67.2325 83.8943 67.2325H89.7139C90 67.2325 90 67.2317 90 66.9351ZM74.8405 57.6144C74.8411 57.5623 74.8417 57.5102 74.8417 57.4581C74.8186 56.444 75.0109 55.478 75.5228 54.5959C76.2344 53.3782 77.3322 52.7006 78.6835 52.4122C79.6253 52.2113 80.5695 52.1848 81.4882 52.547C82.8071 53.0668 83.6708 54.0375 84.2101 55.3216C84.4911 55.9893 84.6326 56.7075 84.6259 57.4319C84.6149 59.0451 84.0831 60.4566 82.8673 61.5567C82.0951 62.2554 81.1838 62.6431 80.1255 62.6685C79.011 62.6954 77.9617 62.4696 77.0121 61.8791C75.7221 61.0772 75.0761 59.8681 74.8807 58.3925C74.8616 58.2397 74.8467 58.0833 74.8417 57.927C74.8383 57.8228 74.8394 57.7186 74.8405 57.6144ZM61.0081 57.4334V47.9493C61.0081 47.793 61.0081 47.7148 61.0472 47.6757C61.0863 47.6367 61.1644 47.6367 61.3208 47.6367H67.4518C67.7692 47.6367 67.7719 47.639 67.7719 47.9493V66.9334C67.7719 67.232 67.7719 67.2328 67.4667 67.2328H61.3352C61.0101 67.2328 61.0101 67.2328 61.0101 66.8967L61.0081 57.4334Z" fill="url(#paint1_linear)"/>
<defs>
<linearGradient id="paint0_linear" x1="21.4184" y1="2.05156e-06" x2="88.1009" y2="97.3859" gradientUnits="userSpaceOnUse">
<stop stop-color="white"/>
<stop offset="1" stop-color="#848484"/>
</linearGradient>
<linearGradient id="paint1_linear" x1="21.328" y1="49.3633" x2="52.4599" y2="119.183" gradientUnits="userSpaceOnUse">
<stop stop-color="white"/>
<stop offset="0.326" stop-color="#888888"/>
<stop offset="0.552" stop-color="#636363"/>
<stop offset="1" stop-color="#161616"/>
</linearGradient>
</defs>
</svg>
