<svg xmlns="http://www.w3.org/2000/svg" xmlns:xlink="http://www.w3.org/1999/xlink" viewBox="0 0 106.512 106.512">
  <defs>
    <style>
      .cls-1 {
        opacity: 0.8;
      }

      .cls-2 {
        fill: url(#linear-gradient);
      }
    </style>
    <linearGradient id="linear-gradient" x1="0.5" x2="0.5" y2="1" gradientUnits="objectBoundingBox">
      <stop offset="0" stop-color="#fff"/>
      <stop offset="1" stop-color="#848484"/>
    </linearGradient>
  </defs>
  <g id="Group_1715" data-name="Group 1715" class="cls-1">
    <path id="Shape" class="cls-2" d="M25.763,64.611a1.9,1.9,0,0,1-.6-.176c-.779-.186-1.646-.427-2.343-.622s-1.563-.436-2.343-.622c-.245-.084-.375-.168-.421-.27a.469.469,0,0,1,.073-.384l.014-.059c.584-2.669,1.189-5.429,1.951-7.977a1.34,1.34,0,0,1,.016-.215l0-.02c.026-.176.042-.293-.2-.415-1.226-.326-2.616-.7-4.182-1.07-.151.735-.351,1.5-.529,2.168s-.378,1.435-.529,2.171-.351,1.5-.529,2.168-.378,1.435-.529,2.171c-.019.037-.036.073-.05.1-.079.173-.127.278-.3.274a1.064,1.064,0,0,1-.308-.071c-1.672-.524-3.354-.889-4.981-1.243l-.036-.008c-.245-.084-.375-.168-.421-.27a.469.469,0,0,1,.073-.384l.014-.059c.584-2.666,1.187-5.422,1.951-7.977a.547.547,0,0,1,.055-.208,1.009,1.009,0,0,0,.1-.435l-.274-.076C8.183,50.21,4.132,49.093,0,48c.144-.289.255-.55.362-.8l.03-.07c.113-.272.237-.564.4-.887.586-1.339,1.249-2.856,1.726-4.162.154-.481.322-.477.819-.465a30.073,30.073,0,0,0,3.679.895,2.869,2.869,0,0,0,.665.1,1.637,1.637,0,0,0,1.793-1.5l0-.011c1.922-8.035,3.91-16.343,5.709-24.746a2.939,2.939,0,0,0-2.076-3.282c-1.188-.411-2.352-.714-3.478-1.008l-.074-.019-.023-.006-.777-.2a.428.428,0,0,1-.367-.145.344.344,0,0,1,.023-.347c.227-.878.455-1.807.688-2.761l.06-.244c.166-.674.337-1.371.508-2.039.8.22,1.6.416,2.378.605.983.239,1.869.457,2.758.712s1.82.484,2.707.7l.053.013c.855.207,1.823.442,2.759.712a1.084,1.084,0,0,0,.319.069c.274.007.391-.191.5-.534.273-1.252.552-2.486.822-3.68l.075-.332V4.554l.025-.111c.287-1.268.584-2.579.874-3.909.11-.343.227-.54.5-.534a1.084,1.084,0,0,1,.319.069c1.652.518,3.133.872,4.85,1.246.246.086.375.17.421.272a.469.469,0,0,1-.073.384c-.283,1.207-.567,2.464-.841,3.68l-.054.241-.152.668,0,.011c-.246,1.086-.5,2.209-.751,3.276a1.167,1.167,0,0,1-.15.644c.639.17,1.329.343,2,.511l.087.022.155.039c.651.164,1.323.333,1.943.5.111,0,.218-.138.323-.275l.026-.033a1.656,1.656,0,0,1,.14-.165c.395-1.845.852-3.863,1.513-6.106l.163-.7c.091-.391.181-.774.271-1.157l.018-.075c-.006-.25.086-.386.258-.382a.567.567,0,0,1,.234.07c.963.3,1.9.545,2.9.8l.02.005c.73.189,1.485.385,2.268.61a.227.227,0,0,1,.168.085.23.23,0,0,0,.168.084c-.464,2.167-.934,4.174-1.35,5.945a12.761,12.761,0,0,1-.606,2.415.576.576,0,0,0,.013.525.964.964,0,0,0,.505.3l2.773,1.278,2.775,1.278a14.942,14.942,0,0,1,4.419,3.985,9.655,9.655,0,0,1,1.183,7.625A9.467,9.467,0,0,1,46.986,32.3a9.516,9.516,0,0,1-3.608,2.016.589.589,0,0,0-.214.053,1.087,1.087,0,0,1-.447.092c.35.259.717.487,1.012.67l.014.008c.328.2.667.416,1,.663A10.919,10.919,0,0,1,48.87,41.4a12.178,12.178,0,0,1-.2,5.49A14.732,14.732,0,0,1,45.825,52.8a9.854,9.854,0,0,1-6.732,3.4,25.645,25.645,0,0,1-3.592.155,46.176,46.176,0,0,1-6.56-.719,1.14,1.14,0,0,0-.344-.069.641.641,0,0,0-.641.53c-.282,1.2-.567,2.463-.843,3.682l-.056.247,0,.012-.133.587c-.251,1.108-.511,2.254-.768,3.351l-.019.08C26.047,64.429,26,64.617,25.763,64.611ZM21.811,34.229c-.192,0-.235.135-.322.414l-.017.054c-.007.023-.014.046-.022.07-.145.8-.336,1.563-.519,2.305l0,.017,0,.017c-.185.748-.377,1.522-.522,2.323-.354,1.3-.654,2.617-.944,3.891-.223.974-.454,1.981-.714,3.021a.628.628,0,0,1,.336.169c.376.1.784.21,1.283.346a39.286,39.286,0,0,0,7.071,1.469c.763.08,1.382.123,1.948.137a10.6,10.6,0,0,0,3.695-.488,4.609,4.609,0,0,0,3.107-3.067,4.978,4.978,0,0,0-.631-4.471A10.847,10.847,0,0,0,32,37.449l-.012-.008a34.472,34.472,0,0,0-9.563-3.075l-.011,0L22.1,34.3A1.037,1.037,0,0,0,21.811,34.229ZM25.7,17.512c-.275-.007-.392.19-.5.533-.9,4.042-1.617,7.022-2.414,9.965a.4.4,0,0,0-.043.321c.042.117.159.216.391.333.334.089.632.178.92.265s.586.176.92.265c.687.105,1.357.223,2,.337a34.153,34.153,0,0,0,5.333.645,10.892,10.892,0,0,0,1.821-.28,4.49,4.49,0,0,0,3.329-2.624,4.542,4.542,0,0,0-.34-4.256,8.3,8.3,0,0,0-3.9-3.164,40.449,40.449,0,0,0-5.732-1.868c-.478-.13-.973-.264-1.471-.4A1.08,1.08,0,0,0,25.7,17.512Z" transform="translate(15.145 37.446) rotate(-30)"/>
    <path id="Subtraction_12" data-name="Subtraction 12" class="cls-2" d="M53.256,106.512a53,53,0,0,1-29.776-9.1,53.408,53.408,0,0,1-19.3-23.431A53.187,53.187,0,0,1,9.1,23.48a53.416,53.416,0,0,1,23.431-19.3A53.185,53.185,0,0,1,83.032,9.1a53.408,53.408,0,0,1,19.3,23.431,53.187,53.187,0,0,1-4.91,50.506,53.416,53.416,0,0,1-23.431,19.3A52.923,52.923,0,0,1,53.256,106.512Zm0-104.115a50.858,50.858,0,1,0,50.859,50.858A50.916,50.916,0,0,0,53.256,2.4Z" transform="translate(0)"/>
  </g>
</svg>
