<svg viewBox="0 0 107 107" fill="none" xmlns="http://www.w3.org/2000/svg">
<path d="M53.277 106.533C42.6644 106.549 32.2914 103.379 23.501 97.4333C14.9367 91.6541 8.23253 83.515 4.20098 74.0023C0.749318 65.841 -0.60858 56.9466 0.250641 48.1272C1.10986 39.3078 4.15897 30.8428 9.12098 23.5012C14.9005 14.9373 23.0395 8.23319 32.552 4.20124C40.7132 0.749403 49.6076 -0.608592 58.427 0.250632C67.2465 1.10986 75.7115 4.15907 83.053 9.12125C91.6172 14.9004 98.3214 23.0395 102.353 32.5522C105.807 40.7134 107.167 49.6082 106.31 58.4286C105.452 67.2489 102.404 75.7152 97.443 83.0583C91.6635 91.6222 83.5245 98.3263 74.012 102.358C67.4517 105.131 60.3992 106.551 53.277 106.533ZM53.277 2.41825C43.2183 2.41844 33.3855 5.40138 25.0221 10.9899C16.6586 16.5783 10.1402 24.5213 6.29103 33.8144C2.44186 43.1075 1.43484 53.3333 3.39732 63.1988C5.3598 73.0642 10.2036 82.1261 17.3163 89.2386C24.429 96.3512 33.491 101.195 43.3564 103.157C53.2219 105.119 63.4477 104.112 72.7407 100.263C82.0338 96.4135 89.9766 89.8949 95.5649 81.5313C101.153 73.1678 104.136 63.335 104.136 53.2762C104.12 39.7929 98.7562 26.8665 89.2216 17.3328C79.6871 7.79897 66.7603 2.43633 53.277 2.42125V2.41825Z" fill="url(#paint0_linear)"/>
<path d="M77.9574 55.3571C76.7863 50.9973 74.0602 48.3687 69.4981 47.7844C69.0011 47.7214 68.5042 47.6348 67.872 47.5412C68.111 47.2951 68.239 47.1565 68.3757 47.0252C69.4145 46.0307 70.1934 44.7965 70.6443 43.4309C71.0951 42.0653 71.2041 40.6099 70.9617 39.1924C70.6289 36.9248 69.6229 34.8093 68.0741 33.12C67.2387 32.2476 66.2371 31.5514 65.1283 31.0724C64.0195 30.5935 62.826 30.3415 61.6182 30.3314C59.4831 30.2443 57.345 30.2647 55.2119 30.3926C54.614 30.4175 54.4788 30.2336 54.3696 29.7487C53.7828 27.1274 53.1632 24.5152 52.5685 21.8955C52.4631 21.3996 52.2607 21.1881 51.7069 21.3242C50.2581 21.6792 48.7944 21.9791 47.3399 22.3169C46.5605 22.4979 46.547 22.5355 46.7086 23.3149C47.2424 25.865 47.7793 28.4147 48.3191 30.9642C48.4044 31.3653 48.296 31.5529 47.8797 31.6383C46.9182 31.8427 45.9685 32.0885 45.0084 32.3089C44.2581 32.4827 44.2806 32.4636 44.1158 31.6931C43.5692 29.1215 42.9894 26.557 42.4381 23.9875C42.3439 23.5444 42.1437 23.4489 41.7156 23.5512C40.1719 23.9171 38.6266 24.2752 37.0704 24.5917C36.5256 24.7075 36.4081 24.9196 36.5294 25.4469C37.1389 28.0981 37.6998 30.7607 38.3242 33.4097C38.4476 33.9376 38.2692 34.0747 37.8206 34.167C36.2118 34.4987 34.605 34.8402 33.0003 35.1916C31.1952 35.5875 29.3895 36 27.5775 36.4117C27.2987 36.4709 27.0076 36.5011 27.1135 36.9417C27.5366 38.6675 27.9227 40.4021 28.3473 42.1255C28.5251 42.8565 28.6003 42.8732 29.3363 42.6902C30.5324 42.392 31.718 42.0439 32.919 41.8265C34.8516 41.477 35.9377 42.2194 36.4458 44.1244C36.4691 44.2339 36.5011 44.3457 36.5253 44.4551C37.8683 50.5647 39.2115 56.674 40.5549 62.7828C40.9626 64.6284 41.4568 66.4535 41.822 68.3061C42.1766 70.0995 41.5898 70.9174 39.8142 71.3654C39.5422 71.4324 39.2592 71.4721 38.9789 71.5194C38.1982 71.6557 37.4145 71.7732 36.638 71.9291C36.5569 71.934 36.4776 71.9556 36.4053 71.9926C36.333 72.0296 36.2691 72.0811 36.2176 72.144C36.1662 72.2069 36.1283 72.2797 36.1064 72.358C36.0844 72.4362 36.0789 72.5181 36.0902 72.5986C36.2263 74.6143 36.3418 76.6345 36.472 78.6515C36.5224 79.3697 36.5475 79.3674 37.259 79.2131C40.6222 78.4809 43.9894 77.7672 47.3516 77.03C47.7615 76.9429 47.9339 77.0279 48.0153 77.4543C48.2588 78.7343 48.5249 80.0102 48.8136 81.282C49.1515 82.7754 49.5173 84.2608 49.8767 85.7496C49.9405 86.011 49.9995 86.2745 50.3921 86.188C51.998 85.8313 53.6028 85.4739 55.2095 85.1497C55.7123 85.0428 55.807 84.7814 55.7107 84.3429L55.2616 82.2301C54.833 80.2711 54.4024 78.3128 53.97 76.3552C53.9013 76.0325 53.8043 75.7106 54.2838 75.6097C55.2453 75.4053 56.1999 75.1636 57.1655 74.9829C57.9938 74.8303 58.0705 74.9122 58.2749 75.7582C58.8527 78.3002 59.4276 80.8446 59.9996 83.3914C60.0863 83.7993 60.2458 84.0301 60.7248 83.9171C62.1613 83.5862 63.6113 83.3035 65.0425 82.9523C66.1264 82.6841 66.1196 82.8348 65.8399 81.5908C65.2895 79.1362 64.7571 76.6779 64.2426 74.2157C64.0619 73.3657 64.1065 73.3879 64.9309 73.0818C66.921 72.3439 68.9206 71.651 70.8609 70.799C73.4879 69.7392 75.6721 67.8106 77.0491 65.335C77.8486 63.8131 78.3404 62.1486 78.4963 60.4365C78.6521 58.7244 78.469 56.9984 77.9574 55.3571ZM49.0515 50.3874C48.6602 50.4706 48.4188 50.3736 48.3242 49.9286C47.5889 46.6089 46.8351 43.2932 46.0876 39.969C46.0235 39.6677 46.0393 39.4098 46.4201 39.3114C49.1845 38.4658 52.0502 37.996 54.9399 37.9146C55.6546 38.0243 56.3611 38.1815 57.0549 38.3851C58.0087 38.721 58.8395 39.3357 59.4398 40.1495C60.04 40.9632 60.382 41.9385 60.4214 42.9489C60.4136 43.7011 60.223 44.44 59.8662 45.1022C59.5093 45.7643 58.9968 46.3298 58.3729 46.7499C56.1437 48.3667 53.5891 49.4787 50.8868 50.0085C50.2788 50.1592 49.6599 50.2581 49.0515 50.3874ZM66.27 62.0861C65.4607 63.7115 64.0961 64.9935 62.4233 65.6999C60.0559 66.756 57.5682 67.5186 55.0155 67.9706L52.3745 68.532C51.4768 64.4719 50.5957 60.4758 49.6922 56.3934C50.4908 56.1971 51.3256 55.988 52.1636 55.7894C54.7004 55.0856 57.3135 54.6939 59.9451 54.623C61.3715 54.5609 62.7908 54.8556 64.0746 55.4802C65.2409 56.0686 66.1265 57.0951 66.5376 58.335C66.9487 59.5749 66.8517 60.9272 66.268 62.0957L66.27 62.0861Z" fill="url(#paint1_linear)"/>
<defs>
<linearGradient id="paint0_linear" x1="53.2796" y1="0" x2="53.2796" y2="106.533" gradientUnits="userSpaceOnUse">
<stop stop-color="white"/>
<stop offset="1" stop-color="#848484"/>
</linearGradient>
<linearGradient id="paint1_linear" x1="47.4781" y1="22.2221" x2="60.6127" y2="84.0156" gradientUnits="userSpaceOnUse">
<stop stop-color="white"/>
<stop offset="1" stop-color="#848484"/>
</linearGradient>
</defs>
</svg>
