<svg xmlns="http://www.w3.org/2000/svg" xmlns:xlink="http://www.w3.org/1999/xlink" viewBox="0 0 60 60">
  <defs>
    <style>
      .cls-1 {
        fill: #484848;
      }

      .cls-2 {
        opacity: 0.91;
      }

      .cls-3 {
        clip-path: url(#clip-path);
      }

      .cls-4 {
        fill: #fff;
        opacity: 0.6;
      }
    </style>
    <clipPath id="clip-path">
      <circle id="Mask" class="cls-1" cx="30" cy="30" r="30"/>
    </clipPath>
  </defs>
  <g id="Group_1963" data-name="Group 1963" transform="translate(-209.74 -251.54)">
    <g id="BCC" class="cls-2" transform="translate(209.74 251.54)">
      <g id="Shape">
        <circle id="Mask-2" data-name="Mask" class="cls-1" cx="30" cy="30" r="30"/>
      </g>
    </g>
    <path id="Shape-3" data-name="Shape" class="cls-4" d="M15.209,38.142a1.122,1.122,0,0,1-.351-.1c-.46-.11-.972-.252-1.383-.367s-.923-.257-1.383-.367c-.145-.05-.221-.1-.249-.16a.277.277,0,0,1,.043-.227l.008-.035c.345-1.576.7-3.2,1.152-4.709a.791.791,0,0,1,.009-.127l0-.012c.015-.1.025-.173-.118-.245-.724-.193-1.544-.411-2.469-.632-.089.434-.207.883-.312,1.28s-.223.847-.312,1.281S9.638,34.6,9.533,35s-.223.847-.312,1.281c-.011.022-.021.043-.029.062-.047.1-.075.164-.176.162a.628.628,0,0,1-.182-.042c-.987-.309-1.98-.525-2.941-.734l-.021,0c-.145-.05-.221-.1-.249-.16a.277.277,0,0,1,.043-.227l.008-.035c.345-1.574.7-3.2,1.152-4.709a.323.323,0,0,1,.032-.123.6.6,0,0,0,.056-.257l-.162-.045c-1.922-.53-4.314-1.19-6.753-1.837.085-.171.15-.325.214-.474l.017-.041c.067-.16.14-.333.234-.523.346-.79.738-1.686,1.019-2.457.091-.284.19-.281.483-.274a17.753,17.753,0,0,0,2.172.528,1.694,1.694,0,0,0,.393.058.966.966,0,0,0,1.058-.883v-.006C6.727,19.518,7.9,14.614,8.963,9.653A1.735,1.735,0,0,0,7.737,7.716c-.7-.243-1.389-.422-2.053-.595L5.64,7.109l-.013,0-.459-.119A.253.253,0,0,1,4.952,6.9a.2.2,0,0,1,.014-.2c.134-.518.268-1.067.406-1.63l.035-.144c.1-.4.2-.81.3-1.2.472.13.946.245,1.4.357.58.141,1.1.27,1.628.42s1.074.286,1.6.413l.031.008c.5.122,1.076.261,1.629.42a.64.64,0,0,0,.188.041c.162,0,.231-.113.3-.315.161-.739.326-1.468.485-2.172l.044-.2V2.688l.015-.066c.169-.749.345-1.523.516-2.307.065-.2.134-.319.3-.315a.64.64,0,0,1,.188.041c.975.306,1.85.515,2.863.735.145.051.222.1.249.16a.277.277,0,0,1-.043.227c-.167.713-.335,1.455-.5,2.172l-.032.142-.09.395v.006c-.145.641-.3,1.3-.444,1.934a.689.689,0,0,1-.089.38c.377.1.784.2,1.178.3l.051.013.092.023c.385.1.781.2,1.147.293.065,0,.129-.082.19-.162l.015-.019a.978.978,0,0,1,.083-.1c.233-1.089.5-2.28.893-3.6l.1-.411c.054-.231.107-.457.16-.683l.01-.044c0-.148.051-.228.153-.226a.335.335,0,0,1,.138.041c.568.178,1.123.322,1.711.473l.012,0c.431.112.877.227,1.339.36a.134.134,0,0,1,.1.05.136.136,0,0,0,.1.05c-.274,1.279-.552,2.464-.8,3.509a7.533,7.533,0,0,1-.358,1.425.34.34,0,0,0,.008.31.569.569,0,0,0,.3.175l1.637.754,1.638.754a8.821,8.821,0,0,1,2.609,2.352,5.7,5.7,0,0,1,.7,4.5,5.589,5.589,0,0,1-1.4,2.734,5.618,5.618,0,0,1-2.13,1.19.348.348,0,0,0-.126.031.641.641,0,0,1-.264.055c.207.153.424.287.6.4l.008,0c.194.121.394.245.591.392a6.446,6.446,0,0,1,2.436,3.3,7.189,7.189,0,0,1-.117,3.241,8.7,8.7,0,0,1-1.681,3.491,5.817,5.817,0,0,1-3.974,2,15.14,15.14,0,0,1-2.121.091,27.259,27.259,0,0,1-3.873-.424.673.673,0,0,0-.2-.041.378.378,0,0,0-.378.313c-.167.71-.335,1.454-.5,2.173l-.033.146,0,.007-.079.347c-.148.654-.3,1.33-.454,1.978l-.011.047C15.376,38.035,15.351,38.146,15.209,38.142ZM12.876,20.206c-.113,0-.139.08-.19.245l-.01.032-.013.041c-.086.469-.2.923-.307,1.361l0,.01,0,.01c-.109.442-.222.9-.308,1.371-.209.768-.386,1.545-.558,2.3-.132.575-.268,1.169-.422,1.783a.371.371,0,0,1,.2.1c.222.059.463.124.757.2a23.192,23.192,0,0,0,4.174.867c.45.047.816.073,1.15.081a6.255,6.255,0,0,0,2.181-.288,2.721,2.721,0,0,0,1.834-1.811,2.939,2.939,0,0,0-.373-2.639,6.4,6.4,0,0,0-2.1-1.763l-.007,0a20.35,20.35,0,0,0-5.645-1.815h-.007l-.183-.04A.612.612,0,0,0,12.876,20.206Zm2.294-9.869c-.162,0-.231.112-.3.315-.528,2.386-.955,4.146-1.425,5.882a.236.236,0,0,0-.025.19c.025.069.094.128.231.2.2.052.373.105.543.156s.346.1.543.156c.406.062.8.132,1.183.2a20.162,20.162,0,0,0,3.148.381,6.43,6.43,0,0,0,1.075-.165A2.651,2.651,0,0,0,22.113,16.1a2.681,2.681,0,0,0-.2-2.512,4.9,4.9,0,0,0-2.3-1.868,23.878,23.878,0,0,0-3.384-1.1c-.282-.077-.574-.156-.868-.239A.638.638,0,0,0,15.17,10.338Z" transform="translate(217.418 272.662) rotate(-30)"/>
  </g>
</svg>
