<svg xmlns="http://www.w3.org/2000/svg" xmlns:xlink="http://www.w3.org/1999/xlink" viewBox="0 0 106.512 106.513">
  <defs>
    <style>
      .cls-1 {
        opacity: 0.8;
      }

      .cls-2 {
        fill: url(#linear-gradient);
      }
    </style>
    <linearGradient id="linear-gradient" x1="0.201" x2="0.827" y2="0.914" gradientUnits="objectBoundingBox">
      <stop offset="0" stop-color="#00cca3"/>
      <stop offset="0" stop-color="#fff"/>
      <stop offset="1" stop-color="#848484"/>
    </linearGradient>
  </defs>
  <g id="Group_1146" data-name="Group 1146" class="cls-1" transform="translate(0)">
    <path id="Subtraction_23" data-name="Subtraction 23" class="cls-2" d="M53.256,106.513a53,53,0,0,1-29.776-9.1,53.408,53.408,0,0,1-19.3-23.431A53.187,53.187,0,0,1,9.1,23.48a53.416,53.416,0,0,1,23.431-19.3A53.185,53.185,0,0,1,83.032,9.1a53.408,53.408,0,0,1,19.3,23.431,53.187,53.187,0,0,1-4.91,50.506,53.416,53.416,0,0,1-23.431,19.3A52.923,52.923,0,0,1,53.256,106.513Zm0-104.115a50.859,50.859,0,1,0,50.859,50.859A50.916,50.916,0,0,0,53.256,2.4Z" transform="translate(0)"/>
    <path id="Shape" class="cls-2" d="M47.659,34.124a17.634,17.634,0,0,0-4.8-.626,4.305,4.305,0,0,1-3.971-1.721l-.5-.626a3.83,3.83,0,0,1,0-4.538l.5-.782a4.481,4.481,0,0,1,3.64-1.721,11.591,11.591,0,0,0,5.459-1.252c4.467-2.191,7.445-6.415,7.279-11.11C55.1,5.02,49.148-.3,41.869.013a12.6,12.6,0,0,0-11.911,10.8A12.037,12.037,0,0,0,32.274,19.1a4.072,4.072,0,0,1,0,4.694l-.165.156a4.395,4.395,0,0,1-3.474,1.721h-.827A4.2,4.2,0,0,1,24,23.328a12.7,12.7,0,0,0-11.746-6.572C5.638,16.912.179,22.076.014,28.335-.317,35.22,5.473,40.853,12.752,40.853A12.5,12.5,0,0,0,24,34.281a4.2,4.2,0,0,1,3.805-2.347h.662a3.96,3.96,0,0,1,3.474,1.721l.827,1.1a3.611,3.611,0,0,1,0,4.225,10.746,10.746,0,0,0-1.82,7.511c.5,5.633,5.459,10.171,11.25,10.8,8.106.782,14.724-5.633,14.062-13.144A11.714,11.714,0,0,0,47.659,34.124Z" transform="translate(22.248 24.154)"/>
  </g>
</svg>
