<svg viewBox="0 0 107 107" fill="none" xmlns="http://www.w3.org/2000/svg">
<path d="M53.277 106.531C42.6644 106.548 32.2914 103.378 23.501 97.4315C14.9367 91.6523 8.23253 83.5132 4.20098 74.0005C0.749318 65.8392 -0.60858 56.9449 0.250641 48.1255C1.10986 39.306 4.15897 30.841 9.12098 23.4995C14.8998 14.9381 23.037 8.23588 32.547 4.20447C40.7085 0.751021 49.6036 -0.608282 58.424 0.250077C67.2444 1.10844 75.7105 4.15725 83.053 9.11947C91.6172 14.8986 98.3214 23.0378 102.353 32.5505C105.807 40.7116 107.167 49.6064 106.31 58.4268C105.452 67.2471 102.404 75.7134 97.443 83.0565C91.6628 91.6186 83.5238 98.3209 74.012 102.351C67.452 105.126 60.3995 106.548 53.277 106.531ZM53.277 2.41747C43.2182 2.41747 33.3853 5.40024 25.0218 10.9886C16.6582 16.5769 10.1396 24.5199 6.29032 33.813C2.44099 43.106 1.43384 53.3319 3.3962 63.1974C5.35857 73.0629 10.2023 82.1249 17.3149 89.2375C24.4276 96.3501 33.4896 101.194 43.3551 103.156C53.2206 105.119 63.4464 104.111 72.7395 100.262C82.0326 96.4128 89.9755 89.8942 95.5639 81.5307C101.152 73.1671 104.135 63.3342 104.135 53.2755C104.119 39.792 98.7556 26.8653 89.221 17.3313C79.6864 7.79733 66.7595 2.43456 53.276 2.41947L53.277 2.41747Z" fill="url(#paint0_linear)"/>
<path fill-rule="evenodd" clip-rule="evenodd" d="M52.9061 80.9636H34.4913V56.4821H28V50.4851H34.4908V26.002H50.2955C50.381 26.002 50.4775 26.0016 50.5844 26.0012L50.5845 26.0012C55.1544 25.982 78.7991 25.8824 78.7991 53.9423C78.7991 83.1338 52.9066 80.9636 52.9066 80.9636H52.9061ZM52.1284 36.1601H44.8632V50.4836H56.2934V56.4807H44.8632V70.8032H52.4843L52.5594 70.8032C54.7768 70.806 68.5603 70.8233 68.5387 54.1391C68.5168 37.2539 54.8457 36.1601 52.1284 36.1601Z" fill="url(#paint1_linear)"/>
<defs>
<linearGradient id="paint0_linear" x1="21.4184" y1="2.05156e-06" x2="88.1009" y2="97.3859" gradientUnits="userSpaceOnUse">
<stop stop-color="white"/>
<stop offset="1" stop-color="#848484"/>
</linearGradient>
<linearGradient id="paint1_linear" x1="31.6575" y1="45.745" x2="108.291" y2="99.9315" gradientUnits="userSpaceOnUse">
<stop stop-color="white"/>
<stop offset="0.326" stop-color="#888888"/>
<stop offset="0.552" stop-color="#636363"/>
<stop offset="1" stop-color="#161616"/>
</linearGradient>
</defs>
</svg>
