<svg viewBox="0 0 108 108" fill="none" xmlns="http://www.w3.org/2000/svg">
<path d="M54.0599 107.19C43.4474 107.206 33.0743 104.036 24.2839 98.09C15.7197 92.3109 9.01549 84.1717 4.98394 74.659C1.53228 66.4977 0.174379 57.6034 1.0336 48.784C1.89282 39.9646 4.94193 31.4996 9.90394 24.158C15.6834 15.594 23.8225 8.88993 33.3349 4.85798C41.4962 1.40614 50.3905 0.0481459 59.21 0.90737C68.0294 1.76659 76.4944 4.81581 83.8359 9.77798C92.4002 15.5571 99.1044 23.6963 103.136 33.209C106.59 41.3701 107.95 50.2649 107.092 59.0853C106.235 67.9056 103.187 76.372 98.2259 83.715C92.4465 92.2789 84.3074 98.983 74.7949 103.015C68.2346 105.788 61.1821 107.208 54.0599 107.19ZM54.0599 3.07498C44.0012 3.07518 34.1684 6.05812 25.805 11.6466C17.4416 17.2351 10.9232 25.1781 7.07399 34.4712C3.22482 43.7643 2.2178 53.9901 4.18028 63.8555C6.14276 73.7209 10.9866 82.7829 18.0993 89.8954C25.2119 97.0079 34.2739 101.852 44.1394 103.814C54.0049 105.776 64.2307 104.769 73.5237 100.92C82.8167 97.0702 90.7596 90.5516 96.3479 82.1881C101.936 73.8245 104.919 63.9917 104.919 53.933C104.903 40.4497 99.5391 27.5233 90.0046 17.9895C80.4701 8.45571 67.5433 3.09307 54.0599 3.07798V3.07498Z" fill="url(#paint0_linear)"/>
<path d="M76.9991 61.4219C76.7601 56.9139 74.6401 53.7759 70.2991 52.2559C69.8261 52.0909 69.3581 51.9029 68.7591 51.6799C69.0441 51.4889 69.1981 51.3799 69.3591 51.2799C70.5819 50.523 71.6005 49.4778 72.3254 48.2357C73.0503 46.9937 73.4595 45.5928 73.5171 44.1559C73.663 41.8686 73.1189 39.5903 71.9551 37.6159C71.3194 36.5888 70.4844 35.6996 69.4994 35.0005C68.5144 34.3015 67.3994 33.8069 66.2201 33.5459C64.1498 33.0168 62.0541 32.5922 59.9411 32.2739C59.3511 32.1739 59.2571 31.9659 59.2511 31.4689C59.2221 28.7829 59.1591 26.0989 59.1221 23.4129C59.1221 22.9059 58.9681 22.6569 58.3981 22.6749C56.9071 22.7209 55.4131 22.7099 53.9201 22.7379C53.1201 22.7529 53.0991 22.7869 53.0951 23.5829C53.0871 26.1882 53.0821 28.7939 53.0801 31.3999C53.0801 31.8099 52.9351 31.9709 52.5101 31.9679C51.5271 31.9679 50.5471 32.0109 49.5621 32.0269C48.7921 32.0409 48.8181 32.0269 48.8171 31.2389C48.8171 28.6099 48.7831 25.9809 48.7781 23.3529C48.7781 22.8999 48.6021 22.7649 48.1621 22.7759C46.5761 22.8129 44.9901 22.8419 43.4021 22.8279C42.8451 22.8279 42.6861 23.0109 42.6951 23.5519C42.7401 26.2719 42.7351 28.9929 42.7951 31.7139C42.8061 32.2559 42.6031 32.3529 42.1451 32.3499C40.5024 32.3399 38.8598 32.3399 37.2171 32.3499C35.3691 32.3619 33.5171 32.3899 31.6591 32.4159C31.3741 32.4159 31.0831 32.3849 31.0951 32.8379C31.1501 34.6139 31.1671 36.3909 31.2241 38.1649C31.2461 38.9169 31.3161 38.9489 32.0741 38.9229C33.3061 38.8799 34.5381 38.7859 35.7581 38.8229C37.7211 38.8829 38.6291 39.8349 38.7301 41.8039C38.7301 41.9159 38.7381 42.0319 38.7391 42.1439C38.7824 48.3992 38.8261 54.6542 38.8701 60.9089C38.8851 62.7989 38.9891 64.6869 38.9611 66.5749C38.9351 68.4029 38.1911 69.0809 36.3611 69.1499C36.0811 69.1589 35.7961 69.1389 35.5121 69.1269C34.7201 69.0979 33.9291 69.0499 33.1371 69.0409C33.0567 69.0288 32.9748 69.0335 32.8963 69.0546C32.8179 69.0758 32.7447 69.1129 32.6813 69.1637C32.6179 69.2145 32.5657 69.2779 32.5279 69.3499C32.4902 69.4218 32.4678 69.5008 32.4621 69.5819C32.1761 71.5819 31.8691 73.5819 31.5771 75.5819C31.4771 76.2949 31.5021 76.2979 32.2301 76.2949C35.6721 76.2779 39.1141 76.2799 42.5561 76.2579C42.9751 76.2579 43.1261 76.3769 43.1171 76.8109C43.0891 78.1135 43.0841 79.4169 43.1021 80.7209C43.1221 82.2519 43.1711 83.7809 43.2131 85.3119C43.2211 85.5809 43.2241 85.8509 43.6261 85.8479C45.2711 85.8329 46.9151 85.8169 48.5541 85.8339C49.0681 85.8339 49.2151 85.5979 49.2121 85.1489V82.9889C49.2001 80.9835 49.1861 78.9785 49.1701 76.9739C49.1701 76.6439 49.1421 76.3089 49.6321 76.3099C50.6151 76.3099 51.5991 76.2719 52.5811 76.2959C53.4231 76.3189 53.4811 76.4149 53.5051 77.2849C53.5418 79.8915 53.5751 82.4999 53.6051 85.1099C53.6051 85.5269 53.7131 85.7859 54.2051 85.7749C55.6791 85.7499 57.1561 85.7749 58.6291 85.7289C59.7451 85.6919 59.7071 85.8379 59.6921 84.5629C59.6641 82.0475 59.6544 79.5322 59.6631 77.0169C59.6631 76.1479 59.7021 76.1789 60.5721 76.0509C62.6721 75.7429 64.7721 75.4809 66.8471 75.0509C69.6371 74.5604 72.1746 73.1281 74.0361 70.9929C75.1346 69.6705 75.9617 68.1445 76.4702 66.5023C76.9786 64.86 77.1583 63.1336 76.9991 61.4219ZM49.7581 50.5509C49.3581 50.5509 49.1421 50.4059 49.1421 49.9509C49.1131 46.5509 49.0651 43.1509 49.0251 39.7439C49.0251 39.4359 49.0941 39.1869 49.4871 39.1699C52.3669 38.9175 55.2676 39.0537 58.1111 39.5749C58.7873 39.8308 59.4458 40.1315 60.0821 40.4749C60.9451 41.0018 61.63 41.7757 62.048 42.6965C62.4659 43.6173 62.5976 44.6423 62.4261 45.6389C62.2621 46.373 61.9221 47.0562 61.4353 47.6297C60.9486 48.2031 60.3298 48.6497 59.6321 48.9309C57.1155 50.0489 54.3855 50.6055 51.6321 50.5619C51.0061 50.5829 50.3801 50.5509 49.7581 50.5509ZM64.1681 65.5739C63.0385 66.9955 61.4372 67.9657 59.6541 68.3089C57.1188 68.8498 54.5269 69.0785 51.9361 68.9899H49.2361C49.2021 64.8319 49.1711 60.7399 49.1361 56.5589C49.9581 56.5329 50.8181 56.5019 51.6791 56.4819C54.3067 56.3208 56.9442 56.481 59.5331 56.9589C60.9412 57.1947 62.2682 57.7779 63.3941 58.6559C64.4125 59.4738 65.0654 60.662 65.2097 61.9603C65.354 63.2586 64.9781 64.5612 64.1641 65.5829L64.1681 65.5739Z" fill="url(#paint1_linear)"/>
<defs>
<linearGradient id="paint0_linear" x1="54.0625" y1="0.656738" x2="54.0625" y2="107.19" gradientUnits="userSpaceOnUse">
<stop stop-color="white"/>
<stop offset="1" stop-color="#848484"/>
</linearGradient>
<linearGradient id="paint1_linear" x1="54.075" y1="22.674" x2="54.075" y2="85.8479" gradientUnits="userSpaceOnUse">
<stop stop-color="white"/>
<stop offset="1" stop-color="#848484"/>
</linearGradient>
</defs>
</svg>
