<svg xmlns="http://www.w3.org/2000/svg" viewBox="0 0 58 58">
  <defs>
    <style>
      .cls-1 {
        fill: rgba(0,0,0,0.31);
      }

      .cls-2 {
        fill: rgba(222,222,222,0.31);
      }
    </style>
  </defs>
  <g id="Group_1181" data-name="Group 1181" transform="translate(-304 -305)">
    <rect id="Rectangle_148" data-name="Rectangle 148" class="cls-1" width="58" height="58" rx="10" transform="translate(304 305)"/>
    <g id="Group_708" data-name="Group 708" transform="translate(313 314)">
      <path id="Path_5237" data-name="Path 5237" class="cls-2" d="M0,14.6V0H14.6V14.6Zm2.9-3h8.7V2.9H2.9Q2.9,7.25,2.9,11.6Z"/>
      <path id="Path_5238" data-name="Path 5238" class="cls-2" d="M40.8,14.6H26.2V0H40.8ZM29.2,2.9v8.7h8.7V2.9Z" transform="translate(0)"/>
      <path id="Path_5239" data-name="Path 5239" class="cls-2" d="M0,40.8V26.2H14.6V40.8Zm11.6-2.9V29.2H2.9v8.7Z" transform="translate(0 0)"/>
      <path id="Path_5240" data-name="Path 5240" class="cls-2" d="M26.2,26.2H35V20.4h2.9V17.5h2.9v5.8H37.9v5.8H35V32h2.9v2.9H32V29.1H26.2c0-.9,0-1.9,0-2.9Z" transform="translate(0 0)"/>
      <path id="Path_5241" data-name="Path 5241" class="cls-2" d="M20.4,17.5H17.5V11.7h2.9V8.8H17.5V.1h5.8V3H20.4V5.9h2.9v8.8H20.4v2.8Z" transform="translate(0 0)"/>
      <path id="Path_5242" data-name="Path 5242" class="cls-2" d="M20.4,20.4v5.8H17.5V23.3H8.8V20.4H5.9V17.5h5.8v2.9Z" transform="translate(0 0)"/>
      <path id="Path_5243" data-name="Path 5243" class="cls-2" d="M32.1,35v5.8H20.4V37.9h8.8V35Z" transform="translate(0 0)"/>
      <path id="Path_5244" data-name="Path 5244" class="cls-2" d="M20.4,37.9H17.5V29.2h2.9v2.9h2.9V35H20.4v2.9Z" transform="translate(0 0)"/>
      <path id="Path_5245" data-name="Path 5245" class="cls-2" d="M32.1,23.3H29.2V20.4H26.3V17.5h5.8Z" transform="translate(0 0)"/>
      <path id="Path_5246" data-name="Path 5246" class="cls-2" d="M2.9,20.4H0V17.5H2.9v2.9Z" transform="translate(0 0)"/>
      <path id="Path_5247" data-name="Path 5247" class="cls-2" d="M20.4,20.4V17.5h2.9v2.9Z" transform="translate(0 0)"/>
      <path id="Path_5248" data-name="Path 5248" class="cls-2" d="M5.8,20.4v2.9H2.9V20.4H5.8Z" transform="translate(0 0)"/>
      <path id="Path_5249" data-name="Path 5249" class="cls-2" d="M23.3,26.2V23.3h2.9v2.9H23.3Z" transform="translate(0 0)"/>
      <path id="Path_5250" data-name="Path 5250" class="cls-2" d="M20.4,29.2V26.3h2.9v2.9Z" transform="translate(0 0)"/>
      <path id="Path_5251" data-name="Path 5251" class="cls-2" d="M37.9,29.2h2.9v2.9H37.9V29.2Z" transform="translate(0 0)"/>
      <path id="Path_5252" data-name="Path 5252" class="cls-2" d="M37.9,37.9V35h2.9v2.9Z" transform="translate(0 0)"/>
      <path id="Path_5253" data-name="Path 5253" class="cls-2" d="M37.9,37.9v2.9H35V37.9Z" transform="translate(0 0)"/>
      <path id="Path_5254" data-name="Path 5254" class="cls-2" d="M8.7,5.8V8.7H5.8V5.8Z" transform="translate(0 0)"/>
      <path id="Path_5255" data-name="Path 5255" class="cls-2" d="M35,5.8V8.7H32.1V5.8Z" transform="translate(0 0)"/>
      <path id="Path_5256" data-name="Path 5256" class="cls-2" d="M8.7,32.1V35H5.8V32.1Z" transform="translate(0 0)"/>
      <circle id="Ellipse_2232" data-name="Ellipse 2232" class="cls-2" cx="2.1" cy="2.1" r="2.1" transform="translate(22.7 28.5)"/>
      <path id="Path_5257" data-name="Path 5257" class="cls-2" d="M29.2,35H26.3V32.1h2.9Z" transform="translate(0 0)"/>
    </g>
  </g>
</svg>
