<?xml version="1.0" encoding="UTF-8" standalone="no"?>
<svg
   xmlns:dc="http://purl.org/dc/elements/1.1/"
   xmlns:cc="http://creativecommons.org/ns#"
   xmlns:rdf="http://www.w3.org/1999/02/22-rdf-syntax-ns#"
   xmlns:svg="http://www.w3.org/2000/svg"
   xmlns="http://www.w3.org/2000/svg"
   xmlns:xlink="http://www.w3.org/1999/xlink"
   xmlns:sodipodi="http://sodipodi.sourceforge.net/DTD/sodipodi-0.dtd"
   xmlns:inkscape="http://www.inkscape.org/namespaces/inkscape"
   width="74"
   height="65"
   viewBox="0 0 74 65"
   version="1.1"
   id="svg3771"
   sodipodi:docname="logo.svg"
   inkscape:version="0.92.3 (2405546, 2018-03-11)">
  <metadata
     id="metadata3775">
    <rdf:RDF>
      <cc:Work
         rdf:about="">
        <dc:format>image/svg+xml</dc:format>
        <dc:type
           rdf:resource="http://purl.org/dc/dcmitype/StillImage" />
        <dc:title>logo</dc:title>
      </cc:Work>
    </rdf:RDF>
  </metadata>
  <sodipodi:namedview
     pagecolor="#ffffff"
     bordercolor="#666666"
     borderopacity="1"
     objecttolerance="10"
     gridtolerance="10"
     guidetolerance="10"
     inkscape:pageopacity="0"
     inkscape:pageshadow="2"
     inkscape:window-width="1920"
     inkscape:window-height="1017"
     id="namedview3773"
     showgrid="false"
     inkscape:zoom="11.058654"
     inkscape:cx="60.678111"
     inkscape:cy="31.169913"
     inkscape:window-x="-8"
     inkscape:window-y="-8"
     inkscape:window-maximized="1"
     inkscape:current-layer="logo" />
  <title
     id="title3745">logo</title>
  <desc
     id="desc3747">Created using Figma</desc>
  <g
     id="Canvas"
     transform="matrix(0.98744274,0,0,0.98420866,-88.586156,216.52595)">
    <g
       id="logo">
      <g
         id="Group">
        <g
           id="Vector">
          <use
             xlink:href="#path0_fill"
             transform="translate(114,-189.651)"
             id="use3749"
             style="fill:#718ea8;fill-opacity:0.2"
             x="0"
             y="0"
             width="100%"
             height="100%" />
        </g>
      </g>
      <g
         id="Subtract"
         transform="matrix(1,0,0,1.0315601,0,6.5957157)">
        <use
           xlink:href="#path1_fill"
           transform="translate(91,-208.989)"
           id="use3753"
           style="fill:#718ea8"
           x="0"
           y="0"
           width="100%"
           height="100%" />
      </g>
      <g
         id="g3758">
        <use
           xlink:href="#path2_fill"
           transform="translate(111,-219.997)"
           id="use3756"
           style="fill:#718ea8"
           x="0"
           y="0"
           width="100%"
           height="100%" />
      </g>
      <g
         id="Braitberry" />
    </g>
  </g>
  <defs
     id="defs3769">
    <path
       id="path0_fill"
       d="M 12 0C 5.37258 0 0 4.83753 0 10.8049L 24 10.8049C 24 4.83753 18.6274 0 12 0Z" />
    <path
       id="path1_fill"
       fill-rule="evenodd"
       d="M 72 32.0232L 72 0L 0 0L 0 32.0232L 72 32.0232ZM 69.9718 29.9572L 69.9718 2.06604L 2.02818 2.06604L 2.02818 29.9572L 69.9718 29.9572Z" />
    <path
       id="path2_fill"
       d="M 15 30.6744C 23.2843 30.6744 30 23.8077 30 15.3372C 30 6.86669 23.2843 0 15 0C 6.71573 0 0 6.86669 0 15.3372C 0 23.8077 6.71573 30.6744 15 30.6744Z" />
    <path
       id="path3_fill"
       d="M 2.42383 2.05273L 2.42383 3.63965L 4.19141 3.63965C 4.50716 3.63965 4.7627 3.58105 4.95801 3.46387C 5.15658 3.34342 5.25586 3.13184 5.25586 2.8291C 5.25586 2.49382 5.12565 2.27246 4.86523 2.16504C 4.64062 2.09017 4.35417 2.05273 4.00586 2.05273L 2.42383 2.05273ZM 2.42383 4.83105L 2.42383 6.75L 4.19141 6.75C 4.50716 6.75 4.75293 6.70768 4.92871 6.62305C 5.24772 6.4668 5.40723 6.16732 5.40723 5.72461C 5.40723 5.35026 5.2526 5.0931 4.94336 4.95312C 4.77083 4.875 4.52832 4.83431 4.21582 4.83105L 2.42383 4.83105ZM 4.48438 0.802734C 5.36654 0.815755 5.99154 1.07129 6.35938 1.56934C 6.58073 1.87533 6.69141 2.24154 6.69141 2.66797C 6.69141 3.10742 6.58073 3.46061 6.35938 3.72754C 6.23568 3.87728 6.05339 4.014 5.8125 4.1377C 6.18034 4.27116 6.45703 4.48275 6.64258 4.77246C 6.83138 5.06217 6.92578 5.41374 6.92578 5.82715C 6.92578 6.25358 6.81836 6.63607 6.60352 6.97461C 6.4668 7.19922 6.2959 7.38802 6.09082 7.54102C 5.8597 7.7168 5.58626 7.83724 5.27051 7.90234C 4.95801 7.96745 4.61784 8 4.25 8L 0.988281 8L 0.988281 0.802734L 4.48438 0.802734ZM 10.4943 2.05273L 10.4943 3.98633L 12.1984 3.98633C 12.537 3.98633 12.7909 3.94727 12.9602 3.86914C 13.2596 3.73242 13.4094 3.46224 13.4094 3.05859C 13.4094 2.6224 13.2645 2.32943 12.9748 2.17969C 12.812 2.09505 12.5679 2.05273 12.2424 2.05273L 10.4943 2.05273ZM 12.5549 0.802734C 13.0594 0.8125 13.4468 0.874349 13.717 0.988281C 13.9904 1.10221 14.2215 1.26986 14.4104 1.49121C 14.5666 1.6735 14.6903 1.87533 14.7814 2.09668C 14.8726 2.31803 14.9182 2.57031 14.9182 2.85352C 14.9182 3.19531 14.8319 3.53223 14.6594 3.86426C 14.4868 4.19303 14.202 4.42578 13.8049 4.5625C 14.1369 4.69596 14.3713 4.88639 14.508 5.13379C 14.648 5.37793 14.718 5.75228 14.718 6.25684L 14.718 6.74023C 14.718 7.06901 14.731 7.29199 14.757 7.40918C 14.7961 7.59473 14.8872 7.73145 15.0305 7.81934L 15.0305 8L 13.3752 8C 13.3296 7.84049 13.2971 7.71191 13.2775 7.61426C 13.2385 7.41243 13.2173 7.20573 13.2141 6.99414L 13.2043 6.3252C 13.1978 5.86621 13.1132 5.56022 12.9504 5.40723C 12.7909 5.25423 12.4898 5.17773 12.0471 5.17773L 10.4943 5.17773L 10.4943 8L 9.02461 8L 9.02461 0.802734L 12.5549 0.802734ZM 18.9848 5.28027L 20.8109 5.28027L 19.9125 2.44824L 18.9848 5.28027ZM 19.0775 0.802734L 20.7768 0.802734L 23.3256 8L 21.6947 8L 21.2309 6.52051L 18.5795 6.52051L 18.0814 8L 16.5092 8L 19.0775 0.802734ZM 26.4205 8L 24.9264 8L 24.9264 0.802734L 26.4205 0.802734L 26.4205 8ZM 33.8563 0.802734L 33.8563 2.07715L 31.7029 2.07715L 31.7029 8L 30.1893 8L 30.1893 2.07715L 28.0262 2.07715L 28.0262 0.802734L 33.8563 0.802734ZM 37 2.05273L 37 3.63965L 38.7676 3.63965C 39.0833 3.63965 39.3389 3.58105 39.5342 3.46387C 39.7327 3.34342 39.832 3.13184 39.832 2.8291C 39.832 2.49382 39.7018 2.27246 39.4414 2.16504C 39.2168 2.09017 38.9303 2.05273 38.582 2.05273L 37 2.05273ZM 37 4.83105L 37 6.75L 38.7676 6.75C 39.0833 6.75 39.3291 6.70768 39.5049 6.62305C 39.8239 6.4668 39.9834 6.16732 39.9834 5.72461C 39.9834 5.35026 39.8288 5.0931 39.5195 4.95312C 39.347 4.875 39.1045 4.83431 38.792 4.83105L 37 4.83105ZM 39.0605 0.802734C 39.9427 0.815755 40.5677 1.07129 40.9355 1.56934C 41.1569 1.87533 41.2676 2.24154 41.2676 2.66797C 41.2676 3.10742 41.1569 3.46061 40.9355 3.72754C 40.8118 3.87728 40.6296 4.014 40.3887 4.1377C 40.7565 4.27116 41.0332 4.48275 41.2188 4.77246C 41.4076 5.06217 41.502 5.41374 41.502 5.82715C 41.502 6.25358 41.3945 6.63607 41.1797 6.97461C 41.043 7.19922 40.8721 7.38802 40.667 7.54102C 40.4359 7.7168 40.1624 7.83724 39.8467 7.90234C 39.5342 7.96745 39.194 8 38.8262 8L 35.5645 8L 35.5645 0.802734L 39.0605 0.802734ZM 48.8889 2.07715L 45.0803 2.07715L 45.0803 3.60547L 48.5764 3.60547L 48.5764 4.85547L 45.0803 4.85547L 45.0803 6.70605L 49.0646 6.70605L 49.0646 8L 43.6105 8L 43.6105 0.802734L 48.8889 0.802734L 48.8889 2.07715ZM 52.5404 2.05273L 52.5404 3.98633L 54.2445 3.98633C 54.5831 3.98633 54.837 3.94727 55.0063 3.86914C 55.3057 3.73242 55.4555 3.46224 55.4555 3.05859C 55.4555 2.6224 55.3106 2.32943 55.0209 2.17969C 54.8581 2.09505 54.614 2.05273 54.2885 2.05273L 52.5404 2.05273ZM 54.601 0.802734C 55.1055 0.8125 55.4929 0.874349 55.7631 0.988281C 56.0365 1.10221 56.2676 1.26986 56.4564 1.49121C 56.6127 1.6735 56.7364 1.87533 56.8275 2.09668C 56.9187 2.31803 56.9643 2.57031 56.9643 2.85352C 56.9643 3.19531 56.878 3.53223 56.7055 3.86426C 56.5329 4.19303 56.2481 4.42578 55.851 4.5625C 56.183 4.69596 56.4174 4.88639 56.5541 5.13379C 56.6941 5.37793 56.7641 5.75228 56.7641 6.25684L 56.7641 6.74023C 56.7641 7.06901 56.7771 7.29199 56.8031 7.40918C 56.8422 7.59473 56.9333 7.73145 57.0766 7.81934L 57.0766 8L 55.4213 8C 55.3757 7.84049 55.3432 7.71191 55.3236 7.61426C 55.2846 7.41243 55.2634 7.20573 55.2602 6.99414L 55.2504 6.3252C 55.2439 5.86621 55.1592 5.56022 54.9965 5.40723C 54.837 5.25423 54.5359 5.17773 54.0932 5.17773L 52.5404 5.17773L 52.5404 8L 51.0707 8L 51.0707 0.802734L 54.601 0.802734ZM 60.567 2.05273L 60.567 3.98633L 62.2711 3.98633C 62.6096 3.98633 62.8635 3.94727 63.0328 3.86914C 63.3323 3.73242 63.482 3.46224 63.482 3.05859C 63.482 2.6224 63.3372 2.32943 63.0475 2.17969C 62.8847 2.09505 62.6406 2.05273 62.315 2.05273L 60.567 2.05273ZM 62.6275 0.802734C 63.1321 0.8125 63.5195 0.874349 63.7896 0.988281C 64.0631 1.10221 64.2942 1.26986 64.483 1.49121C 64.6393 1.6735 64.763 1.87533 64.8541 2.09668C 64.9452 2.31803 64.9908 2.57031 64.9908 2.85352C 64.9908 3.19531 64.9046 3.53223 64.732 3.86426C 64.5595 4.19303 64.2747 4.42578 63.8775 4.5625C 64.2096 4.69596 64.4439 4.88639 64.5807 5.13379C 64.7206 5.37793 64.7906 5.75228 64.7906 6.25684L 64.7906 6.74023C 64.7906 7.06901 64.8036 7.29199 64.8297 7.40918C 64.8688 7.59473 64.9599 7.73145 65.1031 7.81934L 65.1031 8L 63.4479 8C 63.4023 7.84049 63.3697 7.71191 63.3502 7.61426C 63.3111 7.41243 63.29 7.20573 63.2867 6.99414L 63.277 6.3252C 63.2704 5.86621 63.1858 5.56022 63.023 5.40723C 62.8635 5.25423 62.5624 5.17773 62.1197 5.17773L 60.567 5.17773L 60.567 8L 59.0973 8L 59.0973 0.802734L 62.6275 0.802734ZM 71.1961 0.802734L 72.9002 0.802734L 70.493 5.29492L 70.493 8L 68.9891 8L 68.9891 5.29492L 66.4988 0.802734L 68.2713 0.802734L 69.7654 3.9375L 71.1961 0.802734Z" />
  </defs>
</svg>
