<svg xmlns="http://www.w3.org/2000/svg" xmlns:xlink="http://www.w3.org/1999/xlink" viewBox="0 0 41.999 42">
  <defs>
    <style>
      .cls-1 {
        fill: rgba(0,0,0,0.66);
        opacity: 0.39;
      }

      .cls-2 {
        opacity: 0.81;
        fill: url(#linear-gradient);
      }
    </style>
    <linearGradient id="linear-gradient" x1="0.448" y1="0.23" x2="0.942" y2="0.944" gradientUnits="objectBoundingBox">
      <stop offset="0" stop-color="#fff"/>
      <stop offset="0.326" stop-color="#888"/>
      <stop offset="0.552" stop-color="#636363"/>
      <stop offset="1" stop-color="#616161"/>
    </linearGradient>
  </defs>
  <g id="Group_1934" data-name="Group 1934" transform="translate(-20.001 -631)">
    <circle id="Ellipse_2126" data-name="Ellipse 2126" class="cls-1" cx="21" cy="21" r="21" transform="translate(20 631)"/>
    <path id="Intersection_6" data-name="Intersection 6" class="cls-2" d="M20.579,36.041a1.276,1.276,0,0,1-1.263-1.076l-.488-2.92a11.039,11.039,0,0,1-3.568-1.584l-2.52,1.584a1.279,1.279,0,0,1-1.642-.232l-1.155-1.3a1.292,1.292,0,0,1-.037-1.656l1.86-2.3A11.019,11.019,0,0,1,10.794,24l-2.941-.493a1.277,1.277,0,0,1-1.076-1.264V20.5a1.278,1.278,0,0,1,1.076-1.256l2.941-.5a11.022,11.022,0,0,1,1.273-3.065l-1.693-2.368a1.284,1.284,0,0,1,.137-1.657l1.229-1.234a1.29,1.29,0,0,1,1.655-.139l2.36,1.693A10.759,10.759,0,0,1,18.842,10.7l.487-2.92A1.278,1.278,0,0,1,20.593,6.7h1.744A1.307,1.307,0,0,1,23.616,7.77l.487,2.92a10.937,10.937,0,0,1,3.667,1.656l2.485-1.561a1.279,1.279,0,0,1,1.642.231l1.155,1.3a1.291,1.291,0,0,1,.037,1.663l-1.858,2.31a11.136,11.136,0,0,1,.922,2.462l2.906.487a1.27,1.27,0,0,1,1.06,1.251v1.742A1.292,1.292,0,0,1,35.042,23.5l-2.905.487a10.832,10.832,0,0,1-1.272,3.073l1.75,2.455a1.285,1.285,0,0,1-.138,1.656L31.242,32.4a1.3,1.3,0,0,1-.912.375,1.269,1.269,0,0,1-.742-.238l-2.463-1.758a10.947,10.947,0,0,1-3.051,1.264l-.488,2.92a1.275,1.275,0,0,1-1.263,1.076ZM13.693,21.406a7.813,7.813,0,1,0,7.813-7.814A7.821,7.821,0,0,0,13.693,21.406Zm2.3,0a5.515,5.515,0,1,1,5.515,5.515A5.521,5.521,0,0,1,15.99,21.406Zm2.858,0a2.658,2.658,0,1,0,2.657-2.659A2.66,2.66,0,0,0,18.849,21.406Z" transform="translate(20.001 631.104)"/>
  </g>
</svg>
