<svg xmlns="http://www.w3.org/2000/svg" xmlns:xlink="http://www.w3.org/1999/xlink" viewBox="0 0 41.999 42">
  <defs>
    <style>
      .cls-1 {
        fill: rgba(0,0,0,0.66);
        opacity: 0.39;
      }

      .cls-2 {
        opacity: 0.81;
        fill: url(#linear-gradient);
      }
    </style>
    <linearGradient id="linear-gradient" x1="0.5" y1="0.434" x2="1.072" y2="1.196" gradientUnits="objectBoundingBox">
      <stop offset="0" stop-color="#fff"/>
      <stop offset="0.326" stop-color="#888"/>
      <stop offset="0.552" stop-color="#636363"/>
      <stop offset="1" stop-color="#616161"/>
    </linearGradient>
  </defs>
  <g id="Group_1930" data-name="Group 1930" transform="translate(-20.001 -219.542)">
    <circle id="Ellipse_2128" data-name="Ellipse 2128" class="cls-1" cx="21" cy="21" r="21" transform="translate(20.001 219.542)"/>
    <path id="Intersection_1" data-name="Intersection 1" class="cls-2" d="M13.272,31.549a3.022,3.022,0,0,1-3.231-2.769v-9.23a3.021,3.021,0,0,1,3.231-2.769h4.153a3.692,3.692,0,1,1,7.385,0h6.461v1.846H21.118a1.846,1.846,0,1,0-1.846-1.846,1.852,1.852,0,0,0,1.846,1.846H13.272c-.739,0-1.385.416-1.385.923s.646.923,1.385.923H32.195V31.549Zm7.292-19.661-3-4.154a.712.712,0,0,1-.046-.739.618.618,0,0,1,.6-.369h6a.618.618,0,0,1,.6.369.712.712,0,0,1-.046.739l-3,4.154a.692.692,0,0,1-1.108,0Z" transform="translate(20.001 219.104)"/>
  </g>
</svg>
