<svg xmlns="http://www.w3.org/2000/svg" viewBox="0 0 15.587 15.587">
  <defs>
    <style>
      .cls-1 {
        fill: rgba(222,222,222,0.31);
      }
    </style>
  </defs>
  <path id="search" class="cls-1" d="M14.345,15.587h0l-4.506-4.5a6.1,6.1,0,0,1-3.682,1.23,6.173,6.173,0,1,1,5.2-2.862c-.074.118-.16.241-.269.387l4.5,4.506-1.242,1.242ZM6.156.88a5.232,5.232,0,0,0-4.19,2.083,5.253,5.253,0,0,0,.446,6.906l0,0a.073.073,0,0,0,.012.012.023.023,0,0,0,.007.007l0,0A5.272,5.272,0,0,0,10.6,3.325a5.315,5.315,0,0,0-2.149-1.91A5.216,5.216,0,0,0,6.156.88Z"/>
</svg>
