<svg width="71" height="70" viewBox="0 0 71 70" fill="none" xmlns="http://www.w3.org/2000/svg">
<path opacity="0.81" d="M32.928 70C32.2022 70.0016 31.4997 69.7438 30.9472 69.2731C30.3947 68.8024 30.0286 68.1498 29.9148 67.4329L28.7506 60.4666C25.7111 59.7226 22.8286 58.4429 20.2382 56.6876L14.2262 60.4666C13.6139 60.8547 12.8834 61.0122 12.1656 60.9107C11.4478 60.8093 10.7896 60.4556 10.3088 59.9131L7.55326 56.8116C7.07802 56.2678 6.80884 55.5743 6.79271 54.8522C6.77657 54.1302 7.01451 53.4254 7.46499 52.8608L11.9025 47.3736C10.8791 45.4444 10.1001 43.3952 9.58352 41.2733L2.56706 40.0971C1.85003 39.9828 1.19738 39.6162 0.726723 39.0633C0.256067 38.5105 -0.00165084 37.8076 7.95795e-06 37.0816V32.9232C0.00336532 32.2005 0.263307 31.5026 0.733476 30.9537C1.20364 30.4049 1.85347 30.0409 2.56706 29.9267L9.58352 28.7339C10.221 26.1571 11.245 23.6917 12.6206 21.4216L8.58151 15.7721C8.15829 15.1815 7.95881 14.4596 8.01868 13.7355C8.07855 13.0114 8.39388 12.3321 8.90836 11.819L11.8404 8.87495C12.3541 8.36355 13.0319 8.04988 13.7542 7.98922C14.4765 7.92855 15.197 8.12479 15.7888 8.54334L21.4192 12.5824C23.7009 11.1921 26.1858 10.1666 28.784 9.54296L29.9458 2.5766C30.0585 1.85803 30.4244 1.20341 30.9774 0.730917C31.5303 0.258425 32.234 -0.000812558 32.9614 1.91335e-06H37.1221C37.8484 0.00352261 38.5507 0.26048 39.1078 0.726526C39.6649 1.19257 40.0418 1.83847 40.1735 2.55274L41.3353 9.5191C44.4707 10.2837 47.4371 11.6233 50.0839 13.4699L56.0124 9.74575C56.6244 9.35735 57.3547 9.1995 58.0725 9.30048C58.7903 9.40146 59.4487 9.75467 59.9298 10.2969L62.6853 13.3983C63.1653 13.9431 63.4375 14.64 63.4536 15.3659C63.4698 16.0919 63.2289 16.8002 62.7736 17.3658L58.3409 22.8769C59.3035 24.741 60.0418 26.7127 60.5405 28.7506L67.4735 29.9124C68.1797 30.0308 68.8212 30.3955 69.2841 30.9419C69.7471 31.4882 70.0015 32.1809 70.0024 32.897V37.0529C69.9996 37.7794 69.7402 38.4816 69.2701 39.0355C68.8 39.5895 68.1493 39.9595 67.433 40.0804L60.5024 41.2423C59.8743 43.8277 58.8506 46.3007 57.4677 48.5737L61.6428 54.4307C62.0646 55.0215 62.263 55.7429 62.2027 56.4664C62.1424 57.1899 61.8273 57.8685 61.3135 58.3814L58.3671 61.3135C57.7875 61.8859 57.006 62.2073 56.1913 62.2082C55.5563 62.2092 54.937 62.0106 54.4211 61.6404L48.545 57.4462C46.2852 58.8137 43.831 59.8305 41.2662 60.4618L40.1019 67.4282C39.9886 68.1452 39.6226 68.7981 39.07 69.2689C38.5174 69.7397 37.8147 69.9973 37.0887 69.9952L32.928 70ZM16.4998 35.0847C16.5003 38.7712 17.5939 42.3748 19.6423 45.4398C21.6908 48.5047 24.6021 50.8935 28.0081 52.3039C31.4141 53.7143 35.1619 54.0831 38.7775 53.3636C42.3931 52.6441 45.7142 50.8687 48.3207 48.2618C50.9273 45.6549 52.7024 42.3336 53.4214 38.7179C54.1404 35.1022 53.7711 31.3545 52.3603 27.9486C50.9494 24.5428 48.5603 21.6318 45.495 19.5837C42.4298 17.5357 38.8261 16.4425 35.1396 16.4425C30.1971 16.4476 25.4586 18.4134 21.964 21.9084C18.4694 25.4035 16.5042 30.1423 16.4998 35.0847ZM21.987 35.0847C21.987 32.4824 22.7587 29.9386 24.2044 27.7749C25.6502 25.6111 27.705 23.9247 30.1092 22.9289C32.5134 21.933 35.1589 21.6725 37.7112 22.1802C40.2635 22.6878 42.6079 23.9409 44.448 25.781C46.2881 27.6211 47.5412 29.9655 48.0489 32.5178C48.5566 35.0701 48.296 37.7156 47.3002 40.1198C46.3043 42.524 44.6179 44.5789 42.4542 46.0246C40.2905 47.4704 37.7466 48.242 35.1443 48.242C31.6547 48.2402 28.3085 46.8536 25.8403 44.3867C23.372 41.9198 21.9836 38.5743 21.9798 35.0847H21.987ZM28.8054 35.0847C28.8059 36.3389 29.1783 37.5648 29.8755 38.6073C30.5726 39.6499 31.5633 40.4623 32.7222 40.9418C33.8811 41.4213 35.1562 41.5464 36.3862 41.3013C37.6162 41.0561 38.7459 40.4518 39.6324 39.5646C40.5189 38.6774 41.1224 37.5473 41.3666 36.3171C41.6109 35.0869 41.4848 33.8119 41.0044 32.6534C40.524 31.4949 39.7109 30.5048 38.6678 29.8084C37.6247 29.112 36.3985 28.7405 35.1443 28.741C33.4621 28.7416 31.8489 29.4102 30.6594 30.5997C29.4698 31.7893 28.8013 33.4024 28.8007 35.0847H28.8054Z" fill="url(#paint0_linear_606_8081)"/>
<defs>
<linearGradient id="paint0_linear_606_8081" x1="31.3611" y1="16.1" x2="65.9407" y2="66.0811" gradientUnits="userSpaceOnUse">
<stop stop-color="white"/>
<stop offset="0.326" stop-color="#888888"/>
<stop offset="0.552" stop-color="#636363"/>
<stop offset="1" stop-color="#616161"/>
</linearGradient>
</defs>
</svg>
