<svg xmlns="http://www.w3.org/2000/svg" xmlns:xlink="http://www.w3.org/1999/xlink" viewBox="0 0 29.543 29.543">
  <defs>
    <style>
      .cls-1 {
        fill: #484848;
      }

      .cls-2 {
        opacity: 0.42;
      }

      .cls-3 {
        opacity: 0.91;
      }

      .cls-4 {
        clip-path: url(#clip-path);
      }

      .cls-5 {
        fill: #fff;
        opacity: 0.6;
      }
    </style>
    <clipPath id="clip-path">
      <ellipse id="Mask" class="cls-1" cx="14.771" cy="14.771" rx="14.771" ry="14.771"/>
    </clipPath>
  </defs>
  <g id="Group_2007" data-name="Group 2007" class="cls-2" transform="translate(-489.74 -294.54)">
    <g id="BCC" class="cls-3" transform="translate(489.74 294.54)">
      <g id="Shape">
        <ellipse id="Mask-2" data-name="Mask" class="cls-1" cx="14.771" cy="14.771" rx="14.771" ry="14.771"/>
      </g>
    </g>
    <path id="Shape-3" data-name="Shape" class="cls-5" d="M7.042,18.436a.5.5,0,0,1-.164-.046c-.215-.048-.454-.111-.646-.162s-.431-.114-.646-.162c-.068-.022-.1-.045-.115-.074a.14.14,0,0,1,.023-.11l0-.017c.18-.766.367-1.558.6-2.291a.4.4,0,0,1,.006-.062v-.006c.008-.051.014-.084-.053-.117-.338-.085-.722-.181-1.154-.277-.047.211-.108.43-.162.623s-.115.412-.162.624-.108.43-.162.623-.115.412-.162.624l-.015.03c-.023.05-.037.08-.085.08a.28.28,0,0,1-.085-.018c-.461-.138-.926-.231-1.375-.321l-.01,0c-.068-.022-.1-.045-.115-.074a.14.14,0,0,1,.023-.11l0-.017c.18-.765.367-1.557.6-2.291a.165.165,0,0,1,.017-.06.3.3,0,0,0,.029-.125l-.076-.02c-.9-.234-2.016-.526-3.156-.811.042-.084.074-.159.106-.232l.009-.02c.033-.078.07-.163.116-.256.172-.386.366-.824.508-1.2.046-.138.093-.138.231-.138a7.9,7.9,0,0,0,1.016.231.761.761,0,0,0,.184.024.486.486,0,0,0,.508-.439v0c.588-2.308,1.2-4.694,1.754-7.106A.8.8,0,0,0,3.877,3.8c-.327-.109-.648-.188-.959-.264L2.9,3.533l-.006,0-.214-.052a.112.112,0,0,1-.1-.039.1.1,0,0,1,.009-.1c.069-.252.139-.519.21-.793l.018-.07c.051-.194.1-.394.155-.586.221.057.442.108.656.157.271.061.516.118.761.184s.5.126.747.182l.015,0c.236.053.5.114.762.184A.286.286,0,0,0,6,2.62c.076,0,.11-.057.143-.156.084-.359.17-.714.253-1.056l.023-.1v0l.008-.032c.088-.364.18-.74.269-1.122C6.726.057,6.76,0,6.836,0a.286.286,0,0,1,.088.017c.455.137.864.228,1.339.323.068.023.1.046.115.075a.14.14,0,0,1-.023.11c-.087.347-.174.708-.259,1.057l-.017.069-.047.192v0c-.076.312-.154.634-.231.941a.351.351,0,0,1-.046.185c.176.044.367.089.551.132l.024.006.043.01c.18.042.365.086.536.129.031,0,.062-.041.091-.081l.007-.01a.5.5,0,0,1,.04-.048C9.17,2.58,9.31,2,9.509,1.356l.05-.2L9.642.824,9.648.8c0-.071.026-.111.074-.111A.148.148,0,0,1,9.786.71c.265.08.525.143.8.209h.005c.2.049.41.1.626.159a.059.059,0,0,1,.046.023.06.06,0,0,0,.046.023c-.144.622-.288,1.2-.415,1.707a3.858,3.858,0,0,1-.185.694.168.168,0,0,0,0,.15.25.25,0,0,0,.138.081l.762.346.762.346a3.9,3.9,0,0,1,1.2,1.108,2.769,2.769,0,0,1,.277,2.169,2.891,2.891,0,0,1-.692,1.339,2.794,2.794,0,0,1-1.016.6.166.166,0,0,0-.06.017.3.3,0,0,1-.125.029c.1.071.2.134.277.184l0,0c.09.056.182.114.274.183a2.915,2.915,0,0,1,1.108,1.57,3.6,3.6,0,0,1-.092,1.569,4.5,4.5,0,0,1-.831,1.708A2.87,2.87,0,0,1,10.8,15.943a6.984,6.984,0,0,1-1,.069,12.3,12.3,0,0,1-1.817-.161.3.3,0,0,0-.1-.017c-.086,0-.147.052-.182.156-.087.345-.174.707-.259,1.057l-.017.071v0l-.041.169c-.077.318-.157.647-.236.962l-.006.023C7.122,18.381,7.109,18.436,7.042,18.436Zm-.891-8.65c-.053,0-.066.04-.092.12l-.005.016-.007.02c-.046.228-.1.449-.16.662v.01c-.057.215-.115.437-.161.667-.107.374-.2.752-.289,1.118-.069.28-.139.569-.219.867a.163.163,0,0,1,.092.046l.354.09a10.353,10.353,0,0,0,1.954.371c.211.018.383.026.54.026a2.928,2.928,0,0,0,1.029-.165,1.387,1.387,0,0,0,.884-.9,1.43,1.43,0,0,0-.145-1.273,2.828,2.828,0,0,0-.966-.829l0,0A9,9,0,0,0,6.32,9.821h0L6.232,9.8A.273.273,0,0,0,6.151,9.786Zm1.193-4.8c-.076,0-.11.057-.143.156C6.925,6.3,6.7,7.158,6.463,8a.119.119,0,0,0-.014.092c.011.033.043.061.106.092.092.023.174.047.254.069s.162.046.254.069c.19.025.375.054.554.083a9.088,9.088,0,0,0,1.477.148A3.017,3.017,0,0,0,9.6,8.465a1.338,1.338,0,0,0,.943-.772,1.317,1.317,0,0,0-.066-1.213A2.165,2.165,0,0,0,9.417,5.6a10.556,10.556,0,0,0-1.579-.494L7.432,5A.285.285,0,0,0,7.344,4.986Z" transform="translate(493.867 304.923) rotate(-30)"/>
  </g>
</svg>
