<svg xmlns="http://www.w3.org/2000/svg" xmlns:xlink="http://www.w3.org/1999/xlink" viewBox="0 0 29.54 29.54">
  <defs>
    <style>
      .cls-1 {
        fill: #484848;
      }

      .cls-2 {
        opacity: 0.42;
      }

      .cls-3 {
        opacity: 0.91;
      }

      .cls-4 {
        clip-path: url(#clip-path);
      }

      .cls-5 {
        opacity: 0.6;
      }

      .cls-6, .cls-7 {
        fill: #fff;
      }

      .cls-6 {
        stroke: rgba(0,0,0,0);
      }
    </style>
    <clipPath id="clip-path">
      <circle id="Mask" class="cls-1" cx="14.77" cy="14.77" r="14.77"/>
    </clipPath>
  </defs>
  <g id="Group_2132" data-name="Group 2132" class="cls-2" transform="translate(-1807.74 -1029.54)">
    <g id="BCC" class="cls-3" transform="translate(1807.74 1029.54)">
      <g id="Shape">
        <circle id="Mask-2" data-name="Mask" class="cls-1" cx="14.77" cy="14.77" r="14.77"/>
      </g>
    </g>
    <g id="Group_1923" data-name="Group 1923" class="cls-5" transform="translate(1816.191 1034.985)">
      <g id="eth" transform="translate(0 0)">
        <path id="Union_1" data-name="Union 1" class="cls-6" d="M6.1,12.938a1.759,1.759,0,0,1-.251-.148L.125,9.593a.1.1,0,0,0-.063-.03C.376,9.415.689,9.3,1,9.148l1.221-.533c.073-.034.145-.067.218-.1l-.781.336c-.282.118-.563.237-.877.385-.219.089-.469.207-.688.3a.062.062,0,0,0-.032.011v0c-.008,0-.015,0-.031-.011H0c.094-.148.188-.267.282-.415.5-.8,1.033-1.6,1.534-2.4C2.348,5.862,2.911,5,3.443,4.145c.5-.8,1-1.6,1.5-2.369C5.322,1.184,5.7.622,6.042.029,6.1.029,6.1,0,6.136,0V6.9a.049.049,0,0,1,0,.018l0,0V.029l6.01,9.415c.031.03.063.059.063.089-.125-.059-.25-.118-.407-.178s-.313-.148-.469-.208c-.075-.023-.15-.066-.241-.1.135.058.269.119.4.186.219.089.438.207.689.3,0-.03,0,0,.031,0-.47.3-.97.562-1.44.829-1.534.858-3.036,1.688-4.57,2.546a.042.042,0,0,0-.031.015v.015a.036.036,0,0,1-.023.013C6.132,12.951,6.125,12.938,6.1,12.938ZM5.447,7.224c.156-.063.312-.127.469-.2C5.759,7.09,5.612,7.157,5.447,7.224ZM6.136,0Z"/>
        <path id="Union_2" data-name="Union 2" class="cls-6" d="M6.1,8.053V3.375c.407-.237.813-.474,1.221-.681L12.115.029c0-.029.031-.029.031-.029,0,.029,0,.029-.031.059C10.3,2.487,8.483,4.885,6.667,7.313c-.188.266-.375.5-.563.77Zm0,.03c-.031,0-.031,0-.063-.03C5.415,7.224,4.82,6.425,4.195,5.6L2.317,3.109C1.721,2.309,1.1,1.51.5.681L.032.059C.032.029,0,.029,0,0,.032,0,.032.029.063.029.908.5,1.784.977,2.63,1.451c.97.562,1.972,1.1,2.942,1.658.156.089.344.178.5.266.031,0,.031.03.031.059V8.083Zm0,0Z" transform="translate(0.031 10.658)"/>
        <path id="Shape-3" data-name="Shape" class="cls-7" d="M0,0Z" transform="translate(0.031 9.533)"/>
      </g>
    </g>
  </g>
</svg>
