<svg width="42" height="42" viewBox="0 0 331 331" fill="none" xmlns="http://www.w3.org/2000/svg">
<circle cx="165.48" cy="165.48" r="165.48" fill="#0F0F0F"/>
<path opacity="0.75" fill-rule="evenodd" clip-rule="evenodd" d="M154.618 129.463C160.042 129.463 164.348 130.319 167.537 132.032C167.589 132.06 167.641 132.088 167.692 132.116C168.442 132.53 169.128 132.992 169.751 133.503C170.9 134.432 171.851 135.499 172.604 136.704C172.628 136.742 172.651 136.781 172.675 136.819C173.122 137.552 173.497 138.336 173.799 139.17C173.809 139.197 173.818 139.223 173.828 139.25C174.309 140.603 174.602 142.088 174.706 143.705C174.735 144.152 174.75 144.608 174.75 145.075C174.75 145.914 174.704 146.73 174.612 147.523C174.602 147.605 174.592 147.687 174.582 147.769C174.435 148.914 174.191 150.01 173.851 151.058C173.829 151.124 173.807 151.19 173.785 151.256C173.701 151.504 173.612 151.749 173.517 151.991C173.079 153.11 172.518 154.151 171.834 155.115C171.81 155.149 171.785 155.183 171.761 155.216C171.178 156.022 170.508 156.773 169.751 157.469C169.673 157.54 169.594 157.611 169.513 157.681C169.464 157.725 169.414 157.768 169.364 157.81C168.519 158.527 167.558 159.167 166.48 159.73C166.48 159.73 166.48 159.73 166.479 159.73C166.325 159.811 166.169 159.889 166.011 159.967C165.197 160.362 164.321 160.717 163.383 161.03C163.317 161.052 163.252 161.074 163.186 161.095C163.029 161.147 162.87 161.197 162.709 161.245C160.302 161.969 157.513 162.331 154.344 162.331H145.204C143.899 162.331 142.84 161.272 142.84 159.967V131.827C142.84 131.724 142.847 131.622 142.86 131.522C142.971 130.662 143.544 129.946 144.323 129.633C144.595 129.523 144.893 129.463 145.204 129.463H154.618ZM154.618 115.22C161.329 115.22 167.08 115.928 171.874 117.343C174.985 118.223 177.729 119.34 180.104 120.693C180.137 120.711 180.17 120.73 180.202 120.749C181.483 121.484 182.655 122.289 183.72 123.163C186.105 125.093 188.006 127.319 189.421 129.842C189.847 130.602 190.229 131.388 190.567 132.202C191.327 134.007 191.889 135.91 192.254 137.913C192.257 137.93 192.26 137.947 192.263 137.963C192.593 139.795 192.758 141.709 192.758 143.705C192.758 144.165 192.749 144.622 192.73 145.075C192.61 147.904 192.118 150.597 191.252 153.155C190.719 154.806 190.044 156.372 189.228 157.853C189.185 157.932 189.141 158.01 189.097 158.088C188.71 158.774 188.292 159.441 187.844 160.091C187.576 160.479 187.296 160.86 187.006 161.235C186.069 162.477 185.011 163.641 183.833 164.727C183.18 165.328 182.491 165.905 181.765 166.459C181.746 166.473 181.727 166.487 181.708 166.502C181.379 166.751 181.043 166.996 180.699 167.235C180.521 167.359 180.341 167.482 180.159 167.603C179.934 167.756 179.707 167.905 179.476 168.052C179.471 168.056 179.466 168.059 179.461 168.062C179.267 168.186 179.071 168.307 178.874 168.427C177.592 169.204 176.229 169.9 174.786 170.516C173.35 171.129 173.072 173.304 174.202 174.382C175.206 175.295 176.119 176.391 176.941 177.669L199.227 210.544C200.109 211.845 199.487 213.526 198.167 214.062C197.895 214.172 197.594 214.234 197.27 214.234H185.089C181.939 214.234 179.657 213.002 178.242 210.537L157.426 178.833C157.207 178.498 156.98 178.19 156.747 177.91C156.153 177.197 155.512 176.66 154.823 176.299C154.676 176.218 154.516 176.143 154.344 176.075C153.455 175.722 152.245 175.546 150.715 175.546H145.204C143.899 175.546 142.84 176.604 142.84 177.91V211.87C142.84 213.176 141.782 214.234 140.476 214.234H126.785C125.479 214.234 124.421 213.176 124.421 211.87V117.584C124.421 116.278 125.479 115.22 126.785 115.22H154.618ZM208.981 144.091C208.974 144.11 208.967 144.128 208.96 144.146C208.938 144.205 208.915 144.263 208.893 144.322C207.274 148.524 206.207 153.024 205.692 157.82C205.685 157.892 205.677 157.963 205.67 158.035C205.445 160.205 205.332 162.436 205.332 164.727C205.332 168.338 205.596 171.812 206.126 175.148C206.391 176.819 206.722 178.455 207.12 180.057C207.544 181.765 208.044 183.434 208.619 185.064C208.717 185.336 208.817 185.606 208.918 185.875C208.939 185.929 208.959 185.983 208.98 186.037C210.832 190.883 213.286 195.185 216.341 198.942C216.939 199.678 217.561 200.393 218.205 201.087C218.68 201.598 219.166 202.097 219.662 202.582C220.542 203.442 221.455 204.261 222.403 205.04C225.608 207.673 229.207 209.848 233.201 211.564C234.053 211.927 234.92 212.264 235.802 212.574C235.857 212.594 235.912 212.613 235.967 212.632C241.141 214.43 246.838 215.33 253.059 215.33C253.449 215.33 253.837 215.327 254.223 215.321C257.337 215.272 260.276 215.029 263.039 214.589C263.054 214.587 263.07 214.584 263.085 214.582C265.198 214.244 267.21 213.792 269.118 213.225C269.141 213.218 269.164 213.211 269.186 213.204C269.712 213.047 270.231 212.881 270.741 212.707C271.012 212.614 271.281 212.518 271.548 212.421C271.587 212.406 271.627 212.392 271.666 212.377C272.15 212.198 272.626 212.011 273.095 211.816C273.45 211.668 273.802 211.516 274.149 211.358C275.872 210.583 277.516 209.709 279.079 208.734C279.145 208.693 279.21 208.652 279.275 208.611C279.311 208.589 279.347 208.566 279.382 208.543C280.952 207.545 282.439 206.446 283.845 205.244C284.134 204.997 284.419 204.746 284.701 204.49C285.137 204.095 285.565 203.69 285.984 203.274C286.002 203.257 286.019 203.239 286.037 203.222C286.602 202.659 287.153 202.078 287.688 201.478C288.468 200.604 288.419 199.285 287.625 198.423L281.749 192.048C280.973 191.272 280.083 190.884 279.079 190.884C278.531 190.884 278.006 191.021 277.504 191.295C277.246 191.412 276.994 191.554 276.749 191.719C276.516 191.876 276.288 192.054 276.066 192.254C274.56 193.623 273.03 194.787 271.478 195.746C270.357 196.425 269.173 197.016 267.926 197.519C267.913 197.524 267.899 197.53 267.885 197.535C267.469 197.702 267.046 197.859 266.617 198.006C265.985 198.228 265.327 198.427 264.644 198.605C263.501 198.901 262.287 199.135 261.002 199.307C258.993 199.581 256.733 199.718 254.223 199.718C253.832 199.718 253.444 199.711 253.059 199.697C249.295 199.567 245.758 198.797 242.445 197.389C241.551 196.998 240.685 196.566 239.849 196.093C239.835 196.085 239.821 196.077 239.807 196.069C237.243 194.613 234.95 192.771 232.927 190.542C232.417 189.98 231.927 189.394 231.456 188.783C229.441 186.167 227.786 183.102 226.491 179.586C226.403 179.341 226.318 179.095 226.235 178.846C226.223 178.808 226.21 178.769 226.197 178.731C224.841 174.601 224.162 169.934 224.162 164.727C224.162 159.597 224.792 154.998 226.053 150.932C226.057 150.917 226.062 150.903 226.066 150.888C226.159 150.591 226.254 150.297 226.354 150.005C227.599 146.309 229.275 143.11 231.382 140.409C231.401 140.384 231.42 140.36 231.439 140.336C231.787 139.893 232.146 139.465 232.516 139.049C234.812 136.437 237.485 134.374 240.536 132.86C240.567 132.844 240.599 132.828 240.63 132.813C241.068 132.598 241.513 132.394 241.966 132.202C245.663 130.604 249.726 129.805 254.154 129.805C254.177 129.805 254.2 129.805 254.223 129.805C256.796 129.809 259.056 130.014 261.002 130.421C261.936 130.591 262.815 130.786 263.641 131.005C264.59 131.257 265.468 131.542 266.274 131.859C266.592 131.975 266.901 132.093 267.203 132.215C267.217 132.221 267.231 132.227 267.246 132.232C268.356 132.683 269.357 133.175 270.246 133.708C271.387 134.393 272.391 135.032 273.259 135.625C274.126 136.173 274.925 136.653 275.655 137.063C275.759 137.116 275.863 137.164 275.966 137.208C276.587 137.477 277.191 137.611 277.778 137.611C278.782 137.611 279.558 137.406 280.106 136.995C280.7 136.584 281.179 136.105 281.544 135.557L286.518 128.649C287.201 127.7 287.093 126.388 286.217 125.613C285.313 124.814 284.369 124.051 283.385 123.322C283.177 123.167 282.967 123.015 282.755 122.864C282.584 122.742 282.412 122.621 282.239 122.501C282.079 122.39 281.918 122.28 281.756 122.172C280.681 121.449 279.563 120.764 278.4 120.118C278.194 120.003 277.987 119.89 277.778 119.778C276.379 119.027 274.918 118.329 273.396 117.685C272.959 117.499 272.517 117.32 272.069 117.148C271.939 117.098 271.809 117.049 271.678 117C270.859 116.696 270.024 116.416 269.172 116.16C269.136 116.149 269.099 116.138 269.063 116.127C268.338 115.911 267.602 115.713 266.853 115.532C266.847 115.531 266.841 115.529 266.835 115.528C265.984 115.322 265.116 115.14 264.234 114.979C264.097 114.955 263.96 114.93 263.823 114.907C260.803 114.385 257.603 114.125 254.223 114.125C254.2 114.125 254.177 114.125 254.154 114.125C247.443 114.132 241.279 115.214 235.662 117.37C235.632 117.381 235.602 117.393 235.572 117.404C235.167 117.561 234.765 117.723 234.365 117.891C228.722 120.217 223.811 123.437 219.631 127.552C219.6 127.582 219.569 127.613 219.538 127.644C219.32 127.86 219.104 128.078 218.89 128.299C217.605 129.638 216.406 131.055 215.294 132.55C212.813 135.882 210.759 139.601 209.133 143.705C209.082 143.834 209.031 143.962 208.981 144.091ZM277.778 122.356L280.432 124.267ZM105.733 214.234C107.039 214.234 108.097 213.176 108.097 211.87V201.876C108.097 200.571 107.039 199.512 105.733 199.512H66.5005C65.8152 199.512 65.198 199.22 64.7662 198.755C64.6863 198.668 64.6129 198.576 64.5465 198.479C64.2878 198.1 64.1365 197.642 64.1365 197.148V173.87C64.1365 172.565 65.1949 171.506 66.5005 171.506H96.4206C97.7262 171.506 98.7846 170.448 98.7846 169.142V159.696C98.7846 158.39 97.7262 157.332 96.4206 157.332H66.5005C65.1949 157.332 64.1365 156.273 64.1365 154.968V132.238C64.1365 131.848 64.2307 131.481 64.3974 131.157C64.5396 130.881 64.7346 130.636 64.9691 130.437C65.3816 130.086 65.9163 129.874 66.5005 129.874H105.733C107.039 129.874 108.097 128.815 108.097 127.51V117.584C108.097 116.278 107.039 115.22 105.733 115.22H48.0124C46.7068 115.22 45.6484 116.278 45.6484 117.584V211.87C45.6484 213.176 46.7068 214.234 48.0124 214.234H105.733Z" fill="url(#paint0_linear)"/>
<defs>
<linearGradient id="paint0_linear" x1="63.1156" y1="150.457" x2="140.562" y2="319.495" gradientUnits="userSpaceOnUse">
<stop stop-color="white"/>
<stop offset="0.326" stop-color="#888888"/>
<stop offset="0.552" stop-color="#636363"/>
<stop offset="1" stop-color="#161616"/>
</linearGradient>
</defs>
</svg>
