<svg width="17" height="11" viewBox="0 0 17 11" version="1.1" xmlns="http://www.w3.org/2000/svg" xmlns:xlink="http://www.w3.org/1999/xlink">
<title>logo</title>
<desc>Created using Figma</desc>
<g id="Canvas" transform="translate(2457 -257)">
<g id="logo">
<g id="Group">
<g id="Vector">
<use xlink:href="#path0_fill" transform="translate(-2451.49 265.033)" fill="#718EA8" fill-opacity="0.2"/>
</g>
</g>
<g id="Subtract">
<use xlink:href="#path1_fill" transform="translate(-2457 260.587)" fill="#718EA8"/>
</g>
<g id="Vector">
<use xlink:href="#path2_fill" transform="translate(-2452.21 257)" fill="#718EA8"/>
</g>
</g>
</g>
<defs>
<path id="path0_fill" d="M 2.87324 0C 1.28639 0 0 1.13137 0 2.52698L 5.74648 2.52698C 5.74648 1.13137 4.46008 0 2.87324 0Z"/>
<path id="path1_fill" fill-rule="evenodd" d="M 17 7.41304L 17 0L 0 0L 0 7.41304L 17 7.41304ZM 16.521 6.93478L 16.521 0.47826L 0.47876 0.47826L 0.47876 6.93478L 16.521 6.93478Z"/>
<path id="path2_fill" d="M 3.59155 7.17391C 5.57511 7.17391 7.1831 5.56798 7.1831 3.58696C 7.1831 1.60594 5.57511 0 3.59155 0C 1.60799 0 0 1.60594 0 3.58696C 0 5.56798 1.60799 7.17391 3.59155 7.17391Z"/>
</defs>
</svg>
