<svg xmlns="http://www.w3.org/2000/svg" viewBox="0 0 22 22">
  <defs>
    <style>
      .cls-1 {
        fill: #c9c9c9;
      }
    </style>
  </defs>
  <g id="Group_2088" data-name="Group 2088" transform="translate(-0.025 0.015)">
    <path id="Path_5681" data-name="Path 5681" class="cls-1" d="M3.312,8.855C2.441,8.619,1.6,8.393.7,8.152A10.865,10.865,0,0,1,8.536.39c4.033-1.08,7.579.047,10.657,2.853.047-.5.089-.976.131-1.453.016-.189.031-.383.052-.572a.773.773,0,0,1,.787-.7,11.125,11.125,0,0,1,1.253.11.78.78,0,0,1,.629.871c-.084,1.044-.184,2.087-.273,3.131-.1,1.112-.2,2.229-.294,3.341-.031.393-.089.451-.483.42q-3.163-.267-6.32-.545c-.713-.063-.949-.346-.907-1.059.016-.278.037-.556.068-.834a.829.829,0,0,1,.991-.792q1.3.126,2.612.2A8.206,8.206,0,0,0,10.953,2.7a8,8,0,0,0-4.815,1.83A8.374,8.374,0,0,0,3.312,8.855Z" transform="translate(-0.639 0)"/>
    <path id="Path_5682" data-name="Path 5682" class="cls-1" d="M18.8,251.4c.839.226,1.684.451,2.565.692a10.755,10.755,0,0,1-6.357,7.259c-4.495,1.841-8.523.839-12.126-2.329-.026.246-.052.5-.079.755-.037.4-.068.8-.1,1.2a.777.777,0,0,1-.844.745c-.367-.016-.734-.052-1.1-.094a.786.786,0,0,1-.729-.886c.084-1.044.184-2.087.273-3.131q.149-1.684.294-3.367c.031-.351.1-.42.456-.388q3.17.267,6.346.545c.713.063.949.351.907,1.059-.016.278-.037.556-.068.834a.827.827,0,0,1-.991.792c-.865-.084-1.736-.152-2.612-.2a8,8,0,0,0,6.535,2.643C15.066,257.237,17.525,255.056,18.8,251.4Z" transform="translate(0 -238.229)"/>
  </g>
</svg>
