<svg xmlns="http://www.w3.org/2000/svg" xmlns:xlink="http://www.w3.org/1999/xlink" viewBox="0 0 230.685 150.29">
  <defs>
    <style>
      .cls-1, .cls-5 {
        fill: #484848;
      }

      .cls-2 {
        fill: rgba(1,1,1,0.82);
      }

      .cls-2, .cls-3 {
        opacity: 0.42;
      }

      .cls-4, .cls-8, .cls-9 {
        fill: #fff;
      }

      .cls-4 {
        font-size: 10px;
      }

      .cls-4, .cls-5, .cls-8 {
        font-family: SegoeUI, Segoe UI;
      }

      .cls-4, .cls-8 {
        opacity: 0.65;
      }

      .cls-5 {
        font-size: 22px;
      }

      .cls-6 {
        opacity: 0.91;
      }

      .cls-7 {
        clip-path: url(#clip-path);
      }

      .cls-8 {
        font-size: 21px;
      }

      .cls-9 {
        opacity: 0.6;
      }
    </style>
    <clipPath id="clip-path">
      <circle id="Mask" class="cls-1" cx="30" cy="30" r="30"/>
    </clipPath>
  </defs>
  <g id="Group_1954" data-name="Group 1954" transform="translate(-803.003 -1014)">
    <g id="Group_1947" data-name="Group 1947">
      <rect id="Rectangle_1667" data-name="Rectangle 1667" class="cls-2" width="230" height="150" transform="translate(803.003 1014)"/>
      <g id="Group_1941" data-name="Group 1941" class="cls-3" transform="translate(-26 566)">
        <text id="USD" class="cls-4" transform="translate(1019.79 580.021)"><tspan x="0" y="0">USD</tspan></text>
        <text id="XRP" class="cls-5" transform="translate(848.979 499.243)"><tspan x="0" y="0">XRP</tspan></text>
        <g id="BCC" class="cls-6" transform="translate(980.74 462.54)">
          <g id="Shape">
            <circle id="Mask-2" data-name="Mask" class="cls-1" cx="30" cy="30" r="30"/>
          </g>
        </g>
        <text id="Ripple" class="cls-8" transform="translate(848.979 556.243)"><tspan x="0" y="0">Ripple</tspan></text>
        <path id="Shape-3" data-name="Shape" class="cls-9" d="M27.882,19.964a10.317,10.317,0,0,0-2.807-.366,2.519,2.519,0,0,1-2.323-1.007l-.29-.366a2.24,2.24,0,0,1,0-2.655l.29-.458a2.621,2.621,0,0,1,2.129-1.007,6.781,6.781,0,0,0,3.194-.732,7.129,7.129,0,0,0,4.259-6.5A7.289,7.289,0,0,0,24.495.008a7.371,7.371,0,0,0-6.969,6.316,7.042,7.042,0,0,0,1.355,4.852,2.382,2.382,0,0,1,0,2.746l-.1.092a2.571,2.571,0,0,1-2.033,1.007h-.484a2.455,2.455,0,0,1-2.226-1.373A7.431,7.431,0,0,0,7.17,9.8,7.215,7.215,0,0,0,.008,16.577,7.193,7.193,0,0,0,7.46,23.9a7.312,7.312,0,0,0,6.582-3.845,2.455,2.455,0,0,1,2.226-1.373h.387a2.317,2.317,0,0,1,2.033,1.007l.484.641a2.112,2.112,0,0,1,0,2.472A6.287,6.287,0,0,0,18.107,27.2a7.311,7.311,0,0,0,6.581,6.316,7.316,7.316,0,0,0,8.227-7.69A6.853,6.853,0,0,0,27.882,19.964Z" transform="translate(993.177 475.296)"/>
      </g>
    </g>
  </g>
</svg>
