<svg xmlns="http://www.w3.org/2000/svg" xmlns:xlink="http://www.w3.org/1999/xlink" viewBox="0 0 59.968 59.969">
  <defs>
    <style>
      .cls-1 {
        opacity: 0.8;
        fill: url(#linear-gradient);
      }

      .cls-2 {
        fill: rgba(222,222,222,0.31);
      }
    </style>
    <linearGradient id="linear-gradient" x1="0.201" x2="0.827" y2="0.914" gradientUnits="objectBoundingBox">
      <stop offset="0" stop-color="#00cca3"/>
      <stop offset="0" stop-color="#fff"/>
      <stop offset="1" stop-color="#848484"/>
    </linearGradient>
  </defs>
  <g id="Group_1940" data-name="Group 1940" transform="translate(-380.003 -543.515)">
    <path id="Subtraction_83" data-name="Subtraction 83" class="cls-1" d="M29.984,59.969A29.843,29.843,0,0,1,13.22,54.848,30.07,30.07,0,0,1,2.356,41.655,29.945,29.945,0,0,1,5.121,13.22,30.074,30.074,0,0,1,18.313,2.356,29.944,29.944,0,0,1,46.749,5.121,30.07,30.07,0,0,1,57.612,18.313a29.946,29.946,0,0,1-2.764,28.436A30.074,30.074,0,0,1,41.655,57.612,29.8,29.8,0,0,1,29.984,59.969Zm0-58.619A28.634,28.634,0,1,0,58.618,29.984,28.667,28.667,0,0,0,29.984,1.35Z" transform="translate(380.003 543.515)"/>
    <g id="Group_1316" data-name="Group 1316" transform="translate(395.729 554.516)">
      <path id="Path_5433" data-name="Path 5433" class="cls-2" d="M28.908,18.2l-1.449-.483a9.363,9.363,0,0,0-1.449-.322V12.965A1.406,1.406,0,0,0,25.687,12a1.293,1.293,0,0,0-.886-.4,9.745,9.745,0,0,0-1.53-.081H18.923a1.481,1.481,0,0,1-1.53-1.53V4.993a3.767,3.767,0,0,0-.161-1.369c-.161-.322-.322-.644-.725-.725H5.878A2.951,2.951,0,0,0,3.06,4.912,2.9,2.9,0,0,0,2.9,5.8v26.01a2.8,2.8,0,0,0,2.5,2.818h9.019c.161,0,.161,0,.242.161a11.249,11.249,0,0,0,2.174,2.657H5.8a5.834,5.834,0,0,1-4.348-2.013,5.574,5.574,0,0,1-1.369-3.14v-.483C0,23.111,0,14.414,0,5.637a5.61,5.61,0,0,1,1.449-3.7A5.931,5.931,0,0,1,4.429.161,7.048,7.048,0,0,1,5.717,0H17.232a3.261,3.261,0,0,1,1.691.564,19.6,19.6,0,0,1,2.013,1.611c.805.805,1.61,1.53,2.416,2.335l2.979,2.979A13.8,13.8,0,0,1,28.1,9.5a3.682,3.682,0,0,1,.725,1.611v6.925C28.908,18.118,28.908,18.118,28.908,18.2Z"/>
      <path id="Path_5434" data-name="Path 5434" class="cls-2" d="M37.013,33.8a8.592,8.592,0,0,1-8.7,8.616,8.7,8.7,0,0,1-8.616-8.7,8.657,8.657,0,1,1,17.313.081Zm-7.167-1.449V28h-2.9v4.348H22.6v2.9h4.348v4.348h2.9V35.246h4.348v-2.9Z" transform="translate(-3.837 -4.888)"/>
      <path id="Path_5435" data-name="Path 5435" class="cls-2" d="M15.675,17.881h7.247a1.409,1.409,0,0,1,1.449,1.047A1.385,1.385,0,0,1,23.083,20.7H8.589a2.229,2.229,0,0,1-.725-.081A1.437,1.437,0,0,1,6.9,19.169,1.537,1.537,0,0,1,8.186,17.8h.161C10.843,17.881,13.259,17.881,15.675,17.881Z" transform="translate(-1.341 -3.467)"/>
      <path id="Path_5436" data-name="Path 5436" class="cls-2" d="M18.311,25.1c-.161.081-.242.242-.322.322a9.467,9.467,0,0,0-1.933,2.5c-.081.081-.081.081-.161.081H8.648A1.426,1.426,0,0,1,7.2,26.63,1.474,1.474,0,0,1,8.406,25.1h9.9Z" transform="translate(-1.4 -4.888)"/>
      <path id="Path_5437" data-name="Path 5437" class="cls-2" d="M14.347,35.2h-5.8a1.449,1.449,0,0,1,0-2.9h6.2A11.45,11.45,0,0,0,14.347,35.2Z" transform="translate(-1.383 -6.29)"/>
    </g>
  </g>
</svg>
