<svg width="101" height="10" viewBox="0 0 101 10" version="1.1" xmlns="http://www.w3.org/2000/svg" xmlns:xlink="http://www.w3.org/1999/xlink">
<title>Group 4</title>
<desc>Created using Figma</desc>
<g id="Canvas" transform="translate(-4832 504)">
<g id="Group 4">
<g id="Rectangle 2">
<use xlink:href="#path0_fill" transform="translate(4832 -499)" fill="#718EA8"/>
</g>
<g id="Union">
<use xlink:href="#path1_fill" transform="translate(4923 -504)" fill="#718EA8"/>
</g>
<g id="Subtract">
<use xlink:href="#path2_fill" transform="translate(4877 -504)" fill="#718EA8"/>
</g>
</g>
</g>
<defs>
<path id="path0_fill" d="M 0 0L 10 0L 10 1L 0 1L 0 0Z"/>
<path id="path1_fill" fill-rule="evenodd" d="M 4.28564 5L 0 9.28574L 0.714355 10L 5 5.71436L 9.28564 10L 10 9.28574L 5.71436 5L 10 0.714294L 9.28564 0L 5 4.28568L 0.714355 0L 0 0.714294L 4.28564 5Z"/>
<path id="path2_fill" fill-rule="evenodd" d="M 10 0L 0 0L 0 10L 10 10L 10 0ZM 9 1L 1 1L 1 9L 9 9L 9 1Z"/>
</defs>
</svg>
