<svg width="15" height="14" viewBox="0 0 15 14" version="1.1" xmlns="http://www.w3.org/2000/svg" xmlns:xlink="http://www.w3.org/1999/xlink">
<title>i_update</title>
<desc>Created using Figma</desc>
<g id="Canvas" transform="translate(-3676 461)">
<g id="i_update">
<g id="Subtract">
<use xlink:href="#path0_fill" transform="translate(3676.44 -460.562)" fill="#7EAEE5"/>
</g>
<g id="Vector">
<use xlink:href="#path1_stroke" transform="translate(3687.14 -455.688)" fill="#7EAEE5"/>
</g>
</g>
</g>
<defs>
<path id="path0_fill" fill-rule="evenodd" d="M 10.1129 10.5901C 9.14464 11.467 7.86382 12 6.46154 12C 3.4508 12 1 9.54318 1 6.5C 1 3.45682 3.4508 1 6.46154 1C 9.34911 1 11.7216 3.25992 11.9109 6.12961L 12.9026 5.97906C 12.6388 2.63278 9.85583 0 6.46154 0C 2.89293 0 0 2.91016 0 6.5C 0 10.0898 2.89293 13 6.46154 13C 8.33652 13 10.025 12.1966 11.2053 10.9134L 10.1129 10.5901Z"/>
<path id="path1_stroke" d="M 1.64706 1.625L 1.2959 1.98093L 1.64706 2.32739L 1.99822 1.98093L 1.64706 1.625ZM -0.351162 0.355929L 1.2959 1.98093L 1.99822 1.26907L 0.351162 -0.355929L -0.351162 0.355929ZM 1.99822 1.98093L 3.64528 0.355929L 2.94296 -0.355929L 1.2959 1.26907L 1.99822 1.98093Z"/>
</defs>
</svg>
