<svg xmlns="http://www.w3.org/2000/svg" xmlns:xlink="http://www.w3.org/1999/xlink" viewBox="0 0 42 42">
  <defs>
    <style>
      .cls-1 {
        opacity: 0.8;
        fill: url(#linear-gradient);
      }
    </style>
    <linearGradient id="linear-gradient" x1="0.174" y1="0.076" x2="0.811" y2="0.884" gradientUnits="objectBoundingBox">
      <stop offset="0" stop-color="#fff"/>
      <stop offset="1" stop-color="#363636"/>
    </linearGradient>
  </defs>
  <path id="Subtraction_126" data-name="Subtraction 126" class="cls-1" d="M14381,42a21.005,21.005,0,0,1-8.173-40.349,21.005,21.005,0,0,1,16.347,38.7A20.868,20.868,0,0,1,14381,42Zm0-36.184a15.179,15.179,0,0,0-10.731,25.912A15.179,15.179,0,1,0,14381,5.816Zm0,28.518A13.339,13.339,0,1,1,14394.34,21,13.352,13.352,0,0,1,14381,34.333Zm-2.032-13.445a.235.235,0,0,1,.146.043c.124.128.078.335.041.5l-.009.041c-.1.452-.214.909-.309,1.3-.206.859-.42,1.746-.6,2.656-.237,1.108-.441,2.234-.607,3.347a1.235,1.235,0,0,0,.91,1.522,6.015,6.015,0,0,0,.777.033,8.651,8.651,0,0,0,4.128-2.06c.3-.229.593-.485.871-.733.207-.184.441-.392.683-.587-.062-.079-.118-.154-.172-.225l-.061-.08c-.134-.179-.237-.315-.342-.439-.149.084-.3.168-.444.252-.388.221-.754.43-1.146.626-.058.022-.118.05-.182.08l0,0a1.2,1.2,0,0,1-.464.147.326.326,0,0,1-.2-.059c-.212-.183-.124-.555-.054-.855.006-.024.011-.046.016-.067l.006-.025c.265-1.057.544-2.112.814-3.132l.02-.074c.208-.782.372-1.407.518-1.967a12.064,12.064,0,0,0,.308-2.2c0-.735-.34-1.123-.983-1.123a2.143,2.143,0,0,0-.4.042,12.226,12.226,0,0,0-4.229,1.894c-.365.23-.726.5-1.074.759l-.04.03c-.253.189-.515.384-.779.563a4.569,4.569,0,0,1,.44.813c.74-.355,1.361-.647,2.028-.914l.015-.006A1.129,1.129,0,0,1,14378.967,20.888Zm3.745-9.912a1.435,1.435,0,0,0-.217.015,2.834,2.834,0,0,0-1.048.437,2.393,2.393,0,0,0-.983,2.74,1.7,1.7,0,0,0,1.8,1.124c.076,0,.16,0,.234-.007a2.438,2.438,0,0,0,2.3-2.606,1.656,1.656,0,0,0-1.554-1.655A4.025,4.025,0,0,0,14382.712,10.976Z" transform="translate(-14359.999)"/>
</svg>
