<svg xmlns="http://www.w3.org/2000/svg" xmlns:xlink="http://www.w3.org/1999/xlink" viewBox="0 0 41.999 42">
  <defs>
    <style>
      .cls-1 {
        fill: rgba(0,0,0,0.66);
        opacity: 0.39;
      }

      .cls-2 {
        opacity: 0.81;
        fill: url(#linear-gradient);
      }
    </style>
    <linearGradient id="linear-gradient" x1="0.295" y1="0.275" x2="1.589" y2="1.41" gradientUnits="objectBoundingBox">
      <stop offset="0" stop-color="#fff"/>
      <stop offset="0.326" stop-color="#888"/>
      <stop offset="0.552" stop-color="#636363"/>
      <stop offset="1" stop-color="#616161"/>
    </linearGradient>
  </defs>
  <g id="Group_1933" data-name="Group 1933" transform="translate(-20.001 -570.538)">
    <circle id="Ellipse_2126" data-name="Ellipse 2126" class="cls-1" cx="21" cy="21" r="21" transform="translate(20 570.538)"/>
    <path id="Intersection_3" data-name="Intersection 3" class="cls-2" d="M10.266,32.167A15.179,15.179,0,1,1,21,36.613,15.079,15.079,0,0,1,10.266,32.167ZM7.66,21.434A13.34,13.34,0,1,0,21,8.095,13.355,13.355,0,0,0,7.66,21.434Z" transform="translate(20.001 570.104)"/>
    <path id="Intersection_4" data-name="Intersection 4" class="cls-2" d="M18.537,30.739a1.234,1.234,0,0,1-.913-1.522q.254-1.674.608-3.348c.271-1.353.608-2.638.913-3.956.033-.169.1-.406-.034-.541-.135-.1-.372,0-.541.067-.677.27-1.319.575-2.03.913a4.922,4.922,0,0,0-.439-.811c.643-.44,1.251-.948,1.894-1.353a12.217,12.217,0,0,1,4.227-1.895c.879-.169,1.387.169,1.387,1.083a11.892,11.892,0,0,1-.305,2.2c-.439,1.691-.913,3.416-1.353,5.174-.068.3-.2.744.034.947.237.169.575-.068.845-.169.542-.27,1.049-.574,1.589-.879.169.2.338.44.575.744-.541.439-1.014.913-1.555,1.319a8.529,8.529,0,0,1-4.126,2.063A5.828,5.828,0,0,1,18.537,30.739Z" transform="translate(20.001 570.104)"/>
    <path id="Intersection_5" data-name="Intersection 5" class="cls-2" d="M18.465,14.608a2.392,2.392,0,0,1,.981-2.74,2.884,2.884,0,0,1,1.048-.439,2.757,2.757,0,0,1,.744.033,1.664,1.664,0,0,1,1.555,1.657,2.438,2.438,0,0,1-2.3,2.6q-.12.008-.235.008A1.689,1.689,0,0,1,18.465,14.608Z" transform="translate(22.001 570.104)"/>
  </g>
</svg>
