<svg xmlns="http://www.w3.org/2000/svg" xmlns:xlink="http://www.w3.org/1999/xlink" viewBox="0 0 42 42">
  <defs>
    <style>
      .cls-1 {
        opacity: 0.8;
        fill: url(#linear-gradient);
      }
    </style>
    <linearGradient id="linear-gradient" x1="0.174" y1="0.076" x2="0.811" y2="0.884" gradientUnits="objectBoundingBox">
      <stop offset="0" stop-color="#fff"/>
      <stop offset="1" stop-color="#363636"/>
    </linearGradient>
  </defs>
  <path id="Subtraction_127" data-name="Subtraction 127" class="cls-1" d="M14381,42a21.005,21.005,0,0,1-8.173-40.349,21.005,21.005,0,0,1,16.347,38.7A20.868,20.868,0,0,1,14381,42Zm-6.737-11.975h0a11.045,11.045,0,0,0,3.566,1.583l.488,2.92a1.272,1.272,0,0,0,1.261,1.073h1.742a1.276,1.276,0,0,0,1.266-1.073l.487-2.92a10.916,10.916,0,0,0,3.051-1.265l2.465,1.757a1.262,1.262,0,0,0,.741.239,1.3,1.3,0,0,0,.911-.376l1.236-1.236a1.281,1.281,0,0,0,.137-1.655l-1.749-2.454a10.946,10.946,0,0,0,1.272-3.072l2.9-.488a1.293,1.293,0,0,0,1.077-1.261V20.049a1.268,1.268,0,0,0-1.06-1.251l-2.906-.484a10.942,10.942,0,0,0-.921-2.461l1.857-2.313a1.29,1.29,0,0,0-.036-1.663l-1.156-1.3a1.279,1.279,0,0,0-1.642-.231l-2.482,1.561a11,11,0,0,0-3.669-1.655l-.488-2.92a1.3,1.3,0,0,0-1.275-1.066h-1.746a1.281,1.281,0,0,0-1.265,1.073l-.484,2.92a10.768,10.768,0,0,0-3.091,1.287l-2.36-1.7a1.261,1.261,0,0,0-.74-.235,1.285,1.285,0,0,0-.915.376l-1.229,1.233a1.29,1.29,0,0,0-.138,1.659l1.7,2.367a10.886,10.886,0,0,0-1.272,3.065l-2.941.5a1.276,1.276,0,0,0-1.074,1.254v1.746a1.273,1.273,0,0,0,1.074,1.261l2.941.5a11.174,11.174,0,0,0,.973,2.555l-1.858,2.3a1.29,1.29,0,0,0,.036,1.655l1.153,1.3a1.3,1.3,0,0,0,.958.43,1.287,1.287,0,0,0,.687-.2l2.519-1.583Zm6.246-1.243a7.814,7.814,0,1,1,7.811-7.814A7.823,7.823,0,0,1,14380.508,28.782Zm0-13.33a5.516,5.516,0,1,0,5.512,5.516A5.522,5.522,0,0,0,14380.508,15.452Zm0,8.172a2.658,2.658,0,1,1,2.656-2.657A2.662,2.662,0,0,1,14380.508,23.624Z" transform="translate(-14359.999)"/>
</svg>
