<svg xmlns="http://www.w3.org/2000/svg" xmlns:xlink="http://www.w3.org/1999/xlink" viewBox="0 0 41.999 42">
  <defs>
    <style>
      .cls-1 {
        fill: rgba(0,0,0,0.66);
        opacity: 0.39;
      }

      .cls-2 {
        opacity: 0.81;
        fill: url(#linear-gradient);
      }
    </style>
    <linearGradient id="linear-gradient" x1="0.618" y1="0.26" x2="1" y2="1" gradientUnits="objectBoundingBox">
      <stop offset="0" stop-color="#fff"/>
      <stop offset="0.326" stop-color="#888"/>
      <stop offset="0.552" stop-color="#636363"/>
      <stop offset="1" stop-color="#616161"/>
    </linearGradient>
  </defs>
  <g id="Group_1931" data-name="Group 1931" transform="translate(-20.001 -337.541)">
    <circle id="Ellipse_2125" data-name="Ellipse 2125" class="cls-1" cx="21" cy="21" r="21" transform="translate(20 337.541)"/>
    <path id="Intersection_2" data-name="Intersection 2" class="cls-2" d="M17.949,34.149A13.608,13.608,0,0,1,8.73,27.243a12.75,12.75,0,0,1-1.563-5.09c-.014-.164-.028-.331-.047-.495,0-.009,0-.014-.014-.037H4.736c1.3-2.165,2.589-4.307,3.886-6.467,1.3,2.155,2.585,4.3,3.882,6.457H10c0,.07,0,.126,0,.183a10.555,10.555,0,0,0,5.51,8.411,10.873,10.873,0,0,0,12.434-1.287A10.57,10.57,0,0,0,31.522,22.8a10.52,10.52,0,0,0-2.642-9.4,10.621,10.621,0,0,0-5.542-3.3,10.05,10.05,0,0,0-2.076-.271,3.983,3.983,0,0,1-.63-.06,1.112,1.112,0,0,1-.97-1.017,1.679,1.679,0,0,1,.131-1.055,1.279,1.279,0,0,1,1.218-.737A13.749,13.749,0,0,1,34.5,19.9c0,.07.014.14.023.205,0,.4,0,.793,0,1.194-.023.248-.042.5-.065.737A13.807,13.807,0,0,1,24.583,33.92a14.172,14.172,0,0,1-2.113.434,1.112,1.112,0,0,1-.173,0c-.812,0-1.624-.014-2.431,0l-.145,0A7.879,7.879,0,0,1,17.949,34.149ZM20,28.494a.859.859,0,1,1,.859.859A.856.856,0,0,1,20,28.494Zm5.687-2.683a.856.856,0,1,1,.859.859A.855.855,0,0,1,25.684,25.811Zm-9.541.481a1.348,1.348,0,0,1-.019-1.918q1.694-1.7,3.4-3.391a.4.4,0,0,0,.126-.313q-.007-3.484,0-6.975a1.18,1.18,0,0,1,.709-1.181,1.348,1.348,0,0,1,1.937.859,1.318,1.318,0,0,1,.032.331q.007,1.912,0,3.831c0,1.24-.009,2.481,0,3.722a1.5,1.5,0,0,1-.471,1.143c-1.288,1.283-2.567,2.567-3.854,3.849a1.376,1.376,0,0,1-.969.407A1.272,1.272,0,0,1,16.143,26.292ZM27.6,20.74a.856.856,0,1,1,.854.863A.85.85,0,0,1,27.6,20.74Zm-1.064-4.39a.863.863,0,1,1,.009,0Z" transform="translate(20.001 338.104)"/>
  </g>
</svg>
