<svg xmlns="http://www.w3.org/2000/svg" xmlns:xlink="http://www.w3.org/1999/xlink" viewBox="0 0 59.968 59.969">
  <defs>
    <style>
      .cls-1 {
        opacity: 0.8;
        fill: url(#linear-gradient);
      }

      .cls-2 {
        fill: rgba(222,222,222,0.31);
      }
    </style>
    <linearGradient id="linear-gradient" x1="0.201" x2="0.827" y2="0.914" gradientUnits="objectBoundingBox">
      <stop offset="0" stop-color="#00cca3"/>
      <stop offset="0" stop-color="#fff"/>
      <stop offset="1" stop-color="#848484"/>
    </linearGradient>
  </defs>
  <g id="Group_1941" data-name="Group 1941" transform="translate(-472.013 -543.515)">
    <path id="Subtraction_84" data-name="Subtraction 84" class="cls-1" d="M29.984,59.969A29.843,29.843,0,0,1,13.22,54.848,30.07,30.07,0,0,1,2.356,41.655,29.945,29.945,0,0,1,5.121,13.22,30.074,30.074,0,0,1,18.313,2.356,29.944,29.944,0,0,1,46.749,5.121,30.07,30.07,0,0,1,57.612,18.313a29.946,29.946,0,0,1-2.764,28.436A30.074,30.074,0,0,1,41.655,57.612,29.8,29.8,0,0,1,29.984,59.969Zm0-58.619A28.634,28.634,0,1,0,58.618,29.984,28.667,28.667,0,0,0,29.984,1.35Z" transform="translate(472.013 543.515)"/>
    <g id="Group_1317" data-name="Group 1317" transform="translate(483.058 554.516)">
      <path id="Path_5438" data-name="Path 5438" class="cls-2" d="M9.56,0H28.853a.727.727,0,0,0,.209.139A4.4,4.4,0,0,1,32.521,4.71v7.144c.608,0,1.1-.017,1.6,0a4.263,4.263,0,0,1,4.328,4.1c.087,3.181.087,6.379,0,9.56a4.256,4.256,0,0,1-4.276,4.067c-.539.017-1.078,0-1.651,0v4.224a4.366,4.366,0,0,1-4.658,4.676q-8.6.026-17.208,0A4.4,4.4,0,0,1,5.91,33.72V29.653a16.153,16.153,0,0,1-2.52-.191A4.539,4.539,0,0,1,0,25.9V15.643c.782-3.059,2.972-4.015,5.892-3.789V4.8a5.5,5.5,0,0,1,.087-1.2A4.711,4.711,0,0,1,9.56,0ZM29.548,22.283H8.847V33.807c0,1.234.539,1.773,1.825,1.773H27.706c1.373,0,1.877-.521,1.877-1.895V23C29.583,22.77,29.566,22.544,29.548,22.283Zm.035-10.464V4.693c0-1.234-.521-1.738-1.738-1.738H10.55c-1.165,0-1.686.521-1.686,1.7-.017,2.207,0,4.4,0,6.6,0,.191.052.382.07.574C15.817,11.819,22.648,11.819,29.583,11.819Zm2.225,7.457a2.243,2.243,0,0,0,.087-4.484,2.243,2.243,0,1,0-.087,4.484Z"/>
      <path id="Path_5439" data-name="Path 5439" class="cls-2" d="M83.27,145.3v2.851H68.6V145.3Z" transform="translate(-56.676 -120.045)"/>
      <path id="Path_5440" data-name="Path 5440" class="cls-2" d="M68.5,173.781V171H78.738v2.781Z" transform="translate(-56.594 -141.278)"/>
    </g>
  </g>
</svg>
